<?xml version="1.0" encoding="UTF-8" standalone="no"?>
<!DOCTYPE svg PUBLIC "-//W3C//DTD SVG 1.1//EN" "http://www.w3.org/Graphics/SVG/1.1/DTD/svg11.dtd">
<svg version="1.1" xmlns="http://www.w3.org/2000/svg" xmlns:xlink="http://www.w3.org/1999/xlink" preserveAspectRatio="xMidYMid meet" viewBox="0 0 195 201" width="195" height="201"><defs><path d="M159.95 372L322.82 279.92L322.82 95.76L159.95 3.68L-2.92 95.76L-2.92 279.92L159.95 372Z" id="e1z6gx0pT5"></path><path d="M159.95 372L322.82 279.92L322.82 95.76L159.95 3.68L-2.92 95.76L-2.92 279.92L159.95 372Z" id="c30Ppxkq2Y"></path><path d="M159.95 372L322.82 279.92L322.82 95.76L159.95 3.68L-2.92 95.76L-2.92 279.92L159.95 372Z" id="k7ZhMmMN9u"></path><path d="M159.95 372L322.82 279.92L322.82 95.76L159.95 3.68L-2.92 95.76L-2.92 279.92L159.95 372Z" id="c2wQihjaYb"></path><path d="M159.95 372L322.82 279.92L322.82 95.76L159.95 3.68L-2.92 95.76L-2.92 279.92L159.95 372Z" id="aDYHFQjWS"></path><path d="M159.95 372L322.82 279.92L322.82 95.76L159.95 3.68L-2.92 95.76L-2.92 279.92L159.95 372Z" id="c1dccIFfRT"></path><path d="M98.23 201L193.4 151.21L193.4 51.64L98.23 1.86L3.06 51.64L3.06 151.21L98.23 201Z" id="g2WXAeBmg6"></path><path d="M97.5 201L192.67 151.21L192.67 51.64L97.5 1.86L2.33 51.64L2.33 151.21L97.5 201Z" id="g8FJRPKYS"></path><path d="M100.92 31.04L102.32 31.18L103.71 31.38L105.08 31.63L106.42 31.93L107.75 32.29L109.06 32.69L110.34 33.15L111.6 33.65L112.83 34.2L114.04 34.8L115.22 35.44L116.37 36.12L117.49 36.85L118.59 37.62L119.65 38.43L120.68 39.28L121.67 40.16L122.63 41.09L123.56 42.05L124.44 43.04L125.29 44.07L126.1 45.13L126.87 46.22L127.6 47.35L128.28 48.5L128.92 49.68L129.52 50.89L130.07 52.12L130.57 53.38L131.02 54.66L131.43 55.97L131.78 57.29L132.09 58.64L132.34 60.01L132.53 61.39L132.68 62.79L132.76 64.21L132.79 65.65L132.79 65.78L132.77 66.04L132.75 66.16L132.73 66.29L132.67 66.53L132.59 66.77L132.54 66.89L132.49 67L132.31 67.33L132.1 67.63L132.02 67.73L131.94 67.82L131.85 67.91L131.58 68.15L131.48 68.23L131.38 68.3L131.27 68.36L131.17 68.43L131.06 68.49L130.95 68.54L130.83 68.59L130.72 68.64L130.48 68.72L130.36 68.75L130.23 68.78L130.11 68.8L129.98 68.82L129.85 68.84L129.72 68.84L129.59 68.85L129.46 68.84L129.33 68.84L129.2 68.82L129.07 68.8L128.95 68.78L128.82 68.75L128.7 68.72L128.58 68.68L128.46 68.64L128.35 68.59L128.24 68.54L128.12 68.49L128.02 68.43L127.91 68.36L127.81 68.3L127.7 68.23L127.61 68.15L127.51 68.07L127.33 67.91L127.25 67.82L127.16 67.73L127.09 67.63L127.01 67.53L126.87 67.33L126.69 67L126.64 66.89L126.48 66.41L126.46 66.29L126.43 66.16L126.42 66.04L126.4 65.91L126.39 65.78L126.39 65.65L126.37 64.49L126.3 63.34L126.18 62.2L126.02 61.08L125.82 59.97L125.57 58.88L125.28 57.8L124.95 56.74L124.58 55.7L124.17 54.67L123.72 53.67L123.24 52.68L122.72 51.72L122.16 50.78L121.57 49.86L120.94 48.97L120.28 48.11L119.59 47.26L118.86 46.45L118.11 45.67L117.33 44.91L116.52 44.18L115.68 43.49L114.81 42.82L113.92 42.19L113.01 41.6L112.07 41.04L111.1 40.51L110.12 40.02L109.11 39.57L108.08 39.15L107.04 38.78L105.97 38.45L104.89 38.16L103.79 37.91L102.67 37.7L101.54 37.54L100.4 37.42L99.24 37.35L98.07 37.33L96.91 37.35L95.77 37.42L94.63 37.53L93.51 37.7L92.4 37.9L91.31 38.15L90.23 38.44L89.17 38.77L88.12 39.14L87.1 39.55L86.09 39.99L85.11 40.48L84.15 41L83.21 41.56L82.29 42.15L81.4 42.78L80.53 43.44L79.69 44.13L78.88 44.85L78.09 45.61L77.34 46.39L76.61 47.2L75.91 48.04L75.25 48.9L74.62 49.79L74.02 50.71L73.46 51.65L72.94 52.61L72.45 53.6L71.99 54.61L71.58 55.63L71.21 56.68L70.87 57.74L70.58 58.83L70.33 59.93L70.13 61.04L69.96 62.17L69.85 63.32L69.78 64.48L69.75 65.65L69.75 77.01L137.88 77.01L138.14 77.03L138.27 77.05L138.39 77.07L138.52 77.1L138.64 77.13L138.88 77.21L139 77.26L139.22 77.36L139.33 77.42L139.44 77.49L139.55 77.55L139.65 77.63L139.75 77.7L139.85 77.78L139.94 77.86L140.03 77.95L140.12 78.03L140.21 78.13L140.29 78.22L140.37 78.32L140.51 78.52L140.65 78.74L140.77 78.96L140.87 79.2L140.91 79.32L140.96 79.44L140.99 79.56L141.03 79.69L141.05 79.82L141.08 79.94L141.1 80.07L141.11 80.21L141.11 146.9L141.09 147.16L141.07 147.28L141.05 147.41L140.99 147.65L140.91 147.89L140.86 148.01L140.81 148.12L140.63 148.45L140.42 148.75L140.34 148.85L140.26 148.94L140.17 149.03L139.9 149.27L139.8 149.35L139.7 149.42L139.59 149.48L139.49 149.55L139.38 149.61L139.27 149.66L139.15 149.71L139.04 149.76L138.8 149.84L138.68 149.87L138.55 149.9L138.43 149.92L138.17 149.96L138.04 149.96L137.91 149.97L58.55 149.97L58.42 149.96L58.29 149.96L58.03 149.92L57.91 149.9L57.78 149.87L57.66 149.84L57.42 149.76L57.2 149.66L57.08 149.61L56.98 149.55L56.87 149.48L56.77 149.42L56.66 149.35L56.57 149.27L56.47 149.19L56.29 149.03L56.21 148.94L56.12 148.85L56.05 148.75L55.97 148.65L55.83 148.45L55.65 148.12L55.6 148.01L55.44 147.53L55.42 147.41L55.39 147.28L55.38 147.16L55.36 147.03L55.35 146.9L55.35 80.07L55.36 79.94L55.38 79.82L55.39 79.69L55.42 79.56L55.44 79.44L55.6 78.96L55.65 78.85L55.83 78.52L55.97 78.32L56.05 78.22L56.12 78.13L56.21 78.03L56.38 77.86L56.47 77.78L56.57 77.7L56.66 77.63L56.77 77.55L56.87 77.49L56.98 77.42L57.08 77.36L57.2 77.31L57.42 77.21L57.66 77.13L57.78 77.1L57.91 77.07L58.03 77.05L58.16 77.03L58.42 77.01L63.35 77.01L63.35 65.65L63.38 64.21L63.47 62.79L63.61 61.39L63.81 60.01L64.06 58.64L64.36 57.29L64.71 55.97L65.12 54.66L65.57 53.38L66.08 52.12L66.63 50.89L67.22 49.68L67.86 48.5L68.55 47.35L69.27 46.22L70.04 45.13L70.85 44.07L71.7 43.04L72.59 42.05L73.51 41.09L74.47 40.16L75.47 39.28L76.49 38.43L77.56 37.62L78.65 36.85L79.77 36.12L80.92 35.44L82.1 34.8L83.31 34.2L84.55 33.65L85.81 33.15L87.09 32.69L88.39 32.29L89.72 31.93L91.07 31.63L92.43 31.38L93.82 31.18L95.22 31.04L96.64 30.95L98.07 30.93L99.5 30.95L100.92 31.04ZM61.59 143.41L134.55 143.41L134.55 83.41L61.59 83.41L61.59 143.41Z" id="dhvG8MJj6"></path><path d="M57.31 1.97L58.71 2.11L60.1 2.31L61.47 2.56L62.81 2.86L64.14 3.22L65.45 3.62L66.73 4.08L67.99 4.58L69.22 5.13L70.43 5.73L71.61 6.37L72.76 7.05L73.88 7.78L74.98 8.55L76.04 9.36L77.07 10.21L78.06 11.09L79.02 12.02L79.95 12.98L80.83 13.97L81.68 15L82.49 16.06L83.26 17.15L83.99 18.28L84.67 19.43L85.31 20.61L85.91 21.82L86.46 23.05L86.96 24.31L87.41 25.59L87.82 26.9L88.17 28.22L88.48 29.57L88.73 30.94L88.92 32.32L89.07 33.72L89.15 35.14L89.18 36.58L89.18 36.71L89.16 36.97L89.14 37.09L89.12 37.22L89.09 37.34L89.06 37.46L89.02 37.58L88.98 37.7L88.93 37.82L88.88 37.93L88.7 38.26L88.63 38.36L88.56 38.46L88.49 38.56L88.41 38.66L88.33 38.75L88.24 38.84L88.06 39L87.97 39.08L87.87 39.16L87.77 39.23L87.66 39.29L87.56 39.36L87.45 39.42L87.34 39.47L87.22 39.52L87.11 39.57L86.99 39.61L86.87 39.65L86.75 39.68L86.62 39.71L86.5 39.73L86.37 39.75L86.24 39.77L86.11 39.77L85.98 39.78L85.85 39.77L85.72 39.77L85.59 39.75L85.46 39.73L85.34 39.71L85.21 39.68L85.09 39.65L84.85 39.57L84.63 39.47L84.51 39.42L84.41 39.36L84.3 39.29L84.2 39.23L84.09 39.16L84 39.08L83.9 39L83.72 38.84L83.64 38.75L83.55 38.66L83.48 38.56L83.4 38.46L83.33 38.36L83.26 38.26L83.08 37.93L83.03 37.82L82.99 37.7L82.95 37.58L82.87 37.34L82.85 37.22L82.82 37.09L82.81 36.97L82.79 36.84L82.78 36.71L82.78 36.58L82.76 35.42L82.69 34.27L82.57 33.13L82.41 32.01L82.21 30.9L81.96 29.81L81.67 28.73L81.34 27.67L80.97 26.63L80.56 25.6L80.11 24.6L79.63 23.61L79.11 22.65L78.55 21.71L77.96 20.79L77.33 19.9L76.67 19.04L75.98 18.19L75.25 17.38L74.5 16.6L73.72 15.84L72.91 15.11L72.07 14.42L71.2 13.75L70.31 13.12L69.4 12.53L68.46 11.97L67.49 11.44L66.51 10.95L65.5 10.5L64.47 10.08L63.43 9.71L62.36 9.38L61.28 9.09L60.18 8.84L59.06 8.63L57.93 8.47L56.79 8.35L55.63 8.28L54.46 8.26L53.3 8.28L52.16 8.35L51.02 8.46L49.9 8.63L48.79 8.83L47.7 9.08L46.62 9.37L45.56 9.7L44.51 10.07L43.49 10.48L42.48 10.92L41.5 11.41L40.54 11.93L39.6 12.49L38.68 13.08L37.79 13.71L36.92 14.37L36.08 15.06L35.27 15.78L34.48 16.54L33.73 17.32L33 18.13L32.3 18.97L31.64 19.83L31.01 20.72L30.41 21.64L29.85 22.58L29.33 23.54L28.84 24.53L28.38 25.54L27.97 26.56L27.6 27.61L27.26 28.67L26.97 29.76L26.72 30.86L26.52 31.97L26.35 33.1L26.24 34.25L26.17 35.41L26.14 36.58L26.14 47.94L94.27 47.94L94.4 47.95L94.53 47.96L94.66 47.98L94.78 48L94.91 48.03L95.03 48.06L95.15 48.1L95.27 48.14L95.39 48.19L95.5 48.24L95.61 48.29L95.72 48.35L95.83 48.42L95.94 48.48L96.04 48.56L96.14 48.63L96.24 48.71L96.33 48.79L96.42 48.88L96.51 48.96L96.6 49.06L96.68 49.15L96.76 49.25L96.9 49.45L96.97 49.56L97.04 49.67L97.16 49.89L97.21 50.01L97.26 50.13L97.3 50.25L97.35 50.37L97.38 50.49L97.42 50.62L97.44 50.75L97.47 50.87L97.49 51L97.5 51.14L97.5 117.83L97.48 118.09L97.46 118.21L97.44 118.34L97.38 118.58L97.34 118.7L97.3 118.82L97.25 118.94L97.2 119.05L97.14 119.16L97.08 119.27L97.02 119.38L96.95 119.48L96.88 119.58L96.81 119.68L96.73 119.78L96.65 119.87L96.56 119.96L96.47 120.04L96.38 120.12L96.29 120.2L96.19 120.28L96.09 120.35L95.98 120.41L95.88 120.48L95.77 120.54L95.66 120.59L95.54 120.64L95.43 120.69L95.19 120.77L95.07 120.8L94.94 120.83L94.82 120.85L94.56 120.89L94.43 120.89L94.3 120.9L14.94 120.9L14.81 120.89L14.68 120.89L14.42 120.85L14.3 120.83L14.17 120.8L14.05 120.77L13.93 120.73L13.81 120.69L13.7 120.64L13.59 120.59L13.47 120.54L13.37 120.48L13.26 120.41L13.16 120.35L13.05 120.28L12.96 120.2L12.86 120.12L12.68 119.96L12.6 119.87L12.51 119.78L12.44 119.68L12.36 119.58L12.22 119.38L12.16 119.27L12.1 119.16L12.04 119.05L11.99 118.94L11.91 118.7L11.87 118.58L11.83 118.46L11.81 118.34L11.78 118.21L11.77 118.09L11.75 117.96L11.74 117.83L11.74 51L11.75 50.87L11.77 50.75L11.78 50.62L11.81 50.49L11.83 50.37L11.87 50.25L11.91 50.13L11.99 49.89L12.04 49.78L12.16 49.56L12.22 49.45L12.29 49.35L12.36 49.25L12.44 49.15L12.51 49.06L12.6 48.96L12.68 48.88L12.77 48.79L12.86 48.71L12.96 48.63L13.05 48.56L13.16 48.48L13.26 48.42L13.37 48.35L13.47 48.29L13.59 48.24L13.7 48.19L13.81 48.14L13.93 48.1L14.05 48.06L14.17 48.03L14.3 48L14.42 47.98L14.55 47.96L14.68 47.95L14.81 47.94L19.74 47.94L19.74 36.58L19.77 35.14L19.86 33.72L20 32.32L20.2 30.94L20.45 29.57L20.75 28.22L21.1 26.9L21.51 25.59L21.96 24.31L22.47 23.05L23.02 21.82L23.61 20.61L24.25 19.43L24.94 18.28L25.66 17.15L26.43 16.06L27.24 15L28.09 13.97L28.98 12.98L29.9 12.02L30.86 11.09L31.86 10.21L32.88 9.36L33.95 8.55L35.04 7.78L36.16 7.05L37.31 6.37L38.49 5.73L39.7 5.13L40.94 4.58L42.2 4.08L43.48 3.62L44.78 3.22L46.11 2.86L47.46 2.56L48.82 2.31L50.21 2.11L51.61 1.97L53.03 1.88L54.46 1.86L55.89 1.88L57.31 1.97ZM17.98 114.34L90.94 114.34L90.94 54.34L17.98 54.34L17.98 114.34Z" id="g1b0uhtQI"></path><path d="M99.56 95.02L100.55 95.22L101.52 95.48L102.45 95.81L103.35 96.21L104.22 96.67L105.04 97.2L105.82 97.78L106.55 98.41L107.24 99.09L107.87 99.83L108.45 100.61L108.97 101.43L109.44 102.29L109.84 103.19L110.17 104.13L110.43 105.09L110.62 106.09L110.74 107.1L110.78 108.15L110.76 108.94L110.69 109.72L110.57 110.49L110.41 111.24L110.21 111.98L109.97 112.7L109.69 113.4L109.36 114.08L109.01 114.74L108.61 115.38L108.18 115.99L107.72 116.57L107.23 117.13L106.7 117.66L106.15 118.16L105.57 118.63L104.96 119.07L104.33 119.47L103.68 119.84L103 120.17L102.3 120.47L102.3 130.39L102.29 130.77L102.24 131.15L102.17 131.52L102.07 131.88L101.94 132.22L101.79 132.56L101.62 132.88L101.42 133.19L101.21 133.48L100.97 133.75L100.71 134.01L100.44 134.25L100.14 134.47L99.84 134.66L99.51 134.84L99.18 134.99L98.83 135.11L98.47 135.21L98.1 135.29L97.73 135.33L97.34 135.35L96.96 135.33L96.58 135.29L96.21 135.21L95.85 135.11L95.5 134.99L95.17 134.84L94.85 134.66L94.54 134.47L94.25 134.25L93.97 134.01L93.72 133.75L93.48 133.48L93.26 133.19L93.06 132.88L92.89 132.56L92.74 132.22L92.61 131.88L92.51 131.52L92.44 131.15L92.4 130.77L92.38 130.39L92.38 120.47L91.7 120.17L91.05 119.84L90.41 119.47L89.79 119.07L89.2 118.63L88.64 118.16L88.1 117.66L87.59 117.13L87.1 116.57L86.65 115.99L86.24 115.38L85.85 114.74L85.51 114.08L85.2 113.4L84.93 112.7L84.7 111.98L84.51 111.24L84.37 110.49L84.27 109.72L84.22 108.94L84.22 108.15L84.26 107.1L84.38 106.09L84.57 105.09L84.83 104.13L85.17 103.19L85.57 102.29L86.03 101.43L86.55 100.61L87.13 99.83L87.76 99.09L88.45 98.41L89.18 97.78L89.96 97.2L90.79 96.67L91.65 96.21L92.55 95.81L93.48 95.48L94.45 95.22L95.44 95.02L96.46 94.91L97.5 94.87L98.54 94.91L99.56 95.02ZM94.65 101.8L93.48 102.43L92.46 103.27L91.63 104.28L91 105.45L90.6 106.75L90.46 108.15L90.6 109.54L91 110.84L91.63 112.01L92.46 113.03L93.48 113.86L94.65 114.49L95.94 114.89L97.34 115.03L98.74 114.89L100.04 114.49L101.21 113.86L102.22 113.03L103.06 112.01L103.69 110.84L104.08 109.54L104.22 108.15L104.08 106.75L103.69 105.45L103.06 104.28L102.22 103.27L101.21 102.43L100.04 101.8L98.74 101.4L97.34 101.27L95.94 101.4L94.65 101.8Z" id="bksGLi8zh"></path><path d="M268.98 241.48L269.97 241.68L270.94 241.94L271.87 242.27L272.77 242.67L273.64 243.13L274.46 243.66L275.24 244.24L275.97 244.87L276.66 245.55L277.29 246.29L277.87 247.07L278.39 247.89L278.86 248.75L279.26 249.65L279.59 250.59L279.85 251.55L280.04 252.55L280.16 253.56L280.2 254.61L280.18 255.4L280.11 256.18L279.99 256.95L279.83 257.7L279.63 258.44L279.39 259.16L279.11 259.86L278.78 260.54L278.43 261.2L278.03 261.84L277.6 262.45L277.14 263.03L276.65 263.59L276.12 264.12L275.57 264.62L274.99 265.09L274.38 265.53L273.75 265.93L273.1 266.3L272.42 266.63L271.72 266.93L271.72 276.85L271.71 277.23L271.66 277.61L271.59 277.98L271.49 278.34L271.36 278.68L271.21 279.02L271.04 279.34L270.84 279.65L270.63 279.94L270.39 280.21L270.13 280.47L269.86 280.71L269.56 280.93L269.26 281.12L268.93 281.3L268.6 281.45L268.25 281.57L267.89 281.67L267.52 281.75L267.15 281.79L266.76 281.81L266.38 281.79L266 281.75L265.63 281.67L265.27 281.57L264.92 281.45L264.59 281.3L264.27 281.12L263.96 280.93L263.67 280.71L263.39 280.47L263.14 280.21L262.9 279.94L262.68 279.65L262.48 279.34L262.31 279.02L262.16 278.68L262.03 278.34L261.93 277.98L261.86 277.61L261.82 277.23L261.8 276.85L261.8 266.93L261.12 266.63L260.47 266.3L259.83 265.93L259.21 265.53L258.62 265.09L258.06 264.62L257.52 264.12L257.01 263.59L256.52 263.03L256.07 262.45L255.66 261.84L255.27 261.2L254.93 260.54L254.62 259.86L254.35 259.16L254.12 258.44L253.93 257.7L253.79 256.95L253.69 256.18L253.64 255.4L253.64 254.61L253.68 253.56L253.8 252.55L253.99 251.55L254.25 250.59L254.59 249.65L254.99 248.75L255.45 247.89L255.97 247.07L256.55 246.29L257.18 245.55L257.87 244.87L258.6 244.24L259.38 243.66L260.21 243.13L261.07 242.67L261.97 242.27L262.9 241.94L263.87 241.68L264.86 241.48L265.88 241.37L266.92 241.33L267.96 241.37L268.98 241.48ZM264.07 248.26L262.9 248.89L261.88 249.73L261.05 250.74L260.42 251.91L260.02 253.21L259.88 254.61L260.02 256L260.42 257.3L261.05 258.47L261.88 259.49L262.9 260.32L264.07 260.95L265.36 261.35L266.76 261.49L268.16 261.35L269.46 260.95L270.63 260.32L271.64 259.49L272.48 258.47L273.11 257.3L273.5 256L273.64 254.61L273.5 253.21L273.11 251.91L272.48 250.74L271.64 249.73L270.63 248.89L269.46 248.26L268.16 247.86L266.76 247.73L265.36 247.86L264.07 248.26Z" id="b2gyunjYy"></path></defs><g><g><g><use xlink:href="#e1z6gx0pT5" opacity="1" fill="#4666b1" fill-opacity="0"></use><g><use xlink:href="#e1z6gx0pT5" opacity="1" fill-opacity="0" stroke="#000000" stroke-width="1" stroke-opacity="0"></use></g></g><g><use xlink:href="#c30Ppxkq2Y" opacity="1" fill="#000000" fill-opacity="0"></use><g><use xlink:href="#c30Ppxkq2Y" opacity="1" fill-opacity="0" stroke="#000000" stroke-width="1" stroke-opacity="0"></use></g></g><g><use xlink:href="#k7ZhMmMN9u" opacity="1" fill="#000000" fill-opacity="0"></use><g><use xlink:href="#k7ZhMmMN9u" opacity="1" fill-opacity="0" stroke="#000000" stroke-width="1" stroke-opacity="0"></use></g></g><g><use xlink:href="#c2wQihjaYb" opacity="1" fill="#000000" fill-opacity="0"></use><g><use xlink:href="#c2wQihjaYb" opacity="1" fill-opacity="0" stroke="#000000" stroke-width="1" stroke-opacity="0"></use></g></g><g><use xlink:href="#aDYHFQjWS" opacity="1" fill="#000000" fill-opacity="0"></use><g><use xlink:href="#aDYHFQjWS" opacity="1" fill-opacity="0" stroke="#000000" stroke-width="1" stroke-opacity="0"></use></g></g><g><use xlink:href="#c1dccIFfRT" opacity="1" fill="#000000" fill-opacity="0"></use><g><use xlink:href="#c1dccIFfRT" opacity="1" fill-opacity="0" stroke="#000000" stroke-width="1" stroke-opacity="0"></use></g></g><g><use xlink:href="#g2WXAeBmg6" opacity="1" fill="#000000" fill-opacity="0"></use><g><use xlink:href="#g2WXAeBmg6" opacity="1" fill-opacity="0" stroke="#000000" stroke-width="1" stroke-opacity="0"></use></g></g><g><use xlink:href="#g8FJRPKYS" opacity="1" fill="#000000" fill-opacity="0"></use><g><use xlink:href="#g8FJRPKYS" opacity="1" fill-opacity="0" stroke="#00c7fc" stroke-width="1" stroke-opacity="1"></use></g></g><g><use xlink:href="#dhvG8MJj6" opacity="1" fill="#ffffff" fill-opacity="1"></use><g><use xlink:href="#dhvG8MJj6" opacity="1" fill-opacity="0" stroke="#000000" stroke-width="1" stroke-opacity="0"></use></g></g><g><use xlink:href="#g1b0uhtQI" opacity="1" fill="#ffffff" fill-opacity="0"></use><g><use xlink:href="#g1b0uhtQI" opacity="1" fill-opacity="0" stroke="#ffffff" stroke-width="1" stroke-opacity="0"></use></g></g><g><use xlink:href="#bksGLi8zh" opacity="1" fill="#ffffff" fill-opacity="1"></use><g><use xlink:href="#bksGLi8zh" opacity="1" fill-opacity="0" stroke="#000000" stroke-width="1" stroke-opacity="0"></use></g></g><g><use xlink:href="#b2gyunjYy" opacity="1" fill="#ffffff" fill-opacity="0"></use><g><use xlink:href="#b2gyunjYy" opacity="1" fill-opacity="0" stroke="#000000" stroke-width="1" stroke-opacity="0"></use></g></g></g></g></svg>