<?xml version="1.0" encoding="UTF-8"?>
<!DOCTYPE svg  PUBLIC '-//W3C//DTD SVG 1.1//EN'  'http://www.w3.org/Graphics/SVG/1.1/DTD/svg11.dtd'>
<svg version="1.1" viewBox="0 0 195 201" xmlns="http://www.w3.org/2000/svg" xmlns:xlink="http://www.w3.org/1999/xlink">
<defs>
<path id="e" d="m159.95 372l162.87-92.08v-184.16l-162.87-92.08-162.87 92.08v184.16l162.87 92.08z"/>
<path id="g" d="m159.95 372l162.87-92.08v-184.16l-162.87-92.08-162.87 92.08v184.16l162.87 92.08z"/>
<path id="a" d="m159.95 372l162.87-92.08v-184.16l-162.87-92.08-162.87 92.08v184.16l162.87 92.08z"/>
<path id="h" d="m159.95 372l162.87-92.08v-184.16l-162.87-92.08-162.87 92.08v184.16l162.87 92.08z"/>
<path id="l" d="m159.95 372l162.87-92.08v-184.16l-162.87-92.08-162.87 92.08v184.16l162.87 92.08z"/>
<path id="i" d="m159.95 372l162.87-92.08v-184.16l-162.87-92.08-162.87 92.08v184.16l162.87 92.08z"/>
<path id="c" d="m98.23 201l95.17-49.79v-99.57l-95.17-49.78-95.17 49.78v99.57l95.17 49.79z"/>
<path id="b" d="m97.5 201l95.17-49.79v-99.57l-95.17-49.78-95.17 49.78v99.57l95.17 49.79z"/>
<path id="f" d="m100.92 31.04l1.4 0.14 1.39 0.2 1.37 0.25 1.34 0.3 1.33 0.36 1.31 0.4 1.28 0.46 1.26 0.5 1.23 0.55 1.21 0.6 1.18 0.64 1.15 0.68 1.12 0.73 1.1 0.77 1.06 0.81 1.03 0.85 0.99 0.88 0.96 0.93 0.93 0.96 0.88 0.99 0.85 1.03 0.81 1.06 0.77 1.09 0.73 1.13 0.68 1.15 0.64 1.18 0.6 1.21 0.55 1.23 0.5 1.26 0.45 1.28 0.41 1.31 0.35 1.32 0.31 1.35 0.25 1.37 0.19 1.38 0.15 1.4 0.08 1.42 0.03 1.44v0.13l-0.02 0.26-0.02 0.12-0.02 0.13-0.06 0.24-0.08 0.24-0.05 0.12-0.05 0.11-0.18 0.33-0.21 0.3-0.08 0.1-0.08 0.09-0.09 0.09-0.27 0.24-0.1 0.08-0.1 0.07-0.11 0.06-0.1 0.07-0.11 0.06-0.11 0.05-0.12 0.05-0.11 0.05-0.24 0.08-0.12 0.03-0.13 0.03-0.12 0.02-0.13 0.02-0.13 0.02h-0.13l-0.13 0.01-0.13-0.01h-0.13l-0.13-0.02-0.13-0.02-0.12-0.02-0.13-0.03-0.12-0.03-0.12-0.04-0.12-0.04-0.11-0.05-0.11-0.05-0.12-0.05-0.1-0.06-0.11-0.07-0.1-0.06-0.11-0.07-0.09-0.08-0.1-0.08-0.18-0.16-0.08-0.09-0.09-0.09-0.07-0.1-0.08-0.1-0.14-0.2-0.18-0.33-0.05-0.11-0.16-0.48-0.02-0.12-0.03-0.13-0.01-0.12-0.02-0.13-0.01-0.13v-0.13l-0.02-1.16-0.07-1.15-0.12-1.14-0.16-1.12-0.2-1.11-0.25-1.09-0.29-1.08-0.33-1.06-0.37-1.04-0.41-1.03-0.45-1-0.48-0.99-0.52-0.96-0.56-0.94-0.59-0.92-0.63-0.89-0.66-0.86-0.69-0.85-0.73-0.81-0.75-0.78-0.78-0.76-0.81-0.73-0.84-0.69-0.87-0.67-0.89-0.63-0.91-0.59-0.94-0.56-0.97-0.53-0.98-0.49-1.01-0.45-1.03-0.42-1.04-0.37-1.07-0.33-1.08-0.29-1.1-0.25-1.12-0.21-1.13-0.16-1.14-0.12-1.16-0.07-1.17-0.02-1.16 0.02-1.14 0.07-1.14 0.11-1.12 0.17-1.11 0.2-1.09 0.25-1.08 0.29-1.06 0.33-1.05 0.37-1.02 0.41-1.01 0.44-0.98 0.49-0.96 0.52-0.94 0.56-0.92 0.59-0.89 0.63-0.87 0.66-0.84 0.69-0.81 0.72-0.79 0.76-0.75 0.78-0.73 0.81-0.7 0.84-0.66 0.86-0.63 0.89-0.6 0.92-0.56 0.94-0.52 0.96-0.49 0.99-0.46 1.01-0.41 1.02-0.37 1.05-0.34 1.06-0.29 1.09-0.25 1.1-0.2 1.11-0.17 1.13-0.11 1.15-0.07 1.16-0.03 1.17v11.36h68.13l0.26 0.02 0.13 0.02 0.12 0.02 0.13 0.03 0.12 0.03 0.24 0.08 0.12 0.05 0.22 0.1 0.11 0.06 0.11 0.07 0.11 0.06 0.1 0.08 0.1 0.07 0.1 0.08 0.09 0.08 0.09 0.09 0.09 0.08 0.09 0.1 0.08 0.09 0.08 0.1 0.14 0.2 0.14 0.22 0.12 0.22 0.1 0.24 0.04 0.12 0.05 0.12 0.03 0.12 0.04 0.13 0.02 0.13 0.03 0.12 0.02 0.13 0.01 0.14v66.69l-0.02 0.26-0.02 0.12-0.02 0.13-0.06 0.24-0.08 0.24-0.05 0.12-0.05 0.11-0.18 0.33-0.21 0.3-0.08 0.1-0.08 0.09-0.09 0.09-0.27 0.24-0.1 0.08-0.1 0.07-0.11 0.06-0.1 0.07-0.11 0.06-0.11 0.05-0.12 0.05-0.11 0.05-0.24 0.08-0.12 0.03-0.13 0.03-0.12 0.02-0.26 0.04h-0.13l-0.13 0.01h-79.36l-0.13-0.01h-0.13l-0.26-0.04-0.12-0.02-0.13-0.03-0.12-0.03-0.24-0.08-0.22-0.1-0.12-0.05-0.1-0.06-0.11-0.07-0.1-0.06-0.11-0.07-0.09-0.08-0.1-0.08-0.18-0.16-0.08-0.09-0.09-0.09-0.07-0.1-0.08-0.1-0.14-0.2-0.18-0.33-0.05-0.11-0.16-0.48-0.02-0.12-0.03-0.13-0.01-0.12-0.02-0.13-0.01-0.13v-66.83l0.01-0.13 0.02-0.12 0.01-0.13 0.03-0.13 0.02-0.12 0.16-0.48 0.05-0.11 0.18-0.33 0.14-0.2 0.08-0.1 0.07-0.09 0.09-0.1 0.17-0.17 0.09-0.08 0.1-0.08 0.09-0.07 0.11-0.08 0.1-0.06 0.11-0.07 0.1-0.06 0.12-0.05 0.22-0.1 0.24-0.08 0.12-0.03 0.13-0.03 0.12-0.02 0.13-0.02 0.26-0.02h4.93v-11.36l0.03-1.44 0.09-1.42 0.14-1.4 0.2-1.38 0.25-1.37 0.3-1.35 0.35-1.32 0.41-1.31 0.45-1.28 0.51-1.26 0.55-1.23 0.59-1.21 0.64-1.18 0.69-1.15 0.72-1.13 0.77-1.09 0.81-1.06 0.85-1.03 0.89-0.99 0.92-0.96 0.96-0.93 1-0.88 1.02-0.85 1.07-0.81 1.09-0.77 1.12-0.73 1.15-0.68 1.18-0.64 1.21-0.6 1.24-0.55 1.26-0.5 1.28-0.46 1.3-0.4 1.33-0.36 1.35-0.3 1.36-0.25 1.39-0.2 1.4-0.14 1.42-0.09 1.43-0.02 1.43 0.02 1.42 0.09zm-39.33 112.37h72.96v-60h-72.96v60z"/>
<path id="d" d="m57.31 1.97l1.4 0.14 1.39 0.2 1.37 0.25 1.34 0.3 1.33 0.36 1.31 0.4 1.28 0.46 1.26 0.5 1.23 0.55 1.21 0.6 1.18 0.64 1.15 0.68 1.12 0.73 1.1 0.77 1.06 0.81 1.03 0.85 0.99 0.88 0.96 0.93 0.93 0.96 0.88 0.99 0.85 1.03 0.81 1.06 0.77 1.09 0.73 1.13 0.68 1.15 0.64 1.18 0.6 1.21 0.55 1.23 0.5 1.26 0.45 1.28 0.41 1.31 0.35 1.32 0.31 1.35 0.25 1.37 0.19 1.38 0.15 1.4 0.08 1.42 0.03 1.44v0.13l-0.02 0.26-0.02 0.12-0.02 0.13-0.03 0.12-0.03 0.12-0.04 0.12-0.04 0.12-0.05 0.12-0.05 0.11-0.18 0.33-0.07 0.1-0.07 0.1-0.07 0.1-0.08 0.1-0.08 0.09-0.09 0.09-0.18 0.16-0.09 0.08-0.1 0.08-0.1 0.07-0.11 0.06-0.1 0.07-0.11 0.06-0.11 0.05-0.12 0.05-0.11 0.05-0.12 0.04-0.12 0.04-0.12 0.03-0.13 0.03-0.12 0.02-0.13 0.02-0.13 0.02h-0.13l-0.13 0.01-0.13-0.01h-0.13l-0.13-0.02-0.13-0.02-0.12-0.02-0.13-0.03-0.12-0.03-0.24-0.08-0.22-0.1-0.12-0.05-0.1-0.06-0.11-0.07-0.1-0.06-0.11-0.07-0.09-0.08-0.1-0.08-0.18-0.16-0.08-0.09-0.09-0.09-0.07-0.1-0.08-0.1-0.07-0.1-0.07-0.1-0.18-0.33-0.05-0.11-0.04-0.12-0.04-0.12-0.08-0.24-0.02-0.12-0.03-0.13-0.01-0.12-0.02-0.13-0.01-0.13v-0.13l-0.02-1.16-0.07-1.15-0.12-1.14-0.16-1.12-0.2-1.11-0.25-1.09-0.29-1.08-0.33-1.06-0.37-1.04-0.41-1.03-0.45-1-0.48-0.99-0.52-0.96-0.56-0.94-0.59-0.92-0.63-0.89-0.66-0.86-0.69-0.85-0.73-0.81-0.75-0.78-0.78-0.76-0.81-0.73-0.84-0.69-0.87-0.67-0.89-0.63-0.91-0.59-0.94-0.56-0.97-0.53-0.98-0.49-1.01-0.45-1.03-0.42-1.04-0.37-1.07-0.33-1.08-0.29-1.1-0.25-1.12-0.21-1.13-0.16-1.14-0.12-1.16-0.07-1.17-0.02-1.16 0.02-1.14 0.07-1.14 0.11-1.12 0.17-1.11 0.2-1.09 0.25-1.08 0.29-1.06 0.33-1.05 0.37-1.02 0.41-1.01 0.44-0.98 0.49-0.96 0.52-0.94 0.56-0.92 0.59-0.89 0.63-0.87 0.66-0.84 0.69-0.81 0.72-0.79 0.76-0.75 0.78-0.73 0.81-0.7 0.84-0.66 0.86-0.63 0.89-0.6 0.92-0.56 0.94-0.52 0.96-0.49 0.99-0.46 1.01-0.41 1.02-0.37 1.05-0.34 1.06-0.29 1.09-0.25 1.1-0.2 1.11-0.17 1.13-0.11 1.15-0.07 1.16-0.03 1.17v11.36h68.13l0.13 0.01 0.13 0.01 0.13 0.02 0.12 0.02 0.13 0.03 0.12 0.03 0.12 0.04 0.12 0.04 0.12 0.05 0.11 0.05 0.11 0.05 0.11 0.06 0.11 0.07 0.11 0.06 0.1 0.08 0.1 0.07 0.1 0.08 0.09 0.08 0.09 0.09 0.09 0.08 0.09 0.1 0.08 0.09 0.08 0.1 0.14 0.2 0.07 0.11 0.07 0.11 0.12 0.22 0.05 0.12 0.05 0.12 0.04 0.12 0.05 0.12 0.03 0.12 0.04 0.13 0.02 0.13 0.03 0.12 0.02 0.13 0.01 0.14v66.69l-0.02 0.26-0.02 0.12-0.02 0.13-0.06 0.24-0.04 0.12-0.04 0.12-0.05 0.12-0.05 0.11-0.06 0.11-0.06 0.11-0.06 0.11-0.07 0.1-0.07 0.1-0.07 0.1-0.08 0.1-0.08 0.09-0.09 0.09-0.09 0.08-0.09 0.08-0.09 0.08-0.1 0.08-0.1 0.07-0.11 0.06-0.1 0.07-0.11 0.06-0.11 0.05-0.12 0.05-0.11 0.05-0.24 0.08-0.12 0.03-0.13 0.03-0.12 0.02-0.26 0.04h-0.13l-0.13 0.01h-79.36l-0.13-0.01h-0.13l-0.26-0.04-0.12-0.02-0.13-0.03-0.12-0.03-0.12-0.04-0.12-0.04-0.11-0.05-0.11-0.05-0.12-0.05-0.1-0.06-0.11-0.07-0.1-0.06-0.11-0.07-0.09-0.08-0.1-0.08-0.18-0.16-0.08-0.09-0.09-0.09-0.07-0.1-0.08-0.1-0.14-0.2-0.06-0.11-0.06-0.11-0.06-0.11-0.05-0.11-0.08-0.24-0.04-0.12-0.04-0.12-0.02-0.12-0.03-0.13-0.01-0.12-0.02-0.13-0.01-0.13v-66.83l0.01-0.13 0.02-0.12 0.01-0.13 0.03-0.13 0.02-0.12 0.04-0.12 0.04-0.12 0.08-0.24 0.05-0.11 0.12-0.22 0.06-0.11 0.07-0.1 0.07-0.1 0.08-0.1 0.07-0.09 0.09-0.1 0.08-0.08 0.09-0.09 0.09-0.08 0.1-0.08 0.09-0.07 0.11-0.08 0.1-0.06 0.11-0.07 0.1-0.06 0.12-0.05 0.11-0.05 0.11-0.05 0.12-0.04 0.12-0.04 0.12-0.03 0.13-0.03 0.12-0.02 0.13-0.02 0.13-0.01 0.13-0.01h4.93v-11.36l0.03-1.44 0.09-1.42 0.14-1.4 0.2-1.38 0.25-1.37 0.3-1.35 0.35-1.32 0.41-1.31 0.45-1.28 0.51-1.26 0.55-1.23 0.59-1.21 0.64-1.18 0.69-1.15 0.72-1.13 0.77-1.09 0.81-1.06 0.85-1.03 0.89-0.99 0.92-0.96 0.96-0.93 1-0.88 1.02-0.85 1.07-0.81 1.09-0.77 1.12-0.73 1.15-0.68 1.18-0.64 1.21-0.6 1.24-0.55 1.26-0.5 1.28-0.46 1.3-0.4 1.33-0.36 1.35-0.3 1.36-0.25 1.39-0.2 1.4-0.14 1.42-0.09 1.43-0.02 1.43 0.02 1.42 0.09zm-39.33 112.37h72.96v-60h-72.96v60z"/>
<path id="j" d="m99.56 95.02l0.99 0.2 0.97 0.26 0.93 0.33 0.9 0.4 0.87 0.46 0.82 0.53 0.78 0.58 0.73 0.63 0.69 0.68 0.63 0.74 0.58 0.78 0.52 0.82 0.47 0.86 0.4 0.9 0.33 0.94 0.26 0.96 0.19 1 0.12 1.01 0.04 1.05-0.02 0.79-0.07 0.78-0.12 0.77-0.16 0.75-0.2 0.74-0.24 0.72-0.28 0.7-0.33 0.68-0.35 0.66-0.4 0.64-0.43 0.61-0.46 0.58-0.49 0.56-0.53 0.53-0.55 0.5-0.58 0.47-0.61 0.44-0.63 0.4-0.65 0.37-0.68 0.33-0.7 0.3v9.92l-0.01 0.38-0.05 0.38-0.07 0.37-0.1 0.36-0.13 0.34-0.15 0.34-0.17 0.32-0.2 0.31-0.21 0.29-0.24 0.27-0.26 0.26-0.27 0.24-0.3 0.22-0.3 0.19-0.33 0.18-0.33 0.15-0.35 0.12-0.36 0.1-0.37 0.08-0.37 0.04-0.39 0.02-0.38-0.02-0.38-0.04-0.37-0.08-0.36-0.1-0.35-0.12-0.33-0.15-0.32-0.18-0.31-0.19-0.29-0.22-0.28-0.24-0.25-0.26-0.24-0.27-0.22-0.29-0.2-0.31-0.17-0.32-0.15-0.34-0.13-0.34-0.1-0.36-0.07-0.37-0.04-0.38-0.02-0.38v-9.92l-0.68-0.3-0.65-0.33-0.64-0.37-0.62-0.4-0.59-0.44-0.56-0.47-0.54-0.5-0.51-0.53-0.49-0.56-0.45-0.58-0.41-0.61-0.39-0.64-0.34-0.66-0.31-0.68-0.27-0.7-0.23-0.72-0.19-0.74-0.14-0.75-0.1-0.77-0.05-0.78v-0.79l0.04-1.05 0.12-1.01 0.19-1 0.26-0.96 0.34-0.94 0.4-0.9 0.46-0.86 0.52-0.82 0.58-0.78 0.63-0.74 0.69-0.68 0.73-0.63 0.78-0.58 0.83-0.53 0.86-0.46 0.9-0.4 0.93-0.33 0.97-0.26 0.99-0.2 1.02-0.11 1.04-0.04 1.04 0.04 1.02 0.11zm-4.91 6.78l-1.17 0.63-1.02 0.84-0.83 1.01-0.63 1.17-0.4 1.3-0.14 1.4 0.14 1.39 0.4 1.3 0.63 1.17 0.83 1.02 1.02 0.83 1.17 0.63 1.29 0.4 1.4 0.14 1.4-0.14 1.3-0.4 1.17-0.63 1.01-0.83 0.84-1.02 0.63-1.17 0.39-1.3 0.14-1.39-0.14-1.4-0.39-1.3-0.63-1.17-0.84-1.01-1.01-0.84-1.17-0.63-1.3-0.4-1.4-0.13-1.4 0.13-1.29 0.4z"/>
<path id="k" d="m268.98 241.48l0.99 0.2 0.97 0.26 0.93 0.33 0.9 0.4 0.87 0.46 0.82 0.53 0.78 0.58 0.73 0.63 0.69 0.68 0.63 0.74 0.58 0.78 0.52 0.82 0.47 0.86 0.4 0.9 0.33 0.94 0.26 0.96 0.19 1 0.12 1.01 0.04 1.05-0.02 0.79-0.07 0.78-0.12 0.77-0.16 0.75-0.2 0.74-0.24 0.72-0.28 0.7-0.33 0.68-0.35 0.66-0.4 0.64-0.43 0.61-0.46 0.58-0.49 0.56-0.53 0.53-0.55 0.5-0.58 0.47-0.61 0.44-0.63 0.4-0.65 0.37-0.68 0.33-0.7 0.3v9.92l-0.01 0.38-0.05 0.38-0.07 0.37-0.1 0.36-0.13 0.34-0.15 0.34-0.17 0.32-0.2 0.31-0.21 0.29-0.24 0.27-0.26 0.26-0.27 0.24-0.3 0.22-0.3 0.19-0.33 0.18-0.33 0.15-0.35 0.12-0.36 0.1-0.37 0.08-0.37 0.04-0.39 0.02-0.38-0.02-0.38-0.04-0.37-0.08-0.36-0.1-0.35-0.12-0.33-0.15-0.32-0.18-0.31-0.19-0.29-0.22-0.28-0.24-0.25-0.26-0.24-0.27-0.22-0.29-0.2-0.31-0.17-0.32-0.15-0.34-0.13-0.34-0.1-0.36-0.07-0.37-0.04-0.38-0.02-0.38v-9.92l-0.68-0.3-0.65-0.33-0.64-0.37-0.62-0.4-0.59-0.44-0.56-0.47-0.54-0.5-0.51-0.53-0.49-0.56-0.45-0.58-0.41-0.61-0.39-0.64-0.34-0.66-0.31-0.68-0.27-0.7-0.23-0.72-0.19-0.74-0.14-0.75-0.1-0.77-0.05-0.78v-0.79l0.04-1.05 0.12-1.01 0.19-1 0.26-0.96 0.34-0.94 0.4-0.9 0.46-0.86 0.52-0.82 0.58-0.78 0.63-0.74 0.69-0.68 0.73-0.63 0.78-0.58 0.83-0.53 0.86-0.46 0.9-0.4 0.93-0.33 0.97-0.26 0.99-0.2 1.02-0.11 1.04-0.04 1.04 0.04 1.02 0.11zm-4.91 6.78l-1.17 0.63-1.02 0.84-0.83 1.01-0.63 1.17-0.4 1.3-0.14 1.4 0.14 1.39 0.4 1.3 0.63 1.17 0.83 1.02 1.02 0.83 1.17 0.63 1.29 0.4 1.4 0.14 1.4-0.14 1.3-0.4 1.17-0.63 1.01-0.83 0.84-1.02 0.63-1.17 0.39-1.3 0.14-1.39-0.14-1.4-0.39-1.3-0.63-1.17-0.84-1.01-1.01-0.84-1.17-0.63-1.3-0.4-1.4-0.13-1.4 0.13-1.29 0.4z"/>
</defs>
<use fill="#4666b1" fill-opacity="0" xlink:href="#e"/>
<use fill-opacity="0" stroke="#000000" stroke-opacity="0" xlink:href="#e"/>
<use fill="#000000" fill-opacity="0" xlink:href="#g"/>
<use fill-opacity="0" stroke="#000000" stroke-opacity="0" xlink:href="#g"/>
<use fill="#000000" fill-opacity="0" xlink:href="#a"/>
<use fill-opacity="0" stroke="#000000" stroke-opacity="0" xlink:href="#a"/>
<use fill="#000000" fill-opacity="0" xlink:href="#h"/>
<use fill-opacity="0" stroke="#000000" stroke-opacity="0" xlink:href="#h"/>
<use fill="#000000" fill-opacity="0" xlink:href="#l"/>
<use fill-opacity="0" stroke="#000000" stroke-opacity="0" xlink:href="#l"/>
<use fill="#000000" fill-opacity="0" xlink:href="#i"/>
<use fill-opacity="0" stroke="#000000" stroke-opacity="0" xlink:href="#i"/>
<use fill="#000000" fill-opacity="0" xlink:href="#c"/>
<use fill-opacity="0" stroke="#000000" stroke-opacity="0" xlink:href="#c"/>
<use fill="#000000" fill-opacity="0" xlink:href="#b"/>
<use fill-opacity="0" stroke="#00c7fc" xlink:href="#b"/>
<use fill="#ffffff" xlink:href="#f"/>
<use fill-opacity="0" stroke="#000000" stroke-opacity="0" xlink:href="#f"/>
<use fill="#ffffff" fill-opacity="0" xlink:href="#d"/>
<use fill-opacity="0" stroke="#ffffff" stroke-opacity="0" xlink:href="#d"/>
<use fill="#ffffff" xlink:href="#j"/>
<use fill-opacity="0" stroke="#000000" stroke-opacity="0" xlink:href="#j"/>
<use fill="#ffffff" fill-opacity="0" xlink:href="#k"/>
<use fill-opacity="0" stroke="#000000" stroke-opacity="0" xlink:href="#k"/>
</svg>
