<?xml version="1.0" encoding="UTF-8" standalone="no"?>
<!DOCTYPE svg PUBLIC "-//W3C//DTD SVG 1.1//EN" "http://www.w3.org/Graphics/SVG/1.1/DTD/svg11.dtd">
<svg version="1.1" xmlns="http://www.w3.org/2000/svg" xmlns:xlink="http://www.w3.org/1999/xlink" preserveAspectRatio="xMidYMid meet" viewBox="0 0 195 202" width="195" height="202"><defs><path d="M192.65 150.28L192.65 50.71L97.48 0.93L2.31 50.71L2.31 150.28L97.48 200.07L192.65 150.28Z" id="bjWxL0htC"></path><path d="M192.65 150.28L192.65 50.71L97.48 0.93L2.31 50.71L2.31 150.28L97.48 200.07L192.65 150.28Z" id="ekZDrT60z"></path><path d="M105.73 41.06L105.8 41.08L105.88 41.11L105.95 41.14L106.03 41.17L106.24 41.29L106.3 41.33L106.37 41.37L106.43 41.42L106.5 41.47L106.68 41.62L106.73 41.68L106.84 41.79L106.89 41.86L106.99 41.98L107.19 42.33L107.22 42.41L107.25 42.48L107.31 42.64L107.35 42.8L110.23 54.8L110.79 54.96L111.06 55.04L111.34 55.13L111.61 55.21L111.89 55.3L112.16 55.38L112.44 55.47L112.71 55.56L112.98 55.66L113.25 55.75L113.52 55.85L113.79 55.94L114.33 56.14L114.6 56.25L114.87 56.35L115.13 56.46L115.4 56.56L115.66 56.67L115.93 56.78L116.19 56.9L116.46 57.01L116.72 57.12L118.02 57.72L118.54 57.98L118.79 58.1L119.05 58.23L119.3 58.36L119.56 58.5L119.81 58.63L120.06 58.77L120.31 58.9L120.57 59.04L120.82 59.18L131.34 52.73L131.48 52.65L131.56 52.61L131.63 52.58L131.71 52.55L131.78 52.52L131.86 52.49L132.02 52.45L132.09 52.43L132.17 52.42L132.25 52.4L132.33 52.39L132.41 52.39L132.49 52.38L132.73 52.38L132.81 52.39L132.89 52.39L132.96 52.41L133.12 52.43L133.2 52.45L133.27 52.47L133.35 52.5L133.42 52.52L133.5 52.55L133.57 52.58L133.64 52.62L133.71 52.65L133.79 52.69L133.85 52.73L133.92 52.77L134.06 52.87L134.18 52.97L134.24 53.03L134.3 53.08L144.92 63.7L144.97 63.76L145.03 63.82L145.08 63.88L145.13 63.95L145.18 64.01L145.23 64.08L145.27 64.15L145.31 64.22L145.35 64.29L145.39 64.36L145.42 64.43L145.45 64.51L145.48 64.58L145.5 64.66L145.53 64.73L145.55 64.81L145.57 64.88L145.59 65.04L145.61 65.12L145.61 65.2L145.62 65.28L145.62 65.51L145.61 65.59L145.61 65.67L145.6 65.75L145.58 65.83L145.57 65.91L145.55 65.99L145.53 66.06L145.51 66.14L145.48 66.22L145.45 66.29L145.42 66.37L145.39 66.44L145.35 66.52L145.27 66.66L138.82 77.18L138.96 77.43L139.1 77.69L139.23 77.94L139.37 78.19L139.5 78.44L139.64 78.7L139.77 78.95L140.03 79.47L140.15 79.72L140.28 79.98L140.88 81.28L140.99 81.54L141.11 81.81L141.22 82.07L141.33 82.34L141.44 82.6L141.54 82.87L141.65 83.14L141.75 83.4L141.86 83.67L142.06 84.21L142.15 84.48L142.25 84.75L142.34 85.02L142.44 85.29L142.53 85.57L142.62 85.84L142.7 86.11L142.79 86.39L142.87 86.66L142.96 86.94L143.04 87.22L143.12 87.49L143.2 87.77L155.2 90.65L155.28 90.67L155.36 90.7L155.44 90.72L155.52 90.75L155.59 90.78L155.67 90.81L155.95 90.97L156.02 91.02L156.08 91.06L156.14 91.11L156.21 91.16L156.32 91.27L156.38 91.32L156.53 91.5L156.58 91.57L156.63 91.63L156.67 91.7L156.71 91.76L156.83 91.97L156.86 92.05L156.89 92.12L156.92 92.2L156.94 92.27L157.02 92.59L157.05 92.83L157.05 108.17L157.02 108.41L156.94 108.73L156.92 108.8L156.89 108.88L156.86 108.95L156.83 109.03L156.71 109.24L156.67 109.3L156.63 109.37L156.58 109.43L156.53 109.5L156.38 109.68L156.32 109.73L156.21 109.84L156.14 109.89L156.02 109.99L155.67 110.19L155.59 110.22L155.52 110.25L155.36 110.31L155.2 110.35L143.2 113.23L143.04 113.79L142.96 114.06L142.87 114.34L142.79 114.61L142.7 114.89L142.62 115.16L142.53 115.43L142.44 115.71L142.34 115.98L142.25 116.25L142.15 116.52L142.06 116.79L141.86 117.33L141.75 117.6L141.65 117.87L141.54 118.13L141.44 118.4L141.33 118.66L141.22 118.93L141.11 119.19L140.99 119.46L140.88 119.72L140.28 121.02L140.15 121.28L140.03 121.54L139.9 121.79L139.77 122.05L139.64 122.3L139.5 122.56L139.37 122.81L139.23 123.06L139.1 123.32L138.82 123.82L145.27 134.34L145.35 134.48L145.39 134.56L145.42 134.63L145.45 134.71L145.48 134.78L145.51 134.86L145.53 134.94L145.55 135.01L145.57 135.09L145.58 135.17L145.6 135.25L145.61 135.33L145.61 135.41L145.62 135.49L145.62 135.72L145.61 135.8L145.61 135.88L145.59 135.96L145.57 136.12L145.55 136.19L145.53 136.27L145.5 136.35L145.48 136.42L145.45 136.5L145.39 136.64L145.23 136.92L145.18 136.99L145.13 137.05L145.08 137.12L145.03 137.18L144.97 137.24L144.92 137.3L134.3 147.92L134.24 147.97L134.18 148.03L134.12 148.08L134.05 148.13L133.99 148.18L133.92 148.23L133.64 148.39L133.5 148.45L133.42 148.48L133.35 148.5L133.27 148.53L133.19 148.55L133.12 148.57L133.04 148.58L132.96 148.6L132.88 148.61L132.8 148.61L132.73 148.62L132.41 148.62L132.17 148.59L132.01 148.55L131.94 148.53L131.86 148.51L131.78 148.48L131.71 148.45L131.63 148.42L131.56 148.39L131.48 148.35L131.34 148.27L120.82 141.82L120.32 142.1L120.06 142.23L119.81 142.37L119.56 142.5L119.3 142.64L119.05 142.77L118.79 142.9L118.54 143.03L118.28 143.15L118.02 143.28L116.72 143.88L116.46 143.99L116.19 144.11L115.93 144.22L115.66 144.33L115.4 144.44L115.13 144.54L114.87 144.65L114.6 144.75L114.33 144.86L113.79 145.06L113.52 145.15L113.25 145.25L112.98 145.34L112.71 145.44L112.44 145.53L112.16 145.62L111.89 145.7L111.61 145.79L111.34 145.88L111.06 145.96L110.79 146.04L110.23 146.2L107.35 158.2L107.31 158.36L107.25 158.52L107.22 158.59L107.19 158.67L106.99 159.02L106.89 159.14L106.84 159.21L106.73 159.32L106.68 159.38L106.5 159.53L106.43 159.58L106.37 159.63L106.3 159.67L106.24 159.71L106.03 159.83L105.95 159.86L105.88 159.89L105.8 159.92L105.73 159.94L105.41 160.02L105.17 160.05L89.83 160.05L89.59 160.02L89.27 159.94L89.2 159.92L89.12 159.89L89.05 159.86L88.97 159.83L88.76 159.71L88.7 159.67L88.63 159.63L88.57 159.58L88.5 159.53L88.32 159.38L88.27 159.32L88.16 159.21L88.11 159.14L88.01 159.02L87.81 158.67L87.78 158.59L87.75 158.52L87.69 158.36L87.65 158.2L84.77 146.2L84.21 146.04L83.94 145.96L83.66 145.88L83.39 145.79L83.11 145.7L82.84 145.62L82.56 145.53L82.29 145.44L82.02 145.34L81.75 145.25L81.48 145.15L81.21 145.06L80.67 144.86L80.4 144.75L80.13 144.65L79.87 144.54L79.6 144.44L79.34 144.33L79.07 144.22L78.81 144.11L78.54 143.99L78.28 143.88L76.98 143.28L76.72 143.15L76.46 143.03L76.21 142.9L75.95 142.77L75.7 142.64L75.44 142.5L75.19 142.37L74.94 142.23L74.68 142.1L74.18 141.82L63.66 148.27L63.52 148.35L63.44 148.39L63.37 148.42L63.29 148.45L63.22 148.48L63.14 148.51L62.98 148.55L62.91 148.57L62.83 148.59L62.59 148.62L62.19 148.62L62.12 148.61L62.04 148.6L61.96 148.58L61.88 148.57L61.81 148.55L61.73 148.53L61.65 148.5L61.58 148.48L61.5 148.45L61.36 148.39L61.08 148.23L60.94 148.13L60.82 148.03L60.76 147.97L60.7 147.92L50.08 137.3L50.03 137.24L49.97 137.18L49.92 137.12L49.87 137.05L49.82 136.99L49.77 136.92L49.61 136.64L49.55 136.5L49.52 136.42L49.5 136.35L49.47 136.27L49.45 136.19L49.43 136.12L49.41 135.96L49.39 135.88L49.39 135.8L49.38 135.72L49.38 135.49L49.39 135.41L49.39 135.33L49.4 135.25L49.42 135.17L49.43 135.09L49.45 135.01L49.47 134.94L49.49 134.86L49.52 134.78L49.55 134.71L49.58 134.63L49.61 134.56L49.65 134.48L49.73 134.34L56.18 123.82L55.9 123.32L55.77 123.06L55.63 122.81L55.5 122.56L55.36 122.3L55.23 122.05L55.1 121.79L54.97 121.54L54.85 121.28L54.72 121.02L54.12 119.72L54.01 119.46L53.89 119.19L53.78 118.93L53.67 118.66L53.56 118.4L53.46 118.13L53.35 117.87L53.25 117.6L53.14 117.33L52.94 116.79L52.85 116.52L52.75 116.25L52.66 115.98L52.56 115.71L52.47 115.43L52.38 115.16L52.3 114.89L52.21 114.61L52.13 114.34L52.04 114.06L51.96 113.79L51.8 113.23L39.8 110.35L39.64 110.31L39.48 110.25L39.41 110.22L39.33 110.19L38.98 109.99L38.86 109.89L38.79 109.84L38.68 109.73L38.62 109.68L38.47 109.5L38.42 109.43L38.37 109.37L38.33 109.3L38.29 109.24L38.17 109.03L38.14 108.95L38.11 108.88L38.08 108.8L38.06 108.73L37.98 108.41L37.95 108.17L37.95 92.83L37.98 92.59L38.06 92.27L38.08 92.2L38.11 92.12L38.14 92.05L38.17 91.97L38.29 91.76L38.33 91.7L38.37 91.63L38.42 91.57L38.47 91.5L38.62 91.32L38.68 91.27L38.79 91.16L38.86 91.11L38.92 91.06L38.98 91.02L39.05 90.97L39.33 90.81L39.41 90.78L39.48 90.75L39.56 90.72L39.64 90.7L39.72 90.67L39.8 90.65L51.8 87.77L51.88 87.49L51.96 87.22L52.04 86.94L52.13 86.66L52.21 86.39L52.3 86.11L52.38 85.84L52.47 85.57L52.56 85.29L52.66 85.02L52.75 84.75L52.85 84.48L52.94 84.21L53.14 83.67L53.25 83.4L53.35 83.14L53.46 82.87L53.56 82.6L53.67 82.34L53.78 82.07L53.89 81.81L54.01 81.54L54.12 81.28L54.72 79.98L54.85 79.72L54.97 79.47L55.23 78.95L55.36 78.7L55.5 78.44L55.63 78.19L55.77 77.94L55.9 77.69L56.04 77.43L56.18 77.18L49.73 66.66L49.65 66.52L49.61 66.44L49.58 66.37L49.55 66.29L49.52 66.22L49.49 66.14L49.47 66.06L49.45 65.99L49.43 65.91L49.42 65.83L49.4 65.75L49.39 65.67L49.39 65.59L49.38 65.51L49.38 65.28L49.39 65.2L49.39 65.12L49.41 65.04L49.43 64.88L49.45 64.81L49.47 64.73L49.5 64.66L49.52 64.58L49.55 64.51L49.58 64.43L49.61 64.36L49.65 64.29L49.69 64.22L49.73 64.15L49.77 64.08L49.82 64.01L49.87 63.95L49.92 63.88L49.97 63.82L50.03 63.76L50.08 63.7L60.7 53.08L60.76 53.03L60.82 52.97L60.88 52.92L60.95 52.87L61.01 52.82L61.08 52.77L61.36 52.61L61.5 52.55L61.58 52.52L61.65 52.5L61.73 52.47L61.81 52.45L61.88 52.43L61.96 52.42L62.04 52.4L62.12 52.39L62.2 52.39L62.27 52.38L62.59 52.38L62.75 52.4L62.83 52.42L62.91 52.43L62.99 52.45L63.06 52.47L63.14 52.49L63.22 52.52L63.29 52.55L63.37 52.58L63.44 52.61L63.52 52.65L63.66 52.73L74.18 59.18L74.43 59.04L74.69 58.9L74.94 58.77L75.19 58.63L75.44 58.5L75.7 58.36L75.95 58.23L76.21 58.1L76.46 57.98L76.98 57.72L78.28 57.12L78.54 57.01L78.81 56.9L79.07 56.78L79.34 56.67L79.6 56.56L79.87 56.46L80.13 56.35L80.4 56.25L80.67 56.14L81.21 55.94L81.48 55.85L81.75 55.75L82.02 55.66L82.29 55.56L82.56 55.47L82.84 55.38L83.11 55.3L83.39 55.21L83.66 55.13L83.94 55.04L84.21 54.96L84.77 54.8L87.65 42.8L87.69 42.64L87.75 42.48L87.78 42.41L87.81 42.33L88.01 41.98L88.11 41.86L88.16 41.79L88.27 41.68L88.32 41.62L88.5 41.47L88.57 41.42L88.63 41.37L88.7 41.33L88.76 41.29L88.97 41.17L89.05 41.14L89.12 41.11L89.2 41.08L89.27 41.06L89.59 40.98L89.83 40.95L105.17 40.95L105.41 40.98L105.73 41.06ZM89.21 56.98L89.2 57.06L89.19 57.13L89.18 57.21L89.14 57.35L89.13 57.43L89.1 57.5L89.06 57.64L89.03 57.7L88.97 57.84L88.94 57.9L88.9 57.97L88.7 58.27L88.65 58.33L88.6 58.38L88.55 58.44L88.45 58.54L88.39 58.59L88.34 58.64L88.28 58.68L88.22 58.73L88.1 58.81L88.03 58.85L87.97 58.89L87.62 59.04L87.55 59.06L87.47 59.08L87.4 59.1L86.76 59.26L86.44 59.35L86.13 59.43L85.81 59.52L85.5 59.61L85.18 59.7L83.63 60.2L83.01 60.42L82.71 60.53L82.4 60.65L82.1 60.76L81.8 60.88L81.49 61L81.19 61.13L80.89 61.25L80.29 61.51L80 61.64L79.7 61.78L79.41 61.91L79.11 62.05L78.82 62.19L78.53 62.34L78.24 62.48L77.37 62.93L77.08 63.09L76.52 63.41L76.23 63.57L75.95 63.73L75.67 63.9L75.39 64.07L75.33 64.1L75.19 64.18L75.12 64.21L75.05 64.24L74.98 64.26L74.91 64.29L74.84 64.31L74.77 64.33L74.7 64.35L74.63 64.37L74.56 64.38L74.48 64.39L74.41 64.4L74.34 64.41L74.27 64.41L74.19 64.42L74.05 64.42L73.98 64.41L73.9 64.41L73.83 64.4L73.76 64.39L73.69 64.37L73.62 64.36L73.48 64.32L73.41 64.3L73.34 64.28L73.27 64.26L73.2 64.23L73.14 64.2L73.07 64.17L73 64.13L72.94 64.1L72.88 64.06L72.81 64.02L72.75 63.98L72.69 63.94L72.63 63.89L62.76 57.84L54.84 65.76L60.93 75.7L60.98 75.76L61.02 75.82L61.05 75.88L61.09 75.94L61.13 76.01L61.19 76.13L61.22 76.2L61.24 76.26L61.27 76.33L61.29 76.4L61.31 76.46L61.35 76.6L61.36 76.67L61.38 76.74L61.4 76.88L61.4 76.95L61.41 77.02L61.41 77.3L61.4 77.37L61.4 77.44L61.39 77.51L61.37 77.58L61.36 77.65L61.34 77.72L61.33 77.79L61.31 77.86L61.28 77.93L61.26 77.99L61.17 78.2L61.14 78.26L61.1 78.33L61.06 78.39L60.9 78.67L60.73 78.95L60.57 79.23L60.4 79.52L60.25 79.8L60.09 80.08L59.93 80.37L59.48 81.24L59.34 81.53L59.19 81.82L59.05 82.11L58.91 82.41L58.78 82.7L58.64 83L58.51 83.29L58.25 83.89L58.13 84.19L58 84.49L57.88 84.8L57.76 85.1L57.65 85.4L57.53 85.71L57.42 86.02L57.31 86.32L57.21 86.63L57.1 86.94L56.8 87.87L56.71 88.18L56.61 88.5L56.52 88.81L56.43 89.13L56.35 89.44L56.26 89.76L56.08 90.48L56.06 90.55L56.04 90.63L56.01 90.7L55.98 90.78L55.95 90.85L55.87 90.99L55.84 91.06L55.79 91.12L55.75 91.19L55.71 91.25L55.51 91.49L55.45 91.54L55.4 91.6L55.22 91.75L55.1 91.83L55.03 91.88L54.97 91.92L54.9 91.95L54.83 91.99L54.55 92.11L54.48 92.13L54.4 92.15L54.33 92.17L54.25 92.19L54.17 92.2L54.1 92.22L54.02 92.23L53.94 92.23L53.86 92.24L42.77 94.9L42.77 106.1L53.99 108.79L54.06 108.8L54.14 108.81L54.21 108.82L54.28 108.84L54.36 108.86L54.43 108.87L54.5 108.9L54.64 108.94L54.71 108.97L54.77 109L54.84 109.03L54.91 109.07L54.97 109.1L55.03 109.14L55.1 109.18L55.16 109.22L55.21 109.26L55.27 109.31L55.33 109.35L55.38 109.4L55.44 109.45L55.54 109.55L55.59 109.61L55.64 109.66L55.68 109.72L55.73 109.78L55.77 109.84L55.81 109.91L55.89 110.03L56.04 110.38L56.06 110.45L56.09 110.53L56.1 110.6L56.26 111.24L56.35 111.56L56.43 111.87L56.52 112.19L56.61 112.5L56.71 112.82L56.8 113.13L57.1 114.06L57.21 114.37L57.31 114.68L57.42 114.99L57.53 115.29L57.65 115.6L57.76 115.9L57.88 116.2L58 116.51L58.13 116.81L58.25 117.11L58.51 117.71L58.64 118L58.78 118.3L58.91 118.59L59.05 118.89L59.19 119.18L59.34 119.47L59.48 119.76L59.93 120.63L60.09 120.92L60.25 121.2L60.4 121.49L60.57 121.77L60.73 122.05L60.9 122.33L61.1 122.68L61.14 122.74L61.17 122.81L61.21 122.88L61.24 122.95L61.26 123.02L61.29 123.09L61.37 123.37L61.38 123.44L61.39 123.52L61.41 123.66L61.41 123.73L61.42 123.81L61.42 123.88L61.41 123.95L61.41 124.02L61.4 124.1L61.4 124.17L61.39 124.24L61.37 124.31L61.36 124.38L61.28 124.66L61.25 124.73L61.23 124.8L61.2 124.86L61.17 124.93L61.13 124.99L61.1 125.06L60.94 125.3L60.89 125.36L54.84 135.24L62.76 143.16L72.7 137.07L72.76 137.03L72.82 136.98L72.88 136.95L72.94 136.91L73.01 136.88L73.07 136.84L73.13 136.81L73.2 136.78L73.26 136.76L73.33 136.73L73.4 136.71L73.46 136.69L73.6 136.65L73.67 136.64L73.74 136.62L73.88 136.6L73.95 136.6L74.02 136.59L74.3 136.59L74.44 136.61L74.51 136.61L74.58 136.63L74.65 136.64L74.72 136.66L74.79 136.67L74.86 136.69L74.93 136.72L74.99 136.74L75.2 136.83L75.26 136.86L75.33 136.9L75.39 136.94L75.67 137.1L75.95 137.27L76.23 137.43L76.52 137.6L76.8 137.75L77.08 137.91L77.37 138.07L78.24 138.52L78.53 138.66L78.82 138.81L79.11 138.95L79.41 139.09L79.7 139.23L80 139.36L80.29 139.49L81.19 139.88L81.49 140L81.8 140.12L82.1 140.24L82.4 140.35L82.71 140.47L83.01 140.58L83.63 140.8L85.18 141.3L85.5 141.39L85.81 141.48L86.13 141.57L86.44 141.65L86.76 141.74L87.48 141.92L87.55 141.94L87.63 141.97L87.7 141.99L87.78 142.02L87.85 142.06L87.92 142.09L88.13 142.21L88.19 142.25L88.25 142.3L88.32 142.34L88.38 142.39L88.43 142.44L88.49 142.49L88.6 142.6L88.75 142.78L88.79 142.84L88.84 142.91L88.88 142.97L88.92 143.04L88.95 143.1L88.99 143.17L89.11 143.45L89.13 143.53L89.15 143.6L89.17 143.68L89.19 143.75L89.2 143.83L89.22 143.91L89.23 143.99L89.23 144.07L89.24 144.14L91.9 155.23L103.1 155.23L105.79 144.02L105.8 143.94L105.81 143.87L105.82 143.79L105.86 143.65L105.87 143.58L105.9 143.5L105.94 143.36L105.97 143.3L106.03 143.16L106.06 143.1L106.1 143.03L106.3 142.73L106.35 142.67L106.4 142.62L106.45 142.56L106.55 142.46L106.61 142.41L106.66 142.36L106.72 142.32L106.78 142.27L106.9 142.19L106.97 142.15L107.03 142.12L107.1 142.08L107.38 141.96L107.45 141.94L107.53 141.92L107.6 141.9L108.24 141.74L108.56 141.65L108.87 141.57L109.19 141.48L109.5 141.39L109.82 141.3L111.37 140.8L111.99 140.58L112.29 140.47L112.6 140.35L112.9 140.24L113.2 140.12L113.51 140L113.81 139.88L114.71 139.49L115 139.36L115.3 139.23L115.59 139.09L115.89 138.95L116.18 138.81L116.47 138.66L116.76 138.52L117.63 138.07L117.92 137.91L118.2 137.75L118.48 137.6L118.77 137.43L119.05 137.27L119.33 137.1L119.61 136.94L119.67 136.9L119.74 136.86L119.81 136.83L119.88 136.79L119.95 136.76L120.02 136.74L120.09 136.71L120.37 136.63L120.44 136.62L120.52 136.61L120.66 136.59L120.81 136.59L120.88 136.58L120.95 136.59L121.02 136.59L121.1 136.6L121.17 136.6L121.24 136.61L121.31 136.63L121.38 136.64L121.66 136.72L121.73 136.75L121.79 136.77L121.93 136.83L121.99 136.87L122.06 136.9L122.3 137.06L122.36 137.11L132.24 143.16L140.16 135.24L134.07 125.3L134.02 125.24L133.98 125.18L133.95 125.12L133.87 125L133.84 124.93L133.81 124.87L133.78 124.8L133.76 124.74L133.73 124.67L133.71 124.61L133.65 124.4L133.64 124.33L133.62 124.26L133.61 124.2L133.6 124.13L133.6 124.06L133.59 123.99L133.59 123.7L133.6 123.63L133.6 123.56L133.61 123.49L133.63 123.42L133.64 123.35L133.66 123.28L133.67 123.21L133.69 123.14L133.72 123.07L133.74 123.01L133.83 122.8L133.86 122.74L133.9 122.67L133.94 122.61L134.1 122.33L134.27 122.05L134.43 121.77L134.6 121.49L134.75 121.2L134.91 120.92L135.07 120.63L135.52 119.76L135.66 119.47L135.81 119.18L135.95 118.89L136.09 118.59L136.22 118.3L136.36 118L136.49 117.71L136.75 117.11L136.87 116.81L137 116.51L137.12 116.2L137.24 115.9L137.35 115.6L137.47 115.29L137.58 114.99L137.69 114.68L137.79 114.37L137.9 114.06L138.2 113.13L138.29 112.82L138.39 112.5L138.48 112.19L138.57 111.87L138.65 111.56L138.74 111.24L138.9 110.6L138.92 110.53L138.96 110.37L138.99 110.3L139.02 110.22L139.05 110.15L139.13 110.01L139.16 109.94L139.21 109.88L139.25 109.81L139.29 109.75L139.49 109.51L139.55 109.46L139.6 109.4L139.72 109.3L139.78 109.26L139.84 109.21L139.9 109.17L139.97 109.13L140.03 109.09L140.17 109.01L140.45 108.89L140.52 108.87L140.6 108.85L140.67 108.83L140.75 108.81L140.83 108.8L140.9 108.78L140.98 108.78L141.14 108.76L152.23 106.1L152.23 94.9L141.01 92.21L140.94 92.2L140.86 92.19L140.79 92.18L140.72 92.16L140.64 92.14L140.57 92.13L140.5 92.1L140.36 92.06L140.29 92.03L140.23 92L140.09 91.94L139.97 91.86L139.9 91.82L139.84 91.78L139.79 91.74L139.73 91.7L139.67 91.65L139.62 91.6L139.56 91.55L139.46 91.45L139.41 91.39L139.36 91.34L139.32 91.28L139.27 91.22L139.19 91.1L139.15 91.03L139.11 90.97L138.96 90.62L138.94 90.55L138.91 90.47L138.9 90.4L138.74 89.76L138.65 89.44L138.57 89.13L138.48 88.81L138.39 88.5L138.29 88.18L138.2 87.87L137.9 86.94L137.79 86.63L137.69 86.32L137.58 86.02L137.47 85.71L137.35 85.4L137.24 85.1L137.12 84.8L137 84.49L136.87 84.19L136.75 83.89L136.49 83.29L136.36 83L136.22 82.7L136.09 82.41L135.95 82.11L135.81 81.82L135.66 81.53L135.52 81.24L135.07 80.37L134.91 80.08L134.75 79.8L134.6 79.52L134.43 79.23L134.27 78.95L134.1 78.67L133.94 78.39L133.9 78.33L133.86 78.26L133.83 78.19L133.79 78.12L133.76 78.05L133.74 77.98L133.71 77.91L133.63 77.63L133.62 77.56L133.61 77.48L133.59 77.34L133.59 77.27L133.58 77.19L133.58 77.12L133.59 77.05L133.59 76.98L133.6 76.9L133.6 76.83L133.61 76.76L133.63 76.69L133.64 76.62L133.72 76.34L133.75 76.27L133.77 76.21L133.83 76.07L133.87 76.01L133.9 75.94L134.06 75.7L134.11 75.64L140.16 65.76L132.24 57.84L122.3 63.93L122.24 63.97L122.18 64.02L122.12 64.05L122.06 64.09L122 64.13L121.93 64.16L121.87 64.19L121.8 64.22L121.74 64.25L121.67 64.27L121.61 64.29L121.54 64.31L121.47 64.33L121.4 64.35L121.33 64.37L121.26 64.38L121.2 64.39L121.13 64.4L121.06 64.41L120.7 64.41L120.63 64.4L120.56 64.4L120.42 64.38L120.35 64.36L120.28 64.35L120.21 64.33L120.14 64.31L120.07 64.28L120.01 64.26L119.8 64.17L119.74 64.14L119.67 64.1L119.61 64.07L119.33 63.9L119.05 63.73L118.77 63.57L118.48 63.41L117.92 63.09L117.63 62.93L116.76 62.48L116.47 62.34L116.18 62.19L115.89 62.05L115.59 61.91L115.3 61.78L115 61.64L114.71 61.51L114.11 61.25L113.81 61.13L113.51 61L113.2 60.88L112.9 60.76L112.6 60.65L112.29 60.53L111.99 60.42L111.37 60.2L109.82 59.7L109.5 59.61L109.19 59.52L108.87 59.43L108.56 59.35L108.24 59.26L107.52 59.08L107.45 59.06L107.37 59.03L107.3 59.01L107.22 58.98L107.15 58.94L107.08 58.91L106.87 58.79L106.75 58.71L106.68 58.66L106.62 58.61L106.57 58.56L106.51 58.51L106.4 58.4L106.25 58.22L106.21 58.16L106.16 58.1L106.12 58.03L106.08 57.97L106.05 57.9L106.01 57.83L105.89 57.55L105.87 57.47L105.85 57.4L105.83 57.32L105.81 57.25L105.8 57.17L105.78 57.09L105.77 57.01L105.77 56.94L105.76 56.86L103.1 45.77L91.9 45.77L89.21 56.98Z" id="a4XNRZg0ik"></path><path d="M90.67 84.92L90.83 84.96L90.99 85.01L91.14 85.07L91.29 85.14L91.43 85.22L91.56 85.31L91.69 85.41L91.93 85.63L92.03 85.75L92.13 85.88L92.22 86.01L92.3 86.15L92.37 86.3L92.43 86.45L92.48 86.61L92.52 86.77L92.55 86.94L92.57 87.11L92.58 87.28L92.58 113.72L92.57 113.89L92.55 114.06L92.52 114.23L92.48 114.39L92.43 114.55L92.37 114.7L92.3 114.85L92.22 114.99L92.13 115.12L92.03 115.25L91.93 115.37L91.69 115.59L91.56 115.69L91.43 115.78L91.29 115.86L91.14 115.93L90.99 115.99L90.83 116.04L90.67 116.08L90.51 116.11L90.34 116.13L81.52 116.13L80.64 116.1L79.78 116.01L78.94 115.86L78.12 115.66L77.33 115.4L76.56 115.09L75.81 114.72L75.09 114.32L74.41 113.86L73.76 113.36L73.14 112.82L72.56 112.24L72.02 111.63L71.52 110.97L71.07 110.29L70.66 109.57L70.3 108.83L69.99 108.06L69.73 107.26L69.52 106.44L69.37 105.6L69.28 104.74L69.25 103.87L69.25 102.91L59.47 102.91L59.47 98.09L69.25 98.09L69.25 97.13L69.28 96.26L69.37 95.4L69.52 94.56L69.73 93.74L69.99 92.94L70.3 92.17L70.66 91.43L71.07 90.71L71.52 90.03L72.02 89.37L72.56 88.76L73.14 88.18L73.76 87.64L74.41 87.14L75.09 86.68L75.81 86.28L76.56 85.91L77.33 85.6L78.12 85.34L78.94 85.14L79.78 84.99L80.64 84.9L81.52 84.87L90.34 84.87L90.51 84.89L90.67 84.92ZM80.51 89.76L79.54 89.96L78.62 90.28L77.76 90.71L76.97 91.24L76.26 91.87L75.63 92.59L75.09 93.38L74.66 94.24L74.34 95.16L74.14 96.12L74.07 97.13L74.07 103.87L74.14 104.88L74.34 105.84L74.66 106.76L75.09 107.62L75.63 108.41L76.26 109.13L76.97 109.76L77.76 110.29L78.62 110.72L79.54 111.04L80.51 111.24L81.52 111.31L87.75 111.31L87.75 89.69L81.52 89.69L80.51 89.76Z" id="f1ffkXE1mN"></path><path d="M119.17 84.92L119.62 84.99L120.06 85.08L120.5 85.21L120.93 85.36L121.36 85.53L121.79 85.74L122.22 85.97L122.65 86.23L123.07 86.52L123.49 86.83L123.9 87.17L124.32 87.54L124.73 87.93L125.13 88.36L125.54 88.81L125.94 89.28L126.34 89.79L126.73 90.32L127.13 90.88L127.52 91.46L127.91 92.08L128.29 92.72L128.67 93.38L129.05 94.08L129.43 94.8L129.8 95.55L130.17 96.33L130.54 97.13L130.54 98.09L140.32 98.09L140.32 102.91L130.54 102.91L130.54 103.87L130.52 104.54L130.47 105.2L130.38 105.85L130.26 106.5L130.1 107.12L129.92 107.74L129.7 108.34L129.45 108.93L129.17 109.5L128.87 110.05L128.53 110.59L128.17 111.11L127.79 111.6L127.38 112.08L126.95 112.54L126.49 112.97L126.01 113.38L125.52 113.76L125 114.12L124.46 114.46L123.91 114.76L123.34 115.04L122.75 115.29L122.15 115.51L121.53 115.7L120.91 115.85L120.26 115.97L119.61 116.06L118.95 116.12L118.28 116.13L109.49 116.13L109.36 116.12L109.24 116.1L109.11 116.08L108.99 116.05L108.86 116.01L108.75 115.97L108.63 115.92L108.3 115.74L108.2 115.67L108.1 115.59L107.92 115.43L107.84 115.34L107.76 115.24L107.68 115.15L107.61 115.04L107.54 114.94L107.48 114.83L107.43 114.72L107.38 114.6L107.3 114.36L107.27 114.24L107.23 113.98L107.22 113.85L107.21 113.72L107.21 108.87L97.48 108.87L97.48 104.04L107.21 104.04L107.21 96.49L97.48 96.49L97.48 91.66L107.21 91.66L107.21 87.28L107.22 87.15L107.23 87.02L107.27 86.76L107.3 86.64L107.38 86.4L107.43 86.28L107.48 86.17L107.54 86.06L107.61 85.96L107.68 85.85L107.76 85.76L107.84 85.66L107.92 85.57L108.1 85.41L108.2 85.33L108.3 85.26L108.63 85.08L108.75 85.03L108.86 84.99L108.99 84.95L109.11 84.92L109.24 84.9L109.36 84.88L109.49 84.87L118.28 84.87L118.73 84.88L119.17 84.92ZM112.04 111.31L118.28 111.31L118.96 111.26L119.62 111.1L120.28 110.84L120.93 110.48L121.56 110.02L122.19 109.45L122.8 108.78L123.41 108L124 107.12L124.58 106.14L125.16 105.06L125.72 103.87L125.72 97.13L125.65 96.12L125.45 95.16L125.13 94.24L124.7 93.38L124.17 92.59L123.54 91.87L122.82 91.24L122.03 90.71L121.17 90.28L120.25 89.96L119.29 89.76L118.28 89.69L112.04 89.69L112.04 111.31Z" id="fL30Ah4Fz"></path></defs><g><g><g><use xlink:href="#bjWxL0htC" opacity="1" fill="#000000" fill-opacity="0"></use><g><use xlink:href="#bjWxL0htC" opacity="1" fill-opacity="0" stroke="#000000" stroke-width="1" stroke-opacity="0"></use></g></g><g><use xlink:href="#ekZDrT60z" opacity="1" fill="#000000" fill-opacity="0"></use><g><use xlink:href="#ekZDrT60z" opacity="1" fill-opacity="0" stroke="#00c7fc" stroke-width="1" stroke-opacity="1"></use></g></g><g><use xlink:href="#a4XNRZg0ik" opacity="1" fill="#000000" fill-opacity="1"></use><g><use xlink:href="#a4XNRZg0ik" opacity="1" fill-opacity="0" stroke="#000000" stroke-width="1" stroke-opacity="0"></use></g></g><g><use xlink:href="#f1ffkXE1mN" opacity="1" fill="#000000" fill-opacity="1"></use><g><use xlink:href="#f1ffkXE1mN" opacity="1" fill-opacity="0" stroke="#000000" stroke-width="1" stroke-opacity="0"></use></g></g><g><use xlink:href="#fL30Ah4Fz" opacity="1" fill="#000000" fill-opacity="1"></use><g><use xlink:href="#fL30Ah4Fz" opacity="1" fill-opacity="0" stroke="#000000" stroke-width="1" stroke-opacity="0"></use></g></g></g></g></svg>