<?xml version="1.0" encoding="UTF-8"?>
<!DOCTYPE svg  PUBLIC '-//W3C//DTD SVG 1.1//EN'  'http://www.w3.org/Graphics/SVG/1.1/DTD/svg11.dtd'>
<svg version="1.1" viewBox="0 0 195 202" xmlns="http://www.w3.org/2000/svg" xmlns:xlink="http://www.w3.org/1999/xlink">
<defs>
<path id="d" d="m192.65 150.28v-99.57l-95.17-49.78-95.17 49.78v99.57l95.17 49.79 95.17-49.79z"/>
<path id="c" d="m192.65 150.28v-99.57l-95.17-49.78-95.17 49.78v99.57l95.17 49.79 95.17-49.79z"/>
<path id="e" d="m105.73 41.06l0.07 0.02 0.08 0.03 0.07 0.03 0.08 0.03 0.21 0.12 0.06 0.04 0.07 0.04 0.06 0.05 0.07 0.05 0.18 0.15 0.05 0.06 0.11 0.11 0.05 0.07 0.1 0.12 0.2 0.35 0.03 0.08 0.03 0.07 0.06 0.16 0.04 0.16 2.88 12 0.56 0.16 0.27 0.08 0.28 0.09 0.27 0.08 0.28 0.09 0.27 0.08 0.28 0.09 0.27 0.09 0.27 0.1 0.27 0.09 0.27 0.1 0.27 0.09 0.54 0.2 0.27 0.11 0.27 0.1 0.26 0.11 0.27 0.1 0.26 0.11 0.27 0.11 0.26 0.12 0.27 0.11 0.26 0.11 1.3 0.6 0.52 0.26 0.25 0.12 0.26 0.13 0.25 0.13 0.26 0.14 0.25 0.13 0.25 0.14 0.25 0.13 0.26 0.14 0.25 0.14 10.52-6.45 0.14-0.08 0.08-0.04 0.07-0.03 0.08-0.03 0.07-0.03 0.08-0.03 0.16-0.04 0.07-0.02 0.08-0.01 0.08-0.02 0.08-0.01h0.08l0.08-0.01h0.24l0.08 0.01h0.08l0.07 0.02 0.16 0.02 0.08 0.02 0.07 0.02 0.08 0.03 0.07 0.02 0.08 0.03 0.07 0.03 0.07 0.04 0.07 0.03 0.08 0.04 0.06 0.04 0.07 0.04 0.14 0.1 0.12 0.1 0.06 0.06 0.06 0.05 10.62 10.62 0.05 0.06 0.06 0.06 0.05 0.06 0.05 0.07 0.05 0.06 0.05 0.07 0.04 0.07 0.04 0.07 0.04 0.07 0.04 0.07 0.03 0.07 0.03 0.08 0.03 0.07 0.02 0.08 0.03 0.07 0.02 0.08 0.02 0.07 0.02 0.16 0.02 0.08v0.08l0.01 0.08v0.23l-0.01 0.08v0.08l-0.01 0.08-0.02 0.08-0.01 0.08-0.02 0.08-0.02 0.07-0.02 0.08-0.03 0.08-0.03 0.07-0.03 0.08-0.03 0.07-0.04 0.08-0.08 0.14-6.45 10.52 0.14 0.25 0.14 0.26 0.13 0.25 0.14 0.25 0.13 0.25 0.14 0.26 0.13 0.25 0.26 0.52 0.12 0.25 0.13 0.26 0.6 1.3 0.11 0.26 0.12 0.27 0.11 0.26 0.11 0.27 0.11 0.26 0.1 0.27 0.11 0.27 0.1 0.26 0.11 0.27 0.2 0.54 0.09 0.27 0.1 0.27 0.09 0.27 0.1 0.27 0.09 0.28 0.09 0.27 0.08 0.27 0.09 0.28 0.08 0.27 0.09 0.28 0.08 0.28 0.08 0.27 0.08 0.28 12 2.88 0.08 0.02 0.08 0.03 0.08 0.02 0.08 0.03 0.07 0.03 0.08 0.03 0.28 0.16 0.07 0.05 0.06 0.04 0.06 0.05 0.07 0.05 0.11 0.11 0.06 0.05 0.15 0.18 0.05 0.07 0.05 0.06 0.04 0.07 0.04 0.06 0.12 0.21 0.03 0.08 0.03 0.07 0.03 0.08 0.02 0.07 0.08 0.32 0.03 0.24v15.34l-0.03 0.24-0.08 0.32-0.02 0.07-0.03 0.08-0.03 0.07-0.03 0.08-0.12 0.21-0.04 0.06-0.04 0.07-0.05 0.06-0.05 0.07-0.15 0.18-0.06 0.05-0.11 0.11-0.07 0.05-0.12 0.1-0.35 0.2-0.08 0.03-0.07 0.03-0.16 0.06-0.16 0.04-12 2.88-0.16 0.56-0.08 0.27-0.09 0.28-0.08 0.27-0.09 0.28-0.08 0.27-0.09 0.27-0.09 0.28-0.1 0.27-0.09 0.27-0.1 0.27-0.09 0.27-0.2 0.54-0.11 0.27-0.1 0.27-0.11 0.26-0.1 0.27-0.11 0.26-0.11 0.27-0.11 0.26-0.12 0.27-0.11 0.26-0.6 1.3-0.13 0.26-0.12 0.26-0.13 0.25-0.13 0.26-0.13 0.25-0.14 0.26-0.13 0.25-0.14 0.25-0.13 0.26-0.28 0.5 6.45 10.52 0.08 0.14 0.04 0.08 0.03 0.07 0.03 0.08 0.03 0.07 0.03 0.08 0.02 0.08 0.02 0.07 0.02 0.08 0.01 0.08 0.02 0.08 0.01 0.08v0.08l0.01 0.08v0.23l-0.01 0.08v0.08l-0.02 0.08-0.02 0.16-0.02 0.07-0.02 0.08-0.03 0.08-0.02 0.07-0.03 0.08-0.06 0.14-0.16 0.28-0.05 0.07-0.05 0.06-0.05 0.07-0.05 0.06-0.06 0.06-0.05 0.06-10.62 10.62-0.06 0.05-0.06 0.06-0.06 0.05-0.07 0.05-0.06 0.05-0.07 0.05-0.28 0.16-0.14 0.06-0.08 0.03-0.07 0.02-0.08 0.03-0.08 0.02-0.07 0.02-0.08 0.01-0.08 0.02-0.08 0.01h-0.08l-0.07 0.01h-0.32l-0.24-0.03-0.16-0.04-0.07-0.02-0.08-0.02-0.08-0.03-0.07-0.03-0.08-0.03-0.07-0.03-0.08-0.04-0.14-0.08-10.52-6.45-0.5 0.28-0.26 0.13-0.25 0.14-0.25 0.13-0.26 0.14-0.25 0.13-0.26 0.13-0.25 0.13-0.26 0.12-0.26 0.13-1.3 0.6-0.26 0.11-0.27 0.12-0.26 0.11-0.27 0.11-0.26 0.11-0.27 0.1-0.26 0.11-0.27 0.1-0.27 0.11-0.54 0.2-0.27 0.09-0.27 0.1-0.27 0.09-0.27 0.1-0.27 0.09-0.28 0.09-0.27 0.08-0.28 0.09-0.27 0.09-0.28 0.08-0.27 0.08-0.56 0.16-2.88 12-0.04 0.16-0.06 0.16-0.03 0.07-0.03 0.08-0.2 0.35-0.1 0.12-0.05 0.07-0.11 0.11-0.05 0.06-0.18 0.15-0.07 0.05-0.06 0.05-0.07 0.04-0.06 0.04-0.21 0.12-0.08 0.03-0.07 0.03-0.08 0.03-0.07 0.02-0.32 0.08-0.24 0.03h-15.34l-0.24-0.03-0.32-0.08-0.07-0.02-0.08-0.03-0.07-0.03-0.08-0.03-0.21-0.12-0.06-0.04-0.07-0.04-0.06-0.05-0.07-0.05-0.18-0.15-0.05-0.06-0.11-0.11-0.05-0.07-0.1-0.12-0.2-0.35-0.03-0.08-0.03-0.07-0.06-0.16-0.04-0.16-2.88-12-0.56-0.16-0.27-0.08-0.28-0.08-0.27-0.09-0.28-0.09-0.27-0.08-0.28-0.09-0.27-0.09-0.27-0.1-0.27-0.09-0.27-0.1-0.27-0.09-0.54-0.2-0.27-0.11-0.27-0.1-0.26-0.11-0.27-0.1-0.26-0.11-0.27-0.11-0.26-0.11-0.27-0.12-0.26-0.11-1.3-0.6-0.26-0.13-0.26-0.12-0.25-0.13-0.26-0.13-0.25-0.13-0.26-0.14-0.25-0.13-0.25-0.14-0.26-0.13-0.5-0.28-10.52 6.45-0.14 0.08-0.08 0.04-0.07 0.03-0.08 0.03-0.07 0.03-0.08 0.03-0.16 0.04-0.07 0.02-0.08 0.02-0.24 0.03h-0.4l-0.07-0.01-0.08-0.01-0.08-0.02-0.08-0.01-0.07-0.02-0.08-0.02-0.08-0.03-0.07-0.02-0.08-0.03-0.14-0.06-0.28-0.16-0.14-0.1-0.12-0.1-0.06-0.06-0.06-0.05-10.62-10.62-0.05-0.06-0.06-0.06-0.05-0.06-0.05-0.07-0.05-0.06-0.05-0.07-0.16-0.28-0.06-0.14-0.03-0.08-0.02-0.07-0.03-0.08-0.02-0.08-0.02-0.07-0.02-0.16-0.02-0.08v-0.08l-0.01-0.08v-0.23l0.01-0.08v-0.08l0.01-0.08 0.02-0.08 0.01-0.08 0.02-0.08 0.02-0.07 0.02-0.08 0.03-0.08 0.03-0.07 0.03-0.08 0.03-0.07 0.04-0.08 0.08-0.14 6.45-10.52-0.28-0.5-0.13-0.26-0.14-0.25-0.13-0.25-0.14-0.26-0.13-0.25-0.13-0.26-0.13-0.25-0.12-0.26-0.13-0.26-0.6-1.3-0.11-0.26-0.12-0.27-0.11-0.26-0.11-0.27-0.11-0.26-0.1-0.27-0.11-0.26-0.1-0.27-0.11-0.27-0.2-0.54-0.09-0.27-0.1-0.27-0.09-0.27-0.1-0.27-0.09-0.28-0.09-0.27-0.08-0.27-0.09-0.28-0.08-0.27-0.09-0.28-0.08-0.27-0.16-0.56-12-2.88-0.16-0.04-0.16-0.06-0.07-0.03-0.08-0.03-0.35-0.2-0.12-0.1-0.07-0.05-0.11-0.11-0.06-0.05-0.15-0.18-0.05-0.07-0.05-0.06-0.04-0.07-0.04-0.06-0.12-0.21-0.03-0.08-0.03-0.07-0.03-0.08-0.02-0.07-0.08-0.32-0.03-0.24v-15.34l0.03-0.24 0.08-0.32 0.02-0.07 0.03-0.08 0.03-0.07 0.03-0.08 0.12-0.21 0.04-0.06 0.04-0.07 0.05-0.06 0.05-0.07 0.15-0.18 0.06-0.05 0.11-0.11 0.07-0.05 0.06-0.05 0.06-0.04 0.07-0.05 0.28-0.16 0.08-0.03 0.07-0.03 0.08-0.03 0.08-0.02 0.08-0.03 0.08-0.02 12-2.88 0.08-0.28 0.08-0.27 0.08-0.28 0.09-0.28 0.08-0.27 0.09-0.28 0.08-0.27 0.09-0.27 0.09-0.28 0.1-0.27 0.09-0.27 0.1-0.27 0.09-0.27 0.2-0.54 0.11-0.27 0.1-0.26 0.11-0.27 0.1-0.27 0.11-0.26 0.11-0.27 0.11-0.26 0.12-0.27 0.11-0.26 0.6-1.3 0.13-0.26 0.12-0.25 0.26-0.52 0.13-0.25 0.14-0.26 0.13-0.25 0.14-0.25 0.13-0.25 0.14-0.26 0.14-0.25-6.45-10.52-0.08-0.14-0.04-0.08-0.03-0.07-0.03-0.08-0.03-0.07-0.03-0.08-0.02-0.08-0.02-0.07-0.02-0.08-0.01-0.08-0.02-0.08-0.01-0.08v-0.08l-0.01-0.08v-0.23l0.01-0.08v-0.08l0.02-0.08 0.02-0.16 0.02-0.07 0.02-0.08 0.03-0.07 0.02-0.08 0.03-0.07 0.03-0.08 0.03-0.07 0.04-0.07 0.04-0.07 0.04-0.07 0.04-0.07 0.05-0.07 0.05-0.06 0.05-0.07 0.05-0.06 0.06-0.06 0.05-0.06 10.62-10.62 0.06-0.05 0.06-0.06 0.06-0.05 0.07-0.05 0.06-0.05 0.07-0.05 0.28-0.16 0.14-0.06 0.08-0.03 0.07-0.02 0.08-0.03 0.08-0.02 0.07-0.02 0.08-0.01 0.08-0.02 0.08-0.01h0.08l0.07-0.01h0.32l0.16 0.02 0.08 0.02 0.08 0.01 0.08 0.02 0.07 0.02 0.08 0.02 0.08 0.03 0.07 0.03 0.08 0.03 0.07 0.03 0.08 0.04 0.14 0.08 10.52 6.45 0.25-0.14 0.26-0.14 0.25-0.13 0.25-0.14 0.25-0.13 0.26-0.14 0.25-0.13 0.26-0.13 0.25-0.12 0.52-0.26 1.3-0.6 0.26-0.11 0.27-0.11 0.26-0.12 0.27-0.11 0.26-0.11 0.27-0.1 0.26-0.11 0.27-0.1 0.27-0.11 0.54-0.2 0.27-0.09 0.27-0.1 0.27-0.09 0.27-0.1 0.27-0.09 0.28-0.09 0.27-0.08 0.28-0.09 0.27-0.08 0.28-0.09 0.27-0.08 0.56-0.16 2.88-12 0.04-0.16 0.06-0.16 0.03-0.07 0.03-0.08 0.2-0.35 0.1-0.12 0.05-0.07 0.11-0.11 0.05-0.06 0.18-0.15 0.07-0.05 0.06-0.05 0.07-0.04 0.06-0.04 0.21-0.12 0.08-0.03 0.07-0.03 0.08-0.03 0.07-0.02 0.32-0.08 0.24-0.03h15.34l0.24 0.03 0.32 0.08zm-16.52 15.92l-0.01 0.08-0.01 0.07-0.01 0.08-0.04 0.14-0.01 0.08-0.03 0.07-0.04 0.14-0.03 0.06-0.06 0.14-0.03 0.06-0.04 0.07-0.2 0.3-0.05 0.06-0.05 0.05-0.05 0.06-0.1 0.1-0.06 0.05-0.05 0.05-0.06 0.04-0.06 0.05-0.12 0.08-0.07 0.04-0.06 0.04-0.35 0.15-0.07 0.02-0.08 0.02-0.07 0.02-0.64 0.16-0.32 0.09-0.31 0.08-0.32 0.09-0.31 0.09-0.32 0.09-1.55 0.5-0.62 0.22-0.3 0.11-0.31 0.12-0.3 0.11-0.3 0.12-0.31 0.12-0.3 0.13-0.3 0.12-0.6 0.26-0.29 0.13-0.3 0.14-0.29 0.13-0.3 0.14-0.29 0.14-0.29 0.15-0.29 0.14-0.87 0.45-0.29 0.16-0.56 0.32-0.29 0.16-0.28 0.16-0.28 0.17-0.28 0.17-0.06 0.03-0.14 0.08-0.07 0.03-0.07 0.03-0.07 0.02-0.07 0.03-0.07 0.02-0.07 0.02-0.07 0.02-0.07 0.02-0.07 0.01-0.08 0.01-0.07 0.01-0.07 0.01h-0.07l-0.08 0.01h-0.14l-0.07-0.01h-0.08l-0.07-0.01-0.07-0.01-0.07-0.02-0.07-0.01-0.14-0.04-0.07-0.02-0.07-0.02-0.07-0.02-0.07-0.03-0.06-0.03-0.07-0.03-0.07-0.04-0.06-0.03-0.06-0.04-0.07-0.04-0.06-0.04-0.06-0.04-0.06-0.05-9.87-6.05-7.92 7.92 6.09 9.94 0.05 0.06 0.04 0.06 0.03 0.06 0.04 0.06 0.04 0.07 0.06 0.12 0.03 0.07 0.02 0.06 0.03 0.07 0.02 0.07 0.02 0.06 0.04 0.14 0.01 0.07 0.02 0.07 0.02 0.14v0.07l0.01 0.07v0.28l-0.01 0.07v0.07l-0.01 0.07-0.02 0.07-0.01 0.07-0.02 0.07-0.01 0.07-0.02 0.07-0.03 0.07-0.02 0.06-0.09 0.21-0.03 0.06-0.04 0.07-0.04 0.06-0.16 0.28-0.17 0.28-0.16 0.28-0.17 0.29-0.15 0.28-0.16 0.28-0.16 0.29-0.45 0.87-0.14 0.29-0.15 0.29-0.14 0.29-0.14 0.3-0.13 0.29-0.14 0.3-0.13 0.29-0.26 0.6-0.12 0.3-0.13 0.3-0.12 0.31-0.12 0.3-0.11 0.3-0.12 0.31-0.11 0.31-0.11 0.3-0.1 0.31-0.11 0.31-0.3 0.93-0.09 0.31-0.1 0.32-0.09 0.31-0.09 0.32-0.08 0.31-0.09 0.32-0.18 0.72-0.02 0.07-0.02 0.08-0.03 0.07-0.03 0.08-0.03 0.07-0.08 0.14-0.03 0.07-0.05 0.06-0.04 0.07-0.04 0.06-0.2 0.24-0.06 0.05-0.05 0.06-0.18 0.15-0.12 0.08-0.07 0.05-0.06 0.04-0.07 0.03-0.07 0.04-0.28 0.12-0.07 0.02-0.08 0.02-0.07 0.02-0.08 0.02-0.08 0.01-0.07 0.02-0.08 0.01h-0.08l-0.08 0.01-11.09 2.66v11.2l11.22 2.69 0.07 0.01 0.08 0.01 0.07 0.01 0.07 0.02 0.08 0.02 0.07 0.01 0.07 0.03 0.14 0.04 0.07 0.03 0.06 0.03 0.07 0.03 0.07 0.04 0.06 0.03 0.06 0.04 0.07 0.04 0.06 0.04 0.05 0.04 0.06 0.05 0.06 0.04 0.05 0.05 0.06 0.05 0.1 0.1 0.05 0.06 0.05 0.05 0.04 0.06 0.05 0.06 0.04 0.06 0.04 0.07 0.08 0.12 0.15 0.35 0.02 0.07 0.03 0.08 0.01 0.07 0.16 0.64 0.09 0.32 0.08 0.31 0.09 0.32 0.09 0.31 0.1 0.32 0.09 0.31 0.3 0.93 0.11 0.31 0.1 0.31 0.11 0.31 0.11 0.3 0.12 0.31 0.11 0.3 0.12 0.3 0.12 0.31 0.13 0.3 0.12 0.3 0.26 0.6 0.13 0.29 0.14 0.3 0.13 0.29 0.14 0.3 0.14 0.29 0.15 0.29 0.14 0.29 0.45 0.87 0.16 0.29 0.16 0.28 0.15 0.29 0.17 0.28 0.16 0.28 0.17 0.28 0.2 0.35 0.04 0.06 0.03 0.07 0.04 0.07 0.03 0.07 0.02 0.07 0.03 0.07 0.08 0.28 0.01 0.07 0.01 0.08 0.02 0.14v0.07l0.01 0.08v0.07l-0.01 0.07v0.07l-0.01 0.08v0.07l-0.01 0.07-0.02 0.07-0.01 0.07-0.08 0.28-0.03 0.07-0.02 0.07-0.03 0.06-0.03 0.07-0.04 0.06-0.03 0.07-0.16 0.24-0.05 0.06-6.05 9.88 7.92 7.92 9.94-6.09 0.06-0.04 0.06-0.05 0.06-0.03 0.06-0.04 0.07-0.03 0.06-0.04 0.06-0.03 0.07-0.03 0.06-0.02 0.07-0.03 0.07-0.02 0.06-0.02 0.14-0.04 0.07-0.01 0.07-0.02 0.14-0.02h0.07l0.07-0.01h0.28l0.14 0.02h0.07l0.07 0.02 0.07 0.01 0.07 0.02 0.07 0.01 0.07 0.02 0.07 0.03 0.06 0.02 0.21 0.09 0.06 0.03 0.07 0.04 0.06 0.04 0.28 0.16 0.28 0.17 0.28 0.16 0.29 0.17 0.28 0.15 0.28 0.16 0.29 0.16 0.87 0.45 0.29 0.14 0.29 0.15 0.29 0.14 0.3 0.14 0.29 0.14 0.3 0.13 0.29 0.13 0.9 0.39 0.3 0.12 0.31 0.12 0.3 0.12 0.3 0.11 0.31 0.12 0.3 0.11 0.62 0.22 1.55 0.5 0.32 0.09 0.31 0.09 0.32 0.09 0.31 0.08 0.32 0.09 0.72 0.18 0.07 0.02 0.08 0.03 0.07 0.02 0.08 0.03 0.07 0.04 0.07 0.03 0.21 0.12 0.06 0.04 0.06 0.05 0.07 0.04 0.06 0.05 0.05 0.05 0.06 0.05 0.11 0.11 0.15 0.18 0.04 0.06 0.05 0.07 0.04 0.06 0.04 0.07 0.03 0.06 0.04 0.07 0.12 0.28 0.02 0.08 0.02 0.07 0.02 0.08 0.02 0.07 0.01 0.08 0.02 0.08 0.01 0.08v0.08l0.01 0.07 2.66 11.09h11.2l2.69-11.21 0.01-0.08 0.01-0.07 0.01-0.08 0.04-0.14 0.01-0.07 0.03-0.08 0.04-0.14 0.03-0.06 0.06-0.14 0.03-0.06 0.04-0.07 0.2-0.3 0.05-0.06 0.05-0.05 0.05-0.06 0.1-0.1 0.06-0.05 0.05-0.05 0.06-0.04 0.06-0.05 0.12-0.08 0.07-0.04 0.06-0.03 0.07-0.04 0.28-0.12 0.07-0.02 0.08-0.02 0.07-0.02 0.64-0.16 0.32-0.09 0.31-0.08 0.32-0.09 0.31-0.09 0.32-0.09 1.55-0.5 0.62-0.22 0.3-0.11 0.31-0.12 0.3-0.11 0.3-0.12 0.31-0.12 0.3-0.12 0.9-0.39 0.29-0.13 0.3-0.13 0.29-0.14 0.3-0.14 0.29-0.14 0.29-0.15 0.29-0.14 0.87-0.45 0.29-0.16 0.28-0.16 0.28-0.15 0.29-0.17 0.28-0.16 0.28-0.17 0.28-0.16 0.06-0.04 0.07-0.04 0.07-0.03 0.07-0.04 0.07-0.03 0.07-0.02 0.07-0.03 0.28-0.08 0.07-0.01 0.08-0.01 0.14-0.02h0.15l0.07-0.01 0.07 0.01h0.07l0.08 0.01h0.07l0.07 0.01 0.07 0.02 0.07 0.01 0.28 0.08 0.07 0.03 0.06 0.02 0.14 0.06 0.06 0.04 0.07 0.03 0.24 0.16 0.06 0.05 9.88 6.05 7.92-7.92-6.09-9.94-0.05-0.06-0.04-0.06-0.03-0.06-0.08-0.12-0.03-0.07-0.03-0.06-0.03-0.07-0.02-0.06-0.03-0.07-0.02-0.06-0.06-0.21-0.01-0.07-0.02-0.07-0.01-0.06-0.01-0.07v-0.07l-0.01-0.07v-0.29l0.01-0.07v-0.07l0.01-0.07 0.02-0.07 0.01-0.07 0.02-0.07 0.01-0.07 0.02-0.07 0.03-0.07 0.02-0.06 0.09-0.21 0.03-0.06 0.04-0.07 0.04-0.06 0.16-0.28 0.17-0.28 0.16-0.28 0.17-0.28 0.15-0.29 0.16-0.28 0.16-0.29 0.45-0.87 0.14-0.29 0.15-0.29 0.14-0.29 0.14-0.3 0.13-0.29 0.14-0.3 0.13-0.29 0.26-0.6 0.12-0.3 0.13-0.3 0.12-0.31 0.12-0.3 0.11-0.3 0.12-0.31 0.11-0.3 0.11-0.31 0.1-0.31 0.11-0.31 0.3-0.93 0.09-0.31 0.1-0.32 0.09-0.31 0.09-0.32 0.08-0.31 0.09-0.32 0.16-0.64 0.02-0.07 0.04-0.16 0.03-0.07 0.03-0.08 0.03-0.07 0.08-0.14 0.03-0.07 0.05-0.06 0.04-0.07 0.04-0.06 0.2-0.24 0.06-0.05 0.05-0.06 0.12-0.1 0.06-0.04 0.06-0.05 0.06-0.04 0.07-0.04 0.06-0.04 0.14-0.08 0.28-0.12 0.07-0.02 0.08-0.02 0.07-0.02 0.08-0.02 0.08-0.01 0.07-0.02h0.08l0.16-0.02 11.09-2.66v-11.2l-11.22-2.69-0.07-0.01-0.08-0.01-0.07-0.01-0.07-0.02-0.08-0.02-0.07-0.01-0.07-0.03-0.14-0.04-0.07-0.03-0.06-0.03-0.14-0.06-0.12-0.08-0.07-0.04-0.06-0.04-0.05-0.04-0.06-0.04-0.06-0.05-0.05-0.05-0.06-0.05-0.1-0.1-0.05-0.06-0.05-0.05-0.04-0.06-0.05-0.06-0.08-0.12-0.04-0.07-0.04-0.06-0.15-0.35-0.02-0.07-0.03-0.08-0.01-0.07-0.16-0.64-0.09-0.32-0.08-0.31-0.09-0.32-0.09-0.31-0.1-0.32-0.09-0.31-0.3-0.93-0.11-0.31-0.1-0.31-0.11-0.3-0.11-0.31-0.12-0.31-0.11-0.3-0.12-0.3-0.12-0.31-0.13-0.3-0.12-0.3-0.26-0.6-0.13-0.29-0.14-0.3-0.13-0.29-0.14-0.3-0.14-0.29-0.15-0.29-0.14-0.29-0.45-0.87-0.16-0.29-0.16-0.28-0.15-0.28-0.17-0.29-0.16-0.28-0.17-0.28-0.16-0.28-0.04-0.06-0.04-0.07-0.03-0.07-0.04-0.07-0.03-0.07-0.02-0.07-0.03-0.07-0.08-0.28-0.01-0.07-0.01-0.08-0.02-0.14v-0.07l-0.01-0.08v-0.07l0.01-0.07v-0.07l0.01-0.08v-0.07l0.01-0.07 0.02-0.07 0.01-0.07 0.08-0.28 0.03-0.07 0.02-0.06 0.06-0.14 0.04-0.06 0.03-0.07 0.16-0.24 0.05-0.06 6.05-9.88-7.92-7.92-9.94 6.09-0.06 0.04-0.06 0.05-0.06 0.03-0.06 0.04-0.06 0.04-0.07 0.03-0.06 0.03-0.07 0.03-0.06 0.03-0.07 0.02-0.06 0.02-0.07 0.02-0.07 0.02-0.07 0.02-0.07 0.02-0.07 0.01-0.06 0.01-0.07 0.01-0.07 0.01h-0.36l-0.07-0.01h-0.07l-0.14-0.02-0.07-0.02-0.07-0.01-0.07-0.02-0.07-0.02-0.07-0.03-0.06-0.02-0.21-0.09-0.06-0.03-0.07-0.04-0.06-0.03-0.28-0.17-0.28-0.17-0.28-0.16-0.29-0.16-0.56-0.32-0.29-0.16-0.87-0.45-0.29-0.14-0.29-0.15-0.29-0.14-0.3-0.14-0.29-0.13-0.3-0.14-0.29-0.13-0.6-0.26-0.3-0.12-0.3-0.13-0.31-0.12-0.3-0.12-0.3-0.11-0.31-0.12-0.3-0.11-0.62-0.22-1.55-0.5-0.32-0.09-0.31-0.09-0.32-0.09-0.31-0.08-0.32-0.09-0.72-0.18-0.07-0.02-0.08-0.03-0.07-0.02-0.08-0.03-0.07-0.04-0.07-0.03-0.21-0.12-0.12-0.08-0.07-0.05-0.06-0.05-0.05-0.05-0.06-0.05-0.11-0.11-0.15-0.18-0.04-0.06-0.05-0.06-0.04-0.07-0.04-0.06-0.03-0.07-0.04-0.07-0.12-0.28-0.02-0.08-0.02-0.07-0.02-0.08-0.02-0.07-0.01-0.08-0.02-0.08-0.01-0.08v-0.07l-0.01-0.08-2.66-11.09h-11.2l-2.69 11.21z"/>
<path id="b" d="m90.67 84.92l0.16 0.04 0.16 0.05 0.15 0.06 0.15 0.07 0.14 0.08 0.13 0.09 0.13 0.1 0.24 0.22 0.1 0.12 0.1 0.13 0.09 0.13 0.08 0.14 0.07 0.15 0.06 0.15 0.05 0.16 0.04 0.16 0.03 0.17 0.02 0.17 0.01 0.17v26.44l-0.01 0.17-0.02 0.17-0.03 0.17-0.04 0.16-0.05 0.16-0.06 0.15-0.07 0.15-0.08 0.14-0.09 0.13-0.1 0.13-0.1 0.12-0.24 0.22-0.13 0.1-0.13 0.09-0.14 0.08-0.15 0.07-0.15 0.06-0.16 0.05-0.16 0.04-0.16 0.03-0.17 0.02h-8.82l-0.88-0.03-0.86-0.09-0.84-0.15-0.82-0.2-0.79-0.26-0.77-0.31-0.75-0.37-0.72-0.4-0.68-0.46-0.65-0.5-0.62-0.54-0.58-0.58-0.54-0.61-0.5-0.66-0.45-0.68-0.41-0.72-0.36-0.74-0.31-0.77-0.26-0.8-0.21-0.82-0.15-0.84-0.09-0.86-0.03-0.87v-0.96h-9.78v-4.82h9.78v-0.96l0.03-0.87 0.09-0.86 0.15-0.84 0.21-0.82 0.26-0.8 0.31-0.77 0.36-0.74 0.41-0.72 0.45-0.68 0.5-0.66 0.54-0.61 0.58-0.58 0.62-0.54 0.65-0.5 0.68-0.46 0.72-0.4 0.75-0.37 0.77-0.31 0.79-0.26 0.82-0.2 0.84-0.15 0.86-0.09 0.88-0.03h8.82l0.17 0.02 0.16 0.03zm-10.16 4.84l-0.97 0.2-0.92 0.32-0.86 0.43-0.79 0.53-0.71 0.63-0.63 0.72-0.54 0.79-0.43 0.86-0.32 0.92-0.2 0.96-0.07 1.01v6.74l0.07 1.01 0.2 0.96 0.32 0.92 0.43 0.86 0.54 0.79 0.63 0.72 0.71 0.63 0.79 0.53 0.86 0.43 0.92 0.32 0.97 0.2 1.01 0.07h6.23v-21.62h-6.23l-1.01 0.07z"/>
<path id="a" d="m119.17 84.92l0.45 0.07 0.44 0.09 0.44 0.13 0.43 0.15 0.43 0.17 0.43 0.21 0.43 0.23 0.43 0.26 0.42 0.29 0.42 0.31 0.41 0.34 0.42 0.37 0.41 0.39 0.4 0.43 0.41 0.45 0.4 0.47 0.4 0.51 0.39 0.53 0.4 0.56 0.39 0.58 0.39 0.62 0.38 0.64 0.38 0.66 0.38 0.7 0.38 0.72 0.37 0.75 0.37 0.78 0.37 0.8v0.96h9.78v4.82h-9.78v0.96l-0.02 0.67-0.05 0.66-0.09 0.65-0.12 0.65-0.16 0.62-0.18 0.62-0.22 0.6-0.25 0.59-0.28 0.57-0.3 0.55-0.34 0.54-0.36 0.52-0.38 0.49-0.41 0.48-0.43 0.46-0.46 0.43-0.48 0.41-0.49 0.38-0.52 0.36-0.54 0.34-0.55 0.3-0.57 0.28-0.59 0.25-0.6 0.22-0.62 0.19-0.62 0.15-0.65 0.12-0.65 0.09-0.66 0.06-0.67 0.01h-8.79l-0.13-0.01-0.12-0.02-0.13-0.02-0.12-0.03-0.13-0.04-0.11-0.04-0.12-0.05-0.33-0.18-0.1-0.07-0.1-0.08-0.18-0.16-0.08-0.09-0.08-0.1-0.08-0.09-0.07-0.11-0.07-0.1-0.06-0.11-0.05-0.11-0.05-0.12-0.08-0.24-0.03-0.12-0.04-0.26-0.01-0.13-0.01-0.13v-4.85h-9.73v-4.83h9.73v-7.55h-9.73v-4.83h9.73v-4.38l0.01-0.13 0.01-0.13 0.04-0.26 0.03-0.12 0.08-0.24 0.05-0.12 0.05-0.11 0.06-0.11 0.07-0.1 0.07-0.11 0.08-0.09 0.08-0.1 0.08-0.09 0.18-0.16 0.1-0.08 0.1-0.07 0.33-0.18 0.12-0.05 0.11-0.04 0.13-0.04 0.12-0.03 0.13-0.02 0.12-0.02 0.13-0.01h8.79l0.45 0.01 0.44 0.04zm-7.13 26.39h6.24l0.68-0.05 0.66-0.16 0.66-0.26 0.65-0.36 0.63-0.46 0.63-0.57 0.61-0.67 0.61-0.78 0.59-0.88 0.58-0.98 0.58-1.08 0.56-1.19v-6.74l-0.07-1.01-0.2-0.96-0.32-0.92-0.43-0.86-0.53-0.79-0.63-0.72-0.72-0.63-0.79-0.53-0.86-0.43-0.92-0.32-0.96-0.2-1.01-0.07h-6.24v21.62z"/>
</defs>
<use fill="#000000" fill-opacity="0" xlink:href="#d"/>
<use fill-opacity="0" stroke="#000000" stroke-opacity="0" xlink:href="#d"/>
<use fill="#000000" fill-opacity="0" xlink:href="#c"/>
<use fill-opacity="0" stroke="#00c7fc" xlink:href="#c"/>
<use fill="#000000" xlink:href="#e"/>
<use fill-opacity="0" stroke="#000000" stroke-opacity="0" xlink:href="#e"/>
<use fill="#000000" xlink:href="#b"/>
<use fill-opacity="0" stroke="#000000" stroke-opacity="0" xlink:href="#b"/>
<use fill="#000000" xlink:href="#a"/>
<use fill-opacity="0" stroke="#000000" stroke-opacity="0" xlink:href="#a"/>
</svg>
