<?xml version="1.0" encoding="UTF-8"?>
<!DOCTYPE svg  PUBLIC '-//W3C//DTD SVG 1.1//EN'  'http://www.w3.org/Graphics/SVG/1.1/DTD/svg11.dtd'>
<svg version="1.1" viewBox="0 0 331 371" xmlns="http://www.w3.org/2000/svg" xmlns:xlink="http://www.w3.org/1999/xlink">
<defs>
<path id="g" d="M4 94.76L4 278.92L166.87 371L329.74 278.92L329.74 94.76L166.87 2.68L4 94.76Z"/>
<path id="d" d="M4 94.76L4 278.92L166.87 371L329.74 278.92L329.74 94.76L166.87 2.68L4 94.76Z"/>
<path id="e" d="m167.48 48.73l0.09 0.02 0.09 0.01 0.08 0.02 0.18 0.04 0.08 0.02 0.09 0.03 0.16 0.06 0.09 0.03 0.16 0.06 0.09 0.04 121.73 55.69 0.12 0.05 0.11 0.06 0.1 0.06 0.11 0.06 0.1 0.06 0.11 0.07 0.09 0.07 0.1 0.08 0.1 0.07 0.18 0.16 0.08 0.09 0.09 0.08 0.24 0.27 0.28 0.4 0.12 0.2 0.12 0.22 0.1 0.22 0.04 0.11 0.04 0.12 0.04 0.11 0.04 0.12 0.09 0.36 0.06 0.36 0.01 0.13 0.01 0.12v17.56l-0.01 0.18-0.04 0.34-0.03 0.17-0.04 0.17-0.04 0.16-0.1 0.32-0.07 0.16-0.06 0.15-0.07 0.15-0.16 0.28-0.09 0.14-0.1 0.14-0.09 0.13-0.11 0.13-0.1 0.12-0.11 0.12-0.24 0.22-0.13 0.11-0.12 0.1-0.14 0.09-0.13 0.09-0.14 0.08-0.14 0.08-0.15 0.08-0.15 0.07-0.15 0.06-0.16 0.05-0.15 0.05-0.16 0.05-0.17 0.03-0.16 0.04-0.17 0.02-0.17 0.02-0.17 0.01h-4.37v13.03l-0.01 0.17-0.02 0.18-0.06 0.34-0.03 0.16-0.05 0.17-0.04 0.16-0.06 0.15-0.06 0.16-0.14 0.3-0.08 0.15-0.08 0.14-0.09 0.14-0.09 0.13-0.2 0.26-0.22 0.24-0.12 0.12-0.12 0.1-0.12 0.11-0.13 0.1-0.13 0.09-0.28 0.18-0.14 0.08-0.15 0.07-0.14 0.07-0.16 0.06-0.15 0.06-0.16 0.05-0.32 0.08-0.17 0.03-0.17 0.02-0.16 0.02-0.18 0.01-0.17 0.01h-4.2v81.38h4.2l0.17 0.01 0.18 0.01 0.16 0.02 0.17 0.02 0.17 0.03 0.32 0.08 0.16 0.05 0.15 0.06 0.16 0.06 0.14 0.07 0.15 0.07 0.14 0.08 0.14 0.09 0.14 0.08 0.26 0.2 0.12 0.1 0.12 0.11 0.12 0.12 0.22 0.24 0.2 0.26 0.09 0.13 0.09 0.14 0.08 0.14 0.08 0.15 0.14 0.3 0.06 0.15 0.06 0.16 0.04 0.16 0.05 0.17 0.03 0.16 0.06 0.34 0.02 0.18 0.01 0.17v13.03h4.37l0.17 0.01 0.34 0.04 0.16 0.03 0.17 0.04 0.16 0.05 0.15 0.05 0.16 0.05 0.15 0.06 0.15 0.07 0.15 0.08 0.14 0.07 0.14 0.09 0.13 0.09 0.14 0.09 0.12 0.1 0.13 0.11 0.24 0.22 0.11 0.12 0.1 0.12 0.11 0.13 0.09 0.13 0.1 0.14 0.09 0.13 0.08 0.15 0.08 0.14 0.07 0.15 0.06 0.15 0.07 0.16 0.1 0.32 0.04 0.16 0.04 0.17 0.03 0.17 0.04 0.34 0.01 0.17v17.49l-0.01 0.18-0.04 0.34-0.03 0.17-0.04 0.16-0.04 0.17-0.1 0.32-0.07 0.15-0.06 0.15-0.07 0.15-0.08 0.15-0.08 0.14-0.09 0.14-0.1 0.14-0.09 0.13-0.11 0.12-0.1 0.13-0.23 0.23-0.12 0.11-0.13 0.1-0.12 0.1-0.14 0.1-0.13 0.09-0.28 0.16-0.3 0.14-0.15 0.06-0.16 0.06-0.15 0.05-0.16 0.04-0.17 0.04-0.16 0.03-0.17 0.03-0.17 0.01-0.17 0.02h-243.82l-0.17-0.02-0.17-0.01-0.17-0.03-0.16-0.03-0.17-0.04-0.16-0.04-0.15-0.05-0.16-0.06-0.15-0.06-0.3-0.14-0.28-0.16-0.13-0.09-0.14-0.1-0.12-0.1-0.13-0.1-0.12-0.11-0.23-0.23-0.1-0.13-0.11-0.12-0.09-0.13-0.1-0.14-0.09-0.14-0.08-0.14-0.08-0.15-0.07-0.15-0.06-0.15-0.07-0.15-0.1-0.32-0.04-0.17-0.04-0.16-0.03-0.17-0.04-0.34-0.01-0.18v-17.49l0.01-0.17 0.04-0.34 0.03-0.17 0.04-0.17 0.04-0.16 0.1-0.32 0.07-0.16 0.06-0.15 0.07-0.15 0.08-0.14 0.08-0.15 0.09-0.13 0.1-0.14 0.09-0.13 0.11-0.13 0.1-0.12 0.11-0.12 0.24-0.22 0.13-0.11 0.12-0.1 0.14-0.09 0.13-0.09 0.14-0.09 0.14-0.07 0.15-0.08 0.15-0.07 0.15-0.06 0.16-0.05 0.15-0.05 0.16-0.05 0.17-0.04 0.16-0.03 0.34-0.04 0.17-0.01h4.37v-13.03l0.01-0.17 0.02-0.18 0.06-0.34 0.03-0.16 0.05-0.17 0.04-0.16 0.06-0.16 0.06-0.15 0.14-0.3 0.08-0.15 0.08-0.14 0.09-0.14 0.09-0.13 0.2-0.26 0.22-0.24 0.12-0.12 0.12-0.11 0.12-0.1 0.26-0.2 0.14-0.08 0.14-0.09 0.14-0.08 0.15-0.07 0.14-0.07 0.16-0.06 0.15-0.06 0.16-0.05 0.32-0.08 0.17-0.03 0.16-0.02 0.17-0.02 0.18-0.01 0.17-0.01h4.2v-81.38h-4.2l-0.17-0.01-0.18-0.01-0.17-0.02-0.16-0.02-0.17-0.03-0.32-0.08-0.16-0.05-0.15-0.06-0.16-0.06-0.14-0.07-0.15-0.07-0.14-0.08-0.28-0.18-0.13-0.09-0.13-0.1-0.12-0.11-0.12-0.1-0.12-0.12-0.22-0.24-0.2-0.26-0.09-0.13-0.09-0.14-0.08-0.14-0.08-0.15-0.14-0.3-0.06-0.16-0.06-0.15-0.04-0.16-0.05-0.17-0.03-0.16-0.06-0.34-0.02-0.18-0.01-0.17v-13.03h-4.37l-0.17-0.01-0.17-0.02-0.17-0.02-0.16-0.04-0.17-0.03-0.16-0.05-0.15-0.05-0.16-0.05-0.15-0.06-0.15-0.07-0.15-0.08-0.14-0.08-0.14-0.08-0.13-0.09-0.14-0.09-0.12-0.1-0.13-0.11-0.12-0.11-0.12-0.11-0.11-0.12-0.1-0.12-0.11-0.13-0.09-0.13-0.1-0.14-0.09-0.14-0.16-0.28-0.07-0.15-0.06-0.15-0.07-0.16-0.1-0.32-0.04-0.16-0.04-0.17-0.03-0.17-0.04-0.34-0.01-0.18v-17.56l0.01-0.12 0.01-0.13 0.06-0.36 0.09-0.36 0.04-0.12 0.04-0.11 0.04-0.12 0.04-0.11 0.1-0.22 0.12-0.22 0.12-0.2 0.28-0.4 0.24-0.27 0.17-0.17 0.18-0.16 0.1-0.07 0.1-0.08 0.09-0.07 0.11-0.07 0.1-0.06 0.11-0.06 0.1-0.06 0.11-0.06 0.12-0.05 121.73-55.69 0.09-0.04 0.16-0.06 0.09-0.03 0.16-0.06 0.09-0.03 0.08-0.02 0.18-0.04 0.08-0.02 0.09-0.01 0.09-0.02 0.08-0.01 0.27-0.03h0.52l0.27 0.03 0.08 0.01zm-118.15 214.13h235.08v-8.57h-235.08v8.57zm8.4-17.13h218.28v-8.57h-218.28v8.57zm184.7-17.14h25.19v-81.38h-25.19v81.38zm-117.54 0h25.19v-81.38h-25.19v81.38zm-25.19 0h16.8v-81.38h-16.8v81.38zm117.54 0h16.8v-81.38h-16.8v81.38zm-58.77 0h16.8v-81.38h-16.8v81.38zm-92.35 0h25.19v-81.38h-25.19v81.38zm117.54 0h25.19v-81.38h-25.19v81.38zm-125.93-89.95h218.28v-8.57h-218.28v8.57zm-8.4-17.14h235.08v-10.07l-117.54-53.75-117.54 53.75v10.07z"/>
<path id="h" d="m167.48 48.73l0.09 0.02 0.09 0.01 0.08 0.02 0.18 0.04 0.08 0.02 0.09 0.03 0.16 0.06 0.09 0.03 0.16 0.06 0.09 0.04 121.73 55.69 0.12 0.05 0.11 0.06 0.1 0.06 0.11 0.06 0.1 0.06 0.11 0.07 0.09 0.07 0.1 0.08 0.1 0.07 0.18 0.16 0.08 0.09 0.09 0.08 0.24 0.27 0.28 0.4 0.12 0.2 0.12 0.22 0.1 0.22 0.04 0.11 0.04 0.12 0.04 0.11 0.04 0.12 0.09 0.36 0.06 0.36 0.01 0.13 0.01 0.12v17.56l-0.01 0.18-0.04 0.34-0.03 0.17-0.04 0.17-0.04 0.16-0.1 0.32-0.07 0.16-0.06 0.15-0.07 0.15-0.16 0.28-0.09 0.14-0.1 0.14-0.09 0.13-0.11 0.13-0.1 0.12-0.11 0.12-0.24 0.22-0.13 0.11-0.12 0.1-0.14 0.09-0.13 0.09-0.14 0.08-0.14 0.08-0.15 0.08-0.15 0.07-0.15 0.06-0.16 0.05-0.15 0.05-0.16 0.05-0.17 0.03-0.16 0.04-0.17 0.02-0.17 0.02-0.17 0.01h-4.37v13.03l-0.01 0.17-0.02 0.18-0.06 0.34-0.03 0.16-0.05 0.17-0.04 0.16-0.06 0.15-0.06 0.16-0.14 0.3-0.08 0.15-0.08 0.14-0.09 0.14-0.09 0.13-0.2 0.26-0.22 0.24-0.12 0.12-0.12 0.1-0.12 0.11-0.13 0.1-0.13 0.09-0.28 0.18-0.14 0.08-0.15 0.07-0.14 0.07-0.16 0.06-0.15 0.06-0.16 0.05-0.32 0.08-0.17 0.03-0.17 0.02-0.16 0.02-0.18 0.01-0.17 0.01h-4.2v81.38h4.2l0.17 0.01 0.18 0.01 0.16 0.02 0.17 0.02 0.17 0.03 0.32 0.08 0.16 0.05 0.15 0.06 0.16 0.06 0.14 0.07 0.15 0.07 0.14 0.08 0.14 0.09 0.14 0.08 0.26 0.2 0.12 0.1 0.12 0.11 0.12 0.12 0.22 0.24 0.2 0.26 0.09 0.13 0.09 0.14 0.08 0.14 0.08 0.15 0.14 0.3 0.06 0.15 0.06 0.16 0.04 0.16 0.05 0.17 0.03 0.16 0.06 0.34 0.02 0.18 0.01 0.17v13.03h4.37l0.17 0.01 0.34 0.04 0.16 0.03 0.17 0.04 0.16 0.05 0.15 0.05 0.16 0.05 0.15 0.06 0.15 0.07 0.15 0.08 0.14 0.07 0.14 0.09 0.13 0.09 0.14 0.09 0.12 0.1 0.13 0.11 0.24 0.22 0.11 0.12 0.1 0.12 0.11 0.13 0.09 0.13 0.1 0.14 0.09 0.13 0.08 0.15 0.08 0.14 0.07 0.15 0.06 0.15 0.07 0.16 0.1 0.32 0.04 0.16 0.04 0.17 0.03 0.17 0.04 0.34 0.01 0.17v17.49l-0.01 0.18-0.04 0.34-0.03 0.17-0.04 0.16-0.04 0.17-0.1 0.32-0.07 0.15-0.06 0.15-0.07 0.15-0.08 0.15-0.08 0.14-0.09 0.14-0.1 0.14-0.09 0.13-0.11 0.12-0.1 0.13-0.23 0.23-0.12 0.11-0.13 0.1-0.12 0.1-0.14 0.1-0.13 0.09-0.28 0.16-0.3 0.14-0.15 0.06-0.16 0.06-0.15 0.05-0.16 0.04-0.17 0.04-0.16 0.03-0.17 0.03-0.17 0.01-0.17 0.02h-243.82l-0.17-0.02-0.17-0.01-0.17-0.03-0.16-0.03-0.17-0.04-0.16-0.04-0.15-0.05-0.16-0.06-0.15-0.06-0.3-0.14-0.28-0.16-0.13-0.09-0.14-0.1-0.12-0.1-0.13-0.1-0.12-0.11-0.23-0.23-0.1-0.13-0.11-0.12-0.09-0.13-0.1-0.14-0.09-0.14-0.08-0.14-0.08-0.15-0.07-0.15-0.06-0.15-0.07-0.15-0.1-0.32-0.04-0.17-0.04-0.16-0.03-0.17-0.04-0.34-0.01-0.18v-17.49l0.01-0.17 0.04-0.34 0.03-0.17 0.04-0.17 0.04-0.16 0.1-0.32 0.07-0.16 0.06-0.15 0.07-0.15 0.08-0.14 0.08-0.15 0.09-0.13 0.1-0.14 0.09-0.13 0.11-0.13 0.1-0.12 0.11-0.12 0.24-0.22 0.13-0.11 0.12-0.1 0.14-0.09 0.13-0.09 0.14-0.09 0.14-0.07 0.15-0.08 0.15-0.07 0.15-0.06 0.16-0.05 0.15-0.05 0.16-0.05 0.17-0.04 0.16-0.03 0.34-0.04 0.17-0.01h4.37v-13.03l0.01-0.17 0.02-0.18 0.06-0.34 0.03-0.16 0.05-0.17 0.04-0.16 0.06-0.16 0.06-0.15 0.14-0.3 0.08-0.15 0.08-0.14 0.09-0.14 0.09-0.13 0.2-0.26 0.22-0.24 0.12-0.12 0.12-0.11 0.12-0.1 0.26-0.2 0.14-0.08 0.14-0.09 0.14-0.08 0.15-0.07 0.14-0.07 0.16-0.06 0.15-0.06 0.16-0.05 0.32-0.08 0.17-0.03 0.16-0.02 0.17-0.02 0.18-0.01 0.17-0.01h4.2v-81.38h-4.2l-0.17-0.01-0.18-0.01-0.17-0.02-0.16-0.02-0.17-0.03-0.32-0.08-0.16-0.05-0.15-0.06-0.16-0.06-0.14-0.07-0.15-0.07-0.14-0.08-0.28-0.18-0.13-0.09-0.13-0.1-0.12-0.11-0.12-0.1-0.12-0.12-0.22-0.24-0.2-0.26-0.09-0.13-0.09-0.14-0.08-0.14-0.08-0.15-0.14-0.3-0.06-0.16-0.06-0.15-0.04-0.16-0.05-0.17-0.03-0.16-0.06-0.34-0.02-0.18-0.01-0.17v-13.03h-4.37l-0.17-0.01-0.17-0.02-0.17-0.02-0.16-0.04-0.17-0.03-0.16-0.05-0.15-0.05-0.16-0.05-0.15-0.06-0.15-0.07-0.15-0.08-0.14-0.08-0.14-0.08-0.13-0.09-0.14-0.09-0.12-0.1-0.13-0.11-0.12-0.11-0.12-0.11-0.11-0.12-0.1-0.12-0.11-0.13-0.09-0.13-0.1-0.14-0.09-0.14-0.16-0.28-0.07-0.15-0.06-0.15-0.07-0.16-0.1-0.32-0.04-0.16-0.04-0.17-0.03-0.17-0.04-0.34-0.01-0.18v-17.56l0.01-0.12 0.01-0.13 0.06-0.36 0.09-0.36 0.04-0.12 0.04-0.11 0.04-0.12 0.04-0.11 0.1-0.22 0.12-0.22 0.12-0.2 0.28-0.4 0.24-0.27 0.17-0.17 0.18-0.16 0.1-0.07 0.1-0.08 0.09-0.07 0.11-0.07 0.1-0.06 0.11-0.06 0.1-0.06 0.11-0.06 0.12-0.05 121.73-55.69 0.09-0.04 0.16-0.06 0.09-0.03 0.16-0.06 0.09-0.03 0.08-0.02 0.18-0.04 0.08-0.02 0.09-0.01 0.09-0.02 0.08-0.01 0.27-0.03h0.52l0.27 0.03 0.08 0.01zm-118.15 214.13h235.08v-8.57h-235.08v8.57zm8.4-17.13h218.28v-8.57h-218.28v8.57zm184.7-17.14h25.19v-81.38h-25.19v81.38zm-117.54 0h25.19v-81.38h-25.19v81.38zm-25.19 0h16.8v-81.38h-16.8v81.38zm117.54 0h16.8v-81.38h-16.8v81.38zm-58.77 0h16.8v-81.38h-16.8v81.38zm-92.35 0h25.19v-81.38h-25.19v81.38zm117.54 0h25.19v-81.38h-25.19v81.38zm-125.93-89.95h218.28v-8.57h-218.28v8.57zm-8.4-17.14h235.08v-10.07l-117.54-53.75-117.54 53.75v10.07z"/>
<path id="k" d="m169.52 75.73l1.28 0.22 1.26 0.31 1.22 0.39 1.18 0.46 1.15 0.54 1.11 0.61 1.06 0.68 1.01 0.74 0.96 0.81 0.91 0.87 0.86 0.92 0.79 0.98 0.74 1.03 0.66 1.08 0.6 1.12 0.53 1.16 0.46 1.21 0.38 1.24 0.3 1.27 0.22 1.31 0.13 1.33 0.05 1.36-0.05 1.35-0.13 1.33-0.22 1.31-0.3 1.27-0.38 1.24-0.46 1.21-0.53 1.16-0.6 1.13-0.66 1.07-0.74 1.03-0.79 0.98-0.86 0.93-0.91 0.86-0.96 0.81-1.01 0.75-1.06 0.67-1.11 0.61-1.15 0.54-1.18 0.47-1.22 0.38-1.26 0.31-1.28 0.22-1.31 0.13-1.34 0.05-1.34-0.05-1.31-0.13-1.28-0.22-1.26-0.31-1.22-0.38-1.18-0.47-1.15-0.54-1.11-0.61-1.06-0.67-1.01-0.75-0.96-0.81-0.91-0.86-0.86-0.93-0.79-0.98-0.74-1.03-0.66-1.07-0.6-1.13-0.53-1.16-0.46-1.21-0.38-1.24-0.3-1.27-0.22-1.31-0.13-1.33-0.05-1.35 0.05-1.36 0.13-1.33 0.22-1.31 0.31-1.27 0.38-1.24 0.45-1.2 0.53-1.17 0.6-1.12 0.67-1.08 0.73-1.03 0.8-0.97 0.85-0.93 0.91-0.86 0.97-0.81 1.01-0.75 1.06-0.68 1.1-0.61 1.15-0.53 1.19-0.47 1.22-0.38 1.25-0.31 1.28-0.22 1.32-0.14 1.33-0.05 1.34 0.05 1.31 0.13zm-5.33 8.06l-1.27 0.38-1.2 0.52-1.12 0.64-1.05 0.76-0.96 0.87-0.85 0.97-0.75 1.06-0.63 1.15-0.51 1.22-0.37 1.28-0.24 1.34-0.07 1.39 0.07 1.38 0.24 1.34 0.37 1.28 0.51 1.22 0.63 1.15 0.75 1.06 0.85 0.97 0.96 0.87 1.05 0.76 1.12 0.65 1.2 0.51 1.27 0.38 1.32 0.23 1.36 0.08 1.36-0.08 1.32-0.23 1.27-0.38 1.2-0.51 1.12-0.65 1.05-0.76 0.96-0.87 0.85-0.97 0.75-1.06 0.63-1.15 0.51-1.22 0.37-1.28 0.24-1.34 0.07-1.38-0.07-1.39-0.24-1.34-0.37-1.28-0.51-1.22-0.63-1.15-0.75-1.06-0.85-0.97-0.96-0.87-1.05-0.76-1.12-0.64-1.2-0.52-1.27-0.38-1.32-0.23-1.36-0.08-1.36 0.08-1.32 0.23z"/>
<path id="a" d="m169.52 75.73l1.28 0.22 1.26 0.31 1.22 0.39 1.18 0.46 1.15 0.54 1.11 0.61 1.06 0.68 1.01 0.74 0.96 0.81 0.91 0.87 0.86 0.92 0.79 0.98 0.74 1.03 0.66 1.08 0.6 1.12 0.53 1.16 0.46 1.21 0.38 1.24 0.3 1.27 0.22 1.31 0.13 1.33 0.05 1.36-0.05 1.35-0.13 1.33-0.22 1.31-0.3 1.27-0.38 1.24-0.46 1.21-0.53 1.16-0.6 1.13-0.66 1.07-0.74 1.03-0.79 0.98-0.86 0.93-0.91 0.86-0.96 0.81-1.01 0.75-1.06 0.67-1.11 0.61-1.15 0.54-1.18 0.47-1.22 0.38-1.26 0.31-1.28 0.22-1.31 0.13-1.34 0.05-1.34-0.05-1.31-0.13-1.28-0.22-1.26-0.31-1.22-0.38-1.18-0.47-1.15-0.54-1.11-0.61-1.06-0.67-1.01-0.75-0.96-0.81-0.91-0.86-0.86-0.93-0.79-0.98-0.74-1.03-0.66-1.07-0.6-1.13-0.53-1.16-0.46-1.21-0.38-1.24-0.3-1.27-0.22-1.31-0.13-1.33-0.05-1.35 0.05-1.36 0.13-1.33 0.22-1.31 0.31-1.27 0.38-1.24 0.45-1.2 0.53-1.17 0.6-1.12 0.67-1.08 0.73-1.03 0.8-0.97 0.85-0.93 0.91-0.86 0.97-0.81 1.01-0.75 1.06-0.68 1.1-0.61 1.15-0.53 1.19-0.47 1.22-0.38 1.25-0.31 1.28-0.22 1.32-0.14 1.33-0.05 1.34 0.05 1.31 0.13zm-5.33 8.06l-1.27 0.38-1.2 0.52-1.12 0.64-1.05 0.76-0.96 0.87-0.85 0.97-0.75 1.06-0.63 1.15-0.51 1.22-0.37 1.28-0.24 1.34-0.07 1.39 0.07 1.38 0.24 1.34 0.37 1.28 0.51 1.22 0.63 1.15 0.75 1.06 0.85 0.97 0.96 0.87 1.05 0.76 1.12 0.65 1.2 0.51 1.27 0.38 1.32 0.23 1.36 0.08 1.36-0.08 1.32-0.23 1.27-0.38 1.2-0.51 1.12-0.65 1.05-0.76 0.96-0.87 0.85-0.97 0.75-1.06 0.63-1.15 0.51-1.22 0.37-1.28 0.24-1.34 0.07-1.38-0.07-1.39-0.24-1.34-0.37-1.28-0.51-1.22-0.63-1.15-0.75-1.06-0.85-0.97-0.96-0.87-1.05-0.76-1.12-0.64-1.2-0.52-1.27-0.38-1.32-0.23-1.36-0.08-1.36 0.08-1.32 0.23z"/>
<path id="b" d="m82.93 156.97v69.56h-9.27v-69.56h9.27z"/>
<path id="i" d="m82.93 156.97v69.56h-9.27v-69.56h9.27z"/>
<path id="c" d="m258.69 156.97v69.56h-9.27v-69.56h9.27z"/>
<path id="j" d="m258.69 156.97v69.56h-9.27v-69.56h9.27z"/>
<path id="f" d="m141.72 156.97v69.56h-9.27v-69.56h9.27z"/>
<path id="l" d="m141.72 156.97v69.56h-9.27v-69.56h9.27z"/>
<path id="n" d="m200.17 156.97v69.55h-9.27v-69.55h9.27z"/>
<path id="m" d="m200.17 156.97v69.55h-9.27v-69.55h9.27z"/>
</defs>
<use fill="#4666b1" fill-opacity="0" xlink:href="#g"/>
<use fill-opacity="0" stroke="#000000" stroke-opacity="0" xlink:href="#g"/>
<use fill="#000000" fill-opacity="0" xlink:href="#d"/>
<use fill-opacity="0" stroke="#00c7fc" xlink:href="#d"/>
<use fill="#000000" xlink:href="#e"/>
<use fill-opacity="0" stroke="#000000" stroke-opacity="0" xlink:href="#e"/>
<use fill="#000000" fill-opacity="0" xlink:href="#h"/>
<use fill-opacity="0" stroke="#000000" stroke-opacity="0" xlink:href="#h"/>
<use fill="#000000" xlink:href="#k"/>
<use fill-opacity="0" stroke="#000000" stroke-opacity="0" xlink:href="#k"/>
<use fill="#000000" fill-opacity="0" xlink:href="#a"/>
<use fill-opacity="0" stroke="#000000" stroke-opacity="0" xlink:href="#a"/>
<use fill="#000000" xlink:href="#b"/>
<use fill-opacity="0" stroke="#000000" stroke-opacity="0" xlink:href="#b"/>
<use fill="#000000" fill-opacity="0" xlink:href="#i"/>
<use fill-opacity="0" stroke="#000000" stroke-opacity="0" xlink:href="#i"/>
<use fill="#000000" xlink:href="#c"/>
<use fill-opacity="0" stroke="#000000" stroke-opacity="0" xlink:href="#c"/>
<use fill="#000000" fill-opacity="0" xlink:href="#j"/>
<use fill-opacity="0" stroke="#000000" stroke-opacity="0" xlink:href="#j"/>
<use fill="#000000" xlink:href="#f"/>
<use fill-opacity="0" stroke="#000000" stroke-opacity="0" xlink:href="#f"/>
<use fill="#000000" fill-opacity="0" xlink:href="#l"/>
<use fill-opacity="0" stroke="#000000" stroke-opacity="0" xlink:href="#l"/>
<use fill="#000000" xlink:href="#n"/>
<use fill-opacity="0" stroke="#000000" stroke-opacity="0" xlink:href="#n"/>
<use fill="#000000" fill-opacity="0" xlink:href="#m"/>
<use fill-opacity="0" stroke="#000000" stroke-opacity="0" xlink:href="#m"/>
</svg>
