<?xml version="1.0" encoding="UTF-8" standalone="no"?>
<!DOCTYPE svg PUBLIC "-//W3C//DTD SVG 1.1//EN" "http://www.w3.org/Graphics/SVG/1.1/DTD/svg11.dtd">
<svg version="1.1" xmlns="http://www.w3.org/2000/svg" xmlns:xlink="http://www.w3.org/1999/xlink" preserveAspectRatio="xMidYMid meet" viewBox="0 0 331 371" width="331" height="371"><defs><path d="M4 94.76L4 278.92L166.87 371L329.74 278.92L329.74 94.76L166.87 2.68L4 94.76Z" id="aKrYSuc0Z"></path><path d="M4 94.76L4 278.92L166.87 371L329.74 278.92L329.74 94.76L166.87 2.68L4 94.76Z" id="b15yIbUWpp"></path><path d="M167.48 48.73L167.57 48.75L167.66 48.76L167.74 48.78L167.92 48.82L168 48.84L168.09 48.87L168.25 48.93L168.34 48.96L168.5 49.02L168.59 49.06L290.32 104.75L290.44 104.8L290.55 104.86L290.65 104.92L290.76 104.98L290.86 105.04L290.97 105.11L291.06 105.18L291.16 105.26L291.26 105.33L291.44 105.49L291.52 105.58L291.61 105.66L291.85 105.93L292.13 106.33L292.25 106.53L292.37 106.75L292.47 106.97L292.51 107.08L292.55 107.2L292.59 107.31L292.63 107.43L292.72 107.79L292.78 108.15L292.79 108.28L292.8 108.4L292.8 125.96L292.79 126.14L292.75 126.48L292.72 126.65L292.68 126.82L292.64 126.98L292.54 127.3L292.47 127.46L292.41 127.61L292.34 127.76L292.18 128.04L292.09 128.18L291.99 128.32L291.9 128.45L291.79 128.58L291.69 128.7L291.58 128.82L291.34 129.04L291.21 129.15L291.09 129.25L290.95 129.34L290.82 129.43L290.68 129.51L290.54 129.59L290.39 129.67L290.24 129.74L290.09 129.8L289.93 129.85L289.78 129.9L289.62 129.95L289.45 129.98L289.29 130.02L289.12 130.04L288.95 130.06L288.78 130.07L284.41 130.07L284.41 143.1L284.4 143.27L284.38 143.45L284.32 143.79L284.29 143.95L284.24 144.12L284.2 144.28L284.14 144.43L284.08 144.59L283.94 144.89L283.86 145.04L283.78 145.18L283.69 145.32L283.6 145.45L283.4 145.71L283.18 145.95L283.06 146.07L282.94 146.17L282.82 146.28L282.69 146.38L282.56 146.47L282.28 146.65L282.14 146.73L281.99 146.8L281.85 146.87L281.69 146.93L281.54 146.99L281.38 147.04L281.06 147.12L280.89 147.15L280.72 147.17L280.56 147.19L280.38 147.2L280.21 147.21L276.01 147.21L276.01 228.59L280.21 228.59L280.38 228.6L280.56 228.61L280.72 228.63L280.89 228.65L281.06 228.68L281.38 228.76L281.54 228.81L281.69 228.87L281.85 228.93L281.99 229L282.14 229.07L282.28 229.15L282.42 229.24L282.56 229.32L282.82 229.52L282.94 229.62L283.06 229.73L283.18 229.85L283.4 230.09L283.6 230.35L283.69 230.48L283.78 230.62L283.86 230.76L283.94 230.91L284.08 231.21L284.14 231.36L284.2 231.52L284.24 231.68L284.29 231.85L284.32 232.01L284.38 232.35L284.4 232.53L284.41 232.7L284.41 245.73L288.78 245.73L288.95 245.74L289.29 245.78L289.45 245.81L289.62 245.85L289.78 245.9L289.93 245.95L290.09 246L290.24 246.06L290.39 246.13L290.54 246.21L290.68 246.28L290.82 246.37L290.95 246.46L291.09 246.55L291.21 246.65L291.34 246.76L291.58 246.98L291.69 247.1L291.79 247.22L291.9 247.35L291.99 247.48L292.09 247.62L292.18 247.75L292.26 247.9L292.34 248.04L292.41 248.19L292.47 248.34L292.54 248.5L292.64 248.82L292.68 248.98L292.72 249.15L292.75 249.32L292.79 249.66L292.8 249.83L292.8 267.32L292.79 267.5L292.75 267.84L292.72 268.01L292.68 268.17L292.64 268.34L292.54 268.66L292.47 268.81L292.41 268.96L292.34 269.11L292.26 269.26L292.18 269.4L292.09 269.54L291.99 269.68L291.9 269.81L291.79 269.93L291.69 270.06L291.46 270.29L291.34 270.4L291.21 270.5L291.09 270.6L290.95 270.7L290.82 270.79L290.54 270.95L290.24 271.09L290.09 271.15L289.93 271.21L289.78 271.26L289.62 271.3L289.45 271.34L289.29 271.37L289.12 271.4L288.95 271.41L288.78 271.43L44.96 271.43L44.79 271.41L44.62 271.4L44.45 271.37L44.29 271.34L44.12 271.3L43.96 271.26L43.81 271.21L43.65 271.15L43.5 271.09L43.2 270.95L42.92 270.79L42.79 270.7L42.65 270.6L42.53 270.5L42.4 270.4L42.28 270.29L42.05 270.06L41.95 269.93L41.84 269.81L41.75 269.68L41.65 269.54L41.56 269.4L41.48 269.26L41.4 269.11L41.33 268.96L41.27 268.81L41.2 268.66L41.1 268.34L41.06 268.17L41.02 268.01L40.99 267.84L40.95 267.5L40.94 267.32L40.94 249.83L40.95 249.66L40.99 249.32L41.02 249.15L41.06 248.98L41.1 248.82L41.2 248.5L41.27 248.34L41.33 248.19L41.4 248.04L41.48 247.9L41.56 247.75L41.65 247.62L41.75 247.48L41.84 247.35L41.95 247.22L42.05 247.1L42.16 246.98L42.4 246.76L42.53 246.65L42.65 246.55L42.79 246.46L42.92 246.37L43.06 246.28L43.2 246.21L43.35 246.13L43.5 246.06L43.65 246L43.81 245.95L43.96 245.9L44.12 245.85L44.29 245.81L44.45 245.78L44.79 245.74L44.96 245.73L49.33 245.73L49.33 232.7L49.34 232.53L49.36 232.35L49.42 232.01L49.45 231.85L49.5 231.68L49.54 231.52L49.6 231.36L49.66 231.21L49.8 230.91L49.88 230.76L49.96 230.62L50.05 230.48L50.14 230.35L50.34 230.09L50.56 229.85L50.68 229.73L50.8 229.62L50.92 229.52L51.18 229.32L51.32 229.24L51.46 229.15L51.6 229.07L51.75 229L51.89 228.93L52.05 228.87L52.2 228.81L52.36 228.76L52.68 228.68L52.85 228.65L53.01 228.63L53.18 228.61L53.36 228.6L53.53 228.59L57.73 228.59L57.73 147.21L53.53 147.21L53.36 147.2L53.18 147.19L53.01 147.17L52.85 147.15L52.68 147.12L52.36 147.04L52.2 146.99L52.05 146.93L51.89 146.87L51.75 146.8L51.6 146.73L51.46 146.65L51.18 146.47L51.05 146.38L50.92 146.28L50.8 146.17L50.68 146.07L50.56 145.95L50.34 145.71L50.14 145.45L50.05 145.32L49.96 145.18L49.88 145.04L49.8 144.89L49.66 144.59L49.6 144.43L49.54 144.28L49.5 144.12L49.45 143.95L49.42 143.79L49.36 143.45L49.34 143.27L49.33 143.1L49.33 130.07L44.96 130.07L44.79 130.06L44.62 130.04L44.45 130.02L44.29 129.98L44.12 129.95L43.96 129.9L43.81 129.85L43.65 129.8L43.5 129.74L43.35 129.67L43.2 129.59L43.06 129.51L42.92 129.43L42.79 129.34L42.65 129.25L42.53 129.15L42.4 129.04L42.28 128.93L42.16 128.82L42.05 128.7L41.95 128.58L41.84 128.45L41.75 128.32L41.65 128.18L41.56 128.04L41.4 127.76L41.33 127.61L41.27 127.46L41.2 127.3L41.1 126.98L41.06 126.82L41.02 126.65L40.99 126.48L40.95 126.14L40.94 125.96L40.94 108.4L40.95 108.28L40.96 108.15L41.02 107.79L41.11 107.43L41.15 107.31L41.19 107.2L41.23 107.08L41.27 106.97L41.37 106.75L41.49 106.53L41.61 106.33L41.89 105.93L42.13 105.66L42.3 105.49L42.48 105.33L42.58 105.26L42.68 105.18L42.77 105.11L42.88 105.04L42.98 104.98L43.09 104.92L43.19 104.86L43.3 104.8L43.42 104.75L165.15 49.06L165.24 49.02L165.4 48.96L165.49 48.93L165.65 48.87L165.74 48.84L165.82 48.82L166 48.78L166.08 48.76L166.17 48.75L166.26 48.73L166.34 48.72L166.61 48.69L167.13 48.69L167.4 48.72L167.48 48.73ZM49.33 262.86L284.41 262.86L284.41 254.29L49.33 254.29L49.33 262.86ZM57.73 245.73L276.01 245.73L276.01 237.16L57.73 237.16L57.73 245.73ZM242.43 228.59L267.62 228.59L267.62 147.21L242.43 147.21L242.43 228.59ZM124.89 228.59L150.08 228.59L150.08 147.21L124.89 147.21L124.89 228.59ZM99.7 228.59L116.5 228.59L116.5 147.21L99.7 147.21L99.7 228.59ZM217.24 228.59L234.04 228.59L234.04 147.21L217.24 147.21L217.24 228.59ZM158.47 228.59L175.27 228.59L175.27 147.21L158.47 147.21L158.47 228.59ZM66.12 228.59L91.31 228.59L91.31 147.21L66.12 147.21L66.12 228.59ZM183.66 228.59L208.85 228.59L208.85 147.21L183.66 147.21L183.66 228.59ZM57.73 138.64L276.01 138.64L276.01 130.07L57.73 130.07L57.73 138.64ZM49.33 121.5L284.41 121.5L284.41 111.43L166.87 57.68L49.33 111.43L49.33 121.5Z" id="aa1mmKYZeY"></path><path d="M167.48 48.73L167.57 48.75L167.66 48.76L167.74 48.78L167.92 48.82L168 48.84L168.09 48.87L168.25 48.93L168.34 48.96L168.5 49.02L168.59 49.06L290.32 104.75L290.44 104.8L290.55 104.86L290.65 104.92L290.76 104.98L290.86 105.04L290.97 105.11L291.06 105.18L291.16 105.26L291.26 105.33L291.44 105.49L291.52 105.58L291.61 105.66L291.85 105.93L292.13 106.33L292.25 106.53L292.37 106.75L292.47 106.97L292.51 107.08L292.55 107.2L292.59 107.31L292.63 107.43L292.72 107.79L292.78 108.15L292.79 108.28L292.8 108.4L292.8 125.96L292.79 126.14L292.75 126.48L292.72 126.65L292.68 126.82L292.64 126.98L292.54 127.3L292.47 127.46L292.41 127.61L292.34 127.76L292.18 128.04L292.09 128.18L291.99 128.32L291.9 128.45L291.79 128.58L291.69 128.7L291.58 128.82L291.34 129.04L291.21 129.15L291.09 129.25L290.95 129.34L290.82 129.43L290.68 129.51L290.54 129.59L290.39 129.67L290.24 129.74L290.09 129.8L289.93 129.85L289.78 129.9L289.62 129.95L289.45 129.98L289.29 130.02L289.12 130.04L288.95 130.06L288.78 130.07L284.41 130.07L284.41 143.1L284.4 143.27L284.38 143.45L284.32 143.79L284.29 143.95L284.24 144.12L284.2 144.28L284.14 144.43L284.08 144.59L283.94 144.89L283.86 145.04L283.78 145.18L283.69 145.32L283.6 145.45L283.4 145.71L283.18 145.95L283.06 146.07L282.94 146.17L282.82 146.28L282.69 146.38L282.56 146.47L282.28 146.65L282.14 146.73L281.99 146.8L281.85 146.87L281.69 146.93L281.54 146.99L281.38 147.04L281.06 147.12L280.89 147.15L280.72 147.17L280.56 147.19L280.38 147.2L280.21 147.21L276.01 147.21L276.01 228.59L280.21 228.59L280.38 228.6L280.56 228.61L280.72 228.63L280.89 228.65L281.06 228.68L281.38 228.76L281.54 228.81L281.69 228.87L281.85 228.93L281.99 229L282.14 229.07L282.28 229.15L282.42 229.24L282.56 229.32L282.82 229.52L282.94 229.62L283.06 229.73L283.18 229.85L283.4 230.09L283.6 230.35L283.69 230.48L283.78 230.62L283.86 230.76L283.94 230.91L284.08 231.21L284.14 231.36L284.2 231.52L284.24 231.68L284.29 231.85L284.32 232.01L284.38 232.35L284.4 232.53L284.41 232.7L284.41 245.73L288.78 245.73L288.95 245.74L289.29 245.78L289.45 245.81L289.62 245.85L289.78 245.9L289.93 245.95L290.09 246L290.24 246.06L290.39 246.13L290.54 246.21L290.68 246.28L290.82 246.37L290.95 246.46L291.09 246.55L291.21 246.65L291.34 246.76L291.58 246.98L291.69 247.1L291.79 247.22L291.9 247.35L291.99 247.48L292.09 247.62L292.18 247.75L292.26 247.9L292.34 248.04L292.41 248.19L292.47 248.34L292.54 248.5L292.64 248.82L292.68 248.98L292.72 249.15L292.75 249.32L292.79 249.66L292.8 249.83L292.8 267.32L292.79 267.5L292.75 267.84L292.72 268.01L292.68 268.17L292.64 268.34L292.54 268.66L292.47 268.81L292.41 268.96L292.34 269.11L292.26 269.26L292.18 269.4L292.09 269.54L291.99 269.68L291.9 269.81L291.79 269.93L291.69 270.06L291.46 270.29L291.34 270.4L291.21 270.5L291.09 270.6L290.95 270.7L290.82 270.79L290.54 270.95L290.24 271.09L290.09 271.15L289.93 271.21L289.78 271.26L289.62 271.3L289.45 271.34L289.29 271.37L289.12 271.4L288.95 271.41L288.78 271.43L44.96 271.43L44.79 271.41L44.62 271.4L44.45 271.37L44.29 271.34L44.12 271.3L43.96 271.26L43.81 271.21L43.65 271.15L43.5 271.09L43.2 270.95L42.92 270.79L42.79 270.7L42.65 270.6L42.53 270.5L42.4 270.4L42.28 270.29L42.05 270.06L41.95 269.93L41.84 269.81L41.75 269.68L41.65 269.54L41.56 269.4L41.48 269.26L41.4 269.11L41.33 268.96L41.27 268.81L41.2 268.66L41.1 268.34L41.06 268.17L41.02 268.01L40.99 267.84L40.95 267.5L40.94 267.32L40.94 249.83L40.95 249.66L40.99 249.32L41.02 249.15L41.06 248.98L41.1 248.82L41.2 248.5L41.27 248.34L41.33 248.19L41.4 248.04L41.48 247.9L41.56 247.75L41.65 247.62L41.75 247.48L41.84 247.35L41.95 247.22L42.05 247.1L42.16 246.98L42.4 246.76L42.53 246.65L42.65 246.55L42.79 246.46L42.92 246.37L43.06 246.28L43.2 246.21L43.35 246.13L43.5 246.06L43.65 246L43.81 245.95L43.96 245.9L44.12 245.85L44.29 245.81L44.45 245.78L44.79 245.74L44.96 245.73L49.33 245.73L49.33 232.7L49.34 232.53L49.36 232.35L49.42 232.01L49.45 231.85L49.5 231.68L49.54 231.52L49.6 231.36L49.66 231.21L49.8 230.91L49.88 230.76L49.96 230.62L50.05 230.48L50.14 230.35L50.34 230.09L50.56 229.85L50.68 229.73L50.8 229.62L50.92 229.52L51.18 229.32L51.32 229.24L51.46 229.15L51.6 229.07L51.75 229L51.89 228.93L52.05 228.87L52.2 228.81L52.36 228.76L52.68 228.68L52.85 228.65L53.01 228.63L53.18 228.61L53.36 228.6L53.53 228.59L57.73 228.59L57.73 147.21L53.53 147.21L53.36 147.2L53.18 147.19L53.01 147.17L52.85 147.15L52.68 147.12L52.36 147.04L52.2 146.99L52.05 146.93L51.89 146.87L51.75 146.8L51.6 146.73L51.46 146.65L51.18 146.47L51.05 146.38L50.92 146.28L50.8 146.17L50.68 146.07L50.56 145.95L50.34 145.71L50.14 145.45L50.05 145.32L49.96 145.18L49.88 145.04L49.8 144.89L49.66 144.59L49.6 144.43L49.54 144.28L49.5 144.12L49.45 143.95L49.42 143.79L49.36 143.45L49.34 143.27L49.33 143.1L49.33 130.07L44.96 130.07L44.79 130.06L44.62 130.04L44.45 130.02L44.29 129.98L44.12 129.95L43.96 129.9L43.81 129.85L43.65 129.8L43.5 129.74L43.35 129.67L43.2 129.59L43.06 129.51L42.92 129.43L42.79 129.34L42.65 129.25L42.53 129.15L42.4 129.04L42.28 128.93L42.16 128.82L42.05 128.7L41.95 128.58L41.84 128.45L41.75 128.32L41.65 128.18L41.56 128.04L41.4 127.76L41.33 127.61L41.27 127.46L41.2 127.3L41.1 126.98L41.06 126.82L41.02 126.65L40.99 126.48L40.95 126.14L40.94 125.96L40.94 108.4L40.95 108.28L40.96 108.15L41.02 107.79L41.11 107.43L41.15 107.31L41.19 107.2L41.23 107.08L41.27 106.97L41.37 106.75L41.49 106.53L41.61 106.33L41.89 105.93L42.13 105.66L42.3 105.49L42.48 105.33L42.58 105.26L42.68 105.18L42.77 105.11L42.88 105.04L42.98 104.98L43.09 104.92L43.19 104.86L43.3 104.8L43.42 104.75L165.15 49.06L165.24 49.02L165.4 48.96L165.49 48.93L165.65 48.87L165.74 48.84L165.82 48.82L166 48.78L166.08 48.76L166.17 48.75L166.26 48.73L166.34 48.72L166.61 48.69L167.13 48.69L167.4 48.72L167.48 48.73ZM49.33 262.86L284.41 262.86L284.41 254.29L49.33 254.29L49.33 262.86ZM57.73 245.73L276.01 245.73L276.01 237.16L57.73 237.16L57.73 245.73ZM242.43 228.59L267.62 228.59L267.62 147.21L242.43 147.21L242.43 228.59ZM124.89 228.59L150.08 228.59L150.08 147.21L124.89 147.21L124.89 228.59ZM99.7 228.59L116.5 228.59L116.5 147.21L99.7 147.21L99.7 228.59ZM217.24 228.59L234.04 228.59L234.04 147.21L217.24 147.21L217.24 228.59ZM158.47 228.59L175.27 228.59L175.27 147.21L158.47 147.21L158.47 228.59ZM66.12 228.59L91.31 228.59L91.31 147.21L66.12 147.21L66.12 228.59ZM183.66 228.59L208.85 228.59L208.85 147.21L183.66 147.21L183.66 228.59ZM57.73 138.64L276.01 138.64L276.01 130.07L57.73 130.07L57.73 138.64ZM49.33 121.5L284.41 121.5L284.41 111.43L166.87 57.68L49.33 111.43L49.33 121.5Z" id="aFIa347Op"></path><path d="M169.52 75.73L170.8 75.95L172.06 76.26L173.28 76.65L174.46 77.11L175.61 77.65L176.72 78.26L177.78 78.94L178.79 79.68L179.75 80.49L180.66 81.36L181.52 82.28L182.31 83.26L183.05 84.29L183.71 85.37L184.31 86.49L184.84 87.65L185.3 88.86L185.68 90.1L185.98 91.37L186.2 92.68L186.33 94.01L186.38 95.37L186.33 96.72L186.2 98.05L185.98 99.36L185.68 100.63L185.3 101.87L184.84 103.08L184.31 104.24L183.71 105.37L183.05 106.44L182.31 107.47L181.52 108.45L180.66 109.38L179.75 110.24L178.79 111.05L177.78 111.8L176.72 112.47L175.61 113.08L174.46 113.62L173.28 114.09L172.06 114.47L170.8 114.78L169.52 115L168.21 115.13L166.87 115.18L165.53 115.13L164.22 115L162.94 114.78L161.68 114.47L160.46 114.09L159.28 113.62L158.13 113.08L157.02 112.47L155.96 111.8L154.95 111.05L153.99 110.24L153.08 109.38L152.22 108.45L151.43 107.47L150.69 106.44L150.03 105.37L149.43 104.24L148.9 103.08L148.44 101.87L148.06 100.63L147.76 99.36L147.54 98.05L147.41 96.72L147.36 95.37L147.41 94.01L147.54 92.68L147.76 91.37L148.07 90.1L148.45 88.86L148.9 87.66L149.43 86.49L150.03 85.37L150.7 84.29L151.43 83.26L152.23 82.29L153.08 81.36L153.99 80.5L154.96 79.69L155.97 78.94L157.03 78.26L158.13 77.65L159.28 77.12L160.47 76.65L161.69 76.27L162.94 75.96L164.22 75.74L165.54 75.6L166.87 75.55L168.21 75.6L169.52 75.73ZM164.19 83.79L162.92 84.17L161.72 84.69L160.6 85.33L159.55 86.09L158.59 86.96L157.74 87.93L156.99 88.99L156.36 90.14L155.85 91.36L155.48 92.64L155.24 93.98L155.17 95.37L155.24 96.75L155.48 98.09L155.85 99.37L156.36 100.59L156.99 101.74L157.74 102.8L158.59 103.77L159.55 104.64L160.6 105.4L161.72 106.05L162.92 106.56L164.19 106.94L165.51 107.17L166.87 107.25L168.23 107.17L169.55 106.94L170.82 106.56L172.02 106.05L173.14 105.4L174.19 104.64L175.15 103.77L176 102.8L176.75 101.74L177.38 100.59L177.89 99.37L178.26 98.09L178.5 96.75L178.57 95.37L178.5 93.98L178.26 92.64L177.89 91.36L177.38 90.14L176.75 88.99L176 87.93L175.15 86.96L174.19 86.09L173.14 85.33L172.02 84.69L170.82 84.17L169.55 83.79L168.23 83.56L166.87 83.48L165.51 83.56L164.19 83.79Z" id="a6NAnbvk3"></path><path d="M169.52 75.73L170.8 75.95L172.06 76.26L173.28 76.65L174.46 77.11L175.61 77.65L176.72 78.26L177.78 78.94L178.79 79.68L179.75 80.49L180.66 81.36L181.52 82.28L182.31 83.26L183.05 84.29L183.71 85.37L184.31 86.49L184.84 87.65L185.3 88.86L185.68 90.1L185.98 91.37L186.2 92.68L186.33 94.01L186.38 95.37L186.33 96.72L186.2 98.05L185.98 99.36L185.68 100.63L185.3 101.87L184.84 103.08L184.31 104.24L183.71 105.37L183.05 106.44L182.31 107.47L181.52 108.45L180.66 109.38L179.75 110.24L178.79 111.05L177.78 111.8L176.72 112.47L175.61 113.08L174.46 113.62L173.28 114.09L172.06 114.47L170.8 114.78L169.52 115L168.21 115.13L166.87 115.18L165.53 115.13L164.22 115L162.94 114.78L161.68 114.47L160.46 114.09L159.28 113.62L158.13 113.08L157.02 112.47L155.96 111.8L154.95 111.05L153.99 110.24L153.08 109.38L152.22 108.45L151.43 107.47L150.69 106.44L150.03 105.37L149.43 104.24L148.9 103.08L148.44 101.87L148.06 100.63L147.76 99.36L147.54 98.05L147.41 96.72L147.36 95.37L147.41 94.01L147.54 92.68L147.76 91.37L148.07 90.1L148.45 88.86L148.9 87.66L149.43 86.49L150.03 85.37L150.7 84.29L151.43 83.26L152.23 82.29L153.08 81.36L153.99 80.5L154.96 79.69L155.97 78.94L157.03 78.26L158.13 77.65L159.28 77.12L160.47 76.65L161.69 76.27L162.94 75.96L164.22 75.74L165.54 75.6L166.87 75.55L168.21 75.6L169.52 75.73ZM164.19 83.79L162.92 84.17L161.72 84.69L160.6 85.33L159.55 86.09L158.59 86.96L157.74 87.93L156.99 88.99L156.36 90.14L155.85 91.36L155.48 92.64L155.24 93.98L155.17 95.37L155.24 96.75L155.48 98.09L155.85 99.37L156.36 100.59L156.99 101.74L157.74 102.8L158.59 103.77L159.55 104.64L160.6 105.4L161.72 106.05L162.92 106.56L164.19 106.94L165.51 107.17L166.87 107.25L168.23 107.17L169.55 106.94L170.82 106.56L172.02 106.05L173.14 105.4L174.19 104.64L175.15 103.77L176 102.8L176.75 101.74L177.38 100.59L177.89 99.37L178.26 98.09L178.5 96.75L178.57 95.37L178.5 93.98L178.26 92.64L177.89 91.36L177.38 90.14L176.75 88.99L176 87.93L175.15 86.96L174.19 86.09L173.14 85.33L172.02 84.69L170.82 84.17L169.55 83.79L168.23 83.56L166.87 83.48L165.51 83.56L164.19 83.79Z" id="bYVFtQhN6"></path><path d="M82.93 156.97C82.93 198.71 82.93 221.89 82.93 226.53C82.93 226.53 82.93 226.53 82.93 226.53C77.37 226.53 74.28 226.53 73.66 226.53C73.66 226.53 73.66 226.53 73.66 226.53C73.66 184.79 73.66 161.61 73.66 156.97C73.66 156.97 73.66 156.97 73.66 156.97C79.22 156.97 82.32 156.97 82.93 156.97C82.93 156.97 82.93 156.97 82.93 156.97Z" id="b65HyrIWzn"></path><path d="M82.93 156.97C82.93 198.71 82.93 221.89 82.93 226.53C82.93 226.53 82.93 226.53 82.93 226.53C77.37 226.53 74.28 226.53 73.66 226.53C73.66 226.53 73.66 226.53 73.66 226.53C73.66 184.79 73.66 161.61 73.66 156.97C73.66 156.97 73.66 156.97 73.66 156.97C79.22 156.97 82.32 156.97 82.93 156.97C82.93 156.97 82.93 156.97 82.93 156.97Z" id="a9P6Gk3"></path><path d="M258.69 156.97C258.69 198.71 258.69 221.89 258.69 226.53C258.69 226.53 258.69 226.53 258.69 226.53C253.13 226.53 250.03 226.53 249.42 226.53C249.42 226.53 249.42 226.53 249.42 226.53C249.42 184.79 249.42 161.61 249.42 156.97C249.42 156.97 249.42 156.97 249.42 156.97C254.98 156.97 258.07 156.97 258.69 156.97C258.69 156.97 258.69 156.97 258.69 156.97Z" id="b3TTG0OuZy"></path><path d="M258.69 156.97C258.69 198.71 258.69 221.89 258.69 226.53C258.69 226.53 258.69 226.53 258.69 226.53C253.13 226.53 250.03 226.53 249.42 226.53C249.42 226.53 249.42 226.53 249.42 226.53C249.42 184.79 249.42 161.61 249.42 156.97C249.42 156.97 249.42 156.97 249.42 156.97C254.98 156.97 258.07 156.97 258.69 156.97C258.69 156.97 258.69 156.97 258.69 156.97Z" id="a95cQlrF0G"></path><path d="M141.72 156.97C141.72 198.71 141.72 221.89 141.72 226.53C141.72 226.53 141.72 226.53 141.72 226.53C136.16 226.53 133.07 226.53 132.45 226.53C132.45 226.53 132.45 226.53 132.45 226.53C132.45 184.79 132.45 161.61 132.45 156.97C132.45 156.97 132.45 156.97 132.45 156.97C138.01 156.97 141.11 156.97 141.72 156.97C141.72 156.97 141.72 156.97 141.72 156.97Z" id="aURzNXO3H"></path><path d="M141.72 156.97C141.72 198.71 141.72 221.89 141.72 226.53C141.72 226.53 141.72 226.53 141.72 226.53C136.16 226.53 133.07 226.53 132.45 226.53C132.45 226.53 132.45 226.53 132.45 226.53C132.45 184.79 132.45 161.61 132.45 156.97C132.45 156.97 132.45 156.97 132.45 156.97C138.01 156.97 141.11 156.97 141.72 156.97C141.72 156.97 141.72 156.97 141.72 156.97Z" id="a47P6VwmVd"></path><path d="M200.17 156.97C200.17 198.7 200.17 221.88 200.17 226.52C200.17 226.52 200.17 226.52 200.17 226.52C194.61 226.52 191.51 226.52 190.9 226.52C190.9 226.52 190.9 226.52 190.9 226.52C190.9 184.79 190.9 161.61 190.9 156.97C190.9 156.97 190.9 156.97 190.9 156.97C196.46 156.97 199.55 156.97 200.17 156.97C200.17 156.97 200.17 156.97 200.17 156.97Z" id="a1V1kZq1"></path><path d="M200.17 156.97C200.17 198.7 200.17 221.88 200.17 226.52C200.17 226.52 200.17 226.52 200.17 226.52C194.61 226.52 191.51 226.52 190.9 226.52C190.9 226.52 190.9 226.52 190.9 226.52C190.9 184.79 190.9 161.61 190.9 156.97C190.9 156.97 190.9 156.97 190.9 156.97C196.46 156.97 199.55 156.97 200.17 156.97C200.17 156.97 200.17 156.97 200.17 156.97Z" id="a2UyMEFPzf"></path></defs><g><g><g><use xlink:href="#aKrYSuc0Z" opacity="1" fill="#4666b1" fill-opacity="0"></use><g><use xlink:href="#aKrYSuc0Z" opacity="1" fill-opacity="0" stroke="#000000" stroke-width="1" stroke-opacity="0"></use></g></g><g><use xlink:href="#b15yIbUWpp" opacity="1" fill="#000000" fill-opacity="0"></use><g><use xlink:href="#b15yIbUWpp" opacity="1" fill-opacity="0" stroke="#00c7fc" stroke-width="1" stroke-opacity="1"></use></g></g><g><use xlink:href="#aa1mmKYZeY" opacity="1" fill="#000000" fill-opacity="1"></use><g><use xlink:href="#aa1mmKYZeY" opacity="1" fill-opacity="0" stroke="#000000" stroke-width="1" stroke-opacity="0"></use></g></g><g><use xlink:href="#aFIa347Op" opacity="1" fill="#000000" fill-opacity="0"></use><g><use xlink:href="#aFIa347Op" opacity="1" fill-opacity="0" stroke="#000000" stroke-width="1" stroke-opacity="0"></use></g></g><g><use xlink:href="#a6NAnbvk3" opacity="1" fill="#000000" fill-opacity="1"></use><g><use xlink:href="#a6NAnbvk3" opacity="1" fill-opacity="0" stroke="#000000" stroke-width="1" stroke-opacity="0"></use></g></g><g><use xlink:href="#bYVFtQhN6" opacity="1" fill="#000000" fill-opacity="0"></use><g><use xlink:href="#bYVFtQhN6" opacity="1" fill-opacity="0" stroke="#000000" stroke-width="1" stroke-opacity="0"></use></g></g><g><use xlink:href="#b65HyrIWzn" opacity="1" fill="#000000" fill-opacity="1"></use><g><use xlink:href="#b65HyrIWzn" opacity="1" fill-opacity="0" stroke="#000000" stroke-width="1" stroke-opacity="0"></use></g></g><g><use xlink:href="#a9P6Gk3" opacity="1" fill="#000000" fill-opacity="0"></use><g><use xlink:href="#a9P6Gk3" opacity="1" fill-opacity="0" stroke="#000000" stroke-width="1" stroke-opacity="0"></use></g></g><g><use xlink:href="#b3TTG0OuZy" opacity="1" fill="#000000" fill-opacity="1"></use><g><use xlink:href="#b3TTG0OuZy" opacity="1" fill-opacity="0" stroke="#000000" stroke-width="1" stroke-opacity="0"></use></g></g><g><use xlink:href="#a95cQlrF0G" opacity="1" fill="#000000" fill-opacity="0"></use><g><use xlink:href="#a95cQlrF0G" opacity="1" fill-opacity="0" stroke="#000000" stroke-width="1" stroke-opacity="0"></use></g></g><g><use xlink:href="#aURzNXO3H" opacity="1" fill="#000000" fill-opacity="1"></use><g><use xlink:href="#aURzNXO3H" opacity="1" fill-opacity="0" stroke="#000000" stroke-width="1" stroke-opacity="0"></use></g></g><g><use xlink:href="#a47P6VwmVd" opacity="1" fill="#000000" fill-opacity="0"></use><g><use xlink:href="#a47P6VwmVd" opacity="1" fill-opacity="0" stroke="#000000" stroke-width="1" stroke-opacity="0"></use></g></g><g><use xlink:href="#a1V1kZq1" opacity="1" fill="#000000" fill-opacity="1"></use><g><use xlink:href="#a1V1kZq1" opacity="1" fill-opacity="0" stroke="#000000" stroke-width="1" stroke-opacity="0"></use></g></g><g><use xlink:href="#a2UyMEFPzf" opacity="1" fill="#000000" fill-opacity="0"></use><g><use xlink:href="#a2UyMEFPzf" opacity="1" fill-opacity="0" stroke="#000000" stroke-width="1" stroke-opacity="0"></use></g></g></g></g></svg>