<?xml version="1.0" encoding="UTF-8" standalone="no"?>
<!DOCTYPE svg PUBLIC "-//W3C//DTD SVG 1.1//EN" "http://www.w3.org/Graphics/SVG/1.1/DTD/svg11.dtd">
<svg version="1.1" xmlns="http://www.w3.org/2000/svg" xmlns:xlink="http://www.w3.org/1999/xlink" preserveAspectRatio="xMidYMid meet" viewBox="0 0 332 371" width="332" height="371"><defs><path d="M4.13 93.42L4.13 277.58L167 369.66L329.87 277.58L329.87 93.42L167 1.34L4.13 93.42Z" id="a1Qv82RFga"></path><path d="M4.13 93.42L4.13 277.58L167 369.66L329.87 277.58L329.87 93.42L167 1.34L4.13 93.42Z" id="a2qsrDPpUx"></path><path d="M109.23 54.14L109.41 54.17L109.6 54.21L109.78 54.26L206.58 81.81L209.46 78.66L209.6 78.53L209.74 78.39L209.88 78.27L210.03 78.15L210.19 78.04L210.51 77.84L210.67 77.75L210.84 77.67L211.01 77.59L211.18 77.53L211.54 77.41L211.72 77.36L211.9 77.32L212.08 77.29L212.26 77.27L212.45 77.25L212.63 77.24L212.82 77.23L213 77.23L213.19 77.24L213.37 77.26L213.55 77.28L213.74 77.31L213.92 77.35L214.1 77.4L214.27 77.45L214.45 77.51L214.62 77.57L214.79 77.65L214.96 77.73L215.12 77.81L215.44 78.01L215.59 78.12L215.74 78.23L215.88 78.36L216.02 78.49L216.16 78.62L223.53 86.55L224.51 86.84L224.98 86.97L225.44 87.11L226.32 87.36L227.15 87.6L227.55 87.71L228.31 87.93L228.67 88.03L229.35 88.23L229.67 88.32L230.27 88.5L230.83 88.65L231.33 88.8L231.56 88.87L231.78 88.93L232.19 89.05L232.54 89.15L232.7 89.19L232.84 89.23L233.09 89.31L233.2 89.34L233.38 89.39L233.45 89.41L233.55 89.44L233.58 89.45L233.6 89.45L233.78 89.52L233.95 89.6L234.13 89.67L234.29 89.75L234.46 89.83L234.62 89.91L234.77 90L234.93 90.09L235.08 90.18L235.22 90.27L235.36 90.37L235.5 90.47L235.76 90.69L235.88 90.8L236 90.92L236.22 91.16L236.32 91.29L236.41 91.42L236.51 91.56L236.59 91.7L236.67 91.85L236.75 92L236.81 92.15L236.88 92.31L236.93 92.48L236.98 92.65L237.03 92.83L237.09 93.19L237.12 93.39L237.13 93.58L237.14 93.79L237.15 94L237.14 94.21L237.13 94.43L237.11 94.66L237.05 95.14L237.02 95.25L236.99 95.37L236.96 95.48L236.94 95.6L236.91 95.72L236.88 95.83L236.82 96.06L236.79 96.18L236.77 96.3L236.74 96.42L236.71 96.53L236.62 96.89L236.59 97L236.5 97.36L236.47 97.48L236.35 97.96L236.32 98.09L236.23 98.45L236.2 98.58L236.16 98.7L236.13 98.82L236.1 98.95L236.06 99.07L236 99.33L235.96 99.45L235.93 99.58L235.89 99.71L235.86 99.84L235.82 99.97L306.42 176.32L306.54 176.46L306.76 176.74L306.87 176.89L306.96 177.04L307.06 177.2L307.14 177.36L307.22 177.53L307.3 177.7L307.37 177.87L307.43 178.04L307.49 178.22L307.54 178.4L307.59 178.58L307.63 178.76L307.67 178.95L307.69 179.13L307.72 179.32L307.73 179.51L307.75 179.7L307.75 180.26L307.73 180.45L307.72 180.64L307.69 180.83L307.66 181.01L307.63 181.2L307.58 181.38L307.54 181.56L307.48 181.74L307.42 181.92L307.36 182.09L307.28 182.27L307.21 182.43L307.12 182.6L306.94 182.92L306.83 183.08L306.73 183.23L303.66 186.51L300.6 189.8L297.53 193.1L294.47 196.39L291.41 199.69L288.35 202.99L285.3 206.29L282.24 209.59L279.19 212.89L276.13 216.2L273.08 219.5L270.03 222.81L266.97 226.12L263.92 229.43L260.87 232.74L257.82 236.05L254.77 239.36L251.73 242.68L248.68 245.99L245.63 249.3L242.58 252.62L239.53 255.93L236.48 259.25L233.44 262.56L230.39 265.87L227.34 269.19L224.29 272.5L221.24 275.81L218.19 279.12L212.09 285.74L209.03 289.05L205.98 292.36L202.93 295.67L196.81 302.27L193.76 305.58L190.7 308.88L187.64 312.17L184.57 315.47L184.44 315.61L184.3 315.74L184 315.98L183.85 316.09L183.69 316.2L183.37 316.38L183.2 316.46L183.03 316.54L182.85 316.61L182.68 316.67L182.5 316.72L182.32 316.77L182.14 316.81L181.96 316.84L181.77 316.87L181.59 316.89L181.41 316.9L181.04 316.9L180.85 316.89L180.67 316.88L180.48 316.85L180.3 316.82L180.12 316.78L179.94 316.74L179.76 316.69L179.59 316.63L179.42 316.56L179.25 316.49L179.08 316.41L178.92 316.32L178.76 316.23L178.6 316.12L178.45 316.02L178.15 315.78L178.02 315.65L177.88 315.51L128.99 262.6L61.93 243.53L61.75 243.48L61.57 243.41L61.4 243.34L61.24 243.26L61.07 243.17L60.91 243.08L60.76 242.97L60.6 242.87L60.46 242.75L60.31 242.63L60.17 242.5L60.04 242.37L59.91 242.23L59.78 242.08L59.54 241.78L59.43 241.62L59.33 241.46L59.13 241.12L59.05 240.95L58.96 240.77L58.89 240.59L58.82 240.4L58.75 240.22L58.69 240.03L58.64 239.84L58.59 239.64L58.56 239.45L58.52 239.25L58.5 239.06L58.48 238.86L58.47 238.66L58.47 238.27L58.48 238.07L58.5 237.87L58.53 237.67L58.57 237.48L58.61 237.28L103.9 57.88L103.95 57.69L104.01 57.5L104.09 57.31L104.16 57.13L104.34 56.77L104.44 56.6L104.54 56.44L104.65 56.27L104.77 56.12L104.89 55.96L105.01 55.81L105.15 55.67L105.28 55.53L105.43 55.4L105.57 55.27L105.72 55.15L105.88 55.04L106.03 54.93L106.19 54.82L106.7 54.55L106.87 54.47L107.04 54.4L107.4 54.28L107.58 54.23L107.76 54.19L107.94 54.16L108.13 54.13L108.31 54.11L108.49 54.1L108.86 54.1L109.05 54.12L109.23 54.14ZM181.28 304.57L296.3 180.02L212.76 89.57L97.73 214.12L181.28 304.57ZM115.62 248.16L95.08 225.9L94.89 226.1L94.48 226.51L94.26 226.71L94.04 226.92L93.8 227.12L93.3 227.54L93.04 227.75L92.78 227.95L92.51 228.16L91.95 228.58L91.66 228.78L91.37 228.99L91.07 229.2L90.77 229.4L90.47 229.61L90.17 229.81L89.86 230.02L89.56 230.22L89.25 230.43L88.63 230.83L88.33 231.03L88.02 231.22L87.71 231.42L87.41 231.62L86.51 232.19L86.22 232.38L85.94 232.56L85.65 232.75L85.38 232.93L85.1 233.11L84.84 233.28L84.58 233.46L84.08 233.8L83.92 233.46L83.74 233.11L83.56 232.75L83.37 232.38L83.17 232.01L82.97 231.63L82.76 231.25L82.54 230.86L82.33 230.46L81.89 229.66L81.66 229.25L81.44 228.84L81.21 228.43L80.55 227.2L80.34 226.78L79.92 225.96L79.72 225.55L79.53 225.14L79.34 224.74L79.16 224.34L78.99 223.94L78.83 223.55L78.68 223.16L78.54 222.78L78.41 222.41L78.3 222.04L78.19 221.68L78.11 221.32L78.03 220.98L77.98 220.64L77.94 220.32L77.91 220L77.91 219.69L77.92 219.4L77.95 219.11L78.01 218.84L78.06 218.62L78.13 218.41L78.19 218.2L78.26 218L78.34 217.8L78.5 217.42L78.68 217.06L78.88 216.72L78.99 216.56L79.21 216.26L79.45 215.98L79.7 215.73L79.84 215.62L79.97 215.51L80.11 215.41L80.26 215.31L80.56 215.15L80.72 215.07L81.04 214.95L81.21 214.9L81.38 214.86L81.74 214.8L82.1 214.78L82.29 214.78L82.49 214.79L82.68 214.81L82.88 214.84L83.08 214.88L83.29 214.92L83.5 214.98L83.62 215.01L83.66 215.03L83.7 215.04L83.73 215.05L83.77 215.07L83.81 215.08L83.84 215.09L83.88 215.11L83.92 215.12L83.95 215.14L83.99 215.15L84.02 215.17L84.06 215.19L84.09 215.2L84.13 215.22L84.16 215.23L84.19 215.25L84.23 215.27L84.26 215.29L84.29 215.3L84.33 215.32L84.42 215.38L84.46 215.39L84.61 215.49L84.64 215.5L84.68 215.52L84.86 215.64L84.93 215.7L85.06 215.83L85.13 215.89L85.2 215.96L85.28 216.03L85.42 216.17L85.58 216.31L85.73 216.46L85.81 216.53L85.89 216.61L85.97 216.68L86.05 216.76L86.13 216.83L86.22 216.91L86.3 216.98L86.39 217.06L86.47 217.13L86.56 217.21L86.64 217.28L86.73 217.36L86.81 217.43L86.9 217.5L86.99 217.58L87.17 217.72L87.25 217.79L87.43 217.93L87.52 217.99L87.61 218.06L87.7 218.12L87.79 218.19L88.06 218.37L88.15 218.42L87.99 218.23L87.84 218.03L87.69 217.84L87.55 217.64L87.42 217.45L87.3 217.25L87.18 217.06L87.07 216.86L86.97 216.67L86.88 216.47L86.79 216.28L86.71 216.08L86.64 215.89L86.57 215.69L86.52 215.5L86.47 215.3L86.42 215.11L86.36 214.71L86.34 214.52L86.33 214.32L86.33 213.93L86.35 213.73L86.36 213.53L86.39 213.33L86.43 213.14L86.47 212.94L86.52 212.74L86.58 212.54L86.72 212.14L86.8 211.94L86.89 211.74L86.99 211.54L87.21 211.14L87.33 210.94L87.46 210.73L87.6 210.53L130 164.7L129.83 164.29L129.66 163.89L129.34 163.09L129.19 162.69L129.04 162.29L128.89 161.9L128.75 161.51L128.61 161.12L128.48 160.73L128.35 160.34L128.22 159.96L128.1 159.58L127.99 159.21L127.88 158.83L127.78 158.46L127.68 158.09L127.58 157.73L127.5 157.36L127.41 157L127.34 156.65L127.27 156.3L127.15 155.6L127.1 155.26L127.05 154.92L126.99 154.26L126.96 153.94L126.94 153.61L126.94 153.3L126.93 152.98L126.94 152.68L126.95 152.37L126.97 152.07L127 151.78L127.04 151.49L127.08 151.21L127.13 150.93L127.19 150.65L127.34 150.09L127.68 149.01L127.86 148.49L128.05 147.98L128.26 147.48L128.47 147L128.7 146.53L128.94 146.07L129.18 145.62L129.44 145.19L129.71 144.78L129.99 144.38L130.28 143.99L130.58 143.62L130.88 143.27L131.2 142.94L131.53 142.62L131.87 142.31L132.22 142.03L132.57 141.76L132.94 141.51L133.32 141.28L133.7 141.07L134.1 140.88L134.5 140.71L134.92 140.55L135.34 140.42L135.77 140.31L136.21 140.22L136.66 140.15L137.12 140.1L137.59 140.08L138.06 140.07L138.55 140.09L139.04 140.13L139.54 140.2L140.05 140.29L140.57 140.4L141.09 140.54L141.28 140.62L141.46 140.69L141.65 140.77L141.83 140.85L142.02 140.93L142.2 141.01L142.39 141.09L142.57 141.18L142.75 141.27L142.94 141.35L143.12 141.44L143.3 141.54L143.48 141.63L143.66 141.73L143.84 141.82L144.02 141.92L144.19 142.03L144.37 142.13L144.55 142.24L144.72 142.35L144.9 142.46L145.07 142.58L145.24 142.7L145.41 142.82L145.58 142.94L145.92 143.2L146.09 143.33L146.25 143.47L146.42 143.61L146.58 143.75L147.06 144.2L147.54 144.68L147.69 144.85L147.84 145.02L148 145.2L148.6 144.54L150.43 142.56L152.34 140.5L154.7 137.94L156.53 135.96L160.8 131.35L164.53 127.31L168.73 122.77L175.03 115.96L182.14 108.26L190.07 99.69L198.81 90.23L111.85 65.53L69.04 234.9L115.62 248.16Z" id="a5DNsnzi6"></path><path d="M109.23 54.14L109.41 54.17L109.6 54.21L109.78 54.26L206.58 81.81L209.46 78.66L209.6 78.53L209.74 78.39L209.88 78.27L210.03 78.15L210.19 78.04L210.51 77.84L210.67 77.75L210.84 77.67L211.01 77.59L211.18 77.53L211.54 77.41L211.72 77.36L211.9 77.32L212.08 77.29L212.26 77.27L212.45 77.25L212.63 77.24L212.82 77.23L213 77.23L213.19 77.24L213.37 77.26L213.55 77.28L213.74 77.31L213.92 77.35L214.1 77.4L214.27 77.45L214.45 77.51L214.62 77.57L214.79 77.65L214.96 77.73L215.12 77.81L215.44 78.01L215.59 78.12L215.74 78.23L215.88 78.36L216.02 78.49L216.16 78.62L223.53 86.55L224.51 86.84L224.98 86.97L225.44 87.11L226.32 87.36L227.15 87.6L227.55 87.71L228.31 87.93L228.67 88.03L229.35 88.23L229.67 88.32L230.27 88.5L230.83 88.65L231.33 88.8L231.56 88.87L231.78 88.93L232.19 89.05L232.54 89.15L232.7 89.19L232.84 89.23L233.09 89.31L233.2 89.34L233.38 89.39L233.45 89.41L233.55 89.44L233.58 89.45L233.6 89.45L233.78 89.52L233.95 89.6L234.13 89.67L234.29 89.75L234.46 89.83L234.62 89.91L234.77 90L234.93 90.09L235.08 90.18L235.22 90.27L235.36 90.37L235.5 90.47L235.76 90.69L235.88 90.8L236 90.92L236.22 91.16L236.32 91.29L236.41 91.42L236.51 91.56L236.59 91.7L236.67 91.85L236.75 92L236.81 92.15L236.88 92.31L236.93 92.48L236.98 92.65L237.03 92.83L237.09 93.19L237.12 93.39L237.13 93.58L237.14 93.79L237.15 94L237.14 94.21L237.13 94.43L237.11 94.66L237.05 95.14L237.02 95.25L236.99 95.37L236.96 95.48L236.94 95.6L236.91 95.72L236.88 95.83L236.82 96.06L236.79 96.18L236.77 96.3L236.74 96.42L236.71 96.53L236.62 96.89L236.59 97L236.5 97.36L236.47 97.48L236.35 97.96L236.32 98.09L236.23 98.45L236.2 98.58L236.16 98.7L236.13 98.82L236.1 98.95L236.06 99.07L236 99.33L235.96 99.45L235.93 99.58L235.89 99.71L235.86 99.84L235.82 99.97L306.42 176.32L306.54 176.46L306.76 176.74L306.87 176.89L306.96 177.04L307.06 177.2L307.14 177.36L307.22 177.53L307.3 177.7L307.37 177.87L307.43 178.04L307.49 178.22L307.54 178.4L307.59 178.58L307.63 178.76L307.67 178.95L307.69 179.13L307.72 179.32L307.73 179.51L307.75 179.7L307.75 180.26L307.73 180.45L307.72 180.64L307.69 180.83L307.66 181.01L307.63 181.2L307.58 181.38L307.54 181.56L307.48 181.74L307.42 181.92L307.36 182.09L307.28 182.27L307.21 182.43L307.12 182.6L306.94 182.92L306.83 183.08L306.73 183.23L303.66 186.51L300.6 189.8L297.53 193.1L294.47 196.39L291.41 199.69L288.35 202.99L285.3 206.29L282.24 209.59L279.19 212.89L276.13 216.2L273.08 219.5L270.03 222.81L266.97 226.12L263.92 229.43L260.87 232.74L257.82 236.05L254.77 239.36L251.73 242.68L248.68 245.99L245.63 249.3L242.58 252.62L239.53 255.93L236.48 259.25L233.44 262.56L230.39 265.87L227.34 269.19L224.29 272.5L221.24 275.81L218.19 279.12L212.09 285.74L209.03 289.05L205.98 292.36L202.93 295.67L196.81 302.27L193.76 305.58L190.7 308.88L187.64 312.17L184.57 315.47L184.44 315.61L184.3 315.74L184 315.98L183.85 316.09L183.69 316.2L183.37 316.38L183.2 316.46L183.03 316.54L182.85 316.61L182.68 316.67L182.5 316.72L182.32 316.77L182.14 316.81L181.96 316.84L181.77 316.87L181.59 316.89L181.41 316.9L181.04 316.9L180.85 316.89L180.67 316.88L180.48 316.85L180.3 316.82L180.12 316.78L179.94 316.74L179.76 316.69L179.59 316.63L179.42 316.56L179.25 316.49L179.08 316.41L178.92 316.32L178.76 316.23L178.6 316.12L178.45 316.02L178.15 315.78L178.02 315.65L177.88 315.51L128.99 262.6L61.93 243.53L61.75 243.48L61.57 243.41L61.4 243.34L61.24 243.26L61.07 243.17L60.91 243.08L60.76 242.97L60.6 242.87L60.46 242.75L60.31 242.63L60.17 242.5L60.04 242.37L59.91 242.23L59.78 242.08L59.54 241.78L59.43 241.62L59.33 241.46L59.13 241.12L59.05 240.95L58.96 240.77L58.89 240.59L58.82 240.4L58.75 240.22L58.69 240.03L58.64 239.84L58.59 239.64L58.56 239.45L58.52 239.25L58.5 239.06L58.48 238.86L58.47 238.66L58.47 238.27L58.48 238.07L58.5 237.87L58.53 237.67L58.57 237.48L58.61 237.28L103.9 57.88L103.95 57.69L104.01 57.5L104.09 57.31L104.16 57.13L104.34 56.77L104.44 56.6L104.54 56.44L104.65 56.27L104.77 56.12L104.89 55.96L105.01 55.81L105.15 55.67L105.28 55.53L105.43 55.4L105.57 55.27L105.72 55.15L105.88 55.04L106.03 54.93L106.19 54.82L106.7 54.55L106.87 54.47L107.04 54.4L107.4 54.28L107.58 54.23L107.76 54.19L107.94 54.16L108.13 54.13L108.31 54.11L108.49 54.1L108.86 54.1L109.05 54.12L109.23 54.14ZM181.28 304.57L296.3 180.02L212.76 89.57L97.73 214.12L181.28 304.57ZM115.62 248.16L95.08 225.9L94.89 226.1L94.48 226.51L94.26 226.71L94.04 226.92L93.8 227.12L93.3 227.54L93.04 227.75L92.78 227.95L92.51 228.16L91.95 228.58L91.66 228.78L91.37 228.99L91.07 229.2L90.77 229.4L90.47 229.61L90.17 229.81L89.86 230.02L89.56 230.22L89.25 230.43L88.63 230.83L88.33 231.03L88.02 231.22L87.71 231.42L87.41 231.62L86.51 232.19L86.22 232.38L85.94 232.56L85.65 232.75L85.38 232.93L85.1 233.11L84.84 233.28L84.58 233.46L84.08 233.8L83.92 233.46L83.74 233.11L83.56 232.75L83.37 232.38L83.17 232.01L82.97 231.63L82.76 231.25L82.54 230.86L82.33 230.46L81.89 229.66L81.66 229.25L81.44 228.84L81.21 228.43L80.55 227.2L80.34 226.78L79.92 225.96L79.72 225.55L79.53 225.14L79.34 224.74L79.16 224.34L78.99 223.94L78.83 223.55L78.68 223.16L78.54 222.78L78.41 222.41L78.3 222.04L78.19 221.68L78.11 221.32L78.03 220.98L77.98 220.64L77.94 220.32L77.91 220L77.91 219.69L77.92 219.4L77.95 219.11L78.01 218.84L78.06 218.62L78.13 218.41L78.19 218.2L78.26 218L78.34 217.8L78.5 217.42L78.68 217.06L78.88 216.72L78.99 216.56L79.21 216.26L79.45 215.98L79.7 215.73L79.84 215.62L79.97 215.51L80.11 215.41L80.26 215.31L80.56 215.15L80.72 215.07L81.04 214.95L81.21 214.9L81.38 214.86L81.74 214.8L82.1 214.78L82.29 214.78L82.49 214.79L82.68 214.81L82.88 214.84L83.08 214.88L83.29 214.92L83.5 214.98L83.62 215.01L83.66 215.03L83.7 215.04L83.73 215.05L83.77 215.07L83.81 215.08L83.84 215.09L83.88 215.11L83.92 215.12L83.95 215.14L83.99 215.15L84.02 215.17L84.06 215.19L84.09 215.2L84.13 215.22L84.16 215.23L84.19 215.25L84.23 215.27L84.26 215.29L84.29 215.3L84.33 215.32L84.42 215.38L84.46 215.39L84.61 215.49L84.64 215.5L84.68 215.52L84.86 215.64L84.93 215.7L85.06 215.83L85.13 215.89L85.2 215.96L85.28 216.03L85.42 216.17L85.58 216.31L85.73 216.46L85.81 216.53L85.89 216.61L85.97 216.68L86.05 216.76L86.13 216.83L86.22 216.91L86.3 216.98L86.39 217.06L86.47 217.13L86.56 217.21L86.64 217.28L86.73 217.36L86.81 217.43L86.9 217.5L86.99 217.58L87.17 217.72L87.25 217.79L87.43 217.93L87.52 217.99L87.61 218.06L87.7 218.12L87.79 218.19L88.06 218.37L88.15 218.42L87.99 218.23L87.84 218.03L87.69 217.84L87.55 217.64L87.42 217.45L87.3 217.25L87.18 217.06L87.07 216.86L86.97 216.67L86.88 216.47L86.79 216.28L86.71 216.08L86.64 215.89L86.57 215.69L86.52 215.5L86.47 215.3L86.42 215.11L86.36 214.71L86.34 214.52L86.33 214.32L86.33 213.93L86.35 213.73L86.36 213.53L86.39 213.33L86.43 213.14L86.47 212.94L86.52 212.74L86.58 212.54L86.72 212.14L86.8 211.94L86.89 211.74L86.99 211.54L87.21 211.14L87.33 210.94L87.46 210.73L87.6 210.53L130 164.7L129.83 164.29L129.66 163.89L129.34 163.09L129.19 162.69L129.04 162.29L128.89 161.9L128.75 161.51L128.61 161.12L128.48 160.73L128.35 160.34L128.22 159.96L128.1 159.58L127.99 159.21L127.88 158.83L127.78 158.46L127.68 158.09L127.58 157.73L127.5 157.36L127.41 157L127.34 156.65L127.27 156.3L127.15 155.6L127.1 155.26L127.05 154.92L126.99 154.26L126.96 153.94L126.94 153.61L126.94 153.3L126.93 152.98L126.94 152.68L126.95 152.37L126.97 152.07L127 151.78L127.04 151.49L127.08 151.21L127.13 150.93L127.19 150.65L127.34 150.09L127.68 149.01L127.86 148.49L128.05 147.98L128.26 147.48L128.47 147L128.7 146.53L128.94 146.07L129.18 145.62L129.44 145.19L129.71 144.78L129.99 144.38L130.28 143.99L130.58 143.62L130.88 143.27L131.2 142.94L131.53 142.62L131.87 142.31L132.22 142.03L132.57 141.76L132.94 141.51L133.32 141.28L133.7 141.07L134.1 140.88L134.5 140.71L134.92 140.55L135.34 140.42L135.77 140.31L136.21 140.22L136.66 140.15L137.12 140.1L137.59 140.08L138.06 140.07L138.55 140.09L139.04 140.13L139.54 140.2L140.05 140.29L140.57 140.4L141.09 140.54L141.28 140.62L141.46 140.69L141.65 140.77L141.83 140.85L142.02 140.93L142.2 141.01L142.39 141.09L142.57 141.18L142.75 141.27L142.94 141.35L143.12 141.44L143.3 141.54L143.48 141.63L143.66 141.73L143.84 141.82L144.02 141.92L144.19 142.03L144.37 142.13L144.55 142.24L144.72 142.35L144.9 142.46L145.07 142.58L145.24 142.7L145.41 142.82L145.58 142.94L145.92 143.2L146.09 143.33L146.25 143.47L146.42 143.61L146.58 143.75L147.06 144.2L147.54 144.68L147.69 144.85L147.84 145.02L148 145.2L148.6 144.54L150.43 142.56L152.34 140.5L154.7 137.94L156.53 135.96L160.8 131.35L164.53 127.31L168.73 122.77L175.03 115.96L182.14 108.26L190.07 99.69L198.81 90.23L111.85 65.53L69.04 234.9L115.62 248.16Z" id="b14y69VTKZ"></path></defs><g><g><g><use xlink:href="#a1Qv82RFga" opacity="1" fill="#4666b1" fill-opacity="0"></use><g><use xlink:href="#a1Qv82RFga" opacity="1" fill-opacity="0" stroke="#000000" stroke-width="1" stroke-opacity="0"></use></g></g><g><use xlink:href="#a2qsrDPpUx" opacity="1" fill="#000000" fill-opacity="0"></use><g><use xlink:href="#a2qsrDPpUx" opacity="1" fill-opacity="0" stroke="#00c7fc" stroke-width="1" stroke-opacity="1"></use></g></g><g><use xlink:href="#a5DNsnzi6" opacity="1" fill="#000506" fill-opacity="1"></use><g><use xlink:href="#a5DNsnzi6" opacity="1" fill-opacity="0" stroke="#000000" stroke-width="1" stroke-opacity="0"></use></g></g><g><use xlink:href="#b14y69VTKZ" opacity="1" fill="#000000" fill-opacity="0"></use><g><use xlink:href="#b14y69VTKZ" opacity="1" fill-opacity="0" stroke="#000000" stroke-width="1" stroke-opacity="0"></use></g></g></g></g></svg>