<?xml version="1.0" encoding="UTF-8"?>
<!DOCTYPE svg  PUBLIC '-//W3C//DTD SVG 1.1//EN'  'http://www.w3.org/Graphics/SVG/1.1/DTD/svg11.dtd'>
<svg version="1.1" viewBox="0 0 332 371" xmlns="http://www.w3.org/2000/svg" xmlns:xlink="http://www.w3.org/1999/xlink">
<defs>
<path id="d" d="m4.13 93.42v184.16l162.87 92.08 162.87-92.08v-184.16l-162.87-92.08-162.87 92.08z"/>
<path id="c" d="m4.13 93.42v184.16l162.87 92.08 162.87-92.08v-184.16l-162.87-92.08-162.87 92.08z"/>
<path id="b" d="m109.23 54.14l0.18 0.03 0.19 0.04 0.18 0.05 96.8 27.55 2.88-3.15 0.14-0.13 0.14-0.14 0.14-0.12 0.15-0.12 0.16-0.11 0.32-0.2 0.16-0.09 0.17-0.08 0.17-0.08 0.17-0.06 0.36-0.12 0.18-0.05 0.18-0.04 0.18-0.03 0.18-0.02 0.19-0.02 0.18-0.01 0.19-0.01h0.18l0.19 0.01 0.18 0.02 0.18 0.02 0.19 0.03 0.18 0.04 0.18 0.05 0.17 0.05 0.18 0.06 0.17 0.06 0.17 0.08 0.17 0.08 0.16 0.08 0.32 0.2 0.15 0.11 0.15 0.11 0.14 0.13 0.14 0.13 0.14 0.13 7.37 7.93 0.98 0.29 0.47 0.13 0.46 0.14 0.88 0.25 0.83 0.24 0.4 0.11 0.76 0.22 0.36 0.1 0.68 0.2 0.32 0.09 0.6 0.18 0.56 0.15 0.5 0.15 0.23 0.07 0.22 0.06 0.41 0.12 0.35 0.1 0.16 0.04 0.14 0.04 0.25 0.08 0.11 0.03 0.18 0.05 0.07 0.02 0.1 0.03 0.03 0.01h0.02l0.18 0.07 0.17 0.08 0.18 0.07 0.16 0.08 0.17 0.08 0.16 0.08 0.15 0.09 0.16 0.09 0.15 0.09 0.14 0.09 0.14 0.1 0.14 0.1 0.26 0.22 0.12 0.11 0.12 0.12 0.22 0.24 0.1 0.13 0.09 0.13 0.1 0.14 0.08 0.14 0.08 0.15 0.08 0.15 0.06 0.15 0.07 0.16 0.05 0.17 0.05 0.17 0.05 0.18 0.06 0.36 0.03 0.2 0.01 0.19 0.01 0.21 0.01 0.21-0.01 0.21-0.01 0.22-0.02 0.23-0.06 0.48-0.03 0.11-0.03 0.12-0.03 0.11-0.02 0.12-0.03 0.12-0.03 0.11-0.06 0.23-0.03 0.12-0.02 0.12-0.03 0.12-0.03 0.11-0.09 0.36-0.03 0.11-0.09 0.36-0.03 0.12-0.12 0.48-0.03 0.13-0.09 0.36-0.03 0.13-0.04 0.12-0.03 0.12-0.03 0.13-0.04 0.12-0.06 0.26-0.04 0.12-0.03 0.13-0.04 0.13-0.03 0.13-0.04 0.13 70.6 76.35 0.12 0.14 0.22 0.28 0.11 0.15 0.09 0.15 0.1 0.16 0.08 0.16 0.08 0.17 0.08 0.17 0.07 0.17 0.06 0.17 0.06 0.18 0.05 0.18 0.05 0.18 0.04 0.18 0.04 0.19 0.02 0.18 0.03 0.19 0.01 0.19 0.02 0.19v0.56l-0.02 0.19-0.01 0.19-0.03 0.19-0.03 0.18-0.03 0.19-0.05 0.18-0.04 0.18-0.06 0.18-0.06 0.18-0.06 0.17-0.08 0.18-0.07 0.16-0.09 0.17-0.18 0.32-0.11 0.16-0.1 0.15-3.07 3.28-3.06 3.29-3.07 3.3-3.06 3.29-3.06 3.3-3.06 3.3-3.05 3.3-3.06 3.3-3.05 3.3-3.06 3.31-3.05 3.3-3.05 3.31-3.06 3.31-3.05 3.31-3.05 3.31-3.05 3.31-3.05 3.31-3.04 3.32-3.05 3.31-3.05 3.31-3.05 3.32-3.05 3.31-3.05 3.32-3.04 3.31-3.05 3.31-3.05 3.32-3.05 3.31-3.05 3.31-3.05 3.31-6.1 6.62-3.06 3.31-3.05 3.31-3.05 3.31-6.12 6.6-3.05 3.31-3.06 3.3-3.06 3.29-3.07 3.3-0.13 0.14-0.14 0.13-0.3 0.24-0.15 0.11-0.16 0.11-0.32 0.18-0.17 0.08-0.17 0.08-0.18 0.07-0.17 0.06-0.18 0.05-0.18 0.05-0.18 0.04-0.18 0.03-0.19 0.03-0.18 0.02-0.18 0.01h-0.37l-0.19-0.01-0.18-0.01-0.19-0.03-0.18-0.03-0.18-0.04-0.18-0.04-0.18-0.05-0.17-0.06-0.17-0.07-0.17-0.07-0.17-0.08-0.16-0.09-0.16-0.09-0.16-0.11-0.15-0.1-0.3-0.24-0.13-0.13-0.14-0.14-48.89-52.91-67.06-19.07-0.18-0.05-0.18-0.07-0.17-0.07-0.16-0.08-0.17-0.09-0.16-0.09-0.15-0.11-0.16-0.1-0.14-0.12-0.15-0.12-0.14-0.13-0.13-0.13-0.13-0.14-0.13-0.15-0.24-0.3-0.11-0.16-0.1-0.16-0.2-0.34-0.08-0.17-0.09-0.18-0.07-0.18-0.07-0.19-0.07-0.18-0.06-0.19-0.05-0.19-0.05-0.2-0.03-0.19-0.04-0.2-0.02-0.19-0.02-0.2-0.01-0.2v-0.39l0.01-0.2 0.02-0.2 0.03-0.2 0.04-0.19 0.04-0.2 45.29-179.4 0.05-0.19 0.06-0.19 0.08-0.19 0.07-0.18 0.18-0.36 0.1-0.17 0.1-0.16 0.11-0.17 0.12-0.15 0.12-0.16 0.12-0.15 0.14-0.14 0.13-0.14 0.15-0.13 0.14-0.13 0.15-0.12 0.16-0.11 0.15-0.11 0.16-0.11 0.51-0.27 0.17-0.08 0.17-0.07 0.36-0.12 0.18-0.05 0.18-0.04 0.18-0.03 0.19-0.03 0.18-0.02 0.18-0.01h0.37l0.19 0.02 0.18 0.02zm72.05 250.43l115.02-124.55-83.54-90.45-115.03 124.55 83.55 90.45zm-65.66-56.41l-20.54-22.26-0.19 0.2-0.41 0.41-0.22 0.2-0.22 0.21-0.24 0.2-0.5 0.42-0.26 0.21-0.26 0.2-0.27 0.21-0.56 0.42-0.29 0.2-0.29 0.21-0.3 0.21-0.3 0.2-0.3 0.21-0.3 0.2-0.31 0.21-0.3 0.2-0.31 0.21-0.62 0.4-0.3 0.2-0.31 0.19-0.31 0.2-0.3 0.2-0.9 0.57-0.29 0.19-0.28 0.18-0.29 0.19-0.27 0.18-0.28 0.18-0.26 0.17-0.26 0.18-0.5 0.34-0.16-0.34-0.18-0.35-0.18-0.36-0.19-0.37-0.2-0.37-0.2-0.38-0.21-0.38-0.22-0.39-0.21-0.4-0.44-0.8-0.23-0.41-0.22-0.41-0.23-0.41-0.66-1.23-0.21-0.42-0.42-0.82-0.2-0.41-0.19-0.41-0.19-0.4-0.18-0.4-0.17-0.4-0.16-0.39-0.15-0.39-0.14-0.38-0.13-0.37-0.11-0.37-0.11-0.36-0.08-0.36-0.08-0.34-0.05-0.34-0.04-0.32-0.03-0.32v-0.31l0.01-0.29 0.03-0.29 0.06-0.27 0.05-0.22 0.07-0.21 0.06-0.21 0.07-0.2 0.08-0.2 0.16-0.38 0.18-0.36 0.2-0.34 0.11-0.16 0.22-0.3 0.24-0.28 0.25-0.25 0.14-0.11 0.13-0.11 0.14-0.1 0.15-0.1 0.3-0.16 0.16-0.08 0.32-0.12 0.17-0.05 0.17-0.04 0.36-0.06 0.36-0.02h0.19l0.2 0.01 0.19 0.02 0.2 0.03 0.2 0.04 0.21 0.04 0.21 0.06 0.12 0.03 0.04 0.02 0.04 0.01 0.03 0.01 0.04 0.02 0.04 0.01 0.03 0.01 0.04 0.02 0.04 0.01 0.03 0.02 0.04 0.01 0.03 0.02 0.04 0.02 0.03 0.01 0.04 0.02 0.03 0.01 0.03 0.02 0.04 0.02 0.03 0.02 0.03 0.01 0.04 0.02 0.09 0.06 0.04 0.01 0.15 0.1 0.03 0.01 0.04 0.02 0.18 0.12 0.07 0.06 0.13 0.13 0.07 0.06 0.07 0.07 0.08 0.07 0.14 0.14 0.16 0.14 0.15 0.15 0.08 0.07 0.08 0.08 0.08 0.07 0.08 0.08 0.08 0.07 0.09 0.08 0.08 0.07 0.09 0.08 0.08 0.07 0.09 0.08 0.08 0.07 0.09 0.08 0.08 0.07 0.09 0.07 0.09 0.08 0.18 0.14 0.08 0.07 0.18 0.14 0.09 0.06 0.09 0.07 0.09 0.06 0.09 0.07 0.27 0.18 0.09 0.05-0.16-0.19-0.15-0.2-0.15-0.19-0.14-0.2-0.13-0.19-0.12-0.2-0.12-0.19-0.11-0.2-0.1-0.19-0.09-0.2-0.09-0.19-0.08-0.2-0.07-0.19-0.07-0.2-0.05-0.19-0.05-0.2-0.05-0.19-0.06-0.4-0.02-0.19-0.01-0.2v-0.39l0.02-0.2 0.01-0.2 0.03-0.2 0.04-0.19 0.04-0.2 0.05-0.2 0.06-0.2 0.14-0.4 0.08-0.2 0.09-0.2 0.1-0.2 0.22-0.4 0.12-0.2 0.13-0.21 0.14-0.2 42.4-45.83-0.17-0.41-0.17-0.4-0.32-0.8-0.15-0.4-0.15-0.4-0.15-0.39-0.14-0.39-0.14-0.39-0.13-0.39-0.13-0.39-0.13-0.38-0.12-0.38-0.11-0.37-0.11-0.38-0.1-0.37-0.1-0.37-0.1-0.36-0.08-0.37-0.09-0.36-0.07-0.35-0.07-0.35-0.12-0.7-0.05-0.34-0.05-0.34-0.06-0.66-0.03-0.32-0.02-0.33v-0.31l-0.01-0.32 0.01-0.3 0.01-0.31 0.02-0.3 0.03-0.29 0.04-0.29 0.04-0.28 0.05-0.28 0.06-0.28 0.15-0.56 0.34-1.08 0.18-0.52 0.19-0.51 0.21-0.5 0.21-0.48 0.23-0.47 0.24-0.46 0.24-0.45 0.26-0.43 0.27-0.41 0.28-0.4 0.29-0.39 0.3-0.37 0.3-0.35 0.32-0.33 0.33-0.32 0.34-0.31 0.35-0.28 0.35-0.27 0.37-0.25 0.38-0.23 0.38-0.21 0.4-0.19 0.4-0.17 0.42-0.16 0.42-0.13 0.43-0.11 0.44-0.09 0.45-0.07 0.46-0.05 0.47-0.02 0.47-0.01 0.49 0.02 0.49 0.04 0.5 0.07 0.51 0.09 0.52 0.11 0.52 0.14 0.19 0.08 0.18 0.07 0.19 0.08 0.18 0.08 0.19 0.08 0.18 0.08 0.19 0.08 0.18 0.09 0.18 0.09 0.19 0.08 0.18 0.09 0.18 0.1 0.18 0.09 0.18 0.1 0.18 0.09 0.18 0.1 0.17 0.11 0.18 0.1 0.18 0.11 0.17 0.11 0.18 0.11 0.17 0.12 0.17 0.12 0.17 0.12 0.17 0.12 0.34 0.26 0.17 0.13 0.16 0.14 0.17 0.14 0.16 0.14 0.48 0.45 0.48 0.48 0.15 0.17 0.15 0.17 0.16 0.18 0.6-0.66 1.83-1.98 1.91-2.06 2.36-2.56 1.83-1.98 4.27-4.61 3.73-4.04 4.2-4.54 6.3-6.81 7.11-7.7 7.93-8.57 8.74-9.46-86.96-24.7-42.81 169.37 46.58 13.26z"/>
<path id="a" d="m109.23 54.14l0.18 0.03 0.19 0.04 0.18 0.05 96.8 27.55 2.88-3.15 0.14-0.13 0.14-0.14 0.14-0.12 0.15-0.12 0.16-0.11 0.32-0.2 0.16-0.09 0.17-0.08 0.17-0.08 0.17-0.06 0.36-0.12 0.18-0.05 0.18-0.04 0.18-0.03 0.18-0.02 0.19-0.02 0.18-0.01 0.19-0.01h0.18l0.19 0.01 0.18 0.02 0.18 0.02 0.19 0.03 0.18 0.04 0.18 0.05 0.17 0.05 0.18 0.06 0.17 0.06 0.17 0.08 0.17 0.08 0.16 0.08 0.32 0.2 0.15 0.11 0.15 0.11 0.14 0.13 0.14 0.13 0.14 0.13 7.37 7.93 0.98 0.29 0.47 0.13 0.46 0.14 0.88 0.25 0.83 0.24 0.4 0.11 0.76 0.22 0.36 0.1 0.68 0.2 0.32 0.09 0.6 0.18 0.56 0.15 0.5 0.15 0.23 0.07 0.22 0.06 0.41 0.12 0.35 0.1 0.16 0.04 0.14 0.04 0.25 0.08 0.11 0.03 0.18 0.05 0.07 0.02 0.1 0.03 0.03 0.01h0.02l0.18 0.07 0.17 0.08 0.18 0.07 0.16 0.08 0.17 0.08 0.16 0.08 0.15 0.09 0.16 0.09 0.15 0.09 0.14 0.09 0.14 0.1 0.14 0.1 0.26 0.22 0.12 0.11 0.12 0.12 0.22 0.24 0.1 0.13 0.09 0.13 0.1 0.14 0.08 0.14 0.08 0.15 0.08 0.15 0.06 0.15 0.07 0.16 0.05 0.17 0.05 0.17 0.05 0.18 0.06 0.36 0.03 0.2 0.01 0.19 0.01 0.21 0.01 0.21-0.01 0.21-0.01 0.22-0.02 0.23-0.06 0.48-0.03 0.11-0.03 0.12-0.03 0.11-0.02 0.12-0.03 0.12-0.03 0.11-0.06 0.23-0.03 0.12-0.02 0.12-0.03 0.12-0.03 0.11-0.09 0.36-0.03 0.11-0.09 0.36-0.03 0.12-0.12 0.48-0.03 0.13-0.09 0.36-0.03 0.13-0.04 0.12-0.03 0.12-0.03 0.13-0.04 0.12-0.06 0.26-0.04 0.12-0.03 0.13-0.04 0.13-0.03 0.13-0.04 0.13 70.6 76.35 0.12 0.14 0.22 0.28 0.11 0.15 0.09 0.15 0.1 0.16 0.08 0.16 0.08 0.17 0.08 0.17 0.07 0.17 0.06 0.17 0.06 0.18 0.05 0.18 0.05 0.18 0.04 0.18 0.04 0.19 0.02 0.18 0.03 0.19 0.01 0.19 0.02 0.19v0.56l-0.02 0.19-0.01 0.19-0.03 0.19-0.03 0.18-0.03 0.19-0.05 0.18-0.04 0.18-0.06 0.18-0.06 0.18-0.06 0.17-0.08 0.18-0.07 0.16-0.09 0.17-0.18 0.32-0.11 0.16-0.1 0.15-3.07 3.28-3.06 3.29-3.07 3.3-3.06 3.29-3.06 3.3-3.06 3.3-3.05 3.3-3.06 3.3-3.05 3.3-3.06 3.31-3.05 3.3-3.05 3.31-3.06 3.31-3.05 3.31-3.05 3.31-3.05 3.31-3.05 3.31-3.04 3.32-3.05 3.31-3.05 3.31-3.05 3.32-3.05 3.31-3.05 3.32-3.04 3.31-3.05 3.31-3.05 3.32-3.05 3.31-3.05 3.31-3.05 3.31-6.1 6.62-3.06 3.31-3.05 3.31-3.05 3.31-6.12 6.6-3.05 3.31-3.06 3.3-3.06 3.29-3.07 3.3-0.13 0.14-0.14 0.13-0.3 0.24-0.15 0.11-0.16 0.11-0.32 0.18-0.17 0.08-0.17 0.08-0.18 0.07-0.17 0.06-0.18 0.05-0.18 0.05-0.18 0.04-0.18 0.03-0.19 0.03-0.18 0.02-0.18 0.01h-0.37l-0.19-0.01-0.18-0.01-0.19-0.03-0.18-0.03-0.18-0.04-0.18-0.04-0.18-0.05-0.17-0.06-0.17-0.07-0.17-0.07-0.17-0.08-0.16-0.09-0.16-0.09-0.16-0.11-0.15-0.1-0.3-0.24-0.13-0.13-0.14-0.14-48.89-52.91-67.06-19.07-0.18-0.05-0.18-0.07-0.17-0.07-0.16-0.08-0.17-0.09-0.16-0.09-0.15-0.11-0.16-0.1-0.14-0.12-0.15-0.12-0.14-0.13-0.13-0.13-0.13-0.14-0.13-0.15-0.24-0.3-0.11-0.16-0.1-0.16-0.2-0.34-0.08-0.17-0.09-0.18-0.07-0.18-0.07-0.19-0.07-0.18-0.06-0.19-0.05-0.19-0.05-0.2-0.03-0.19-0.04-0.2-0.02-0.19-0.02-0.2-0.01-0.2v-0.39l0.01-0.2 0.02-0.2 0.03-0.2 0.04-0.19 0.04-0.2 45.29-179.4 0.05-0.19 0.06-0.19 0.08-0.19 0.07-0.18 0.18-0.36 0.1-0.17 0.1-0.16 0.11-0.17 0.12-0.15 0.12-0.16 0.12-0.15 0.14-0.14 0.13-0.14 0.15-0.13 0.14-0.13 0.15-0.12 0.16-0.11 0.15-0.11 0.16-0.11 0.51-0.27 0.17-0.08 0.17-0.07 0.36-0.12 0.18-0.05 0.18-0.04 0.18-0.03 0.19-0.03 0.18-0.02 0.18-0.01h0.37l0.19 0.02 0.18 0.02zm72.05 250.43l115.02-124.55-83.54-90.45-115.03 124.55 83.55 90.45zm-65.66-56.41l-20.54-22.26-0.19 0.2-0.41 0.41-0.22 0.2-0.22 0.21-0.24 0.2-0.5 0.42-0.26 0.21-0.26 0.2-0.27 0.21-0.56 0.42-0.29 0.2-0.29 0.21-0.3 0.21-0.3 0.2-0.3 0.21-0.3 0.2-0.31 0.21-0.3 0.2-0.31 0.21-0.62 0.4-0.3 0.2-0.31 0.19-0.31 0.2-0.3 0.2-0.9 0.57-0.29 0.19-0.28 0.18-0.29 0.19-0.27 0.18-0.28 0.18-0.26 0.17-0.26 0.18-0.5 0.34-0.16-0.34-0.18-0.35-0.18-0.36-0.19-0.37-0.2-0.37-0.2-0.38-0.21-0.38-0.22-0.39-0.21-0.4-0.44-0.8-0.23-0.41-0.22-0.41-0.23-0.41-0.66-1.23-0.21-0.42-0.42-0.82-0.2-0.41-0.19-0.41-0.19-0.4-0.18-0.4-0.17-0.4-0.16-0.39-0.15-0.39-0.14-0.38-0.13-0.37-0.11-0.37-0.11-0.36-0.08-0.36-0.08-0.34-0.05-0.34-0.04-0.32-0.03-0.32v-0.31l0.01-0.29 0.03-0.29 0.06-0.27 0.05-0.22 0.07-0.21 0.06-0.21 0.07-0.2 0.08-0.2 0.16-0.38 0.18-0.36 0.2-0.34 0.11-0.16 0.22-0.3 0.24-0.28 0.25-0.25 0.14-0.11 0.13-0.11 0.14-0.1 0.15-0.1 0.3-0.16 0.16-0.08 0.32-0.12 0.17-0.05 0.17-0.04 0.36-0.06 0.36-0.02h0.19l0.2 0.01 0.19 0.02 0.2 0.03 0.2 0.04 0.21 0.04 0.21 0.06 0.12 0.03 0.04 0.02 0.04 0.01 0.03 0.01 0.04 0.02 0.04 0.01 0.03 0.01 0.04 0.02 0.04 0.01 0.03 0.02 0.04 0.01 0.03 0.02 0.04 0.02 0.03 0.01 0.04 0.02 0.03 0.01 0.03 0.02 0.04 0.02 0.03 0.02 0.03 0.01 0.04 0.02 0.09 0.06 0.04 0.01 0.15 0.1 0.03 0.01 0.04 0.02 0.18 0.12 0.07 0.06 0.13 0.13 0.07 0.06 0.07 0.07 0.08 0.07 0.14 0.14 0.16 0.14 0.15 0.15 0.08 0.07 0.08 0.08 0.08 0.07 0.08 0.08 0.08 0.07 0.09 0.08 0.08 0.07 0.09 0.08 0.08 0.07 0.09 0.08 0.08 0.07 0.09 0.08 0.08 0.07 0.09 0.07 0.09 0.08 0.18 0.14 0.08 0.07 0.18 0.14 0.09 0.06 0.09 0.07 0.09 0.06 0.09 0.07 0.27 0.18 0.09 0.05-0.16-0.19-0.15-0.2-0.15-0.19-0.14-0.2-0.13-0.19-0.12-0.2-0.12-0.19-0.11-0.2-0.1-0.19-0.09-0.2-0.09-0.19-0.08-0.2-0.07-0.19-0.07-0.2-0.05-0.19-0.05-0.2-0.05-0.19-0.06-0.4-0.02-0.19-0.01-0.2v-0.39l0.02-0.2 0.01-0.2 0.03-0.2 0.04-0.19 0.04-0.2 0.05-0.2 0.06-0.2 0.14-0.4 0.08-0.2 0.09-0.2 0.1-0.2 0.22-0.4 0.12-0.2 0.13-0.21 0.14-0.2 42.4-45.83-0.17-0.41-0.17-0.4-0.32-0.8-0.15-0.4-0.15-0.4-0.15-0.39-0.14-0.39-0.14-0.39-0.13-0.39-0.13-0.39-0.13-0.38-0.12-0.38-0.11-0.37-0.11-0.38-0.1-0.37-0.1-0.37-0.1-0.36-0.08-0.37-0.09-0.36-0.07-0.35-0.07-0.35-0.12-0.7-0.05-0.34-0.05-0.34-0.06-0.66-0.03-0.32-0.02-0.33v-0.31l-0.01-0.32 0.01-0.3 0.01-0.31 0.02-0.3 0.03-0.29 0.04-0.29 0.04-0.28 0.05-0.28 0.06-0.28 0.15-0.56 0.34-1.08 0.18-0.52 0.19-0.51 0.21-0.5 0.21-0.48 0.23-0.47 0.24-0.46 0.24-0.45 0.26-0.43 0.27-0.41 0.28-0.4 0.29-0.39 0.3-0.37 0.3-0.35 0.32-0.33 0.33-0.32 0.34-0.31 0.35-0.28 0.35-0.27 0.37-0.25 0.38-0.23 0.38-0.21 0.4-0.19 0.4-0.17 0.42-0.16 0.42-0.13 0.43-0.11 0.44-0.09 0.45-0.07 0.46-0.05 0.47-0.02 0.47-0.01 0.49 0.02 0.49 0.04 0.5 0.07 0.51 0.09 0.52 0.11 0.52 0.14 0.19 0.08 0.18 0.07 0.19 0.08 0.18 0.08 0.19 0.08 0.18 0.08 0.19 0.08 0.18 0.09 0.18 0.09 0.19 0.08 0.18 0.09 0.18 0.1 0.18 0.09 0.18 0.1 0.18 0.09 0.18 0.1 0.17 0.11 0.18 0.1 0.18 0.11 0.17 0.11 0.18 0.11 0.17 0.12 0.17 0.12 0.17 0.12 0.17 0.12 0.34 0.26 0.17 0.13 0.16 0.14 0.17 0.14 0.16 0.14 0.48 0.45 0.48 0.48 0.15 0.17 0.15 0.17 0.16 0.18 0.6-0.66 1.83-1.98 1.91-2.06 2.36-2.56 1.83-1.98 4.27-4.61 3.73-4.04 4.2-4.54 6.3-6.81 7.11-7.7 7.93-8.57 8.74-9.46-86.96-24.7-42.81 169.37 46.58 13.26z"/>
</defs>
<use fill="#4666b1" fill-opacity="0" xlink:href="#d"/>
<use fill-opacity="0" stroke="#000000" stroke-opacity="0" xlink:href="#d"/>
<use fill="#000000" fill-opacity="0" xlink:href="#c"/>
<use fill-opacity="0" stroke="#00c7fc" xlink:href="#c"/>
<use fill="#000506" xlink:href="#b"/>
<use fill-opacity="0" stroke="#000000" stroke-opacity="0" xlink:href="#b"/>
<use fill="#000000" fill-opacity="0" xlink:href="#a"/>
<use fill-opacity="0" stroke="#000000" stroke-opacity="0" xlink:href="#a"/>
</svg>
