<?xml version="1.0" encoding="UTF-8"?>
<!DOCTYPE svg  PUBLIC '-//W3C//DTD SVG 1.1//EN'  'http://www.w3.org/Graphics/SVG/1.1/DTD/svg11.dtd'>
<svg version="1.1" viewBox="0 0 195 201" xmlns="http://www.w3.org/2000/svg" xmlns:xlink="http://www.w3.org/1999/xlink">
<defs>
<path id="a" d="m97.5 201l95.17-49.79v-99.57l-95.17-49.78-95.17 49.78v99.57l95.17 49.79z"/>
<path id="b" d="m97.5 152.19l-39.71-8.61-7.94-94.77h95.3l-7.94 94.77-39.71 8.61zm-32.34-15.8l32.34 7.01 32.34-7.01 6.61-78.97h-77.91l6.62 78.97z"/>
<path id="c" d="m114.93 105.82l-1.32 16.85-16.11 3.74-16.11-3.74-0.66-8.42h-7.3l1.21 15.46 22.86 5.29 22.87-5.29 2.53-32.33h-34.4l36.05-21.09 0.66-8.43h-55.42l0.66 8.43h37.95l-36.06 21.09 0.43 8.44h42.16z"/>
</defs>
<use fill="#000000" fill-opacity="0" xlink:href="#a"/>
<use fill-opacity="0" stroke="#00c7fc" xlink:href="#a"/>
<use fill="#ffffff" xlink:href="#b"/>
<use fill-opacity="0" stroke="#000000" stroke-opacity="0" xlink:href="#b"/>
<use fill="#ffffff" xlink:href="#c"/>
<use fill-opacity="0" stroke="#000000" stroke-opacity="0" xlink:href="#c"/>
</svg>
