<?xml version="1.0" encoding="UTF-8" standalone="no"?>
<!DOCTYPE svg PUBLIC "-//W3C//DTD SVG 1.1//EN" "http://www.w3.org/Graphics/SVG/1.1/DTD/svg11.dtd">
<svg version="1.1" xmlns="http://www.w3.org/2000/svg" xmlns:xlink="http://www.w3.org/1999/xlink" preserveAspectRatio="xMidYMid meet" viewBox="0 0 195 202" width="195" height="202"><defs><path d="M192.67 151.21L192.67 51.64L97.5 1.86L2.33 51.64L2.33 151.21L97.5 201L192.67 151.21Z" id="e38vn8Pbl5"></path><path d="M192.67 151.21L192.67 51.64L97.5 1.86L2.33 51.64L2.33 151.21L97.5 201L192.67 151.21Z" id="a4kBeNIZ6Z"></path><path d="M97.5 152.19L57.79 143.58L49.85 48.81L145.15 48.81L137.21 143.58L97.5 152.19ZM65.16 136.39L97.5 143.4L129.84 136.39L136.45 57.42L58.54 57.42L65.16 136.39Z" id="c9gOZJ4Eu"></path><path d="M113.61 122.67L97.5 126.41L81.39 122.67L80.73 114.25L73.43 114.25L74.64 129.71L97.5 135L120.37 129.71L122.9 97.38L88.5 97.38L124.55 76.29L125.21 67.86L69.79 67.86L70.45 76.29L108.4 76.29L72.34 97.38L72.77 105.82L114.93 105.82L113.61 122.67Z" id="a10oQthbW"></path></defs><g><g><g><use xlink:href="#e38vn8Pbl5" opacity="1" fill="#000000" fill-opacity="0"></use><g><use xlink:href="#e38vn8Pbl5" opacity="1" fill-opacity="0" stroke="#000000" stroke-width="1" stroke-opacity="0"></use></g></g><g><use xlink:href="#a4kBeNIZ6Z" opacity="1" fill="#000000" fill-opacity="0"></use><g><use xlink:href="#a4kBeNIZ6Z" opacity="1" fill-opacity="0" stroke="#00c7fc" stroke-width="1" stroke-opacity="1"></use></g></g><g><use xlink:href="#c9gOZJ4Eu" opacity="1" fill="#000000" fill-opacity="1"></use><g><use xlink:href="#c9gOZJ4Eu" opacity="1" fill-opacity="0" stroke="#000000" stroke-width="1" stroke-opacity="0"></use></g></g><g><use xlink:href="#a10oQthbW" opacity="1" fill="#000000" fill-opacity="1"></use><g><use xlink:href="#a10oQthbW" opacity="1" fill-opacity="0" stroke="#000000" stroke-width="1" stroke-opacity="0"></use></g></g></g></g></svg>