<?xml version="1.0" encoding="UTF-8" standalone="no"?>
<!DOCTYPE svg PUBLIC "-//W3C//DTD SVG 1.1//EN" "http://www.w3.org/Graphics/SVG/1.1/DTD/svg11.dtd">
<svg version="1.1" xmlns="http://www.w3.org/2000/svg" xmlns:xlink="http://www.w3.org/1999/xlink" preserveAspectRatio="xMidYMid meet" viewBox="0 0 331 371" width="331" height="371"><defs><path d="M3.17 94.26L3.17 278.42L166.04 370.5L328.91 278.42L328.91 94.26L166.04 2.18L3.17 94.26Z" id="a3wn6PpM0m"></path><path d="M3.17 94.26L3.17 278.42L166.04 370.5L328.91 278.42L328.91 94.26L166.04 2.18L3.17 94.26Z" id="acLJqmlO8"></path><path d="M108.51 70.23L108.85 70.27L109.19 70.33L109.35 70.36L109.51 70.4L109.68 70.45L110 70.55L110.3 70.67L110.46 70.74L110.61 70.81L110.75 70.89L110.9 70.97L111.18 71.15L111.31 71.24L111.45 71.35L111.58 71.45L111.71 71.56L112.07 71.92L112.18 72.05L112.3 72.18L112.4 72.32L112.51 72.46L112.61 72.61L112.7 72.76L112.8 72.92L112.89 73.08L113.13 73.59L113.2 73.77L113.27 73.96L139.41 142.67L139.44 142.72L139.46 142.76L139.48 142.81L139.49 142.85L139.53 142.93L139.54 142.97L139.56 143.01L139.58 143.09L139.6 143.12L139.61 143.16L139.62 143.19L139.63 143.23L139.64 143.26L139.64 143.29L139.67 143.38L139.67 143.41L139.68 143.44L139.68 143.47L139.69 143.5L139.69 143.55L139.7 143.58L139.7 143.71L139.71 143.73L139.71 144L139.72 144.02L139.72 144.05L139.73 144.08L139.73 144.11L139.75 144.17L139.75 144.2L139.76 144.24L139.78 144.3L139.79 144.34L139.8 144.37L139.81 144.41L139.82 144.44L139.83 144.48L139.84 144.51L139.87 144.58L139.88 144.62L139.89 144.65L139.9 144.69L139.92 144.75L139.93 144.79L139.95 144.85L139.96 144.89L139.96 144.92L139.98 144.98L139.98 145.01L139.99 145.04L139.99 145.07L140 145.1L140 145.17L139.95 146.62L139.86 148.05L139.71 149.46L139.52 150.87L139.28 152.25L138.99 153.62L138.66 154.96L138.28 156.29L137.86 157.6L137.39 158.88L136.89 160.15L136.34 161.38L135.76 162.6L135.13 163.79L134.47 164.95L133.77 166.08L133.03 167.18L132.25 168.26L131.44 169.3L130.6 170.31L129.73 171.29L128.82 172.24L127.88 173.15L126.91 174.02L125.91 174.86L124.88 175.66L123.83 176.42L122.75 177.14L121.64 177.82L120.5 178.46L119.35 179.06L118.17 179.61L116.96 180.12L115.74 180.58L114.49 181L113.23 181.36L111.94 181.68L110.64 181.95L109.32 182.17L107.98 182.34L117.68 277.91L117.7 278.07L117.74 278.24L117.78 278.4L117.83 278.56L117.88 278.73L117.94 278.89L118.01 279.05L118.09 279.2L118.17 279.36L118.26 279.52L118.56 279.97L118.92 280.39L119.05 280.53L119.33 280.79L119.48 280.92L119.63 281.04L119.78 281.15L119.94 281.27L120.11 281.37L120.28 281.48L120.45 281.57L120.81 281.75L121.19 281.91L121.38 281.98L121.58 282.04L121.98 282.14L122.4 282.22L122.61 282.25L122.82 282.27L123.04 282.28L126.2 282.28L135.6 222.94L135.72 222.27L135.86 221.6L136.02 220.95L136.21 220.3L136.41 219.67L136.64 219.05L136.88 218.44L137.14 217.84L137.43 217.25L137.73 216.68L138.04 216.12L138.38 215.57L138.73 215.04L139.1 214.52L139.48 214.02L139.88 213.53L140.29 213.06L140.72 212.6L141.16 212.16L141.62 211.74L142.09 211.33L142.57 210.94L143.06 210.57L143.57 210.21L144.09 209.88L144.62 209.56L145.15 209.26L145.7 208.98L146.26 208.73L146.83 208.49L147.41 208.27L147.99 208.08L148.59 207.9L149.19 207.75L149.8 207.62L150.41 207.52L151.03 207.43L151.66 207.37L152.29 207.34L152.93 207.32L153.19 207.32L153.24 207.33L153.5 207.33L153.54 207.34L153.63 207.34L153.68 207.35L153.72 207.35L153.76 207.36L153.81 207.36L153.85 207.37L153.9 207.38L153.94 207.38L153.98 207.39L154.03 207.4L154.07 207.41L154.12 207.42L154.2 207.44L154.25 207.46L154.29 207.47L154.34 207.48L154.38 207.5L154.43 207.52L154.47 207.53L154.51 207.55L154.56 207.57L154.6 207.59L154.65 207.61L154.69 207.64L154.74 207.65L154.85 207.67L155.01 207.72L155.22 207.79L155.49 207.87L155.82 207.96L156.19 208.07L156.61 208.19L157.08 208.33L157.6 208.48L158.17 208.63L158.78 208.8L159.43 208.98L160.13 209.16L160.88 209.35L161.66 209.54L162.48 209.75L163.35 209.95L164.25 210.16L165.19 210.37L166.17 210.58L167.18 210.79L168.22 211L169.3 211.21L170.42 211.42L171.56 211.62L172.73 211.82L173.93 212.01L175.16 212.2L176.42 212.38L177.7 212.55L179.01 212.71L180.34 212.87L181.69 213.01L183.07 213.14L184.46 213.25L185.88 213.35L187.31 213.44L188.77 213.51L190.23 213.57L192.06 213.63L193.83 213.66L195.55 213.67L197.22 213.65L198.83 213.61L200.4 213.55L201.91 213.47L203.37 213.38L204.79 213.26L206.15 213.14L207.46 212.99L208.73 212.84L209.94 212.67L211.11 212.49L212.23 212.3L213.3 212.11L214.32 211.9L215.3 211.69L216.23 211.48L217.11 211.27L217.95 211.05L218.74 210.83L219.48 210.61L220.18 210.4L220.84 210.19L221.45 209.98L222.01 209.78L222.53 209.58L223.01 209.4L223.45 209.22L223.84 209.06L224.19 208.9L224.49 208.76L224.76 208.64L224.98 208.53L225.16 208.43L225.4 208.31L225.46 208.27L225.48 208.26L225.55 208.21L225.62 208.17L225.68 208.13L225.75 208.08L225.81 208.04L225.95 207.96L226.01 207.92L226.08 207.89L226.15 207.85L226.22 207.82L226.28 207.78L226.63 207.63L226.7 207.61L226.77 207.58L226.91 207.54L226.99 207.51L227.13 207.47L227.21 207.46L227.28 207.44L227.36 207.42L227.43 207.41L227.51 207.39L227.91 207.34L227.99 207.34L228.08 207.33L228.25 207.33L228.33 207.32L228.42 207.32L228.99 207.33L229.56 207.36L230.12 207.41L230.68 207.47L231.24 207.55L231.79 207.65L232.33 207.77L232.87 207.91L233.4 208.06L233.93 208.23L234.45 208.41L234.96 208.61L235.47 208.83L235.97 209.07L236.46 209.32L236.94 209.58L237.41 209.86L237.87 210.16L238.33 210.47L238.78 210.8L239.21 211.14L239.64 211.49L240.05 211.86L240.46 212.25L240.85 212.65L241.23 213.06L241.6 213.48L241.96 213.92L242.3 214.37L242.63 214.83L242.95 215.31L243.25 215.8L243.54 216.3L243.82 216.81L244.08 217.34L244.33 217.87L244.56 218.42L244.78 218.98L244.98 219.55L245.16 220.13L263.38 277.91L263.45 278.12L263.59 278.52L263.68 278.72L263.76 278.9L263.85 279.09L263.94 279.27L264.14 279.61L264.25 279.78L264.36 279.94L264.47 280.09L264.71 280.39L264.83 280.53L265.09 280.79L265.23 280.92L265.37 281.04L265.65 281.26L265.95 281.46L266.11 281.55L266.26 281.64L266.42 281.72L266.59 281.8L266.75 281.87L267.09 281.99L267.27 282.05L267.45 282.1L267.81 282.18L268 282.21L268.18 282.24L268.37 282.26L268.57 282.27L268.76 282.28L272.43 282.28L272.91 282.24L273.14 282.2L273.6 282.1L273.82 282.04L274.26 281.88L274.47 281.79L274.68 281.69L275.08 281.47L275.28 281.34L275.47 281.21L275.83 280.93L276.01 280.77L276.18 280.61L276.34 280.45L276.5 280.27L276.65 280.1L276.93 279.72L277.06 279.52L277.18 279.32L277.3 279.11L277.41 278.9L277.51 278.68L277.69 278.24L277.76 278L277.83 277.77L277.89 277.53L277.99 277.05L278.05 276.55L278.06 276.29L278.06 137.36L275.71 140.49L275.11 141.27L274.49 142.04L273.86 142.8L273.21 143.53L272.54 144.24L271.86 144.94L271.17 145.62L270.46 146.28L269.74 146.92L269 147.54L268.26 148.14L267.5 148.73L266.73 149.29L265.94 149.83L265.15 150.36L264.35 150.86L263.53 151.34L262.71 151.8L261.87 152.25L261.03 152.67L260.17 153.07L259.31 153.44L258.44 153.8L257.57 154.14L256.68 154.45L255.79 154.74L254.9 155.01L253.99 155.26L253.08 155.48L252.17 155.68L251.25 155.86L250.33 156.02L249.4 156.15L248.46 156.26L247.53 156.34L246.59 156.41L245.65 156.44L244.71 156.46L243.76 156.45L242.81 156.41L157.04 151.1L156.8 151.08L156.56 151.04L156.32 150.99L156.09 150.94L155.63 150.8L155.41 150.72L154.97 150.54L154.76 150.43L154.56 150.32L154.35 150.2L154.16 150.07L153.96 149.94L153.78 149.8L153.59 149.65L153.42 149.5L153.25 149.34L153.08 149.17L152.93 149L152.78 148.82L152.63 148.63L152.37 148.25L152.24 148.05L152.02 147.63L151.92 147.42L151.83 147.2L151.75 146.98L151.68 146.75L151.62 146.52L151.56 146.28L151.48 145.8L151.46 145.56L151.44 145.31L151.44 144.8L151.46 144.55L151.46 144.29L151.48 144.04L151.5 143.78L151.54 143.54L151.58 143.29L151.63 143.05L151.69 142.81L151.76 142.58L151.84 142.35L152.02 141.91L152.12 141.69L152.24 141.48L152.35 141.28L152.61 140.88L152.76 140.7L152.9 140.51L153.22 140.17L153.39 140.01L153.56 139.86L153.75 139.71L153.93 139.58L154.33 139.32L154.53 139.21L154.74 139.11L154.96 139.01L155.18 138.92L155.4 138.85L155.63 138.78L155.87 138.72L156.11 138.67L156.35 138.64L156.6 138.61L156.85 138.59L157.36 138.59L157.63 138.61L243.7 143.92L244.36 143.94L245.02 143.94L245.68 143.92L246.34 143.88L246.99 143.84L247.65 143.77L248.31 143.69L248.96 143.59L249.61 143.48L250.25 143.35L250.9 143.21L251.54 143.05L252.18 142.87L252.81 142.68L253.44 142.48L254.06 142.26L254.68 142.02L255.3 141.77L255.91 141.51L256.51 141.23L257.11 140.93L257.7 140.62L258.28 140.3L258.86 139.96L259.43 139.61L259.99 139.25L260.55 138.86L261.09 138.47L261.63 138.06L262.16 137.64L262.68 137.2L263.19 136.76L263.69 136.29L264.18 135.82L264.66 135.33L265.13 134.82L265.59 134.31L266.04 133.78L266.48 133.23L266.9 132.68L279.53 115.81L279.65 115.67L279.76 115.54L279.88 115.41L280.14 115.15L280.27 115.03L280.4 114.92L280.54 114.81L280.69 114.7L280.83 114.6L281.13 114.4L281.29 114.31L281.44 114.23L281.6 114.15L281.77 114.07L281.93 114L282.1 113.94L282.26 113.88L282.43 113.82L282.61 113.77L282.95 113.69L283.13 113.65L283.31 113.62L283.48 113.6L284.02 113.57L284.2 113.57L284.56 113.59L284.74 113.61L285.1 113.67L285.28 113.71L285.64 113.81L285.82 113.87L286 113.94L286.17 114.01L286.51 114.17L286.67 114.26L287.15 114.56L287.3 114.67L287.72 115.03L287.86 115.16L287.99 115.29L288.11 115.43L288.24 115.57L288.36 115.71L288.69 116.16L288.79 116.32L288.88 116.48L288.98 116.64L289.06 116.81L289.15 116.97L289.23 117.14L289.3 117.32L289.37 117.49L289.43 117.67L289.49 117.84L289.55 118.02L289.6 118.2L289.64 118.39L289.72 118.75L289.75 118.94L289.77 119.12L289.79 119.31L289.8 119.5L289.81 119.68L289.81 275.72L289.8 276.49L289.76 277.25L289.68 278.01L289.58 278.75L289.45 279.49L289.3 280.21L289.12 280.93L288.91 281.63L288.68 282.32L288.42 283L288.14 283.67L287.84 284.32L287.51 284.95L287.16 285.58L286.79 286.18L286.4 286.77L285.99 287.35L285.56 287.9L285.11 288.44L284.64 288.96L284.15 289.46L283.64 289.94L283.12 290.4L282.58 290.84L282.03 291.25L281.46 291.65L280.87 292.02L280.27 292.36L279.66 292.69L279.03 292.98L278.39 293.26L277.75 293.5L277.08 293.72L276.41 293.92L275.73 294.08L275.04 294.22L274.34 294.32L273.63 294.4L272.91 294.45L272.19 294.46L268.96 294.46L268.39 294.45L267.82 294.43L267.26 294.38L266.7 294.32L266.14 294.23L265.59 294.13L265.05 294.02L264.51 293.88L263.98 293.73L263.45 293.56L262.93 293.37L262.42 293.17L261.91 292.95L261.41 292.72L260.92 292.47L260.44 292.2L259.97 291.92L259.5 291.63L259.05 291.31L258.6 290.99L258.17 290.65L257.74 290.29L257.33 289.92L256.92 289.54L256.53 289.14L256.15 288.73L255.78 288.3L255.42 287.87L255.08 287.42L254.75 286.95L254.43 286.48L254.13 285.99L253.83 285.49L253.56 284.97L253.3 284.45L253.05 283.91L252.82 283.37L252.6 282.81L252.4 282.24L252.21 281.66L234 223.88L233.96 223.71L233.91 223.55L233.85 223.4L233.79 223.24L233.73 223.09L233.59 222.79L233.52 222.65L233.44 222.5L233.35 222.36L233.27 222.23L233.18 222.09L233.09 221.96L232.99 221.84L232.89 221.71L232.79 221.59L232.68 221.48L232.58 221.36L232.46 221.25L232.35 221.14L231.99 220.84L231.87 220.75L231.74 220.66L231.48 220.5L231.34 220.42L231.21 220.34L231.07 220.28L230.93 220.21L230.79 220.15L230.64 220.09L230.5 220.04L230.35 219.99L229.9 219.87L229.75 219.84L229.6 219.82L229.25 220.01L228.88 220.21L228.47 220.41L228.03 220.62L227.57 220.84L227.07 221.06L226.54 221.29L225.98 221.52L225.38 221.75L224.76 221.98L224.1 222.21L223.41 222.45L222.69 222.68L221.93 222.91L221.14 223.14L220.31 223.36L219.45 223.59L218.56 223.81L217.63 224.02L216.67 224.23L215.67 224.43L214.64 224.62L213.57 224.81L212.46 224.99L211.32 225.16L210.14 225.32L208.93 225.46L207.68 225.6L206.39 225.72L205.06 225.83L203.69 225.93L202.29 226.01L200.85 226.08L199.36 226.13L197.84 226.17L196.28 226.18L194.68 226.18L193.05 226.16L191.37 226.12L189.65 226.06L188.24 226.01L186.86 225.94L185.49 225.86L184.14 225.77L182.8 225.67L181.49 225.55L180.19 225.43L178.91 225.29L177.65 225.15L176.42 225L175.2 224.84L174.01 224.67L172.84 224.5L171.69 224.32L170.57 224.14L169.47 223.95L168.4 223.76L167.35 223.57L166.33 223.37L165.34 223.17L164.37 222.97L163.43 222.77L162.52 222.57L161.64 222.38L160.79 222.18L159.97 221.98L159.18 221.79L158.43 221.6L157.7 221.41L157.01 221.23L156.35 221.06L155.73 220.89L155.14 220.72L154.59 220.57L154.07 220.42L153.59 220.28L153.15 220.15L152.74 220.03L152.37 219.92L152.05 219.82L151.87 219.84L151.69 219.88L151.52 219.92L151.34 219.97L151.17 220.02L151 220.08L150.82 220.15L150.65 220.22L150.48 220.3L150.32 220.38L150.15 220.47L149.83 220.67L149.51 220.89L149.21 221.13L149.06 221.26L148.92 221.4L148.78 221.53L148.64 221.68L148.51 221.82L148.38 221.98L148.26 222.13L148.14 222.29L147.92 222.63L147.82 222.8L147.72 222.98L147.63 223.15L147.54 223.34L147.46 223.52L147.38 223.71L147.32 223.91L147.25 224.1L147.15 224.5L147.11 224.71L147.05 225.13L137.65 284.47L137.58 284.91L137.49 285.35L137.39 285.78L137.28 286.2L137.15 286.62L137.01 287.02L136.85 287.43L136.69 287.82L136.51 288.21L136.32 288.58L136.11 288.95L135.9 289.31L135.44 290.01L135.19 290.34L134.93 290.66L134.66 290.97L134.38 291.27L134.09 291.57L133.8 291.85L133.49 292.12L133.17 292.38L132.85 292.62L132.51 292.86L132.17 293.08L131.82 293.29L131.46 293.49L131.09 293.67L130.72 293.84L130.34 294L129.95 294.14L129.56 294.27L129.16 294.39L128.75 294.49L128.34 294.58L127.92 294.65L127.5 294.7L127.07 294.74L126.63 294.77L126.2 294.78L123.26 294.78L122.62 294.76L121.99 294.73L121.37 294.67L120.75 294.59L120.14 294.49L119.54 294.37L118.94 294.22L118.35 294.06L117.77 293.87L117.2 293.66L116.64 293.44L116.09 293.19L115.55 292.92L115.02 292.64L114.5 292.34L113.99 292.02L113.49 291.68L113 291.32L112.52 290.95L112.06 290.56L111.61 290.15L111.17 289.73L110.75 289.29L110.34 288.84L109.94 288.37L109.56 287.89L109.19 287.39L108.84 286.88L108.5 286.35L108.18 285.82L107.88 285.26L107.59 284.7L107.32 284.13L107.06 283.54L106.83 282.94L106.61 282.33L106.41 281.71L106.23 281.08L106.07 280.43L105.93 279.78L95.65 176.72L95.5 176.11L95.34 175.51L95.16 174.92L94.96 174.34L94.74 173.77L94.51 173.2L94.25 172.65L93.98 172.1L93.7 171.57L93.39 171.04L93.07 170.53L92.73 170.03L92.38 169.54L92.02 169.07L91.63 168.6L91.24 168.15L90.83 167.71L90.4 167.29L89.96 166.88L89.51 166.49L89.05 166.11L88.57 165.74L88.09 165.4L87.59 165.07L87.08 164.75L86.56 164.46L86.02 164.18L85.48 163.92L84.93 163.67L84.37 163.45L83.8 163.25L83.22 163.06L82.63 162.9L82.04 162.76L81.43 162.63L80.82 162.53L80.2 162.45L79.58 162.39L78.95 162.36L78.31 162.35L56.87 162.35L56.32 162.34L55.78 162.31L55.23 162.27L54.7 162.21L54.16 162.13L53.64 162.04L53.11 161.93L52.59 161.8L52.08 161.66L51.57 161.5L51.07 161.33L50.58 161.14L50.09 160.94L49.61 160.72L49.14 160.49L48.67 160.24L48.21 159.98L47.76 159.7L47.32 159.41L46.88 159.11L46.46 158.79L46.04 158.46L45.64 158.12L45.24 157.76L44.85 157.39L44.47 157.01L44.11 156.62L43.75 156.21L43.07 155.37L42.75 154.92L42.44 154.47L42.14 154.01L41.86 153.54L41.59 153.05L41.33 152.56L41.08 152.05L40.85 151.54L40.63 151.01L40.42 150.48L31.61 127.06L31.49 126.7L31.43 126.46L31.4 126.33L31.36 126.09L31.34 125.96L31.32 125.84L31.3 125.58L31.29 125.46L31.29 124.94L31.3 124.81L31.3 124.69L31.31 124.56L31.33 124.43L31.34 124.3L31.4 123.91L31.42 123.79L31.44 123.66L31.5 123.4L31.53 123.28L31.56 123.15L31.59 123.03L31.62 122.9L31.7 122.66L31.73 122.54L31.77 122.41L31.82 122.29L31.86 122.18L31.9 122.06L31.95 121.94L32 121.83L32.05 121.72L32.1 121.61L32.16 121.5L32.22 121.4L32.29 121.29L32.35 121.19L32.42 121.1L32.49 121L32.57 120.91L32.64 120.81L32.8 120.63L32.89 120.55L32.97 120.46L33.24 120.22L33.33 120.15L33.43 120.07L33.52 120L33.62 119.92L33.72 119.85L33.82 119.79L34.02 119.65L34.13 119.59L34.23 119.53L34.45 119.41L34.55 119.35L34.66 119.29L34.77 119.24L34.88 119.18L35.43 118.93L92.12 101.13L102.7 73.96L102.76 73.8L102.84 73.64L102.91 73.48L102.99 73.32L103.26 72.87L103.56 72.45L103.78 72.19L103.9 72.06L104.01 71.93L104.14 71.81L104.26 71.7L104.39 71.58L104.52 71.47L104.65 71.37L104.93 71.17L105.21 70.99L105.36 70.9L105.51 70.82L105.66 70.75L105.82 70.67L105.97 70.61L106.29 70.49L106.45 70.44L106.62 70.39L106.78 70.35L106.95 70.31L107.12 70.28L107.63 70.22L107.81 70.21L108.16 70.21L108.33 70.22L108.51 70.23ZM101.16 108.43L101.09 108.55L100.95 108.77L100.88 108.89L100.74 109.11L100.66 109.21L100.58 109.32L100.51 109.42L100.43 109.53L100.35 109.63L100.26 109.73L100.18 109.83L100.1 109.92L100.01 110.02L99.92 110.11L99.83 110.21L99.74 110.3L99.65 110.38L99.55 110.47L99.46 110.56L99.06 110.88L98.95 110.96L98.51 111.24L98.4 111.3L98.28 111.37L97.92 111.55L97.79 111.6L97.67 111.65L97.41 111.75L44.83 128.62L51.29 145.8L51.43 146.16L51.51 146.34L51.6 146.52L51.69 146.69L51.78 146.85L51.88 147.02L51.98 147.18L52.2 147.48L52.32 147.63L52.56 147.91L52.69 148.05L52.82 148.18L52.96 148.3L53.1 148.43L53.38 148.65L53.68 148.87L53.83 148.96L53.99 149.06L54.14 149.15L54.3 149.23L54.47 149.31L54.63 149.38L54.8 149.45L54.96 149.51L55.3 149.63L55.47 149.67L55.64 149.72L55.82 149.75L55.99 149.78L56.17 149.81L56.34 149.83L56.52 149.84L56.69 149.85L56.87 149.86L78.31 149.86L79.24 149.87L80.15 149.92L81.06 149.99L81.97 150.09L82.86 150.23L83.75 150.39L84.63 150.58L85.5 150.79L86.36 151.04L87.2 151.3L88.04 151.6L88.87 151.92L89.69 152.27L90.49 152.64L91.28 153.03L92.06 153.45L92.82 153.9L93.57 154.36L94.3 154.85L95.02 155.36L95.72 155.89L96.41 156.45L97.08 157.02L97.73 157.61L98.36 158.23L98.98 158.86L99.57 159.51L100.15 160.19L100.71 160.88L101.24 161.58L101.75 162.31L102.25 163.05L102.72 163.81L103.16 164.58L103.59 165.37L103.99 166.17L104.36 166.99L104.71 167.82L105.04 168.67L105.34 169.53L106.26 169.47L107.17 169.37L108.06 169.23L108.95 169.06L109.82 168.86L110.67 168.62L111.52 168.35L112.34 168.05L113.15 167.72L113.95 167.36L114.73 166.97L115.49 166.55L116.24 166.1L116.96 165.63L117.67 165.12L118.36 164.59L119.03 164.04L119.68 163.46L120.3 162.86L120.91 162.23L121.49 161.58L122.05 160.91L122.59 160.22L123.11 159.5L123.6 158.77L124.06 158.01L124.5 157.24L124.91 156.45L125.3 155.64L125.66 154.82L126 153.98L126.3 153.12L126.58 152.25L126.83 151.36L127.04 150.47L127.23 149.55L127.39 148.63L127.51 147.7L127.6 146.75L127.66 145.8L107.4 92.39L101.23 108.32L101.16 108.43Z" id="bpfeKzJTP"></path><path d="M108.51 70.23L108.85 70.27L109.19 70.33L109.35 70.36L109.51 70.4L109.68 70.45L110 70.55L110.3 70.67L110.46 70.74L110.61 70.81L110.75 70.89L110.9 70.97L111.18 71.15L111.31 71.24L111.45 71.35L111.58 71.45L111.71 71.56L112.07 71.92L112.18 72.05L112.3 72.18L112.4 72.32L112.51 72.46L112.61 72.61L112.7 72.76L112.8 72.92L112.89 73.08L113.13 73.59L113.2 73.77L113.27 73.96L139.41 142.67L139.44 142.72L139.46 142.76L139.48 142.81L139.49 142.85L139.53 142.93L139.54 142.97L139.56 143.01L139.58 143.09L139.6 143.12L139.61 143.16L139.62 143.19L139.63 143.23L139.64 143.26L139.64 143.29L139.67 143.38L139.67 143.41L139.68 143.44L139.68 143.47L139.69 143.5L139.69 143.55L139.7 143.58L139.7 143.71L139.71 143.73L139.71 144L139.72 144.02L139.72 144.05L139.73 144.08L139.73 144.11L139.75 144.17L139.75 144.2L139.76 144.24L139.78 144.3L139.79 144.34L139.8 144.37L139.81 144.41L139.82 144.44L139.83 144.48L139.84 144.51L139.87 144.58L139.88 144.62L139.89 144.65L139.9 144.69L139.92 144.75L139.93 144.79L139.95 144.85L139.96 144.89L139.96 144.92L139.98 144.98L139.98 145.01L139.99 145.04L139.99 145.07L140 145.1L140 145.17L139.95 146.62L139.86 148.05L139.71 149.46L139.52 150.87L139.28 152.25L138.99 153.62L138.66 154.96L138.28 156.29L137.86 157.6L137.39 158.88L136.89 160.15L136.34 161.38L135.76 162.6L135.13 163.79L134.47 164.95L133.77 166.08L133.03 167.18L132.25 168.26L131.44 169.3L130.6 170.31L129.73 171.29L128.82 172.24L127.88 173.15L126.91 174.02L125.91 174.86L124.88 175.66L123.83 176.42L122.75 177.14L121.64 177.82L120.5 178.46L119.35 179.06L118.17 179.61L116.96 180.12L115.74 180.58L114.49 181L113.23 181.36L111.94 181.68L110.64 181.95L109.32 182.17L107.98 182.34L117.68 277.91L117.7 278.07L117.74 278.24L117.78 278.4L117.83 278.56L117.88 278.73L117.94 278.89L118.01 279.05L118.09 279.2L118.17 279.36L118.26 279.52L118.56 279.97L118.92 280.39L119.05 280.53L119.33 280.79L119.48 280.92L119.63 281.04L119.78 281.15L119.94 281.27L120.11 281.37L120.28 281.48L120.45 281.57L120.81 281.75L121.19 281.91L121.38 281.98L121.58 282.04L121.98 282.14L122.4 282.22L122.61 282.25L122.82 282.27L123.04 282.28L126.2 282.28L135.6 222.94L135.72 222.27L135.86 221.6L136.02 220.95L136.21 220.3L136.41 219.67L136.64 219.05L136.88 218.44L137.14 217.84L137.43 217.25L137.73 216.68L138.04 216.12L138.38 215.57L138.73 215.04L139.1 214.52L139.48 214.02L139.88 213.53L140.29 213.06L140.72 212.6L141.16 212.16L141.62 211.74L142.09 211.33L142.57 210.94L143.06 210.57L143.57 210.21L144.09 209.88L144.62 209.56L145.15 209.26L145.7 208.98L146.26 208.73L146.83 208.49L147.41 208.27L147.99 208.08L148.59 207.9L149.19 207.75L149.8 207.62L150.41 207.52L151.03 207.43L151.66 207.37L152.29 207.34L152.93 207.32L153.19 207.32L153.24 207.33L153.5 207.33L153.54 207.34L153.63 207.34L153.68 207.35L153.72 207.35L153.76 207.36L153.81 207.36L153.85 207.37L153.9 207.38L153.94 207.38L153.98 207.39L154.03 207.4L154.07 207.41L154.12 207.42L154.2 207.44L154.25 207.46L154.29 207.47L154.34 207.48L154.38 207.5L154.43 207.52L154.47 207.53L154.51 207.55L154.56 207.57L154.6 207.59L154.65 207.61L154.69 207.64L154.74 207.65L154.85 207.67L155.01 207.72L155.22 207.79L155.49 207.87L155.82 207.96L156.19 208.07L156.61 208.19L157.08 208.33L157.6 208.48L158.17 208.63L158.78 208.8L159.43 208.98L160.13 209.16L160.88 209.35L161.66 209.54L162.48 209.75L163.35 209.95L164.25 210.16L165.19 210.37L166.17 210.58L167.18 210.79L168.22 211L169.3 211.21L170.42 211.42L171.56 211.62L172.73 211.82L173.93 212.01L175.16 212.2L176.42 212.38L177.7 212.55L179.01 212.71L180.34 212.87L181.69 213.01L183.07 213.14L184.46 213.25L185.88 213.35L187.31 213.44L188.77 213.51L190.23 213.57L192.06 213.63L193.83 213.66L195.55 213.67L197.22 213.65L198.83 213.61L200.4 213.55L201.91 213.47L203.37 213.38L204.79 213.26L206.15 213.14L207.46 212.99L208.73 212.84L209.94 212.67L211.11 212.49L212.23 212.3L213.3 212.11L214.32 211.9L215.3 211.69L216.23 211.48L217.11 211.27L217.95 211.05L218.74 210.83L219.48 210.61L220.18 210.4L220.84 210.19L221.45 209.98L222.01 209.78L222.53 209.58L223.01 209.4L223.45 209.22L223.84 209.06L224.19 208.9L224.49 208.76L224.76 208.64L224.98 208.53L225.16 208.43L225.4 208.31L225.46 208.27L225.48 208.26L225.55 208.21L225.62 208.17L225.68 208.13L225.75 208.08L225.81 208.04L225.95 207.96L226.01 207.92L226.08 207.89L226.15 207.85L226.22 207.82L226.28 207.78L226.63 207.63L226.7 207.61L226.77 207.58L226.91 207.54L226.99 207.51L227.13 207.47L227.21 207.46L227.28 207.44L227.36 207.42L227.43 207.41L227.51 207.39L227.91 207.34L227.99 207.34L228.08 207.33L228.25 207.33L228.33 207.32L228.42 207.32L228.99 207.33L229.56 207.36L230.12 207.41L230.68 207.47L231.24 207.55L231.79 207.65L232.33 207.77L232.87 207.91L233.4 208.06L233.93 208.23L234.45 208.41L234.96 208.61L235.47 208.83L235.97 209.07L236.46 209.32L236.94 209.58L237.41 209.86L237.87 210.16L238.33 210.47L238.78 210.8L239.21 211.14L239.64 211.49L240.05 211.86L240.46 212.25L240.85 212.65L241.23 213.06L241.6 213.48L241.96 213.92L242.3 214.37L242.63 214.83L242.95 215.31L243.25 215.8L243.54 216.3L243.82 216.81L244.08 217.34L244.33 217.87L244.56 218.42L244.78 218.98L244.98 219.55L245.16 220.13L263.38 277.91L263.45 278.12L263.59 278.52L263.68 278.72L263.76 278.9L263.85 279.09L263.94 279.27L264.14 279.61L264.25 279.78L264.36 279.94L264.47 280.09L264.71 280.39L264.83 280.53L265.09 280.79L265.23 280.92L265.37 281.04L265.65 281.26L265.95 281.46L266.11 281.55L266.26 281.64L266.42 281.72L266.59 281.8L266.75 281.87L267.09 281.99L267.27 282.05L267.45 282.1L267.81 282.18L268 282.21L268.18 282.24L268.37 282.26L268.57 282.27L268.76 282.28L272.43 282.28L272.91 282.24L273.14 282.2L273.6 282.1L273.82 282.04L274.26 281.88L274.47 281.79L274.68 281.69L275.08 281.47L275.28 281.34L275.47 281.21L275.83 280.93L276.01 280.77L276.18 280.61L276.34 280.45L276.5 280.27L276.65 280.1L276.93 279.72L277.06 279.52L277.18 279.32L277.3 279.11L277.41 278.9L277.51 278.68L277.69 278.24L277.76 278L277.83 277.77L277.89 277.53L277.99 277.05L278.05 276.55L278.06 276.29L278.06 137.36L275.71 140.49L275.11 141.27L274.49 142.04L273.86 142.8L273.21 143.53L272.54 144.24L271.86 144.94L271.17 145.62L270.46 146.28L269.74 146.92L269 147.54L268.26 148.14L267.5 148.73L266.73 149.29L265.94 149.83L265.15 150.36L264.35 150.86L263.53 151.34L262.71 151.8L261.87 152.25L261.03 152.67L260.17 153.07L259.31 153.44L258.44 153.8L257.57 154.14L256.68 154.45L255.79 154.74L254.9 155.01L253.99 155.26L253.08 155.48L252.17 155.68L251.25 155.86L250.33 156.02L249.4 156.15L248.46 156.26L247.53 156.34L246.59 156.41L245.65 156.44L244.71 156.46L243.76 156.45L242.81 156.41L157.04 151.1L156.8 151.08L156.56 151.04L156.32 150.99L156.09 150.94L155.63 150.8L155.41 150.72L154.97 150.54L154.76 150.43L154.56 150.32L154.35 150.2L154.16 150.07L153.96 149.94L153.78 149.8L153.59 149.65L153.42 149.5L153.25 149.34L153.08 149.17L152.93 149L152.78 148.82L152.63 148.63L152.37 148.25L152.24 148.05L152.02 147.63L151.92 147.42L151.83 147.2L151.75 146.98L151.68 146.75L151.62 146.52L151.56 146.28L151.48 145.8L151.46 145.56L151.44 145.31L151.44 144.8L151.46 144.55L151.46 144.29L151.48 144.04L151.5 143.78L151.54 143.54L151.58 143.29L151.63 143.05L151.69 142.81L151.76 142.58L151.84 142.35L152.02 141.91L152.12 141.69L152.24 141.48L152.35 141.28L152.61 140.88L152.76 140.7L152.9 140.51L153.22 140.17L153.39 140.01L153.56 139.86L153.75 139.71L153.93 139.58L154.33 139.32L154.53 139.21L154.74 139.11L154.96 139.01L155.18 138.92L155.4 138.85L155.63 138.78L155.87 138.72L156.11 138.67L156.35 138.64L156.6 138.61L156.85 138.59L157.36 138.59L157.63 138.61L243.7 143.92L244.36 143.94L245.02 143.94L245.68 143.92L246.34 143.88L246.99 143.84L247.65 143.77L248.31 143.69L248.96 143.59L249.61 143.48L250.25 143.35L250.9 143.21L251.54 143.05L252.18 142.87L252.81 142.68L253.44 142.48L254.06 142.26L254.68 142.02L255.3 141.77L255.91 141.51L256.51 141.23L257.11 140.93L257.7 140.62L258.28 140.3L258.86 139.96L259.43 139.61L259.99 139.25L260.55 138.86L261.09 138.47L261.63 138.06L262.16 137.64L262.68 137.2L263.19 136.76L263.69 136.29L264.18 135.82L264.66 135.33L265.13 134.82L265.59 134.31L266.04 133.78L266.48 133.23L266.9 132.68L279.53 115.81L279.65 115.67L279.76 115.54L279.88 115.41L280.14 115.15L280.27 115.03L280.4 114.92L280.54 114.81L280.69 114.7L280.83 114.6L281.13 114.4L281.29 114.31L281.44 114.23L281.6 114.15L281.77 114.07L281.93 114L282.1 113.94L282.26 113.88L282.43 113.82L282.61 113.77L282.95 113.69L283.13 113.65L283.31 113.62L283.48 113.6L284.02 113.57L284.2 113.57L284.56 113.59L284.74 113.61L285.1 113.67L285.28 113.71L285.64 113.81L285.82 113.87L286 113.94L286.17 114.01L286.51 114.17L286.67 114.26L287.15 114.56L287.3 114.67L287.72 115.03L287.86 115.16L287.99 115.29L288.11 115.43L288.24 115.57L288.36 115.71L288.69 116.16L288.79 116.32L288.88 116.48L288.98 116.64L289.06 116.81L289.15 116.97L289.23 117.14L289.3 117.32L289.37 117.49L289.43 117.67L289.49 117.84L289.55 118.02L289.6 118.2L289.64 118.39L289.72 118.75L289.75 118.94L289.77 119.12L289.79 119.31L289.8 119.5L289.81 119.68L289.81 275.72L289.8 276.49L289.76 277.25L289.68 278.01L289.58 278.75L289.45 279.49L289.3 280.21L289.12 280.93L288.91 281.63L288.68 282.32L288.42 283L288.14 283.67L287.84 284.32L287.51 284.95L287.16 285.58L286.79 286.18L286.4 286.77L285.99 287.35L285.56 287.9L285.11 288.44L284.64 288.96L284.15 289.46L283.64 289.94L283.12 290.4L282.58 290.84L282.03 291.25L281.46 291.65L280.87 292.02L280.27 292.36L279.66 292.69L279.03 292.98L278.39 293.26L277.75 293.5L277.08 293.72L276.41 293.92L275.73 294.08L275.04 294.22L274.34 294.32L273.63 294.4L272.91 294.45L272.19 294.46L268.96 294.46L268.39 294.45L267.82 294.43L267.26 294.38L266.7 294.32L266.14 294.23L265.59 294.13L265.05 294.02L264.51 293.88L263.98 293.73L263.45 293.56L262.93 293.37L262.42 293.17L261.91 292.95L261.41 292.72L260.92 292.47L260.44 292.2L259.97 291.92L259.5 291.63L259.05 291.31L258.6 290.99L258.17 290.65L257.74 290.29L257.33 289.92L256.92 289.54L256.53 289.14L256.15 288.73L255.78 288.3L255.42 287.87L255.08 287.42L254.75 286.95L254.43 286.48L254.13 285.99L253.83 285.49L253.56 284.97L253.3 284.45L253.05 283.91L252.82 283.37L252.6 282.81L252.4 282.24L252.21 281.66L234 223.88L233.96 223.71L233.91 223.55L233.85 223.4L233.79 223.24L233.73 223.09L233.59 222.79L233.52 222.65L233.44 222.5L233.35 222.36L233.27 222.23L233.18 222.09L233.09 221.96L232.99 221.84L232.89 221.71L232.79 221.59L232.68 221.48L232.58 221.36L232.46 221.25L232.35 221.14L231.99 220.84L231.87 220.75L231.74 220.66L231.48 220.5L231.34 220.42L231.21 220.34L231.07 220.28L230.93 220.21L230.79 220.15L230.64 220.09L230.5 220.04L230.35 219.99L229.9 219.87L229.75 219.84L229.6 219.82L229.25 220.01L228.88 220.21L228.47 220.41L228.03 220.62L227.57 220.84L227.07 221.06L226.54 221.29L225.98 221.52L225.38 221.75L224.76 221.98L224.1 222.21L223.41 222.45L222.69 222.68L221.93 222.91L221.14 223.14L220.31 223.36L219.45 223.59L218.56 223.81L217.63 224.02L216.67 224.23L215.67 224.43L214.64 224.62L213.57 224.81L212.46 224.99L211.32 225.16L210.14 225.32L208.93 225.46L207.68 225.6L206.39 225.72L205.06 225.83L203.69 225.93L202.29 226.01L200.85 226.08L199.36 226.13L197.84 226.17L196.28 226.18L194.68 226.18L193.05 226.16L191.37 226.12L189.65 226.06L188.24 226.01L186.86 225.94L185.49 225.86L184.14 225.77L182.8 225.67L181.49 225.55L180.19 225.43L178.91 225.29L177.65 225.15L176.42 225L175.2 224.84L174.01 224.67L172.84 224.5L171.69 224.32L170.57 224.14L169.47 223.95L168.4 223.76L167.35 223.57L166.33 223.37L165.34 223.17L164.37 222.97L163.43 222.77L162.52 222.57L161.64 222.38L160.79 222.18L159.97 221.98L159.18 221.79L158.43 221.6L157.7 221.41L157.01 221.23L156.35 221.06L155.73 220.89L155.14 220.72L154.59 220.57L154.07 220.42L153.59 220.28L153.15 220.15L152.74 220.03L152.37 219.92L152.05 219.82L151.87 219.84L151.69 219.88L151.52 219.92L151.34 219.97L151.17 220.02L151 220.08L150.82 220.15L150.65 220.22L150.48 220.3L150.32 220.38L150.15 220.47L149.83 220.67L149.51 220.89L149.21 221.13L149.06 221.26L148.92 221.4L148.78 221.53L148.64 221.68L148.51 221.82L148.38 221.98L148.26 222.13L148.14 222.29L147.92 222.63L147.82 222.8L147.72 222.98L147.63 223.15L147.54 223.34L147.46 223.52L147.38 223.71L147.32 223.91L147.25 224.1L147.15 224.5L147.11 224.71L147.05 225.13L137.65 284.47L137.58 284.91L137.49 285.35L137.39 285.78L137.28 286.2L137.15 286.62L137.01 287.02L136.85 287.43L136.69 287.82L136.51 288.21L136.32 288.58L136.11 288.95L135.9 289.31L135.44 290.01L135.19 290.34L134.93 290.66L134.66 290.97L134.38 291.27L134.09 291.57L133.8 291.85L133.49 292.12L133.17 292.38L132.85 292.62L132.51 292.86L132.17 293.08L131.82 293.29L131.46 293.49L131.09 293.67L130.72 293.84L130.34 294L129.95 294.14L129.56 294.27L129.16 294.39L128.75 294.49L128.34 294.58L127.92 294.65L127.5 294.7L127.07 294.74L126.63 294.77L126.2 294.78L123.26 294.78L122.62 294.76L121.99 294.73L121.37 294.67L120.75 294.59L120.14 294.49L119.54 294.37L118.94 294.22L118.35 294.06L117.77 293.87L117.2 293.66L116.64 293.44L116.09 293.19L115.55 292.92L115.02 292.64L114.5 292.34L113.99 292.02L113.49 291.68L113 291.32L112.52 290.95L112.06 290.56L111.61 290.15L111.17 289.73L110.75 289.29L110.34 288.84L109.94 288.37L109.56 287.89L109.19 287.39L108.84 286.88L108.5 286.35L108.18 285.82L107.88 285.26L107.59 284.7L107.32 284.13L107.06 283.54L106.83 282.94L106.61 282.33L106.41 281.71L106.23 281.08L106.07 280.43L105.93 279.78L95.65 176.72L95.5 176.11L95.34 175.51L95.16 174.92L94.96 174.34L94.74 173.77L94.51 173.2L94.25 172.65L93.98 172.1L93.7 171.57L93.39 171.04L93.07 170.53L92.73 170.03L92.38 169.54L92.02 169.07L91.63 168.6L91.24 168.15L90.83 167.71L90.4 167.29L89.96 166.88L89.51 166.49L89.05 166.11L88.57 165.74L88.09 165.4L87.59 165.07L87.08 164.75L86.56 164.46L86.02 164.18L85.48 163.92L84.93 163.67L84.37 163.45L83.8 163.25L83.22 163.06L82.63 162.9L82.04 162.76L81.43 162.63L80.82 162.53L80.2 162.45L79.58 162.39L78.95 162.36L78.31 162.35L56.87 162.35L56.32 162.34L55.78 162.31L55.23 162.27L54.7 162.21L54.16 162.13L53.64 162.04L53.11 161.93L52.59 161.8L52.08 161.66L51.57 161.5L51.07 161.33L50.58 161.14L50.09 160.94L49.61 160.72L49.14 160.49L48.67 160.24L48.21 159.98L47.76 159.7L47.32 159.41L46.88 159.11L46.46 158.79L46.04 158.46L45.64 158.12L45.24 157.76L44.85 157.39L44.47 157.01L44.11 156.62L43.75 156.21L43.07 155.37L42.75 154.92L42.44 154.47L42.14 154.01L41.86 153.54L41.59 153.05L41.33 152.56L41.08 152.05L40.85 151.54L40.63 151.01L40.42 150.48L31.61 127.06L31.49 126.7L31.43 126.46L31.4 126.33L31.36 126.09L31.34 125.96L31.32 125.84L31.3 125.58L31.29 125.46L31.29 124.94L31.3 124.81L31.3 124.69L31.31 124.56L31.33 124.43L31.34 124.3L31.4 123.91L31.42 123.79L31.44 123.66L31.5 123.4L31.53 123.28L31.56 123.15L31.59 123.03L31.62 122.9L31.7 122.66L31.73 122.54L31.77 122.41L31.82 122.29L31.86 122.18L31.9 122.06L31.95 121.94L32 121.83L32.05 121.72L32.1 121.61L32.16 121.5L32.22 121.4L32.29 121.29L32.35 121.19L32.42 121.1L32.49 121L32.57 120.91L32.64 120.81L32.8 120.63L32.89 120.55L32.97 120.46L33.24 120.22L33.33 120.15L33.43 120.07L33.52 120L33.62 119.92L33.72 119.85L33.82 119.79L34.02 119.65L34.13 119.59L34.23 119.53L34.45 119.41L34.55 119.35L34.66 119.29L34.77 119.24L34.88 119.18L35.43 118.93L92.12 101.13L102.7 73.96L102.76 73.8L102.84 73.64L102.91 73.48L102.99 73.32L103.26 72.87L103.56 72.45L103.78 72.19L103.9 72.06L104.01 71.93L104.14 71.81L104.26 71.7L104.39 71.58L104.52 71.47L104.65 71.37L104.93 71.17L105.21 70.99L105.36 70.9L105.51 70.82L105.66 70.75L105.82 70.67L105.97 70.61L106.29 70.49L106.45 70.44L106.62 70.39L106.78 70.35L106.95 70.31L107.12 70.28L107.63 70.22L107.81 70.21L108.16 70.21L108.33 70.22L108.51 70.23ZM101.16 108.43L101.09 108.55L100.95 108.77L100.88 108.89L100.74 109.11L100.66 109.21L100.58 109.32L100.51 109.42L100.43 109.53L100.35 109.63L100.26 109.73L100.18 109.83L100.1 109.92L100.01 110.02L99.92 110.11L99.83 110.21L99.74 110.3L99.65 110.38L99.55 110.47L99.46 110.56L99.06 110.88L98.95 110.96L98.51 111.24L98.4 111.3L98.28 111.37L97.92 111.55L97.79 111.6L97.67 111.65L97.41 111.75L44.83 128.62L51.29 145.8L51.43 146.16L51.51 146.34L51.6 146.52L51.69 146.69L51.78 146.85L51.88 147.02L51.98 147.18L52.2 147.48L52.32 147.63L52.56 147.91L52.69 148.05L52.82 148.18L52.96 148.3L53.1 148.43L53.38 148.65L53.68 148.87L53.83 148.96L53.99 149.06L54.14 149.15L54.3 149.23L54.47 149.31L54.63 149.38L54.8 149.45L54.96 149.51L55.3 149.63L55.47 149.67L55.64 149.72L55.82 149.75L55.99 149.78L56.17 149.81L56.34 149.83L56.52 149.84L56.69 149.85L56.87 149.86L78.31 149.86L79.24 149.87L80.15 149.92L81.06 149.99L81.97 150.09L82.86 150.23L83.75 150.39L84.63 150.58L85.5 150.79L86.36 151.04L87.2 151.3L88.04 151.6L88.87 151.92L89.69 152.27L90.49 152.64L91.28 153.03L92.06 153.45L92.82 153.9L93.57 154.36L94.3 154.85L95.02 155.36L95.72 155.89L96.41 156.45L97.08 157.02L97.73 157.61L98.36 158.23L98.98 158.86L99.57 159.51L100.15 160.19L100.71 160.88L101.24 161.58L101.75 162.31L102.25 163.05L102.72 163.81L103.16 164.58L103.59 165.37L103.99 166.17L104.36 166.99L104.71 167.82L105.04 168.67L105.34 169.53L106.26 169.47L107.17 169.37L108.06 169.23L108.95 169.06L109.82 168.86L110.67 168.62L111.52 168.35L112.34 168.05L113.15 167.72L113.95 167.36L114.73 166.97L115.49 166.55L116.24 166.1L116.96 165.63L117.67 165.12L118.36 164.59L119.03 164.04L119.68 163.46L120.3 162.86L120.91 162.23L121.49 161.58L122.05 160.91L122.59 160.22L123.11 159.5L123.6 158.77L124.06 158.01L124.5 157.24L124.91 156.45L125.3 155.64L125.66 154.82L126 153.98L126.3 153.12L126.58 152.25L126.83 151.36L127.04 150.47L127.23 149.55L127.39 148.63L127.51 147.7L127.6 146.75L127.66 145.8L107.4 92.39L101.23 108.32L101.16 108.43Z" id="c1F4Pa7URx"></path></defs><g><g><g><use xlink:href="#a3wn6PpM0m" opacity="1" fill="#4667b1" fill-opacity="0"></use><g><use xlink:href="#a3wn6PpM0m" opacity="1" fill-opacity="0" stroke="#000000" stroke-width="1" stroke-opacity="0"></use></g></g><g><use xlink:href="#acLJqmlO8" opacity="1" fill="#000000" fill-opacity="0"></use><g><use xlink:href="#acLJqmlO8" opacity="1" fill-opacity="0" stroke="#00c7fc" stroke-width="1" stroke-opacity="1"></use></g></g><g><use xlink:href="#bpfeKzJTP" opacity="1" fill="#1f2127" fill-opacity="0.93"></use><g><use xlink:href="#bpfeKzJTP" opacity="1" fill-opacity="0" stroke="#000000" stroke-width="1" stroke-opacity="0"></use></g></g><g><use xlink:href="#c1F4Pa7URx" opacity="1" fill="#000000" fill-opacity="0"></use><g><use xlink:href="#c1F4Pa7URx" opacity="1" fill-opacity="0" stroke="#000000" stroke-width="1" stroke-opacity="0"></use></g></g></g></g></svg>