<?xml version="1.0" encoding="UTF-8"?>
<!DOCTYPE svg  PUBLIC '-//W3C//DTD SVG 1.1//EN'  'http://www.w3.org/Graphics/SVG/1.1/DTD/svg11.dtd'>
<svg version="1.1" viewBox="0 0 195 201" xmlns="http://www.w3.org/2000/svg" xmlns:xlink="http://www.w3.org/1999/xlink">
<defs>
<path id="b" d="m97.5 201l95.17-49.79v-99.57l-95.17-49.78-95.17 49.78v99.57l95.17 49.79z"/>
<path id="a" d="m66.85 32.33l0.05 0.07 0.06 0.07 0.06 0.08 0.06 0.07 0.06 0.07 0.06 0.08 0.06 0.07 0.06 0.07 0.06 0.07 0.06 0.07 0.06 0.08 0.06 0.07 0.06 0.07 0.06 0.07 0.06 0.07 0.06 0.08 0.06 0.07 0.06 0.07 0.06 0.07 0.06 0.07 0.06 0.08 0.05 0.07 0.06 0.07 0.06 0.07 0.05 0.08 0.06 0.07 0.05 0.07 0.06 0.08 0.05 0.07 0.06 0.08 0.05 0.07 0.05 0.08 0.05 0.08 0.05 0.07 0.05 0.08 0.05 0.08 0.04 0.08 0.05 0.08 0.15 0.28 0.15 0.28 0.14 0.29 0.15 0.28 0.15 0.29 0.15 0.28 0.14 0.29 0.15 0.28 0.14 0.29 0.15 0.29 0.14 0.28 0.15 0.29 0.14 0.29 0.15 0.28 0.14 0.29 0.14 0.29 0.15 0.29 0.14 0.28 0.14 0.29 0.15 0.29 0.14 0.29 0.14 0.28 0.14 0.29 0.15 0.29 0.14 0.29 0.14 0.28 0.14 0.29 0.14 0.29 0.14 0.29 0.15 0.28 0.14 0.29 0.14 0.28 0.14 0.29 0.14 0.29 0.14 0.28 0.14 0.29 0.14 0.28 0.14 0.29 0.14 0.28 0.14 0.28 0.24 0.48 0.24 0.49 0.24 0.48 0.24 0.48 0.24 0.48 0.24 0.48 0.24 0.48 0.24 0.49 0.23 0.48 0.24 0.48 0.24 0.48 0.24 0.48 0.24 0.48 0.48 0.97 0.24 0.48 0.24 0.48 0.24 0.49 0.24 0.48 0.23 0.48 0.24 0.49 0.24 0.48 0.25 0.48 0.24 0.49 0.24 0.48 0.24 0.49 0.24 0.49 0.24 0.48 0.24 0.49 0.25 0.49 0.24 0.49 0.24 0.49 0.25 0.48 0.24 0.5 0.25 0.49 0.24 0.49 0.25 0.49 0.24 0.49 0.25 0.5 0.25 0.49 0.03-0.05 0.03-0.05 0.03-0.05 0.02-0.05 0.03-0.05 0.03-0.05 0.03-0.05 0.02-0.05 0.03-0.05 0.03-0.05 0.03-0.04 0.02-0.05 0.05-0.09 0.03-0.05 0.03-0.05 0.02-0.04 0.03-0.05 0.02-0.04 0.03-0.04 0.02-0.05 0.03-0.04 0.02-0.05 0.02-0.04 0.03-0.04 0.02-0.05 0.03-0.04 0.02-0.04 0.02-0.05 0.03-0.04 0.02-0.04 0.02-0.05 0.02-0.04 0.02-0.04 0.03-0.05 0.02-0.04 0.02-0.04 0.02-0.05 0.02-0.04 0.02-0.05 0.13-0.27 0.14-0.27 0.13-0.27 0.13-0.27 0.13-0.27 0.14-0.27 0.13-0.27 0.26-0.54 0.14-0.27 0.13-0.27 0.13-0.28 0.13-0.27 0.14-0.27 0.13-0.27 0.13-0.27 0.14-0.27 0.13-0.27 0.13-0.27 0.14-0.28 0.13-0.27 0.13-0.27 0.14-0.27 0.13-0.27 0.13-0.27 0.14-0.27 0.13-0.27 0.14-0.27 0.13-0.27 0.13-0.27 0.14-0.27 0.13-0.27 0.14-0.26 0.13-0.27 0.14-0.27 0.14-0.27 0.13-0.26 0.14-0.27 0.13-0.27 0.14-0.26 0.11-0.2 0.11-0.19 0.11-0.18 0.12-0.17 0.12-0.15 0.13-0.15 0.13-0.14 0.14-0.13 0.13-0.11 0.14-0.11 0.15-0.1 0.14-0.08 0.15-0.08 0.15-0.07 0.15-0.05 0.15-0.05 0.15-0.04 0.16-0.02 0.15-0.02 0.16-0.01 0.16 0.01 0.15 0.01 0.16 0.03 0.15 0.03 0.16 0.04 0.15 0.06 0.16 0.06 0.15 0.08 0.15 0.08 0.15 0.1 0.14 0.1 0.15 0.11 0.14 0.13 0.14 0.13 0.13 0.15 0.14 0.15 0.13 0.17 0.12 0.17 0.12 0.18 0.12 0.2 0.02 0.03 0.02 0.03 0.02 0.03 0.02 0.03 0.02 0.04 0.02 0.03 0.02 0.03 0.02 0.03 0.01 0.04 0.02 0.03 0.02 0.03 0.02 0.03 0.01 0.04 0.02 0.03 0.01 0.04 0.02 0.03 0.02 0.03 0.01 0.04 0.02 0.03 0.01 0.04 0.02 0.03 0.01 0.03 0.02 0.04 0.02 0.03 0.01 0.04 0.02 0.03 0.01 0.04 0.05 0.1 0.01 0.04 0.02 0.03 0.01 0.04 0.02 0.03 0.01 0.04 0.02 0.03 0.02 0.04 0.01 0.03 0.02 0.04 0.01 0.04 0.26 0.51 0.25 0.51 0.25 0.51 0.25 0.52 0.25 0.51 0.25 0.51 0.25 0.51 0.26 0.52 0.25 0.51 0.25 0.51 0.25 0.51 0.25 0.51 0.25 0.51 0.25 0.52 0.25 0.51 0.25 0.51 0.25 0.51 0.25 0.51 0.25 0.51 0.5 1.02 0.25 0.51 0.25 0.52 0.25 0.51 0.25 0.51 0.25 0.51 0.25 0.51 0.25 0.51 0.25 0.51 0.25 0.52 0.25 0.51 0.26 0.51 0.25 0.51 0.25 0.51 0.25 0.52 0.25 0.51 0.25 0.51 0.25 0.51 0.26 0.52 0.25 0.51 0.02 0.04 0.02 0.05 0.02 0.04 0.02 0.05 0.03 0.04 0.02 0.04 0.02 0.05 0.02 0.04 0.03 0.05 0.02 0.04 0.03 0.05 0.02 0.04 0.03 0.05 0.02 0.04 0.03 0.05 0.02 0.04 0.03 0.05 0.02 0.04 0.03 0.05 0.02 0.04 0.03 0.05 0.02 0.04 0.03 0.05 0.03 0.04 0.02 0.05 0.03 0.05 0.03 0.04 0.02 0.05 0.03 0.05 0.02 0.04 0.03 0.05 0.03 0.05 0.02 0.04 0.03 0.05 0.02 0.05 0.03 0.05 0.02 0.04 0.03 0.05 0.02 0.05 0.03 0.05 0.36-0.39 0.37-0.39 0.36-0.39 0.36-0.39 0.37-0.38 0.36-0.39 0.36-0.39 0.36-0.38 0.37-0.39 0.36-0.39 0.36-0.38 0.36-0.39 0.36-0.38 0.36-0.39 0.36-0.38 0.36-0.38 0.36-0.39 0.37-0.38 0.36-0.38 0.35-0.39 0.36-0.38 0.36-0.38 0.36-0.38 0.36-0.39 0.36-0.38 0.36-0.38 0.36-0.38 0.36-0.38 0.35-0.38 0.36-0.38 0.36-0.39 0.36-0.38 0.35-0.38 0.36-0.38 0.36-0.38 0.35-0.38 0.36-0.38 0.36-0.38 0.35-0.38 0.36-0.38 0.07-0.08 0.08-0.08 0.07-0.08 0.08-0.07 0.07-0.08 0.08-0.07 0.07-0.07 0.08-0.07 0.07-0.07 0.08-0.07 0.08-0.06 0.07-0.07 0.08-0.06 0.08-0.06 0.08-0.05 0.08-0.06 0.08-0.05 0.08-0.05 0.08-0.05 0.09-0.04 0.08-0.04 0.09-0.04 0.08-0.04 0.09-0.03 0.09-0.03 0.09-0.03 0.09-0.02 0.09-0.02 0.1-0.02 0.09-0.01 0.1-0.01h0.09l0.1-0.01 0.1 0.01h0.1l0.11 0.02 0.1 0.01 0.11 0.02 0.11 0.02 0.11 0.03 0.12 0.04 0.12 0.04 0.11 0.04 0.11 0.05 0.1 0.05 0.1 0.06 0.1 0.05 0.09 0.06 0.09 0.07 0.08 0.06 0.08 0.07 0.08 0.07 0.07 0.07 0.07 0.08 0.06 0.08 0.07 0.08 0.06 0.08 0.05 0.09 0.06 0.09 0.05 0.09 0.05 0.09 0.04 0.09 0.05 0.1 0.04 0.09 0.03 0.1 0.04 0.1 0.04 0.1 0.03 0.11 0.03 0.1 0.03 0.11 0.02 0.11 0.03 0.11 0.02 0.1 0.03 0.12 0.02 0.11 0.02 0.11 0.02 0.11 0.02 0.12 0.01 0.11 0.02 0.11 0.06 0.37 0.06 0.37 0.05 0.37 0.06 0.37 0.06 0.36 0.05 0.37 0.06 0.37 0.06 0.37 0.05 0.37 0.06 0.37 0.06 0.37 0.05 0.37 0.06 0.36 0.06 0.37 0.05 0.37 0.06 0.37 0.05 0.37 0.06 0.37 0.06 0.37 0.11 0.74 0.05 0.37 0.06 0.37 0.05 0.37 0.06 0.37 0.06 0.37 0.05 0.37 0.06 0.37 0.05 0.36 0.06 0.37 0.06 0.37 0.05 0.37 0.06 0.37 0.06 0.37 0.05 0.37 0.06 0.36 0.06 0.37 0.06 0.37 0.05 0.37 0.06 0.37 0.24 1.54 0.23 1.55 0.24 1.55 0.23 1.55 0.24 1.55 0.23 1.55 0.24 1.55 0.23 1.55 0.24 1.54 0.23 1.55 0.23 1.55 0.24 1.55 0.23 1.55 0.24 1.55 0.23 1.54 0.24 1.55 0.23 1.55 0.23 1.55 0.24 1.55 0.23 1.54 0.24 1.55 0.23 1.55 0.24 1.55 0.23 1.54 0.24 1.55 0.23 1.55 0.24 1.54 0.24 1.55 0.23 1.55 0.24 1.54 0.23 1.55 0.24 1.55 0.24 1.54 0.24 1.55 0.23 1.54 0.24 1.55 0.24 1.54 0.24 1.55 0.24 1.54 0.24 1.55 0.01 0.11 0.02 0.1 0.01 0.11 0.01 0.1 0.01 0.1v0.1l0.01 0.1v0.09 0.09l-0.01 0.09v0.09l-0.01 0.09-0.01 0.08-0.02 0.08-0.01 0.08-0.02 0.08-0.02 0.08-0.03 0.08-0.02 0.07-0.03 0.08-0.03 0.07-0.04 0.07-0.04 0.07-0.04 0.07-0.04 0.07-0.05 0.06-0.05 0.07-0.06 0.06-0.05 0.07-0.07 0.06-0.06 0.06-0.07 0.06-0.07 0.06-0.07 0.07-0.08 0.05-0.08 0.06-0.09 0.06-0.09 0.06-0.09 0.06-0.1 0.06-0.91 0.54-0.92 0.54-0.91 0.54-0.91 0.54-0.92 0.54-0.91 0.54-0.91 0.54-0.91 0.55-0.92 0.54-0.91 0.54-0.91 0.55-0.91 0.54-0.92 0.54-0.91 0.55-0.91 0.54-0.91 0.54-0.91 0.55-0.91 0.54-0.92 0.54-0.91 0.55-0.91 0.54-0.91 0.54-0.91 0.54-0.91 0.55-0.92 0.54-0.91 0.54-0.91 0.54-0.91 0.54-0.91 0.55-0.92 0.54-0.91 0.54-0.91 0.54-0.91 0.54-0.92 0.54-0.91 0.53-0.91 0.54-0.91 0.54-0.92 0.54-0.91 0.53-0.91 0.54-0.2 0.11-0.2 0.12-0.2 0.11-0.2 0.11-0.2 0.1-0.21 0.11-0.2 0.11-0.2 0.1-0.2 0.1-0.21 0.1-0.2 0.1-0.2 0.1-0.21 0.1-0.2 0.1-0.21 0.09-0.21 0.1-0.2 0.09-0.21 0.1-0.2 0.09-0.21 0.1-0.21 0.09-0.2 0.09-0.21 0.09-0.21 0.09-0.21 0.1-0.2 0.09-0.21 0.09-0.21 0.09-0.21 0.09-0.2 0.09-0.21 0.1-0.21 0.09-0.21 0.09-0.21 0.09-0.2 0.1-0.21 0.09-0.21 0.1-0.2 0.09-0.21 0.1-0.21 0.09h-0.72l-0.1-0.04-0.11-0.04-0.11-0.05-0.11-0.04-0.11-0.04-0.11-0.04-0.11-0.04-0.11-0.04-0.11-0.04-0.11-0.03-0.12-0.04-0.11-0.04-0.11-0.04-0.11-0.04-0.11-0.03-0.12-0.04-0.11-0.04-0.11-0.04-0.11-0.04-0.11-0.04-0.12-0.03-0.11-0.04-0.11-0.04-0.11-0.04-0.11-0.04-0.11-0.05-0.11-0.04-0.11-0.04-0.11-0.04-0.1-0.05-0.11-0.04-0.11-0.05-0.1-0.05-0.11-0.05-0.1-0.05-0.11-0.05-0.1-0.05-0.1-0.06-0.1-0.05-0.1-0.06-1.05-0.61-1.04-0.62-1.05-0.61-1.04-0.62-1.05-0.62-1.04-0.61-1.04-0.62-1.05-0.61-1.04-0.62-1.04-0.62-1.04-0.62-1.04-0.61-1.05-0.62-1.04-0.62-1.04-0.62-1.04-0.61-1.04-0.62-1.04-0.62-1.04-0.62-1.04-0.62-1.03-0.61-1.04-0.62-1.04-0.62-1.04-0.62-1.04-0.62-1.03-0.62-1.04-0.62-1.04-0.62-1.03-0.62-1.04-0.61-1.03-0.62-1.04-0.62-1.04-0.62-1.03-0.62-1.04-0.62-1.03-0.62-1.03-0.62-1.04-0.62-1.03-0.62-1.04-0.62v-1.53l0.01-0.02 0.01-0.03 0.01-0.02 0.01-0.02 0.01-0.02 0.01-0.02 0.01-0.02 0.01-0.02 0.01-0.03 0.01-0.02 0.01-0.02 0.01-0.02 0.03-0.04 0.01-0.02 0.01-0.02 0.01-0.02 0.01-0.02 0.01-0.02 0.01-0.02 0.01-0.02 0.01-0.03 0.01-0.02 0.01-0.02 0.01-0.02 0.01-0.02 0.01-0.02v-0.03l0.01-0.02 0.01-0.02v-0.02l0.01-0.03 0.01-0.02v-0.03-0.02l0.01-0.03v-0.02-0.03-0.02-0.03l0.15-1.02 0.15-1.02 0.15-1.02 0.15-1.03 0.15-1.02 0.14-1.02 0.15-1.02 0.15-1.03 0.15-1.02 0.14-1.02 0.15-1.02 0.15-1.02 0.15-1.03 0.14-1.02 0.15-1.02 0.15-1.02 0.14-1.03 0.15-1.02 0.15-1.02 0.29-2.04 0.15-1.03 0.14-1.02 0.15-1.02 0.15-1.02 0.14-1.03 0.15-1.02 0.15-1.02 0.15-1.02 0.14-1.02 0.15-1.03 0.15-1.02 0.15-1.02 0.14-1.02 0.15-1.03 0.15-1.02 0.15-1.02 0.15-1.02 0.14-1.02 0.15-1.03 0.23-1.56 0.23-1.56 0.23-1.56 0.22-1.56 0.23-1.56 0.23-1.56 0.22-1.57 0.23-1.56 0.23-1.56 0.23-1.56 0.22-1.56 0.23-1.56 0.23-1.56 0.23-1.56 0.22-1.56 0.23-1.56 0.23-1.56 0.23-1.56 0.22-1.56 0.46-3.12 0.23-1.56 0.22-1.56 0.23-1.56 0.23-1.56 0.23-1.56 0.22-1.56 0.23-1.56 0.23-1.56 0.23-1.56 0.22-1.56 0.23-1.56 0.23-1.56 0.22-1.56 0.23-1.56 0.23-1.56 0.23-1.56 0.22-1.57 0.23-1.56 0.23-1.56 0.02-0.13 0.02-0.13 0.02-0.14 0.02-0.13 0.02-0.13 0.03-0.13 0.02-0.13 0.02-0.12 0.03-0.13 0.03-0.13 0.02-0.12 0.03-0.13 0.03-0.12 0.03-0.12 0.04-0.13 0.03-0.12 0.04-0.12 0.04-0.11 0.04-0.12 0.04-0.12 0.05-0.11 0.04-0.11 0.06-0.12 0.05-0.11 0.06-0.11 0.05-0.1 0.07-0.11 0.06-0.1 0.07-0.1 0.07-0.1 0.08-0.1 0.08-0.1 0.08-0.09 0.09-0.1 0.09-0.09 0.1-0.09 0.1-0.09 0.1-0.08 0.11-0.08 0.11-0.08h2.21l0.06 0.07 0.06 0.08zm15.39 39.11l-1.04 2.1-1.04 2.1-1.03 2.1-1.03 2.1-1.04 2.09-1.03 2.1-1.03 2.09-1.03 2.09-1.03 2.09-1.03 2.09-1.03 2.09-1.03 2.08-1.02 2.09-1.03 2.08-1.03 2.08-1.02 2.09-1.03 2.08-1.02 2.08-1.03 2.08-1.02 2.08-1.02 2.08-1.02 2.08-1.03 2.08-1.02 2.08-1.02 2.08-1.02 2.08-1.02 2.08-1.02 2.08-1.03 2.08-1.02 2.08-1.02 2.08-1.02 2.08-1.02 2.09 1.36-1.45 1.35-1.44 1.36-1.45 1.35-1.44 1.36-1.45 1.35-1.44 1.36-1.44 1.35-1.45 1.36-1.44 1.35-1.44 1.35-1.44 1.36-1.44 1.35-1.45 1.35-1.44 1.36-1.44 1.35-1.44 1.35-1.44 1.36-1.44 1.35-1.44 1.35-1.44 1.35-1.44 1.35-1.44 1.36-1.44 1.35-1.44 1.35-1.44 1.35-1.44 1.35-1.44 1.36-1.44 1.35-1.44 1.35-1.44 1.35-1.44 1.35-1.44 1.35-1.44 1.35-1.44 1.36-1.44-0.32-0.63-0.32-0.63-0.32-0.62-0.31-0.63-0.32-0.64-0.32-0.63-0.32-0.63-0.32-0.64-0.33-0.63-0.32-0.64-0.32-0.63-0.32-0.64-0.33-0.64-0.32-0.64-0.32-0.64-0.33-0.65-0.32-0.64-0.33-0.64-0.33-0.65-0.32-0.65-0.33-0.65-0.33-0.64-0.33-0.66-0.33-0.65-0.33-0.65-0.33-0.66-0.33-0.65-0.33-0.66-0.33-0.66-0.33-0.66-0.34-0.66-0.33-0.66-0.34-0.66-0.33-0.67-0.34-0.67-1.03 2.11-1.04 2.11z"/>
</defs>
<use fill="#000000" fill-opacity="0" xlink:href="#b"/>
<use fill-opacity="0" stroke="#00c7fc" xlink:href="#b"/>
<use fill="#ffffff" xlink:href="#a"/>
<use fill-opacity="0" stroke="#000000" stroke-opacity="0" xlink:href="#a"/>
</svg>
