<?xml version="1.0" encoding="UTF-8" standalone="no"?>
<!DOCTYPE svg PUBLIC "-//W3C//DTD SVG 1.1//EN" "http://www.w3.org/Graphics/SVG/1.1/DTD/svg11.dtd">
<svg version="1.1" xmlns="http://www.w3.org/2000/svg" xmlns:xlink="http://www.w3.org/1999/xlink" preserveAspectRatio="xMidYMid meet" viewBox="0 0 195 202" width="195" height="202"><defs><path d="M192.67 50.64L97.5 0.86L2.33 50.64L2.33 150.21L97.5 200L192.67 150.21L192.67 50.64Z" id="hyKGr5ijW"></path><path d="M192.67 50.64L97.5 0.86L2.33 50.64L2.33 150.21L97.5 200L192.67 150.21L192.67 50.64Z" id="a1iMZCmlMB"></path><path d="M30.49 142.53L30.49 51.79L166.4 51.79L166.4 142.53L30.49 142.53ZM38.49 137.19L158.41 137.19L158.41 57.13L38.49 57.13L38.49 137.19Z" id="b94BWdMoQ"></path><path d="M162.76 74.43C162.76 74.43 162.76 74.43 162.76 74.43C85.58 74.43 42.7 74.43 34.12 74.43C34.12 74.43 34.12 74.43 34.12 74.43C34.12 71.39 34.12 69.7 34.12 69.36C34.12 69.36 34.12 69.36 34.12 69.36C111.31 69.36 154.19 69.36 162.76 69.36C162.76 69.36 162.76 69.36 162.76 69.36C162.76 72.4 162.76 74.09 162.76 74.43Z" id="bZD8lLEzs"></path><path d="M63.91 65.36C63.91 65.36 63.91 65.36 63.91 65.36C54.26 65.36 48.9 65.36 47.83 65.36C47.83 65.36 47.83 65.36 47.83 65.36C47.83 63.55 47.83 62.55 47.83 62.35C47.83 62.35 47.83 62.35 47.83 62.35C57.48 62.35 62.84 62.35 63.91 62.35C63.91 62.35 63.91 62.35 63.91 62.35C63.91 64.15 63.91 65.16 63.91 65.36Z" id="a1Kz5aJlEA"></path><path d="M149.31 65.36C149.31 65.36 149.31 65.36 149.31 65.36C104.2 65.36 79.14 65.36 74.12 65.36C74.12 65.36 74.12 65.36 74.12 65.36C74.12 63.55 74.12 62.55 74.12 62.35C74.12 62.35 74.12 62.35 74.12 62.35C119.25 62.35 144.31 62.35 149.31 62.35C149.31 62.35 149.31 62.35 149.31 62.35C149.31 64.15 149.31 65.16 149.31 65.36Z" id="cuefKkDPa"></path><path d="M74.12 129C74.12 129 74.12 129 74.12 129C55.39 129 44.97 129 42.89 129C42.89 129 42.89 129 42.89 129C42.89 109.89 42.89 99.28 42.89 97.16C42.89 97.16 42.89 97.16 42.89 97.16C61.63 97.16 72.04 97.16 74.12 97.16C74.12 97.16 74.12 97.16 74.12 97.16C74.12 116.26 74.12 126.88 74.12 129Z" id="a3a6k5CM4I"></path><path d="M74.12 90.67C74.12 90.67 74.12 90.67 74.12 90.67C55.39 90.67 44.97 90.67 42.89 90.67C42.89 90.67 42.89 90.67 42.89 90.67C42.89 82.51 42.89 77.97 42.89 77.06C42.89 77.06 42.89 77.06 42.89 77.06C61.63 77.06 72.04 77.06 74.12 77.06C74.12 77.06 74.12 77.06 74.12 77.06C74.12 85.23 74.12 89.77 74.12 90.67Z" id="aIjTiQwma"></path><path d="M106.28 106.37C106.28 106.37 106.28 106.37 106.28 106.37C91.8 106.37 83.76 106.37 82.16 106.37C82.16 106.37 82.16 106.37 82.16 106.37C82.16 90.24 82.16 81.27 82.16 79.48C82.16 79.48 82.16 79.48 82.16 79.48C96.63 79.48 104.67 79.48 106.28 79.48C106.28 79.48 106.28 79.48 106.28 79.48C106.28 95.61 106.28 104.58 106.28 106.37Z" id="cqfYNDqTv"></path><path d="M146.48 90.67C146.48 90.67 146.48 90.67 146.48 90.67C132 90.67 123.96 90.67 122.36 90.67C122.36 90.67 122.36 90.67 122.36 90.67C122.36 84.64 122.36 81.29 122.36 80.62C122.36 80.62 122.36 80.62 122.36 80.62C136.83 80.62 144.87 80.62 146.48 80.62C146.48 80.62 146.48 80.62 146.48 80.62C146.48 86.65 146.48 90 146.48 90.67Z" id="bhTJZWRN7"></path><path d="M146.48 106.37C146.48 106.37 146.48 106.37 146.48 106.37C132.01 106.37 123.97 106.37 122.36 106.37C122.36 106.37 122.36 106.37 122.36 106.37C122.36 100.34 122.36 96.99 122.36 96.32C122.36 96.32 122.36 96.32 122.36 96.32C136.84 96.32 144.88 96.32 146.48 96.32C146.48 96.32 146.48 96.32 146.48 96.32C146.48 102.35 146.48 105.7 146.48 106.37Z" id="b2M3l9ZblS"></path><path d="M146.48 129C146.48 129 146.48 129 146.48 129C107.9 129 86.46 129 82.16 129C82.16 129 82.16 129 82.16 129C82.16 117.95 82.16 111.8 82.16 110.57C82.16 110.57 82.16 110.57 82.16 110.57C120.78 110.57 142.22 110.57 146.48 110.57C146.48 110.57 146.48 110.57 146.48 110.57C146.48 121.63 146.48 127.78 146.48 129Z" id="a299T5AwoJ"></path></defs><g><g><g><use xlink:href="#hyKGr5ijW" opacity="1" fill="#000000" fill-opacity="0"></use><g><use xlink:href="#hyKGr5ijW" opacity="1" fill-opacity="0" stroke="#000000" stroke-width="1" stroke-opacity="0"></use></g></g><g><use xlink:href="#a1iMZCmlMB" opacity="1" fill="#000000" fill-opacity="0"></use><g><use xlink:href="#a1iMZCmlMB" opacity="1" fill-opacity="0" stroke="#00c7fc" stroke-width="1" stroke-opacity="1"></use></g></g><g><use xlink:href="#b94BWdMoQ" opacity="1" fill="#000000" fill-opacity="1"></use><g><use xlink:href="#b94BWdMoQ" opacity="1" fill-opacity="0" stroke="#000000" stroke-width="1" stroke-opacity="0"></use></g></g><g><use xlink:href="#bZD8lLEzs" opacity="1" fill="#000000" fill-opacity="1"></use><g><use xlink:href="#bZD8lLEzs" opacity="1" fill-opacity="0" stroke="#000000" stroke-width="1" stroke-opacity="0"></use></g></g><g><use xlink:href="#a1Kz5aJlEA" opacity="1" fill="#000000" fill-opacity="1"></use><g><use xlink:href="#a1Kz5aJlEA" opacity="1" fill-opacity="0" stroke="#000000" stroke-width="1" stroke-opacity="0"></use></g></g><g><use xlink:href="#cuefKkDPa" opacity="1" fill="#000000" fill-opacity="1"></use><g><use xlink:href="#cuefKkDPa" opacity="1" fill-opacity="0" stroke="#000000" stroke-width="1" stroke-opacity="0"></use></g></g><g><use xlink:href="#a3a6k5CM4I" opacity="1" fill="#000000" fill-opacity="1"></use><g><use xlink:href="#a3a6k5CM4I" opacity="1" fill-opacity="0" stroke="#000000" stroke-width="1" stroke-opacity="0"></use></g></g><g><use xlink:href="#aIjTiQwma" opacity="1" fill="#000000" fill-opacity="1"></use><g><use xlink:href="#aIjTiQwma" opacity="1" fill-opacity="0" stroke="#000000" stroke-width="1" stroke-opacity="0"></use></g></g><g><use xlink:href="#cqfYNDqTv" opacity="1" fill="#000000" fill-opacity="1"></use><g><use xlink:href="#cqfYNDqTv" opacity="1" fill-opacity="0" stroke="#000000" stroke-width="1" stroke-opacity="0"></use></g></g><g><use xlink:href="#bhTJZWRN7" opacity="1" fill="#000000" fill-opacity="1"></use><g><use xlink:href="#bhTJZWRN7" opacity="1" fill-opacity="0" stroke="#000000" stroke-width="1" stroke-opacity="0"></use></g></g><g><use xlink:href="#b2M3l9ZblS" opacity="1" fill="#000000" fill-opacity="1"></use><g><use xlink:href="#b2M3l9ZblS" opacity="1" fill-opacity="0" stroke="#000000" stroke-width="1" stroke-opacity="0"></use></g></g><g><use xlink:href="#a299T5AwoJ" opacity="1" fill="#000000" fill-opacity="1"></use><g><use xlink:href="#a299T5AwoJ" opacity="1" fill-opacity="0" stroke="#000000" stroke-width="1" stroke-opacity="0"></use></g></g></g></g></svg>