<?xml version="1.0" encoding="UTF-8"?>
<!DOCTYPE svg  PUBLIC '-//W3C//DTD SVG 1.1//EN'  'http://www.w3.org/Graphics/SVG/1.1/DTD/svg11.dtd'>
<svg version="1.1" viewBox="0 0 195 200" xmlns="http://www.w3.org/2000/svg" xmlns:xlink="http://www.w3.org/1999/xlink">
<defs>
<path id="d" d="m192.67 150.21v-99.57l-95.17-49.78-95.17 49.78v99.57l95.17 49.79 95.17-49.79z"/>
<path id="f" d="m30.49 142.53v-90.74h135.91v90.74h-135.91zm8-5.34h119.92v-80.06h-119.92v80.06z"/>
<path id="g" d="m162.76 69.36v5.07h-128.64v-5.07h128.64z"/>
<path id="e" d="m63.91 62.35v3.01h-16.08v-3.01h16.08z"/>
<path id="k" d="m149.31 62.35v3.01h-75.19v-3.01h75.19z"/>
<path id="j" d="m74.12 97.16v31.84h-31.23v-31.84h31.23z"/>
<path id="i" d="m74.12 77.06v13.61h-31.23v-13.61h31.23z"/>
<path id="l" d="m273.63 476.04v13.61h-24.12v-13.61h24.12z"/>
<path id="a" d="m106.28 79.48v26.89h-24.12v-26.89h24.12z"/>
<path id="c" d="m146.48 80.62v10.05h-24.12v-10.05h24.12z"/>
<path id="h" d="m146.48 96.32v10.05h-24.12v-10.05h24.12z"/>
<path id="b" d="m146.48 110.57v18.43h-64.32v-18.43h64.32z"/>
</defs>
<use fill="#000000" fill-opacity="0" xlink:href="#d"/>
<use fill-opacity="0" stroke="#00c7fc" xlink:href="#d"/>
<use fill="#ffffff" xlink:href="#f"/>
<use fill-opacity="0" stroke="#000000" stroke-opacity="0" xlink:href="#f"/>
<use fill="#ffffff" xlink:href="#g"/>
<use fill-opacity="0" stroke="#000000" stroke-opacity="0" xlink:href="#g"/>
<use fill="#ffffff" xlink:href="#e"/>
<use fill-opacity="0" stroke="#000000" stroke-opacity="0" xlink:href="#e"/>
<use fill="#ffffff" xlink:href="#k"/>
<use fill-opacity="0" stroke="#000000" stroke-opacity="0" xlink:href="#k"/>
<use fill="#ffffff" xlink:href="#j"/>
<use fill-opacity="0" stroke="#000000" stroke-opacity="0" xlink:href="#j"/>
<use fill="#ffffff" xlink:href="#i"/>
<use fill-opacity="0" stroke="#000000" stroke-opacity="0" xlink:href="#i"/>
<use fill-opacity="0" stroke="#000000" stroke-opacity="0" xlink:href="#l"/>
<use fill="#ffffff" xlink:href="#a"/>
<use fill-opacity="0" stroke="#000000" stroke-opacity="0" xlink:href="#a"/>
<use fill="#ffffff" xlink:href="#c"/>
<use fill-opacity="0" stroke="#000000" stroke-opacity="0" xlink:href="#c"/>
<use fill="#ffffff" xlink:href="#h"/>
<use fill-opacity="0" stroke="#000000" stroke-opacity="0" xlink:href="#h"/>
<use fill="#ffffff" xlink:href="#b"/>
<use fill-opacity="0" stroke="#000000" stroke-opacity="0" xlink:href="#b"/>
</svg>
