<?xml version="1.0" encoding="UTF-8" standalone="no"?>
<!DOCTYPE svg PUBLIC "-//W3C//DTD SVG 1.1//EN" "http://www.w3.org/Graphics/SVG/1.1/DTD/svg11.dtd">
<svg version="1.1" xmlns="http://www.w3.org/2000/svg" xmlns:xlink="http://www.w3.org/1999/xlink" preserveAspectRatio="xMidYMid meet" viewBox="0 0 332 371" width="332" height="371"><defs><path d="M3.92 94.76L3.92 278.92L166.8 371L329.67 278.92L329.67 94.76L166.8 2.68L3.92 94.76Z" id="b1rjUPZBsk"></path><path d="M3.92 94.76L3.92 278.92L166.8 371L329.67 278.92L329.67 94.76L166.8 2.68L3.92 94.76Z" id="aS4EAU0kn"></path><path d="M165.24 114.79C203.78 114.34 211.74 120.39 211.74 120.39C211.74 118.79 211.74 110.78 211.74 96.37C214.18 95.7 233.66 90.32 236.09 89.65C236.09 105.88 236.09 114.89 236.09 116.69C234.53 117.82 233.59 119.7 233.59 121.72C233.59 125.08 233.59 151.97 233.59 155.33C233.59 158.67 236.11 161.38 239.21 161.38C239.33 161.38 240.33 161.38 240.46 161.38C243.56 161.38 246.07 158.67 246.07 155.33C246.07 151.97 246.07 125.09 246.07 121.74C246.07 119.72 245.14 117.83 243.58 116.71C243.58 114.77 243.58 105.07 243.58 87.61C245.35 87.12 254.21 84.69 270.16 80.3L165.08 51.39L60.14 80.3C95.3 89.94 114.83 95.3 118.74 96.37C118.74 109.18 118.74 117.19 118.74 120.39C128.04 119.27 128.04 115.24 165.24 114.79Z" id="b2sRjvGSZJ"></path><path d="M165.24 114.79C203.78 114.34 211.74 120.39 211.74 120.39C211.74 118.79 211.74 110.78 211.74 96.37C214.18 95.7 233.66 90.32 236.09 89.65C236.09 105.88 236.09 114.89 236.09 116.69C234.53 117.82 233.59 119.7 233.59 121.72C233.59 125.08 233.59 151.97 233.59 155.33C233.59 158.67 236.11 161.38 239.21 161.38C239.33 161.38 240.33 161.38 240.46 161.38C243.56 161.38 246.07 158.67 246.07 155.33C246.07 151.97 246.07 125.09 246.07 121.74C246.07 119.72 245.14 117.83 243.58 116.71C243.58 114.77 243.58 105.07 243.58 87.61C245.35 87.12 254.21 84.69 270.16 80.3L165.08 51.39L60.14 80.3C95.3 89.94 114.83 95.3 118.74 96.37C118.74 109.18 118.74 117.19 118.74 120.39C128.04 119.27 128.04 115.24 165.24 114.79Z" id="b1xk97QmoR"></path><path d="M209.92 143.1C210.59 137.8 210.59 132.41 209.92 127.1C196.16 122.16 181.04 121.46 165.22 121.46C149.28 121.43 135.02 122.13 120.39 127.1C116.68 156.58 133.72 184.06 158.45 188.48C183.17 192.9 206.21 172.58 209.92 143.1Z" id="b5kwfuF2f"></path><path d="M209.92 143.1C210.59 137.8 210.59 132.41 209.92 127.1C196.16 122.16 181.04 121.46 165.22 121.46C149.28 121.43 135.02 122.13 120.39 127.1C116.68 156.58 133.72 184.06 158.45 188.48C183.17 192.9 206.21 172.58 209.92 143.1Z" id="c1IaC0K1K"></path><path d="M172.86 209.63C172.86 211.08 172.86 218.32 172.86 231.35L157.74 231.35C157.74 218.32 157.74 211.08 157.74 209.63C149.18 198.83 144.42 192.82 143.47 191.62C143.47 191.62 118.21 191.62 95.83 214.99C73.16 238.68 63.4 271.09 63.4 271.09C83.75 271.09 246.55 271.09 266.9 271.09C266.9 271.09 257.22 238.68 234.54 214.99C212.17 191.62 196.49 196.3 186.98 191.62C186.04 192.82 181.33 198.83 172.86 209.63Z" id="btWUdzT8q"></path><path d="M172.86 209.63C172.86 211.08 172.86 218.32 172.86 231.35L157.74 231.35C157.74 218.32 157.74 211.08 157.74 209.63C149.18 198.83 144.42 192.82 143.47 191.62C143.47 191.62 118.21 191.62 95.83 214.99C73.16 238.68 63.4 271.09 63.4 271.09C83.75 271.09 246.55 271.09 266.9 271.09C266.9 271.09 257.22 238.68 234.54 214.99C212.17 191.62 196.49 196.3 186.98 191.62C186.04 192.82 181.33 198.83 172.86 209.63Z" id="bnqXEo50s"></path></defs><g><g><g><use xlink:href="#b1rjUPZBsk" opacity="1" fill="#4666b1" fill-opacity="0"></use><g><use xlink:href="#b1rjUPZBsk" opacity="1" fill-opacity="0" stroke="#000000" stroke-width="1" stroke-opacity="0"></use></g></g><g><use xlink:href="#aS4EAU0kn" opacity="1" fill="#000000" fill-opacity="0"></use><g><use xlink:href="#aS4EAU0kn" opacity="1" fill-opacity="0" stroke="#00c7fc" stroke-width="1" stroke-opacity="1"></use></g></g><g><use xlink:href="#b2sRjvGSZJ" opacity="1" fill="#000000" fill-opacity="1"></use><g><use xlink:href="#b2sRjvGSZJ" opacity="1" fill-opacity="0" stroke="#000000" stroke-width="1" stroke-opacity="0"></use></g></g><g><use xlink:href="#b1xk97QmoR" opacity="1" fill="#000000" fill-opacity="0"></use><g><use xlink:href="#b1xk97QmoR" opacity="1" fill-opacity="0" stroke="#000000" stroke-width="1" stroke-opacity="0"></use></g></g><g><use xlink:href="#b5kwfuF2f" opacity="1" fill="#000000" fill-opacity="1"></use><g><use xlink:href="#b5kwfuF2f" opacity="1" fill-opacity="0" stroke="#000000" stroke-width="1" stroke-opacity="0"></use></g></g><g><use xlink:href="#c1IaC0K1K" opacity="1" fill="#000000" fill-opacity="0"></use><g><use xlink:href="#c1IaC0K1K" opacity="1" fill-opacity="0" stroke="#000000" stroke-width="1" stroke-opacity="0"></use></g></g><g><use xlink:href="#btWUdzT8q" opacity="1" fill="#000000" fill-opacity="1"></use><g><use xlink:href="#btWUdzT8q" opacity="1" fill-opacity="0" stroke="#000000" stroke-width="1" stroke-opacity="0"></use></g></g><g><use xlink:href="#bnqXEo50s" opacity="1" fill="#000000" fill-opacity="0"></use><g><use xlink:href="#bnqXEo50s" opacity="1" fill-opacity="0" stroke="#000000" stroke-width="1" stroke-opacity="0"></use></g></g></g></g></svg>