<?xml version="1.0" encoding="UTF-8"?>
<!DOCTYPE svg  PUBLIC '-//W3C//DTD SVG 1.1//EN'  'http://www.w3.org/Graphics/SVG/1.1/DTD/svg11.dtd'>
<svg version="1.1" viewBox="0 0 332 371" xmlns="http://www.w3.org/2000/svg" xmlns:xlink="http://www.w3.org/1999/xlink">
<defs>
<path id="g" d="m3.92 94.76v184.16l162.88 92.08 162.87-92.08v-184.16l-162.87-92.08-162.88 92.08z"/>
<path id="h" d="m3.92 94.76v184.16l162.88 92.08 162.87-92.08v-184.16l-162.87-92.08-162.88 92.08z"/>
<path id="e" d="m165.24 114.79c38.54-0.45 46.5 5.6 46.5 5.6v-24.02c2.44-0.67 21.92-6.05 24.35-6.72v27.04c-1.56 1.13-2.5 3.01-2.5 5.03v33.61c0 3.34 2.52 6.05 5.62 6.05h1.25c3.1 0 5.61-2.71 5.61-6.05v-33.59c0-2.02-0.93-3.91-2.49-5.03v-29.1c1.77-0.49 10.63-2.92 26.58-7.31l-105.08-28.91-104.94 28.91c35.16 9.64 54.69 15 58.6 16.07v24.02c9.3-1.12 9.3-5.15 46.5-5.6z"/>
<path id="f" d="m165.24 114.79c38.54-0.45 46.5 5.6 46.5 5.6v-24.02c2.44-0.67 21.92-6.05 24.35-6.72v27.04c-1.56 1.13-2.5 3.01-2.5 5.03v33.61c0 3.34 2.52 6.05 5.62 6.05h1.25c3.1 0 5.61-2.71 5.61-6.05v-33.59c0-2.02-0.93-3.91-2.49-5.03v-29.1c1.77-0.49 10.63-2.92 26.58-7.31l-105.08-28.91-104.94 28.91c35.16 9.64 54.69 15 58.6 16.07v24.02c9.3-1.12 9.3-5.15 46.5-5.6z"/>
<path id="d" d="m209.92 143.1c0.67-5.3 0.67-10.69 0-16-13.76-4.94-28.88-5.64-44.7-5.64-15.94-0.03-30.2 0.67-44.83 5.64-3.71 29.48 13.33 56.96 38.06 61.38 24.72 4.42 47.76-15.9 51.47-45.38z"/>
<path id="a" d="m209.92 143.1c0.67-5.3 0.67-10.69 0-16-13.76-4.94-28.88-5.64-44.7-5.64-15.94-0.03-30.2 0.67-44.83 5.64-3.71 29.48 13.33 56.96 38.06 61.38 24.72 4.42 47.76-15.9 51.47-45.38z"/>
<path id="b" d="m172.86 209.63v21.72h-15.12v-21.72c-8.56-10.8-13.32-16.81-14.27-18.01 0 0-25.26 0-47.64 23.37-22.67 23.69-32.43 56.1-32.43 56.1h203.5s-9.68-32.41-32.36-56.1c-22.37-23.37-38.05-18.69-47.56-23.37-0.94 1.2-5.65 7.21-14.12 18.01z"/>
<path id="c" d="m172.86 209.63v21.72h-15.12v-21.72c-8.56-10.8-13.32-16.81-14.27-18.01 0 0-25.26 0-47.64 23.37-22.67 23.69-32.43 56.1-32.43 56.1h203.5s-9.68-32.41-32.36-56.1c-22.37-23.37-38.05-18.69-47.56-23.37-0.94 1.2-5.65 7.21-14.12 18.01z"/>
</defs>
<use fill="#4666b1" fill-opacity="0" xlink:href="#g"/>
<use fill-opacity="0" stroke="#000000" stroke-opacity="0" xlink:href="#g"/>
<use fill="#000000" fill-opacity="0" xlink:href="#h"/>
<use fill-opacity="0" stroke="#00c7fc" xlink:href="#h"/>
<use fill="#000000" xlink:href="#e"/>
<use fill-opacity="0" stroke="#000000" stroke-opacity="0" xlink:href="#e"/>
<use fill="#000000" fill-opacity="0" xlink:href="#f"/>
<use fill-opacity="0" stroke="#000000" stroke-opacity="0" xlink:href="#f"/>
<use fill="#000000" xlink:href="#d"/>
<use fill-opacity="0" stroke="#000000" stroke-opacity="0" xlink:href="#d"/>
<use fill="#000000" fill-opacity="0" xlink:href="#a"/>
<use fill-opacity="0" stroke="#000000" stroke-opacity="0" xlink:href="#a"/>
<use fill="#000000" xlink:href="#b"/>
<use fill-opacity="0" stroke="#000000" stroke-opacity="0" xlink:href="#b"/>
<use fill="#000000" fill-opacity="0" xlink:href="#c"/>
<use fill-opacity="0" stroke="#000000" stroke-opacity="0" xlink:href="#c"/>
</svg>
