<?xml version="1.0" encoding="UTF-8" standalone="no"?>
<!DOCTYPE svg PUBLIC "-//W3C//DTD SVG 1.1//EN" "http://www.w3.org/Graphics/SVG/1.1/DTD/svg11.dtd">
<svg version="1.1" xmlns="http://www.w3.org/2000/svg" xmlns:xlink="http://www.w3.org/1999/xlink" preserveAspectRatio="xMidYMid meet" viewBox="0 0 195 202" width="195" height="202"><defs><path d="M192.67 151.21L192.67 51.64L97.5 1.86L2.33 51.64L2.33 151.21L97.5 201L192.67 151.21Z" id="g4NZHS1uP"></path><path d="M192.67 151.21L192.67 51.64L97.5 1.86L2.33 51.64L2.33 151.21L97.5 201L192.67 151.21Z" id="a1zGJl2WVT"></path><path d="M62.5 58.45L64.56 58.87L66.62 59.27L68.67 59.64L70.73 59.99L72.78 60.31L74.84 60.61L76.89 60.88L78.95 61.12L81 61.34L83.05 61.53L85.11 61.7L87.16 61.84L89.21 61.96L91.27 62.05L93.32 62.11L95.37 62.15L97.43 62.16L99.48 62.15L101.54 62.12L103.59 62.05L105.65 61.97L107.7 61.85L109.76 61.71L111.82 61.55L113.88 61.36L115.94 61.15L118 60.91L120.07 60.64L122.13 60.35L124.2 60.04L126.27 59.7L128.34 59.33L130.41 58.94L132.48 58.52L134.56 58.08L136.63 57.62L138.71 57.12L138.69 57.4L138.67 57.68L138.64 57.96L138.62 58.23L138.6 58.51L138.57 58.78L138.55 59.06L138.53 59.33L138.51 59.61L138.49 59.88L138.47 60.15L138.44 60.43L138.42 60.7L138.4 60.97L138.38 61.24L138.36 61.51L138.34 61.78L138.31 62.05L138.29 62.33L138.27 62.6L138.25 62.87L138.23 63.14L138.2 63.4L138.18 63.67L138.16 63.94L138.13 64.21L138.11 64.48L138.09 64.75L138.06 65.02L138.04 65.28L138.01 65.55L137.99 65.82L137.96 66.09L137.93 66.35L137.9 66.62L137.88 66.89L137.85 67.16L137.82 67.42L137.79 67.69L137.76 67.95L137.65 68.86L137.55 69.76L137.45 70.66L137.34 71.56L137.24 72.46L137.13 73.36L137.03 74.26L136.92 75.16L136.82 76.06L136.72 76.96L136.61 77.86L136.51 78.76L136.4 79.66L136.3 80.56L136.19 81.46L136.09 82.36L135.98 83.26L135.87 84.16L135.77 85.06L135.66 85.96L135.55 86.86L135.45 87.76L135.34 88.66L135.23 89.56L135.12 90.46L135.01 91.36L134.9 92.26L134.79 93.16L134.68 94.06L134.57 94.96L134.46 95.85L134.35 96.75L134.24 97.65L134.13 98.55L134.01 99.45L133.9 100.35L133.78 101.25L133.67 102.15L133.55 103.05L133.44 103.95L133.38 104.31L133.31 104.65L133.22 104.99L133.12 105.31L133.01 105.61L132.89 105.91L132.75 106.19L132.6 106.46L132.43 106.73L132.26 106.98L132.08 107.22L131.88 107.45L131.68 107.67L131.47 107.89L131.25 108.1L131.02 108.3L130.78 108.49L130.54 108.67L130.29 108.86L130.03 109.03L129.77 109.2L129.5 109.37L129.23 109.53L128.96 109.69L128.68 109.84L128.4 110L128.12 110.15L127.84 110.3L127.55 110.44L127.26 110.59L126.98 110.74L126.69 110.89L126.4 111.03L126.12 111.18L125.84 111.34L125.55 111.49L125.28 111.65L125 111.81L124.73 111.97L124.46 112.14L124.58 111.98L124.7 111.83L124.82 111.68L124.94 111.52L125.06 111.37L125.18 111.21L125.3 111.06L125.42 110.91L125.54 110.75L125.66 110.6L125.78 110.45L125.9 110.3L126.02 110.14L126.14 109.99L126.26 109.84L126.38 109.68L126.5 109.53L126.62 109.38L126.74 109.22L126.86 109.07L126.98 108.92L127.1 108.76L127.22 108.61L127.33 108.45L127.45 108.3L127.57 108.14L127.68 107.99L127.8 107.83L127.91 107.67L128.03 107.52L128.14 107.36L128.25 107.2L128.37 107.04L128.48 106.88L128.59 106.72L128.7 106.56L128.8 106.4L128.91 106.24L129.02 106.08L129.12 105.91L129.22 105.76L129.32 105.61L129.42 105.46L129.52 105.31L129.62 105.15L129.72 105L129.82 104.84L129.92 104.69L130.02 104.53L130.11 104.37L130.2 104.21L130.29 104.05L130.38 103.89L130.46 103.73L130.54 103.57L130.62 103.41L130.69 103.24L130.75 103.08L130.81 102.92L130.86 102.75L130.9 102.59L130.94 102.42L130.97 102.25L130.99 102.09L131 101.92L131 101.75L130.99 101.58L130.98 101.41L130.95 101.24L130.91 101.07L130.86 100.9L130.79 100.73L130.72 100.56L130.63 100.39L130.53 100.22L130.41 100.04L130.28 99.87L130.14 99.7L129.98 99.53L129.8 99.35L129.63 99.19L129.45 99.04L129.27 98.91L129.09 98.78L128.92 98.67L128.74 98.57L128.56 98.48L128.38 98.41L128.21 98.34L128.03 98.28L127.85 98.24L127.67 98.2L127.49 98.17L127.32 98.15L127.14 98.14L126.96 98.14L126.78 98.15L126.61 98.16L126.43 98.18L126.25 98.21L126.08 98.25L125.9 98.29L125.72 98.34L125.55 98.4L125.37 98.46L125.2 98.52L125.02 98.59L124.85 98.67L124.67 98.75L124.5 98.83L124.33 98.92L124.15 99.01L123.98 99.11L123.81 99.21L123.64 99.31L123.47 99.41L123.3 99.51L123.13 99.62L122.96 99.72L122.79 99.83L122.74 99.87L122.69 99.9L122.63 99.94L122.58 99.98L122.53 100.01L122.48 100.05L122.43 100.09L122.38 100.13L122.33 100.17L122.28 100.2L122.23 100.24L122.18 100.28L122.13 100.32L122.08 100.37L122.03 100.41L121.98 100.45L121.93 100.49L121.88 100.53L121.84 100.57L121.79 100.62L121.74 100.66L121.69 100.7L121.64 100.74L121.6 100.79L121.55 100.83L121.5 100.87L121.4 100.96L121.36 101L121.31 101.05L121.26 101.09L121.21 101.13L121.17 101.18L121.12 101.22L121.07 101.26L121.02 101.3L120.97 101.35L120.92 101.39L120.87 101.43L120.83 101.47L118.67 99.19L118.6 99.26L118.53 99.34L118.45 99.42L118.38 99.49L118.3 99.57L118.22 99.64L118.14 99.72L118.06 99.79L117.98 99.87L117.9 99.94L117.82 100.02L117.74 100.09L117.66 100.17L117.58 100.24L117.5 100.32L117.42 100.39L117.34 100.47L117.26 100.54L117.18 100.62L117.1 100.69L117.02 100.77L116.95 100.84L116.88 100.92L116.8 101L116.73 101.07L116.66 101.15L116.6 101.23L116.53 101.31L116.47 101.39L116.41 101.47L116.35 101.55L116.3 101.63L116.24 101.71L116.19 101.8L116.15 101.88L116.11 101.97L116.07 102.05L116.03 102.14L116 102.23L115.97 102.32L115.86 102.69L115.74 103.04L115.61 103.39L115.47 103.73L115.33 104.06L115.17 104.38L115.01 104.69L114.84 105L114.66 105.29L114.47 105.58L114.27 105.86L114.07 106.13L113.86 106.4L113.64 106.66L113.42 106.91L113.19 107.15L112.95 107.39L112.71 107.62L112.46 107.85L112.2 108.07L111.94 108.29L111.67 108.5L111.39 108.71L111.11 108.91L110.83 109.11L110.54 109.3L110.24 109.49L109.94 109.67L109.64 109.86L109.32 110.03L109.01 110.21L108.69 110.38L108.37 110.55L108.04 110.72L107.71 110.88L107.37 111.05L107.04 111.21L106.69 111.37L106.35 111.53L106 111.68L106.02 111.6L106.04 111.51L106.06 111.42L106.08 111.33L106.1 111.24L106.12 111.15L106.14 111.06L106.16 110.97L106.17 110.89L106.19 110.8L106.21 110.71L106.23 110.62L106.25 110.53L106.26 110.44L106.28 110.35L106.3 110.26L106.32 110.17L106.34 110.08L106.36 109.99L106.37 109.9L106.39 109.82L106.41 109.73L106.43 109.64L106.45 109.55L106.47 109.46L106.5 109.37L106.52 109.29L106.54 109.2L106.56 109.11L106.59 109.02L106.61 108.94L106.64 108.85L106.66 108.77L106.69 108.68L106.72 108.59L106.75 108.51L106.78 108.42L106.81 108.34L106.84 108.26L106.87 108.17L107.07 107.68L107.27 107.19L107.47 106.7L107.67 106.2L107.87 105.71L108.07 105.22L108.27 104.73L108.48 104.24L108.68 103.74L108.88 103.25L109.08 102.76L109.29 102.27L109.49 101.78L109.69 101.29L109.89 100.8L110.1 100.31L110.3 99.81L110.5 99.32L110.7 98.83L110.91 98.34L111.11 97.85L111.31 97.36L111.51 96.87L111.71 96.37L111.91 95.88L112.11 95.39L112.31 94.9L112.51 94.4L112.71 93.91L112.91 93.42L113.1 92.92L113.3 92.43L113.5 91.94L113.69 91.44L113.88 90.95L114.08 90.45L114.27 89.96L114.46 89.46L114.65 88.96L114.84 88.47L114.87 88.37L114.9 88.28L114.92 88.18L114.95 88.08L114.96 87.98L114.98 87.88L114.99 87.78L115 87.67L115 87.57L115 87.46L115 87.35L115 87.24L114.99 87.13L114.99 87.02L114.98 86.91L114.96 86.8L114.95 86.69L114.94 86.57L114.92 86.46L114.9 86.35L114.88 86.23L114.86 86.12L114.84 86L114.82 85.89L114.8 85.77L114.77 85.66L114.75 85.54L114.73 85.42L114.71 85.31L114.68 85.19L114.66 85.08L114.64 84.96L114.62 84.85L114.6 84.73L114.58 84.62L114.56 84.5L114.55 84.39L114.53 84.28L114.52 84.16L114.51 84.05L114.42 84.12L114.32 84.19L114.23 84.26L114.13 84.33L114.03 84.4L113.94 84.46L113.83 84.53L113.73 84.59L113.63 84.66L113.53 84.73L113.43 84.79L113.32 84.86L113.22 84.92L113.12 84.99L113.01 85.05L112.91 85.12L112.81 85.18L112.71 85.25L112.6 85.31L112.51 85.38L112.41 85.45L112.31 85.51L112.21 85.58L112.12 85.65L112.03 85.72L111.94 85.79L111.85 85.86L111.77 85.94L111.69 86.01L111.61 86.09L111.53 86.16L111.46 86.24L111.39 86.32L111.32 86.4L111.26 86.48L111.2 86.57L111.15 86.65L111.1 86.74L111.05 86.83L111.01 86.92L110.78 87.46L110.55 88L110.33 88.54L110.1 89.08L109.87 89.62L109.65 90.16L109.43 90.71L109.2 91.25L108.98 91.79L108.76 92.33L108.54 92.87L108.32 93.42L108.1 93.96L107.88 94.5L107.66 95.05L107.44 95.59L107.23 96.14L107.01 96.68L106.8 97.23L106.58 97.77L106.37 98.32L106.15 98.86L105.94 99.41L105.72 99.95L105.51 100.5L105.3 101.05L105.09 101.59L104.88 102.14L104.66 102.69L104.45 103.23L104.24 103.78L104.03 104.33L103.82 104.87L103.61 105.42L103.4 105.97L103.19 106.52L102.98 107.06L102.78 107.61L102.57 108.16L102.36 108.71L102.29 108.88L102.22 109.05L102.15 109.21L102.08 109.37L102 109.53L101.93 109.68L101.85 109.83L101.77 109.97L101.68 110.11L101.59 110.25L101.5 110.38L101.41 110.5L101.31 110.63L101.21 110.75L101.11 110.86L101 110.97L100.89 111.08L100.77 111.18L100.66 111.28L100.53 111.37L100.41 111.46L100.28 111.54L100.14 111.62L100 111.69L99.85 111.76L99.7 111.83L99.55 111.89L99.39 111.94L99.23 111.99L99.06 112.04L98.88 112.08L98.7 112.11L98.51 112.14L98.32 112.17L98.12 112.19L97.92 112.2L97.7 112.21L97.49 112.22L97.26 112.22L97.03 112.21L97.08 112.04L97.13 111.88L97.18 111.72L97.23 111.55L97.27 111.39L97.32 111.23L97.37 111.07L97.41 110.91L97.46 110.76L97.51 110.6L97.55 110.44L97.64 110.13L97.69 109.98L97.73 109.83L97.78 109.67L97.82 109.52L97.86 109.37L97.91 109.22L97.95 109.07L98 108.92L98.04 108.77L98.08 108.62L98.13 108.48L98.17 108.33L98.22 108.18L98.26 108.03L98.31 107.89L98.35 107.74L98.4 107.6L98.44 107.45L98.49 107.31L98.53 107.16L98.58 107.02L98.62 106.88L98.67 106.73L98.72 106.59L98.77 106.45L98.81 106.31L98.86 106.16L98.9 106.07L98.93 105.97L98.97 105.88L99 105.79L99.04 105.69L99.08 105.6L99.12 105.5L99.17 105.41L99.21 105.32L99.25 105.23L99.3 105.13L99.34 105.04L99.39 104.95L99.44 104.86L99.48 104.77L99.53 104.67L99.57 104.58L99.62 104.49L99.66 104.4L99.71 104.31L99.75 104.22L99.8 104.12L99.84 104.03L99.88 103.94L99.93 103.85L99.97 103.76L100.01 103.66L100.04 103.57L100.08 103.48L100.11 103.39L100.15 103.29L100.18 103.2L100.21 103.11L100.24 103.01L100.26 102.92L100.29 102.82L100.31 102.73L100.33 102.63L100.34 102.54L100.36 102.44L100.37 102.35L100.38 102.25L100.38 102.16L100.39 102.06L100.39 101.96L100.39 101.87L100.39 101.77L100.38 101.67L100.38 101.58L100.37 101.48L100.36 101.38L100.35 101.28L100.34 101.18L100.33 101.09L100.31 100.99L100.3 100.89L100.28 100.79L100.26 100.69L100.25 100.59L100.23 100.49L100.21 100.4L100.19 100.3L100.17 100.2L100.14 100.1L100.12 100L100.1 99.9L100.08 99.8L100.06 99.7L100.03 99.6L100.01 99.5L99.99 99.4L99.97 99.3L99.95 99.2L99.93 99.1L99.91 99.01L99.89 98.91L99.87 98.81L99.85 98.71L99.83 98.61L99.82 98.51L99.74 98.57L99.66 98.63L99.58 98.69L99.5 98.74L99.42 98.8L99.34 98.86L99.26 98.91L99.17 98.97L99.09 99.02L99.01 99.08L98.92 99.13L98.84 99.19L98.75 99.24L98.67 99.3L98.58 99.35L98.5 99.41L98.42 99.46L98.33 99.52L98.25 99.57L98.17 99.63L98.09 99.68L98.01 99.74L97.93 99.8L97.85 99.86L97.77 99.92L97.7 99.98L97.62 100.04L97.55 100.1L97.48 100.16L97.41 100.22L97.34 100.29L97.27 100.35L97.21 100.42L97.15 100.49L97.09 100.56L97.03 100.63L96.97 100.7L96.92 100.77L96.87 100.85L96.82 100.93L96.71 101.11L96.6 101.3L96.49 101.49L96.38 101.68L96.28 101.87L96.17 102.07L96.07 102.26L95.97 102.45L95.87 102.65L95.77 102.84L95.67 103.04L95.58 103.24L95.48 103.44L95.38 103.63L95.29 103.83L95.19 104.03L95.1 104.23L95.01 104.43L94.91 104.62L94.82 104.82L94.72 105.02L94.63 105.22L94.53 105.42L94.44 105.62L94.34 105.81L94.24 106.01L94.15 106.21L94.05 106.4L93.95 106.6L93.85 106.79L93.74 106.98L93.64 107.18L93.53 107.37L93.43 107.56L93.32 107.75L93.21 107.93L93.1 108.12L92.98 108.31L92.87 108.49L92.75 108.67L92.67 108.78L92.6 108.89L92.52 109L92.43 109.1L92.35 109.21L92.26 109.31L92.17 109.41L92.08 109.51L91.99 109.61L91.89 109.7L91.79 109.8L91.7 109.89L91.59 109.99L91.49 110.08L91.39 110.17L91.28 110.26L91.18 110.35L91.07 110.44L90.96 110.53L90.85 110.62L90.74 110.7L90.63 110.79L90.52 110.88L90.41 110.96L90.3 111.05L90.19 111.13L90.07 111.22L89.96 111.3L89.85 111.39L89.74 111.48L89.63 111.56L89.51 111.65L89.4 111.73L89.29 111.82L89.18 111.91L89.07 112L88.96 112.08L88.86 112.17L88.75 112.26L88.65 112.35L87.18 111.47L87.25 111.27L87.32 111.08L87.39 110.89L87.46 110.69L87.53 110.5L87.6 110.3L87.67 110.11L87.74 109.91L87.81 109.72L87.87 109.53L87.94 109.33L88.01 109.14L88.22 108.56L88.29 108.36L88.36 108.17L88.43 107.97L88.5 107.78L88.57 107.58L88.64 107.39L88.71 107.2L88.77 107L88.84 106.81L88.91 106.61L88.98 106.42L89.05 106.22L89.12 106.03L89.19 105.84L89.26 105.64L89.33 105.45L89.4 105.25L89.46 105.06L89.53 104.86L89.6 104.67L89.67 104.48L89.74 104.28L89.81 104.09L89.88 103.89L89.95 103.7L89.99 103.57L90.05 103.44L90.1 103.31L90.17 103.18L90.23 103.05L90.3 102.92L90.38 102.79L90.45 102.65L90.53 102.52L90.61 102.38L90.69 102.25L90.76 102.11L90.84 101.97L90.91 101.84L90.99 101.7L91.06 101.57L91.13 101.43L91.19 101.3L91.25 101.16L91.3 101.03L91.35 100.9L91.39 100.77L91.42 100.64L91.45 100.51L91.46 100.38L91.47 100.25L91.47 100.13L91.46 100L91.44 99.88L91.4 99.76L91.36 99.64L91.3 99.53L91.23 99.41L91.14 99.3L91.04 99.19L90.92 99.09L90.79 98.98L90.65 98.88L90.48 98.79L90.3 98.69L90.11 98.61L89.92 98.53L89.75 98.48L89.58 98.43L89.41 98.4L89.25 98.39L89.1 98.38L88.95 98.39L88.81 98.41L88.67 98.44L88.54 98.49L88.42 98.54L88.29 98.6L88.18 98.67L88.06 98.75L87.96 98.84L87.85 98.93L87.75 99.04L87.65 99.14L87.56 99.26L87.47 99.38L87.38 99.51L87.3 99.64L87.22 99.77L87.14 99.91L87.07 100.06L86.99 100.2L86.92 100.35L86.85 100.5L86.79 100.65L86.72 100.8L86.66 100.95L86.6 101.11L86.53 101.26L86.47 101.41L86.42 101.56L86.36 101.7L86.3 101.85L86.24 101.99L86.18 102.12L86.09 102.34L86 102.56L85.91 102.78L85.81 103L85.72 103.22L85.63 103.44L85.53 103.66L85.44 103.88L85.35 104.1L85.26 104.32L85.16 104.54L85.07 104.76L84.98 104.98L84.89 105.2L84.8 105.42L84.71 105.64L84.62 105.86L84.54 106.09L84.45 106.31L84.37 106.53L84.28 106.75L84.2 106.98L84.12 107.2L84.03 107.42L83.95 107.65L83.88 107.87L83.8 108.1L83.72 108.32L83.65 108.55L83.58 108.77L83.51 109L83.44 109.22L83.37 109.45L83.3 109.68L83.24 109.91L83.18 110.13L83.12 110.36L83.06 110.59L83 110.82L82.95 111.05L82.93 111.17L82.9 111.29L82.88 111.41L82.87 111.54L82.85 111.67L82.84 111.81L82.83 111.94L82.83 112.08L82.82 112.22L82.82 112.36L82.82 112.51L82.83 112.65L82.84 112.79L82.85 112.94L82.86 113.08L82.87 113.23L82.89 113.37L82.91 113.52L82.93 113.66L82.96 113.8L82.99 113.94L83.02 114.08L83.05 114.21L83.09 114.35L83.12 114.48L83.17 114.6L83.21 114.73L83.25 114.85L83.3 114.97L83.35 115.08L83.41 115.19L83.46 115.29L83.52 115.39L83.58 115.48L83.65 115.57L83.71 115.65L83.78 115.73L83.85 115.8L83.92 115.86L84 115.92L84.1 115.98L84.2 116.04L84.3 116.1L84.41 116.15L84.53 116.19L84.64 116.24L84.76 116.28L84.88 116.31L85.01 116.35L85.14 116.37L85.27 116.4L85.4 116.42L85.53 116.44L85.67 116.46L85.81 116.47L85.95 116.48L86.09 116.49L86.23 116.49L86.38 116.49L86.52 116.49L86.67 116.49L86.82 116.49L86.96 116.48L87.11 116.47L87.26 116.46L87.41 116.44L87.55 116.43L87.7 116.41L87.85 116.39L88 116.37L88.14 116.35L88.29 116.33L88.43 116.3L88.57 116.28L88.72 116.25L88.86 116.22L88.99 116.19L89.13 116.16L89.26 116.13L89.4 116.1L89.5 116.08L89.61 116.05L89.72 116.01L89.82 115.97L89.93 115.93L90.03 115.89L90.13 115.85L90.24 115.8L90.34 115.75L90.44 115.69L90.54 115.64L90.65 115.58L90.75 115.52L90.85 115.46L90.95 115.39L91.05 115.33L91.15 115.26L91.25 115.19L91.35 115.12L91.45 115.05L91.55 114.98L91.65 114.91L91.75 114.83L91.85 114.76L91.95 114.68L92.05 114.61L92.15 114.53L92.25 114.45L92.35 114.38L92.45 114.3L92.56 114.22L92.66 114.15L92.76 114.07L92.87 114L92.97 113.92L93.07 113.85L93.18 113.77L93.29 113.7L93.39 113.63L93.5 113.56L93.55 113.81L93.61 114.05L93.67 114.28L93.73 114.5L93.81 114.72L93.88 114.92L93.96 115.11L94.05 115.29L94.14 115.46L94.23 115.62L94.33 115.77L94.44 115.91L94.55 116.04L94.66 116.16L94.78 116.27L94.9 116.37L95.03 116.46L95.16 116.54L95.3 116.62L95.44 116.68L95.59 116.74L95.74 116.78L95.9 116.82L96.06 116.85L96.22 116.87L96.39 116.88L96.57 116.88L96.75 116.87L96.93 116.86L97.12 116.83L97.31 116.8L97.51 116.76L97.71 116.72L97.91 116.66L98.12 116.6L98.34 116.52L98.56 116.45L98.78 116.36L99.01 116.26L99.24 116.16L99.31 116.13L99.38 116.11L99.46 116.08L99.53 116.07L99.61 116.05L99.69 116.04L99.77 116.03L99.85 116.02L99.93 116.02L100.01 116.01L100.09 116.01L100.18 116.02L100.26 116.02L100.35 116.03L100.44 116.04L100.53 116.05L100.61 116.06L100.7 116.07L100.79 116.08L100.88 116.09L100.97 116.11L101.06 116.12L101.15 116.14L101.25 116.15L101.34 116.17L101.43 116.18L101.52 116.2L101.61 116.21L101.7 116.22L101.79 116.23L101.88 116.25L101.97 116.25L102.06 116.26L102.15 116.27L102.24 116.28L102.33 116.28L102.42 116.28L102.51 116.28L102.6 116.28L102.68 116.27L102.89 116.25L103.09 116.23L103.29 116.21L103.49 116.19L103.7 116.17L103.9 116.15L104.1 116.13L104.31 116.11L104.51 116.09L104.71 116.07L104.91 116.05L105.12 116.02L105.32 116L105.52 115.98L105.72 115.95L105.93 115.93L106.13 115.91L106.33 115.88L106.53 115.86L106.73 115.83L106.94 115.81L107.14 115.78L107.34 115.76L107.54 115.73L107.74 115.71L107.94 115.68L108.14 115.66L108.34 115.63L108.55 115.61L108.75 115.58L108.95 115.56L109.15 115.53L109.35 115.5L109.55 115.48L109.75 115.46L109.95 115.43L110.15 115.41L110.35 115.38L110.55 115.36L110.75 115.33L110.68 115.49L110.6 115.65L110.53 115.81L110.45 115.97L110.38 116.14L110.3 116.3L110.22 116.47L110.14 116.64L110.06 116.82L109.97 116.99L109.89 117.17L109.8 117.35L109.72 117.53L109.63 117.71L109.54 117.89L109.46 118.08L109.37 118.26L109.28 118.45L109.19 118.64L109.1 118.83L109.01 119.03L108.92 119.22L108.83 119.42L108.74 119.61L108.65 119.81L108.57 120.01L108.48 120.21L108.39 120.41L108.3 120.61L108.21 120.82L108.12 121.02L108.04 121.23L107.95 121.43L107.87 121.64L107.78 121.85L107.7 122.05L107.61 122.26L107.53 122.47L107.45 122.68L107.37 122.89L107.32 123.03L107.27 123.16L107.21 123.3L107.14 123.44L107.08 123.58L107.01 123.73L106.94 123.87L106.87 124.02L106.8 124.17L106.73 124.32L106.66 124.47L106.59 124.62L106.52 124.77L106.46 124.92L106.4 125.07L106.34 125.22L106.29 125.37L106.24 125.52L106.2 125.67L106.16 125.82L106.13 125.96L106.1 126.11L106.09 126.25L106.08 126.4L106.08 126.54L106.09 126.68L106.11 126.81L106.15 126.95L106.19 127.08L106.24 127.2L106.31 127.33L106.39 127.45L106.48 127.57L106.58 127.69L106.71 127.8L106.84 127.9L106.99 128.01L107.16 128.11L107.35 128.2L107.55 128.29L107.74 128.36L107.93 128.42L108.11 128.47L108.28 128.5L108.45 128.52L108.6 128.53L108.76 128.52L108.91 128.51L109.05 128.48L109.18 128.44L109.32 128.39L109.44 128.34L109.56 128.27L109.68 128.2L109.79 128.11L109.9 128.02L110 127.92L110.1 127.82L110.19 127.7L110.28 127.59L110.37 127.46L110.45 127.34L110.54 127.2L110.61 127.07L110.69 126.92L110.76 126.78L110.83 126.63L110.9 126.48L110.97 126.33L111.04 126.18L111.1 126.03L111.16 125.87L111.22 125.72L111.28 125.57L111.34 125.42L111.4 125.26L111.46 125.12L111.52 124.97L111.58 124.83L111.64 124.68L111.77 124.36L111.9 124.04L112.04 123.72L112.17 123.4L112.3 123.08L112.43 122.75L112.56 122.43L112.69 122.11L112.82 121.79L112.95 121.46L113.08 121.14L113.21 120.82L113.34 120.49L113.47 120.17L113.59 119.84L113.72 119.52L113.85 119.2L113.98 118.87L114.11 118.55L114.24 118.23L114.37 117.9L114.5 117.58L114.63 117.26L114.76 116.94L114.89 116.61L115.02 116.29L115.16 115.97L115.29 115.65L115.42 115.33L115.56 115.01L115.7 114.69L115.84 114.37L115.98 114.05L116.12 113.74L116.26 113.42L116.4 113.1L116.55 112.79L116.7 112.47L116.85 112.16L117 111.85L117.09 111.66L117.18 111.48L117.28 111.29L117.37 111.11L117.47 110.92L117.57 110.74L117.68 110.56L117.78 110.38L117.89 110.2L118 110.02L118.11 109.84L118.22 109.66L118.33 109.49L118.44 109.31L118.56 109.14L118.68 108.96L118.79 108.79L118.91 108.61L119.03 108.44L119.16 108.27L119.28 108.1L119.4 107.93L119.53 107.76L119.65 107.59L119.78 107.42L119.91 107.25L120.04 107.08L120.17 106.92L120.3 106.75L120.43 106.58L120.56 106.42L120.69 106.25L120.82 106.09L120.96 105.93L121.09 105.77L121.23 105.6L121.36 105.44L121.49 105.28L121.63 105.12L121.76 104.96L121.83 104.88L121.9 104.81L121.97 104.74L122.05 104.67L122.12 104.6L122.2 104.53L122.28 104.46L122.37 104.4L122.45 104.33L122.54 104.27L122.62 104.21L122.71 104.15L122.8 104.09L122.89 104.04L122.99 103.98L123.08 103.93L123.18 103.87L123.27 103.82L123.37 103.77L123.47 103.72L123.57 103.66L123.66 103.61L123.76 103.56L123.86 103.51L123.96 103.46L124.06 103.41L124.16 103.37L124.26 103.32L124.36 103.27L124.46 103.22L124.56 103.17L124.66 103.12L124.76 103.07L124.86 103.02L124.96 102.97L125.06 102.91L125.16 102.86L125.25 102.81L125.35 102.75L125.44 102.7L126.19 103.6L126.06 103.77L125.93 103.94L125.79 104.11L125.66 104.28L125.53 104.45L125.39 104.62L125.26 104.78L125.12 104.95L124.99 105.12L124.85 105.29L124.72 105.46L124.58 105.62L124.44 105.79L124.31 105.96L124.17 106.13L124.04 106.29L123.9 106.46L123.77 106.63L123.63 106.8L123.5 106.97L123.37 107.14L123.24 107.31L123.1 107.48L122.97 107.65L122.84 107.82L122.72 107.99L122.59 108.16L122.46 108.34L122.34 108.51L122.21 108.68L122.09 108.86L121.97 109.04L121.85 109.21L121.73 109.39L121.62 109.57L121.5 109.75L121.39 109.93L121.28 110.11L121.17 110.29L121.06 110.48L121 110.59L120.94 110.71L120.88 110.83L120.83 110.95L120.78 111.07L120.73 111.19L120.68 111.31L120.64 111.44L120.6 111.57L120.56 111.69L120.53 111.82L120.49 111.95L120.46 112.08L120.43 112.22L120.4 112.35L120.37 112.48L120.34 112.62L120.32 112.76L120.3 112.89L120.27 113.03L120.25 113.17L120.23 113.31L120.21 113.44L120.19 113.58L120.17 113.72L120.15 113.86L120.13 114L120.11 114.14L120.1 114.28L120.08 114.42L120.06 114.56L120.04 114.7L120.02 114.83L120 114.97L119.97 115.11L119.95 115.25L119.93 115.38L119.9 115.52L119.88 115.66L119.85 115.79L120 115.81L120.14 115.83L120.29 115.85L120.44 115.87L120.59 115.89L120.74 115.92L120.89 115.94L121.04 115.97L121.19 116L121.34 116.03L121.49 116.06L121.64 116.09L121.79 116.11L121.94 116.14L122.09 116.17L122.24 116.2L122.39 116.23L122.54 116.26L122.69 116.28L122.84 116.31L122.99 116.33L123.14 116.35L123.28 116.37L123.43 116.39L123.58 116.4L123.72 116.42L123.87 116.43L124.01 116.44L124.15 116.44L124.3 116.44L124.44 116.44L124.58 116.44L124.71 116.43L124.85 116.42L124.99 116.4L125.12 116.38L125.25 116.36L125.39 116.33L125.52 116.29L125.64 116.25L125.82 116.19L125.99 116.13L126.16 116.06L126.34 115.99L126.51 115.92L126.68 115.84L126.84 115.76L127.01 115.68L127.18 115.59L127.35 115.5L127.51 115.41L127.68 115.32L127.84 115.22L128.01 115.12L128.18 115.02L128.34 114.92L128.51 114.81L128.67 114.7L128.84 114.59L129 114.48L129.17 114.37L129.34 114.26L129.5 114.14L129.67 114.02L129.84 113.91L130.01 113.79L130.18 113.67L130.35 113.55L130.53 113.42L130.7 113.3L130.87 113.18L131.05 113.06L131.23 112.94L131.41 112.81L131.59 112.69L131.77 112.57L131.95 112.44L132.14 112.32L132.33 112.2L132.52 112.08L132.46 112.6L132.4 113.12L132.34 113.64L132.29 114.16L132.23 114.68L132.17 115.2L132.12 115.71L132.06 116.23L132 116.75L131.95 117.26L131.89 117.77L131.83 118.28L131.78 118.8L131.72 119.31L131.67 119.82L131.61 120.33L131.55 120.84L131.5 121.34L131.44 121.85L131.39 122.36L131.33 122.87L131.27 123.37L131.22 123.88L131.16 124.38L131.11 124.89L131.05 125.39L131 125.9L130.94 126.4L130.88 126.9L130.83 127.41L130.77 127.91L130.72 128.41L130.66 128.92L130.6 129.42L130.55 129.92L130.49 130.42L130.44 130.92L130.38 131.43L130.32 131.93L130.27 132.43L130.24 132.68L130.21 132.94L130.18 133.19L130.15 133.45L130.12 133.7L130.09 133.96L130.05 134.21L130.02 134.47L129.99 134.72L129.96 134.97L129.92 135.23L129.89 135.48L129.86 135.74L129.82 135.99L129.79 136.25L129.76 136.5L129.72 136.76L129.69 137.01L129.66 137.26L129.63 137.52L129.59 137.77L129.56 138.03L129.53 138.28L129.5 138.54L129.47 138.79L129.44 139.05L129.41 139.3L129.38 139.55L129.35 139.81L129.32 140.06L129.29 140.32L129.27 140.57L129.24 140.83L129.22 141.08L129.19 141.34L129.17 141.59L129.15 141.85L129.13 142.1L129.11 142.36L129.09 142.61L129.06 142.89L129.04 143.16L129.01 143.43L128.97 143.69L128.93 143.94L128.88 144.19L128.83 144.44L128.77 144.68L128.71 144.92L128.64 145.15L128.56 145.38L128.48 145.61L128.4 145.82L128.31 146.04L128.21 146.25L128.11 146.45L128 146.65L127.88 146.84L127.76 147.03L127.63 147.21L127.49 147.39L127.35 147.57L127.2 147.73L127.05 147.9L126.89 148.06L126.72 148.21L126.54 148.36L126.36 148.5L126.16 148.64L125.97 148.77L125.76 148.9L125.55 149.02L125.32 149.14L125.09 149.25L124.86 149.35L124.61 149.45L124.36 149.55L124.1 149.64L123.83 149.72L123.55 149.8L122.79 150L122.03 150.19L121.27 150.38L120.51 150.56L119.75 150.74L118.98 150.9L118.22 151.07L117.46 151.22L116.69 151.37L115.93 151.51L115.16 151.64L114.4 151.77L113.63 151.89L112.86 152.01L112.09 152.11L111.33 152.22L110.56 152.31L109.79 152.4L109.02 152.48L108.25 152.56L107.47 152.63L106.7 152.69L105.93 152.74L105.16 152.79L104.38 152.84L103.61 152.87L102.84 152.9L102.06 152.93L101.29 152.94L100.51 152.95L99.73 152.96L98.96 152.95L98.18 152.95L97.4 152.93L96.62 152.91L95.85 152.88L95.07 152.84L94.29 152.8L93.51 152.75L92.73 152.7L92.2 152.66L91.67 152.62L91.15 152.58L90.62 152.54L90.09 152.49L89.56 152.44L89.04 152.4L88.51 152.35L87.98 152.3L87.45 152.25L86.92 152.19L86.4 152.14L85.87 152.08L85.34 152.03L84.81 151.97L84.29 151.91L83.76 151.85L83.23 151.79L82.71 151.72L82.18 151.65L81.66 151.59L81.13 151.52L80.6 151.45L80.08 151.38L79.55 151.3L79.03 151.23L78.5 151.15L77.98 151.07L77.46 150.99L76.93 150.91L76.41 150.83L75.89 150.74L75.36 150.65L74.84 150.57L74.32 150.48L73.8 150.38L73.28 150.29L72.76 150.19L72.24 150.1L71.72 150L71.28 149.91L70.87 149.82L70.47 149.73L70.08 149.64L69.72 149.54L69.37 149.44L69.03 149.34L68.72 149.23L68.41 149.12L68.13 149L67.85 148.88L67.59 148.75L67.35 148.61L67.11 148.47L66.89 148.32L66.68 148.17L66.49 148L66.3 147.83L66.13 147.65L65.96 147.47L65.81 147.27L65.66 147.06L65.53 146.84L65.4 146.62L65.28 146.38L65.17 146.13L65.07 145.87L64.97 145.6L64.89 145.31L64.8 145.02L64.72 144.71L64.65 144.38L64.59 144.05L64.52 143.69L64.47 143.33L64.41 142.95L64.36 142.55L64.31 142.14L64.26 141.72L64.22 141.27L64.16 140.68L64.11 140.09L64.05 139.5L63.99 138.91L63.94 138.31L63.89 137.72L63.83 137.13L63.78 136.54L63.72 135.96L63.67 135.37L63.62 134.78L63.57 134.19L63.51 133.61L63.46 133.02L63.41 132.44L63.36 131.86L63.31 131.27L63.26 130.7L63.21 130.12L63.16 129.54L63.11 128.96L63.06 128.39L63.01 127.82L62.96 127.25L62.91 126.68L62.86 126.11L62.82 125.55L62.77 124.99L62.72 124.43L62.67 123.87L62.62 123.32L62.58 122.76L62.53 122.21L62.48 121.67L62.44 121.12L62.39 120.58L62.34 120.04L62.3 119.51L62.25 118.97L62.2 118.44L73.23 113.37L73.2 113.51L73.16 113.65L73.13 113.79L73.09 113.94L73.05 114.08L73.01 114.23L72.97 114.37L72.94 114.52L72.9 114.66L72.86 114.81L72.82 114.96L72.78 115.1L72.74 115.25L72.7 115.4L72.66 115.55L72.62 115.69L72.58 115.84L72.54 115.99L72.5 116.14L72.46 116.29L72.42 116.44L72.39 116.59L72.35 116.74L72.31 116.89L72.28 117.05L72.24 117.2L72.21 117.35L72.17 117.5L72.14 117.65L72.11 117.81L72.07 117.96L72.04 118.11L72.02 118.27L71.99 118.42L71.96 118.57L71.94 118.73L71.91 118.88L71.89 119.04L71.87 119.19L71.85 119.35L71.84 119.42L71.84 119.49L71.83 119.55L71.84 119.62L71.84 119.69L71.85 119.77L71.86 119.84L71.87 119.91L71.88 119.98L71.9 120.05L71.92 120.12L71.94 120.19L71.96 120.26L71.98 120.34L72 120.41L72.03 120.48L72.06 120.56L72.09 120.63L72.12 120.7L72.15 120.77L72.18 120.85L72.21 120.92L72.24 121L72.28 121.07L72.31 121.14L72.34 121.22L72.38 121.29L72.41 121.36L72.45 121.44L72.48 121.51L72.51 121.58L72.55 121.66L72.58 121.73L72.61 121.81L72.64 121.88L72.67 121.95L72.7 122.03L72.73 122.1L72.76 122.17L72.79 122.24L72.85 122.2L72.92 122.16L72.98 122.13L73.05 122.09L73.12 122.05L73.19 122.01L73.27 121.97L73.34 121.94L73.41 121.9L73.49 121.86L73.56 121.83L73.64 121.79L73.71 121.75L73.79 121.72L73.87 121.68L73.94 121.64L74.01 121.61L74.09 121.57L74.16 121.53L74.23 121.5L74.3 121.46L74.37 121.42L74.44 121.38L74.51 121.34L74.57 121.3L74.63 121.26L74.69 121.22L74.75 121.18L74.81 121.14L74.86 121.09L74.91 121.05L74.96 121L75.01 120.96L75.05 120.91L75.09 120.86L75.12 120.81L75.16 120.76L75.19 120.71L75.21 120.65L75.23 120.6L75.41 120.05L75.6 119.51L75.78 118.96L75.96 118.41L76.14 117.87L76.32 117.32L76.5 116.77L76.68 116.23L76.86 115.68L77.04 115.13L77.22 114.58L77.39 114.03L77.57 113.49L77.75 112.94L77.92 112.39L78.1 111.84L78.27 111.29L78.45 110.74L78.62 110.19L78.8 109.64L78.97 109.09L79.14 108.54L79.31 107.99L79.49 107.44L79.66 106.89L79.83 106.34L80 105.79L80.16 105.24L80.33 104.69L80.5 104.14L80.67 103.59L80.83 103.04L81 102.49L81.16 101.93L81.33 101.38L81.49 100.83L81.66 100.28L81.82 99.72L81.98 99.17L82.14 98.62L82.16 98.56L82.17 98.5L82.17 98.43L82.17 98.37L82.17 98.3L82.16 98.24L82.15 98.17L82.13 98.1L82.12 98.03L82.09 97.96L82.07 97.89L82.04 97.81L82.01 97.74L81.98 97.67L81.94 97.59L81.9 97.52L81.86 97.44L81.82 97.36L81.77 97.29L81.73 97.21L81.68 97.13L81.63 97.05L81.58 96.97L81.53 96.89L81.48 96.81L81.43 96.74L81.38 96.66L81.33 96.58L81.28 96.5L81.23 96.42L81.18 96.34L81.13 96.26L81.08 96.18L81.03 96.1L80.98 96.02L80.94 95.95L80.89 95.87L80.85 95.79L80.81 95.72L80.77 95.64L80.7 95.71L80.62 95.77L80.54 95.83L80.45 95.89L80.37 95.96L80.28 96.02L80.19 96.08L80.11 96.14L80.02 96.2L79.93 96.26L79.84 96.32L79.75 96.38L79.66 96.44L79.56 96.5L79.47 96.56L79.38 96.62L79.3 96.68L79.21 96.74L79.12 96.81L79.03 96.87L78.95 96.93L78.86 96.99L78.78 97.05L78.7 97.12L78.62 97.18L78.55 97.25L78.48 97.31L78.41 97.38L78.34 97.44L78.27 97.51L78.21 97.58L78.15 97.65L78.1 97.72L78.05 97.79L78 97.86L77.96 97.94L77.92 98.01L77.88 98.09L77.85 98.16L77.83 98.24L77.72 98.61L77.61 98.97L77.5 99.33L77.38 99.69L77.26 100.04L77.13 100.39L77 100.74L76.86 101.08L76.72 101.42L76.57 101.76L76.42 102.1L76.27 102.43L76.11 102.75L75.95 103.08L75.78 103.4L75.6 103.72L75.42 104.03L75.24 104.34L75.05 104.65L74.86 104.95L74.66 105.25L74.46 105.55L74.25 105.84L74.04 106.13L73.82 106.42L73.59 106.7L73.36 106.98L73.13 107.25L72.89 107.52L72.64 107.79L72.39 108.05L72.14 108.31L71.88 108.57L71.61 108.82L71.34 109.07L71.06 109.31L70.78 109.55L70.49 109.79L70.19 110.02L69.89 110.25L69.8 110.32L69.7 110.38L69.6 110.44L69.5 110.51L69.4 110.56L69.3 110.62L69.19 110.67L69.09 110.73L68.98 110.77L68.87 110.82L68.76 110.87L68.65 110.91L68.53 110.96L68.42 111L68.3 111.04L68.19 111.08L68.07 111.12L67.95 111.15L67.84 111.19L67.72 111.22L67.6 111.26L67.48 111.29L67.36 111.32L67.24 111.36L67.11 111.39L66.99 111.42L66.87 111.45L66.75 111.48L66.63 111.52L66.51 111.55L66.39 111.58L66.27 111.61L66.15 111.65L66.03 111.68L65.91 111.71L65.79 111.75L65.67 111.79L65.55 111.82L65.43 111.86L65.32 111.9L65.29 111.78L65.26 111.66L65.22 111.54L65.19 111.42L65.15 111.3L65.11 111.18L65.07 111.06L65.03 110.94L64.99 110.82L64.95 110.7L64.91 110.58L64.87 110.46L64.83 110.34L64.78 110.22L64.74 110.1L64.7 109.98L64.66 109.86L64.62 109.74L64.58 109.62L64.54 109.5L64.5 109.38L64.47 109.26L64.43 109.14L64.4 109.02L64.37 108.9L64.34 108.78L64.32 108.66L64.29 108.55L64.27 108.43L64.25 108.31L64.23 108.2L64.22 108.08L64.21 107.96L64.2 107.85L64.2 107.73L64.2 107.62L64.2 107.51L64.21 107.39L64.22 107.28L64.23 107.17L64.33 106.6L64.43 106.03L64.54 105.46L64.65 104.89L64.78 104.33L64.91 103.78L65.05 103.22L65.2 102.67L65.35 102.13L65.52 101.58L65.69 101.04L65.86 100.51L66.05 99.98L66.24 99.45L66.45 98.93L66.66 98.4L66.88 97.89L67.1 97.38L67.34 96.87L67.58 96.36L67.83 95.86L68.09 95.37L68.36 94.88L68.64 94.39L68.92 93.91L69.21 93.43L69.52 92.96L69.83 92.49L70.15 92.02L70.47 91.56L70.81 91.11L71.16 90.66L71.51 90.21L71.88 89.77L72.25 89.33L72.63 88.9L73.02 88.48L73.42 88.05L73.83 87.64L74.25 87.23L74.47 87.01L74.69 86.81L74.9 86.63L75.11 86.45L75.32 86.29L75.52 86.14L75.72 86L75.91 85.87L76.1 85.76L76.29 85.65L76.48 85.56L76.66 85.49L76.84 85.42L77.02 85.37L77.19 85.32L77.37 85.29L77.54 85.28L77.71 85.27L77.88 85.28L78.05 85.29L78.22 85.32L78.39 85.36L78.56 85.42L78.73 85.48L78.9 85.56L79.07 85.65L79.24 85.75L79.41 85.86L79.59 85.98L79.76 86.11L79.94 86.26L80.12 86.42L80.3 86.59L80.48 86.77L80.67 86.96L80.85 87.16L81.05 87.37L81.24 87.6L81.44 87.84L81.64 88.08L81.69 88.14L81.75 88.2L81.8 88.25L81.85 88.31L81.91 88.36L81.97 88.41L82.03 88.46L82.1 88.51L82.16 88.55L82.23 88.6L82.3 88.64L82.37 88.68L82.44 88.72L82.51 88.76L82.58 88.8L82.66 88.84L82.73 88.88L82.81 88.92L82.89 88.95L82.96 88.99L83.04 89.02L83.12 89.06L83.2 89.09L83.28 89.13L83.36 89.16L83.44 89.19L83.52 89.23L83.6 89.26L83.68 89.29L83.76 89.33L83.84 89.36L83.92 89.4L84 89.43L84.08 89.46L84.16 89.5L84.24 89.54L84.31 89.57L84.39 89.61L84.47 89.65L84.54 89.69L84.56 89.59L84.59 89.49L84.61 89.39L84.64 89.29L84.67 89.19L84.7 89.09L84.73 88.99L84.77 88.88L84.8 88.78L84.83 88.68L84.87 88.58L84.9 88.48L84.94 88.37L84.97 88.27L85.01 88.17L85.04 88.07L85.07 87.97L85.11 87.86L85.14 87.76L85.17 87.66L85.2 87.56L85.23 87.46L85.26 87.36L85.28 87.26L85.3 87.16L85.32 87.07L85.34 86.97L85.36 86.87L85.37 86.78L85.39 86.68L85.39 86.59L85.4 86.49L85.4 86.4L85.4 86.31L85.4 86.22L85.39 86.13L85.38 86.05L85.36 85.96L85.34 85.87L85.32 85.79L85.21 85.49L85.09 85.19L84.96 84.9L84.81 84.62L84.65 84.34L84.48 84.08L84.3 83.82L84.1 83.57L83.89 83.33L83.68 83.11L83.45 82.89L83.21 82.68L82.97 82.48L82.71 82.29L82.45 82.11L82.18 81.94L81.9 81.79L81.62 81.64L81.33 81.51L81.04 81.39L80.74 81.28L80.43 81.18L80.12 81.09L79.81 81.02L79.49 80.96L79.18 80.92L78.86 80.89L78.53 80.87L78.21 80.86L77.89 80.87L77.56 80.9L77.24 80.94L76.91 80.99L76.59 81.06L76.27 81.14L75.95 81.25L75.64 81.36L75.33 81.49L75.02 81.64L74.72 81.81L74.48 81.94L74.26 82.08L74.03 82.22L73.8 82.37L73.57 82.51L73.35 82.66L73.12 82.81L72.9 82.97L72.68 83.12L72.46 83.28L72.24 83.44L72.02 83.61L71.8 83.77L71.59 83.94L71.37 84.11L71.16 84.28L70.95 84.46L70.74 84.64L70.53 84.81L70.32 85L70.12 85.18L69.91 85.36L69.71 85.55L69.51 85.74L69.31 85.93L69.11 86.12L68.92 86.31L68.73 86.51L68.53 86.7L68.34 86.9L68.16 87.1L67.97 87.3L67.79 87.5L67.6 87.7L67.42 87.9L67.25 88.11L67.07 88.31L66.9 88.52L66.72 88.73L66.55 88.94L66.37 89.16L66.2 89.39L66.02 89.62L65.85 89.85L65.68 90.09L65.52 90.32L65.35 90.56L65.19 90.8L65.03 91.05L64.87 91.29L64.72 91.54L64.56 91.79L64.41 92.04L64.26 92.29L64.11 92.55L63.96 92.8L63.81 93.06L63.66 93.32L63.51 93.58L63.37 93.85L63.22 94.11L63.07 94.38L62.93 94.64L62.78 94.91L62.64 95.18L62.49 95.46L62.34 95.73L62.19 96L62.05 96.28L61.9 96.55L61.75 96.83L61.6 97.11L61.44 97.39L61.29 97.67L61.13 97.95L60.98 98.23L60.82 98.52L60.66 98.8L60.5 99.08L60.33 99.37L60.23 98.3L60.13 97.23L60.03 96.16L59.93 95.09L59.82 94.02L59.72 92.95L59.42 89.76L59.32 88.7L59.22 87.63L59.12 86.57L59.02 85.51L58.92 84.45L58.82 83.39L58.72 82.33L58.62 81.28L58.52 80.22L58.42 79.16L58.32 78.11L58.21 77.05L58.11 75.99L58.01 74.94L57.91 73.88L57.81 72.83L57.71 71.77L57.61 70.72L57.51 69.67L57.41 68.61L57.31 67.56L57.21 66.51L57.11 65.45L57.01 64.4L56.91 63.34L56.81 62.29L56.71 61.24L56.61 60.18L56.51 59.13L56.41 58.07L56.31 57.02L58.38 57.52L60.44 58L62.5 58.45Z" id="b8SmSYGjZ"></path></defs><g><g><g><use xlink:href="#g4NZHS1uP" opacity="1" fill="#000000" fill-opacity="0"></use><g><use xlink:href="#g4NZHS1uP" opacity="1" fill-opacity="0" stroke="#000000" stroke-width="1" stroke-opacity="0"></use></g></g><g><use xlink:href="#a1zGJl2WVT" opacity="1" fill="#000000" fill-opacity="0"></use><g><use xlink:href="#a1zGJl2WVT" opacity="1" fill-opacity="0" stroke="#00c7fc" stroke-width="1" stroke-opacity="1"></use></g></g><g><use xlink:href="#b8SmSYGjZ" opacity="1" fill="#000000" fill-opacity="1"></use><g><use xlink:href="#b8SmSYGjZ" opacity="1" fill-opacity="0" stroke="#000000" stroke-width="1" stroke-opacity="0"></use></g></g></g></g></svg>