<?xml version="1.0" encoding="UTF-8"?>
<!DOCTYPE svg  PUBLIC '-//W3C//DTD SVG 1.1//EN'  'http://www.w3.org/Graphics/SVG/1.1/DTD/svg11.dtd'>
<svg version="1.1" viewBox="0 0 195 201" xmlns="http://www.w3.org/2000/svg" xmlns:xlink="http://www.w3.org/1999/xlink">
<defs>
<path id="b" d="m97.5 201l95.17-49.79v-99.57l-95.17-49.78-95.17 49.78v99.57l95.17 49.79z"/>
<path id="a" d="m60.44 58l2.06 0.45 2.06 0.42 2.06 0.4 2.05 0.37 2.06 0.35 2.05 0.32 2.06 0.3 2.05 0.27 2.06 0.24 2.05 0.22 2.05 0.19 2.06 0.17 2.05 0.14 2.05 0.12 2.06 0.09 2.05 0.06 2.05 0.04 2.06 0.01 2.05-0.01 2.06-0.03 2.05-0.07 2.06-0.08 2.05-0.12 2.06-0.14 2.06-0.16 2.06-0.19 2.06-0.21 2.06-0.24 2.07-0.27 2.06-0.29 2.07-0.31 2.07-0.34 2.07-0.37 2.07-0.39 2.07-0.42 2.08-0.44 2.07-0.46 2.08-0.5-0.02 0.28-0.02 0.28-0.03 0.28-0.02 0.27-0.02 0.28-0.03 0.27-0.02 0.28-0.02 0.27-0.02 0.28-0.02 0.27-0.02 0.27-0.03 0.28-0.02 0.27-0.02 0.27-0.02 0.27-0.02 0.27-0.02 0.27-0.03 0.27-0.02 0.28-0.02 0.27-0.02 0.27-0.02 0.27-0.03 0.26-0.02 0.27-0.02 0.27-0.03 0.27-0.02 0.27-0.02 0.27-0.03 0.27-0.02 0.26-0.03 0.27-0.02 0.27-0.03 0.27-0.03 0.26-0.03 0.27-0.02 0.27-0.03 0.27-0.03 0.26-0.03 0.27-0.03 0.26-0.11 0.91-0.1 0.9-0.1 0.9-0.11 0.9-0.1 0.9-0.11 0.9-0.1 0.9-0.11 0.9-0.1 0.9-0.1 0.9-0.11 0.9-0.1 0.9-0.11 0.9-0.1 0.9-0.11 0.9-0.1 0.9-0.11 0.9-0.11 0.9-0.1 0.9-0.11 0.9-0.11 0.9-0.1 0.9-0.11 0.9-0.11 0.9-0.11 0.9-0.11 0.9-0.11 0.9-0.11 0.9-0.11 0.9-0.11 0.9-0.11 0.89-0.11 0.9-0.11 0.9-0.11 0.9-0.12 0.9-0.11 0.9-0.12 0.9-0.11 0.9-0.12 0.9-0.11 0.9-0.06 0.36-0.07 0.34-0.09 0.34-0.1 0.32-0.11 0.3-0.12 0.3-0.14 0.28-0.15 0.27-0.17 0.27-0.17 0.25-0.18 0.24-0.2 0.23-0.2 0.22-0.21 0.22-0.22 0.21-0.23 0.2-0.24 0.19-0.24 0.18-0.25 0.19-0.26 0.17-0.26 0.17-0.27 0.17-0.27 0.16-0.27 0.16-0.28 0.15-0.28 0.16-0.28 0.15-0.28 0.15-0.29 0.14-0.29 0.15-0.28 0.15-0.29 0.15-0.29 0.14-0.28 0.15-0.28 0.16-0.29 0.15-0.27 0.16-0.28 0.16-0.27 0.16-0.27 0.17 0.12-0.16 0.12-0.15 0.12-0.15 0.12-0.16 0.12-0.15 0.12-0.16 0.12-0.15 0.12-0.15 0.12-0.16 0.12-0.15 0.12-0.15 0.12-0.15 0.12-0.16 0.12-0.15 0.12-0.15 0.12-0.16 0.12-0.15 0.12-0.15 0.12-0.16 0.12-0.15 0.12-0.15 0.12-0.16 0.12-0.15 0.11-0.16 0.12-0.15 0.12-0.16 0.11-0.15 0.12-0.16 0.11-0.16 0.12-0.15 0.11-0.16 0.11-0.16 0.12-0.16 0.11-0.16 0.11-0.16 0.11-0.16 0.1-0.16 0.11-0.16 0.11-0.16 0.1-0.17 0.1-0.15 0.1-0.15 0.1-0.15 0.1-0.15 0.1-0.16 0.1-0.15 0.1-0.16 0.1-0.15 0.1-0.16 0.09-0.16 0.09-0.16 0.09-0.16 0.09-0.16 0.08-0.16 0.08-0.16 0.08-0.16 0.07-0.17 0.06-0.16 0.06-0.16 0.05-0.17 0.04-0.16 0.04-0.17 0.03-0.17 0.02-0.16 0.01-0.17v-0.17l-0.01-0.17-0.01-0.17-0.03-0.17-0.04-0.17-0.05-0.17-0.07-0.17-0.07-0.17-0.09-0.17-0.1-0.17-0.12-0.18-0.13-0.17-0.14-0.17-0.16-0.17-0.18-0.18-0.17-0.16-0.18-0.15-0.18-0.13-0.18-0.13-0.17-0.11-0.18-0.1-0.18-0.09-0.18-0.07-0.17-0.07-0.18-0.06-0.18-0.04-0.18-0.04-0.18-0.03-0.17-0.02-0.18-0.01h-0.18l-0.18 0.01-0.17 0.01-0.18 0.02-0.18 0.03-0.17 0.04-0.18 0.04-0.18 0.05-0.17 0.06-0.18 0.06-0.17 0.06-0.18 0.07-0.17 0.08-0.18 0.08-0.17 0.08-0.17 0.09-0.18 0.09-0.17 0.1-0.17 0.1-0.17 0.1-0.17 0.1-0.17 0.1-0.17 0.11-0.17 0.1-0.17 0.11-0.05 0.04-0.05 0.03-0.06 0.04-0.05 0.04-0.05 0.03-0.05 0.04-0.05 0.04-0.05 0.04-0.05 0.04-0.05 0.03-0.05 0.04-0.05 0.04-0.05 0.04-0.05 0.05-0.05 0.04-0.05 0.04-0.05 0.04-0.05 0.04-0.04 0.04-0.05 0.05-0.05 0.04-0.05 0.04-0.05 0.04-0.04 0.05-0.05 0.04-0.05 0.04-0.1 0.09-0.04 0.04-0.05 0.05-0.05 0.04-0.05 0.04-0.04 0.05-0.05 0.04-0.05 0.04-0.05 0.04-0.05 0.05-0.05 0.04-0.05 0.04-0.04 0.04-2.16-2.28-0.07 0.07-0.07 0.08-0.08 0.08-0.07 0.07-0.08 0.08-0.08 0.07-0.08 0.08-0.08 0.07-0.08 0.08-0.08 0.07-0.08 0.08-0.08 0.07-0.08 0.08-0.08 0.07-0.08 0.08-0.08 0.07-0.08 0.08-0.08 0.07-0.08 0.08-0.08 0.07-0.08 0.08-0.07 0.07-0.07 0.08-0.08 0.08-0.07 0.07-0.07 0.08-0.06 0.08-0.07 0.08-0.06 0.08-0.06 0.08-0.06 0.08-0.05 0.08-0.06 0.08-0.05 0.09-0.04 0.08-0.04 0.09-0.04 0.08-0.04 0.09-0.03 0.09-0.03 0.09-0.11 0.37-0.12 0.35-0.13 0.35-0.14 0.34-0.14 0.33-0.16 0.32-0.16 0.31-0.17 0.31-0.18 0.29-0.19 0.29-0.2 0.28-0.2 0.27-0.21 0.27-0.22 0.26-0.22 0.25-0.23 0.24-0.24 0.24-0.24 0.23-0.25 0.23-0.26 0.22-0.26 0.22-0.27 0.21-0.28 0.21-0.28 0.2-0.28 0.2-0.29 0.19-0.3 0.19-0.3 0.18-0.3 0.19-0.32 0.17-0.31 0.18-0.32 0.17-0.32 0.17-0.33 0.17-0.33 0.16-0.34 0.17-0.33 0.16-0.35 0.16-0.34 0.16-0.35 0.15 0.02-0.08 0.02-0.09 0.02-0.09 0.02-0.09 0.02-0.09 0.02-0.09 0.02-0.09 0.02-0.09 0.01-0.08 0.02-0.09 0.02-0.09 0.02-0.09 0.02-0.09 0.01-0.09 0.02-0.09 0.02-0.09 0.02-0.09 0.02-0.09 0.02-0.09 0.01-0.09 0.02-0.08 0.02-0.09 0.02-0.09 0.02-0.09 0.02-0.09 0.03-0.09 0.02-0.08 0.02-0.09 0.02-0.09 0.03-0.09 0.02-0.08 0.03-0.09 0.02-0.08 0.03-0.09 0.03-0.09 0.03-0.08 0.03-0.09 0.03-0.08 0.03-0.08 0.03-0.09 0.2-0.49 0.2-0.49 0.2-0.49 0.2-0.5 0.2-0.49 0.2-0.49 0.2-0.49 0.21-0.49 0.2-0.5 0.2-0.49 0.2-0.49 0.21-0.49 0.2-0.49 0.2-0.49 0.2-0.49 0.21-0.49 0.2-0.5 0.2-0.49 0.2-0.49 0.21-0.49 0.2-0.49 0.2-0.49 0.2-0.49 0.2-0.5 0.2-0.49 0.2-0.49 0.2-0.49 0.2-0.5 0.2-0.49 0.2-0.49 0.19-0.5 0.2-0.49 0.2-0.49 0.19-0.5 0.19-0.49 0.2-0.5 0.19-0.49 0.19-0.5 0.19-0.5 0.19-0.49 0.03-0.1 0.03-0.09 0.02-0.1 0.03-0.1 0.01-0.1 0.02-0.1 0.01-0.1 0.01-0.11v-0.1-0.11-0.11-0.11l-0.01-0.11v-0.11l-0.01-0.11-0.02-0.11-0.01-0.11-0.01-0.12-0.02-0.11-0.02-0.11-0.02-0.12-0.02-0.11-0.02-0.12-0.02-0.11-0.02-0.12-0.03-0.11-0.02-0.12-0.02-0.12-0.02-0.11-0.03-0.12-0.02-0.11-0.02-0.12-0.02-0.11-0.02-0.12-0.02-0.11-0.02-0.12-0.01-0.11-0.02-0.11-0.01-0.12-0.01-0.11-0.09 0.07-0.1 0.07-0.09 0.07-0.1 0.07-0.1 0.07-0.09 0.06-0.11 0.07-0.1 0.06-0.1 0.07-0.1 0.07-0.1 0.06-0.11 0.07-0.1 0.06-0.1 0.07-0.11 0.06-0.1 0.07-0.1 0.06-0.1 0.07-0.11 0.06-0.09 0.07-0.1 0.07-0.1 0.06-0.1 0.07-0.09 0.07-0.09 0.07-0.09 0.07-0.09 0.07-0.08 0.08-0.08 0.07-0.08 0.08-0.08 0.07-0.07 0.08-0.07 0.08-0.07 0.08-0.06 0.08-0.06 0.09-0.05 0.08-0.05 0.09-0.05 0.09-0.04 0.09-0.23 0.54-0.23 0.54-0.22 0.54-0.23 0.54-0.23 0.54-0.22 0.54-0.22 0.55-0.23 0.54-0.22 0.54-0.22 0.54-0.22 0.54-0.22 0.55-0.22 0.54-0.22 0.54-0.22 0.55-0.22 0.54-0.21 0.55-0.22 0.54-0.21 0.55-0.22 0.54-0.21 0.55-0.22 0.54-0.21 0.55-0.22 0.54-0.21 0.55-0.21 0.55-0.21 0.54-0.21 0.55-0.22 0.55-0.21 0.54-0.21 0.55-0.21 0.55-0.21 0.54-0.21 0.55-0.21 0.55-0.21 0.55-0.21 0.54-0.2 0.55-0.21 0.55-0.21 0.55-0.07 0.17-0.07 0.17-0.07 0.16-0.07 0.16-0.08 0.16-0.07 0.15-0.08 0.15-0.08 0.14-0.09 0.14-0.09 0.14-0.09 0.13-0.09 0.12-0.1 0.13-0.1 0.12-0.1 0.11-0.11 0.11-0.11 0.11-0.12 0.1-0.11 0.1-0.13 0.09-0.12 0.09-0.13 0.08-0.14 0.08-0.14 0.07-0.15 0.07-0.15 0.07-0.15 0.06-0.16 0.05-0.16 0.05-0.17 0.05-0.18 0.04-0.18 0.03-0.19 0.03-0.19 0.03-0.2 0.02-0.2 0.01-0.22 0.01-0.21 0.01h-0.23l-0.23-0.01 0.05-0.17 0.05-0.16 0.05-0.16 0.05-0.17 0.04-0.16 0.05-0.16 0.05-0.16 0.04-0.16 0.05-0.15 0.05-0.16 0.04-0.16 0.09-0.31 0.05-0.15 0.04-0.15 0.05-0.16 0.04-0.15 0.04-0.15 0.05-0.15 0.04-0.15 0.05-0.15 0.04-0.15 0.04-0.15 0.05-0.14 0.04-0.15 0.05-0.15 0.04-0.15 0.05-0.14 0.04-0.15 0.05-0.14 0.04-0.15 0.05-0.14 0.04-0.15 0.05-0.14 0.04-0.14 0.05-0.15 0.05-0.14 0.05-0.14 0.04-0.14 0.05-0.15 0.04-0.09 0.03-0.1 0.04-0.09 0.03-0.09 0.04-0.1 0.04-0.09 0.04-0.1 0.05-0.09 0.04-0.09 0.04-0.09 0.05-0.1 0.04-0.09 0.05-0.09 0.05-0.09 0.04-0.09 0.05-0.1 0.04-0.09 0.05-0.09 0.04-0.09 0.05-0.09 0.04-0.09 0.05-0.1 0.04-0.09 0.04-0.09 0.05-0.09 0.04-0.09 0.04-0.1 0.03-0.09 0.04-0.09 0.03-0.09 0.04-0.1 0.03-0.09 0.03-0.09 0.03-0.1 0.02-0.09 0.03-0.1 0.02-0.09 0.02-0.1 0.01-0.09 0.02-0.1 0.01-0.09 0.01-0.1v-0.09l0.01-0.1v-0.1-0.09-0.1l-0.01-0.1v-0.09l-0.01-0.1-0.01-0.1-0.01-0.1-0.01-0.1-0.01-0.09-0.02-0.1-0.01-0.1-0.02-0.1-0.02-0.1-0.01-0.1-0.02-0.1-0.02-0.09-0.02-0.1-0.02-0.1-0.03-0.1-0.02-0.1-0.02-0.1-0.02-0.1-0.02-0.1-0.03-0.1-0.02-0.1-0.02-0.1-0.02-0.1-0.02-0.1-0.02-0.1-0.02-0.09-0.02-0.1-0.02-0.1-0.02-0.1-0.02-0.1-0.01-0.1-0.08 0.06-0.08 0.06-0.08 0.06-0.08 0.05-0.08 0.06-0.08 0.06-0.08 0.05-0.09 0.06-0.08 0.05-0.08 0.06-0.09 0.05-0.08 0.06-0.09 0.05-0.08 0.06-0.09 0.05-0.08 0.06-0.08 0.05-0.09 0.06-0.08 0.05-0.08 0.06-0.08 0.05-0.08 0.06-0.08 0.06-0.08 0.06-0.08 0.06-0.07 0.06-0.08 0.06-0.07 0.06-0.07 0.06-0.07 0.06-0.07 0.07-0.07 0.06-0.06 0.07-0.06 0.07-0.06 0.07-0.06 0.07-0.06 0.07-0.05 0.07-0.05 0.08-0.05 0.08-0.11 0.18-0.11 0.19-0.11 0.19-0.11 0.19-0.1 0.19-0.11 0.2-0.1 0.19-0.1 0.19-0.1 0.2-0.1 0.19-0.1 0.2-0.09 0.2-0.1 0.2-0.1 0.19-0.09 0.2-0.1 0.2-0.09 0.2-0.09 0.2-0.1 0.19-0.09 0.2-0.1 0.2-0.09 0.2-0.1 0.2-0.09 0.2-0.1 0.19-0.1 0.2-0.09 0.2-0.1 0.19-0.1 0.2-0.1 0.19-0.11 0.19-0.1 0.2-0.11 0.19-0.1 0.19-0.11 0.19-0.11 0.18-0.11 0.19-0.12 0.19-0.11 0.18-0.12 0.18-0.08 0.11-0.07 0.11-0.08 0.11-0.09 0.1-0.08 0.11-0.09 0.1-0.09 0.1-0.09 0.1-0.09 0.1-0.1 0.09-0.1 0.1-0.09 0.09-0.11 0.1-0.1 0.09-0.1 0.09-0.11 0.09-0.1 0.09-0.11 0.09-0.11 0.09-0.11 0.09-0.11 0.08-0.11 0.09-0.11 0.09-0.11 0.08-0.11 0.09-0.11 0.08-0.12 0.09-0.11 0.08-0.11 0.09-0.11 0.09-0.11 0.08-0.12 0.09-0.11 0.08-0.11 0.09-0.11 0.09-0.11 0.09-0.11 0.08-0.1 0.09-0.11 0.09-0.1 0.09-1.47-0.88 0.07-0.2 0.07-0.19 0.07-0.19 0.07-0.2 0.07-0.19 0.07-0.2 0.07-0.19 0.07-0.2 0.07-0.19 0.06-0.19 0.07-0.2 0.07-0.19 0.21-0.58 0.07-0.2 0.07-0.19 0.07-0.2 0.07-0.19 0.07-0.2 0.07-0.19 0.07-0.19 0.06-0.2 0.07-0.19 0.07-0.2 0.07-0.19 0.07-0.2 0.07-0.19 0.07-0.19 0.07-0.2 0.07-0.19 0.07-0.2 0.06-0.19 0.07-0.2 0.07-0.19 0.07-0.19 0.07-0.2 0.07-0.19 0.07-0.2 0.07-0.19 0.04-0.13 0.06-0.13 0.05-0.13 0.07-0.13 0.06-0.13 0.07-0.13 0.08-0.13 0.07-0.14 0.08-0.13 0.08-0.14 0.08-0.13 0.07-0.14 0.08-0.14 0.07-0.13 0.08-0.14 0.07-0.13 0.07-0.14 0.06-0.13 0.06-0.14 0.05-0.13 0.05-0.13 0.04-0.13 0.03-0.13 0.03-0.13 0.01-0.13 0.01-0.13v-0.12l-0.01-0.13-0.02-0.12-0.04-0.12-0.04-0.12-0.06-0.11-0.07-0.12-0.09-0.11-0.1-0.11-0.12-0.1-0.13-0.11-0.14-0.1-0.17-0.09-0.18-0.1-0.19-0.08-0.19-0.08-0.17-0.05-0.17-0.05-0.17-0.03-0.16-0.01-0.15-0.01-0.15 0.01-0.14 0.02-0.14 0.03-0.13 0.05-0.12 0.05-0.13 0.06-0.11 0.07-0.12 0.08-0.1 0.09-0.11 0.09-0.1 0.11-0.1 0.1-0.09 0.12-0.09 0.12-0.09 0.13-0.08 0.13-0.08 0.13-0.08 0.14-0.07 0.15-0.08 0.14-0.07 0.15-0.07 0.15-0.06 0.15-0.07 0.15-0.06 0.15-0.06 0.16-0.07 0.15-0.06 0.15-0.05 0.15-0.06 0.14-0.06 0.15-0.06 0.14-0.06 0.13-0.09 0.22-0.09 0.22-0.09 0.22-0.1 0.22-0.09 0.22-0.09 0.22-0.1 0.22-0.09 0.22-0.09 0.22-0.09 0.22-0.1 0.22-0.09 0.22-0.09 0.22-0.09 0.22-0.09 0.22-0.09 0.22-0.09 0.22-0.08 0.23-0.09 0.22-0.08 0.22-0.09 0.22-0.08 0.23-0.08 0.22-0.09 0.22-0.08 0.23-0.07 0.22-0.08 0.23-0.08 0.22-0.07 0.23-0.07 0.22-0.07 0.23-0.07 0.22-0.07 0.23-0.07 0.23-0.06 0.23-0.06 0.22-0.06 0.23-0.06 0.23-0.06 0.23-0.05 0.23-0.02 0.12-0.03 0.12-0.02 0.12-0.01 0.13-0.02 0.13-0.01 0.14-0.01 0.13v0.14l-0.01 0.14v0.14 0.15l0.01 0.14 0.01 0.14 0.01 0.15 0.01 0.14 0.01 0.15 0.02 0.14 0.02 0.15 0.02 0.14 0.03 0.14 0.03 0.14 0.03 0.14 0.03 0.13 0.04 0.14 0.03 0.13 0.05 0.12 0.04 0.13 0.04 0.12 0.05 0.12 0.05 0.11 0.06 0.11 0.05 0.1 0.06 0.1 0.06 0.09 0.07 0.09 0.06 0.08 0.07 0.08 0.07 0.07 0.07 0.06 0.08 0.06 0.1 0.06 0.1 0.06 0.1 0.06 0.11 0.05 0.12 0.04 0.11 0.05 0.12 0.04 0.12 0.03 0.13 0.04 0.13 0.02 0.13 0.03 0.13 0.02 0.13 0.02 0.14 0.02 0.14 0.01 0.14 0.01 0.14 0.01h0.14 0.15 0.14 0.15 0.15l0.14-0.01 0.15-0.01 0.15-0.01 0.15-0.02 0.14-0.01 0.15-0.02 0.15-0.02 0.15-0.02 0.14-0.02 0.15-0.02 0.14-0.03 0.14-0.02 0.15-0.03 0.14-0.03 0.13-0.03 0.14-0.03 0.13-0.03 0.14-0.03 0.1-0.02 0.11-0.03 0.11-0.04 0.1-0.04 0.11-0.04 0.1-0.04 0.1-0.04 0.11-0.05 0.1-0.05 0.1-0.06 0.1-0.05 0.11-0.06 0.1-0.06 0.1-0.06 0.1-0.07 0.1-0.06 0.1-0.07 0.1-0.07 0.1-0.07 0.1-0.07 0.1-0.07 0.1-0.07 0.1-0.08 0.1-0.07 0.1-0.08 0.1-0.07 0.1-0.08 0.1-0.08 0.1-0.07 0.1-0.08 0.11-0.08 0.1-0.07 0.1-0.08 0.11-0.07 0.1-0.08 0.1-0.07 0.11-0.08 0.11-0.07 0.1-0.07 0.11-0.07 0.05 0.25 0.06 0.24 0.06 0.23 0.06 0.22 0.08 0.22 0.07 0.2 0.08 0.19 0.09 0.18 0.09 0.17 0.09 0.16 0.1 0.15 0.11 0.14 0.11 0.13 0.11 0.12 0.12 0.11 0.12 0.1 0.13 0.09 0.13 0.08 0.14 0.08 0.14 0.06 0.15 0.06 0.15 0.04 0.16 0.04 0.16 0.03 0.16 0.02 0.17 0.01h0.18l0.18-0.01 0.18-0.01 0.19-0.03 0.19-0.03 0.2-0.04 0.2-0.04 0.2-0.06 0.21-0.06 0.22-0.08 0.22-0.07 0.22-0.09 0.23-0.1 0.23-0.1 0.07-0.03 0.07-0.02 0.08-0.03 0.07-0.01 0.08-0.02 0.08-0.01 0.08-0.01 0.08-0.01h0.08l0.08-0.01h0.08l0.09 0.01h0.08l0.09 0.01 0.09 0.01 0.09 0.01 0.08 0.01 0.09 0.01 0.09 0.01 0.09 0.01 0.09 0.02 0.09 0.01 0.09 0.02 0.1 0.01 0.09 0.02 0.09 0.01 0.09 0.02 0.09 0.01 0.09 0.01 0.09 0.01 0.09 0.02h0.09l0.09 0.01 0.09 0.01 0.09 0.01h0.09 0.09 0.09 0.09l0.08-0.01 0.21-0.02 0.2-0.02 0.2-0.02 0.2-0.02 0.21-0.02 0.2-0.02 0.2-0.02 0.21-0.02 0.2-0.02 0.2-0.02 0.2-0.02 0.21-0.03 0.2-0.02 0.2-0.02 0.2-0.03 0.21-0.02 0.2-0.02 0.2-0.03 0.2-0.02 0.2-0.03 0.21-0.02 0.2-0.03 0.2-0.02 0.2-0.03 0.2-0.02 0.2-0.03 0.2-0.02 0.2-0.03 0.21-0.02 0.2-0.03 0.2-0.02 0.2-0.03 0.2-0.03 0.2-0.02 0.2-0.02 0.2-0.03 0.2-0.02 0.2-0.03 0.2-0.02 0.2-0.03-0.07 0.16-0.08 0.16-0.07 0.16-0.08 0.16-0.07 0.17-0.08 0.16-0.08 0.17-0.08 0.17-0.08 0.18-0.09 0.17-0.08 0.18-0.09 0.18-0.08 0.18-0.09 0.18-0.09 0.18-0.08 0.19-0.09 0.18-0.09 0.19-0.09 0.19-0.09 0.19-0.09 0.2-0.09 0.19-0.09 0.2-0.09 0.19-0.09 0.2-0.08 0.2-0.09 0.2-0.09 0.2-0.09 0.2-0.09 0.21-0.09 0.2-0.08 0.21-0.09 0.2-0.08 0.21-0.09 0.21-0.08 0.2-0.09 0.21-0.08 0.21-0.08 0.21-0.08 0.21-0.05 0.14-0.05 0.13-0.06 0.14-0.07 0.14-0.06 0.14-0.07 0.15-0.07 0.14-0.07 0.15-0.07 0.15-0.07 0.15-0.07 0.15-0.07 0.15-0.07 0.15-0.06 0.15-0.06 0.15-0.06 0.15-0.05 0.15-0.05 0.15-0.04 0.15-0.04 0.15-0.03 0.14-0.03 0.15-0.01 0.14-0.01 0.15v0.14l0.01 0.14 0.02 0.13 0.04 0.14 0.04 0.13 0.05 0.12 0.07 0.13 0.08 0.12 0.09 0.12 0.1 0.12 0.13 0.11 0.13 0.1 0.15 0.11 0.17 0.1 0.19 0.09 0.2 0.09 0.19 0.07 0.19 0.06 0.18 0.05 0.17 0.03 0.17 0.02 0.15 0.01 0.16-0.01 0.15-0.01 0.14-0.03 0.13-0.04 0.14-0.05 0.12-0.05 0.12-0.07 0.12-0.07 0.11-0.09 0.11-0.09 0.1-0.1 0.1-0.1 0.09-0.12 0.09-0.11 0.09-0.13 0.08-0.12 0.09-0.14 0.07-0.13 0.08-0.15 0.07-0.14 0.07-0.15 0.07-0.15 0.07-0.15 0.07-0.15 0.06-0.15 0.06-0.16 0.06-0.15 0.06-0.15 0.06-0.15 0.06-0.16 0.06-0.14 0.06-0.15 0.06-0.14 0.06-0.15 0.13-0.32 0.13-0.32 0.14-0.32 0.13-0.32 0.13-0.32 0.13-0.33 0.13-0.32 0.13-0.32 0.13-0.32 0.13-0.33 0.13-0.32 0.13-0.32 0.13-0.33 0.13-0.32 0.12-0.33 0.13-0.32 0.13-0.32 0.13-0.33 0.13-0.32 0.13-0.32 0.13-0.33 0.13-0.32 0.13-0.32 0.13-0.32 0.13-0.33 0.13-0.32 0.14-0.32 0.13-0.32 0.13-0.32 0.14-0.32 0.14-0.32 0.14-0.32 0.14-0.32 0.14-0.31 0.14-0.32 0.14-0.32 0.15-0.31 0.15-0.32 0.15-0.31 0.15-0.31 0.09-0.19 0.09-0.18 0.1-0.19 0.09-0.18 0.1-0.19 0.1-0.18 0.11-0.18 0.1-0.18 0.11-0.18 0.11-0.18 0.11-0.18 0.11-0.18 0.11-0.17 0.11-0.18 0.12-0.17 0.12-0.18 0.11-0.17 0.12-0.18 0.12-0.17 0.13-0.17 0.12-0.17 0.12-0.17 0.13-0.17 0.12-0.17 0.13-0.17 0.13-0.17 0.13-0.17 0.13-0.16 0.13-0.17 0.13-0.17 0.13-0.16 0.13-0.17 0.13-0.16 0.14-0.16 0.13-0.16 0.14-0.17 0.13-0.16 0.13-0.16 0.14-0.16 0.13-0.16 0.07-0.08 0.07-0.07 0.07-0.07 0.08-0.07 0.07-0.07 0.08-0.07 0.08-0.07 0.09-0.06 0.08-0.07 0.09-0.06 0.08-0.06 0.09-0.06 0.09-0.06 0.09-0.05 0.1-0.06 0.09-0.05 0.1-0.06 0.09-0.05 0.1-0.05 0.1-0.05 0.1-0.06 0.09-0.05 0.1-0.05 0.1-0.05 0.1-0.05 0.1-0.05 0.1-0.04 0.1-0.05 0.1-0.05 0.1-0.05 0.1-0.05 0.1-0.05 0.1-0.05 0.1-0.05 0.1-0.05 0.1-0.06 0.1-0.05 0.09-0.05 0.1-0.06 0.09-0.05 0.75 0.9-0.13 0.17-0.13 0.17-0.14 0.17-0.13 0.17-0.13 0.17-0.14 0.17-0.13 0.16-0.14 0.17-0.13 0.17-0.14 0.17-0.13 0.17-0.14 0.16-0.14 0.17-0.13 0.17-0.14 0.17-0.13 0.16-0.14 0.17-0.13 0.17-0.14 0.17-0.13 0.17-0.13 0.17-0.13 0.17-0.14 0.17-0.13 0.17-0.13 0.17-0.12 0.17-0.13 0.17-0.13 0.18-0.12 0.17-0.13 0.17-0.12 0.18-0.12 0.18-0.12 0.17-0.12 0.18-0.11 0.18-0.12 0.18-0.11 0.18-0.11 0.18-0.11 0.18-0.11 0.19-0.06 0.11-0.06 0.12-0.06 0.12-0.05 0.12-0.05 0.12-0.05 0.12-0.05 0.12-0.04 0.13-0.04 0.13-0.04 0.12-0.03 0.13-0.04 0.13-0.03 0.13-0.03 0.14-0.03 0.13-0.03 0.13-0.03 0.14-0.02 0.14-0.02 0.13-0.03 0.14-0.02 0.14-0.02 0.14-0.02 0.13-0.02 0.14-0.02 0.14-0.02 0.14-0.02 0.14-0.02 0.14-0.01 0.14-0.02 0.14-0.02 0.14-0.02 0.14-0.02 0.13-0.02 0.14-0.03 0.14-0.02 0.14-0.02 0.13-0.03 0.14-0.02 0.14-0.03 0.13 0.15 0.02 0.14 0.02 0.15 0.02 0.15 0.02 0.15 0.02 0.15 0.03 0.15 0.02 0.15 0.03 0.15 0.03 0.15 0.03 0.15 0.03 0.15 0.03 0.15 0.02 0.15 0.03 0.15 0.03 0.15 0.03 0.15 0.03 0.15 0.03 0.15 0.02 0.15 0.03 0.15 0.02 0.15 0.02 0.14 0.02 0.15 0.02 0.15 0.01 0.14 0.02 0.15 0.01 0.14 0.01h0.14 0.15 0.14 0.14l0.13-0.01 0.14-0.01 0.14-0.02 0.13-0.02 0.13-0.02 0.14-0.03 0.13-0.04 0.12-0.04 0.18-0.06 0.17-0.06 0.17-0.07 0.18-0.07 0.17-0.07 0.17-0.08 0.16-0.08 0.17-0.08 0.17-0.09 0.17-0.09 0.16-0.09 0.17-0.09 0.16-0.1 0.17-0.1 0.17-0.1 0.16-0.1 0.17-0.11 0.16-0.11 0.17-0.11 0.16-0.11 0.17-0.11 0.17-0.11 0.16-0.12 0.17-0.12 0.17-0.11 0.17-0.12 0.17-0.12 0.17-0.12 0.18-0.13 0.17-0.12 0.17-0.12 0.18-0.12 0.18-0.12 0.18-0.13 0.18-0.12 0.18-0.12 0.18-0.13 0.19-0.12 0.19-0.12 0.19-0.12-0.06 0.52-0.06 0.52-0.06 0.52-0.05 0.52-0.06 0.52-0.06 0.52-0.05 0.51-0.06 0.52-0.06 0.52-0.05 0.51-0.06 0.51-0.06 0.51-0.05 0.52-0.06 0.51-0.05 0.51-0.06 0.51-0.06 0.51-0.05 0.5-0.06 0.51-0.05 0.51-0.06 0.51-0.06 0.5-0.05 0.51-0.06 0.5-0.05 0.51-0.06 0.5-0.05 0.51-0.06 0.5-0.06 0.5-0.05 0.51-0.06 0.5-0.05 0.5-0.06 0.51-0.06 0.5-0.05 0.5-0.06 0.5-0.05 0.5-0.06 0.51-0.06 0.5-0.05 0.5-0.03 0.25-0.03 0.26-0.03 0.25-0.03 0.26-0.03 0.25-0.03 0.26-0.04 0.25-0.03 0.26-0.03 0.25-0.03 0.25-0.04 0.26-0.03 0.25-0.03 0.26-0.04 0.25-0.03 0.26-0.03 0.25-0.04 0.26-0.03 0.25-0.03 0.25-0.03 0.26-0.04 0.25-0.03 0.26-0.03 0.25-0.03 0.26-0.03 0.25-0.03 0.26-0.03 0.25-0.03 0.25-0.03 0.26-0.03 0.25-0.03 0.26-0.02 0.25-0.03 0.26-0.02 0.25-0.03 0.26-0.02 0.25-0.02 0.26-0.02 0.25-0.02 0.26-0.02 0.25-0.03 0.28-0.02 0.27-0.03 0.27-0.04 0.26-0.04 0.25-0.05 0.25-0.05 0.25-0.06 0.24-0.06 0.24-0.07 0.23-0.08 0.23-0.08 0.23-0.08 0.21-0.09 0.22-0.1 0.21-0.1 0.2-0.11 0.2-0.12 0.19-0.12 0.19-0.13 0.18-0.14 0.18-0.14 0.18-0.15 0.16-0.15 0.17-0.16 0.16-0.17 0.15-0.18 0.15-0.18 0.14-0.2 0.14-0.19 0.13-0.21 0.13-0.21 0.12-0.23 0.12-0.23 0.11-0.23 0.1-0.25 0.1-0.25 0.1-0.26 0.09-0.27 0.08-0.28 0.08-0.76 0.2-0.76 0.19-0.76 0.19-0.76 0.18-0.76 0.18-0.77 0.16-0.76 0.17-0.76 0.15-0.77 0.15-0.76 0.14-0.77 0.13-0.76 0.13-0.77 0.12-0.77 0.12-0.77 0.1-0.76 0.11-0.77 0.09-0.77 0.09-0.77 0.08-0.77 0.08-0.78 0.07-0.77 0.06-0.77 0.05-0.77 0.05-0.78 0.05-0.77 0.03-0.77 0.03-0.78 0.03-0.77 0.01-0.78 0.01-0.78 0.01-0.77-0.01h-0.78l-0.78-0.02-0.78-0.02-0.77-0.03-0.78-0.04-0.78-0.04-0.78-0.05-0.78-0.05-0.53-0.04-0.53-0.04-0.52-0.04-0.53-0.04-0.53-0.05-0.53-0.05-0.52-0.04-0.53-0.05-0.53-0.05-0.53-0.05-0.53-0.06-0.52-0.05-0.53-0.06-0.53-0.05-0.53-0.06-0.52-0.06-0.53-0.06-0.53-0.06-0.52-0.07-0.53-0.07-0.52-0.06-0.53-0.07-0.53-0.07-0.52-0.07-0.53-0.08-0.52-0.07-0.53-0.08-0.52-0.08-0.52-0.08-0.53-0.08-0.52-0.08-0.52-0.09-0.53-0.09-0.52-0.08-0.52-0.09-0.52-0.1-0.52-0.09-0.52-0.1-0.52-0.09-0.52-0.1-0.44-0.09-0.41-0.09-0.4-0.09-0.39-0.09-0.36-0.1-0.35-0.1-0.34-0.1-0.31-0.11-0.31-0.11-0.28-0.12-0.28-0.12-0.26-0.13-0.24-0.14-0.24-0.14-0.22-0.15-0.21-0.15-0.19-0.17-0.19-0.17-0.17-0.18-0.17-0.18-0.15-0.2-0.15-0.21-0.13-0.22-0.13-0.22-0.12-0.24-0.11-0.25-0.1-0.26-0.1-0.27-0.08-0.29-0.09-0.29-0.08-0.31-0.07-0.33-0.06-0.33-0.07-0.36-0.05-0.36-0.06-0.38-0.05-0.4-0.05-0.41-0.05-0.42-0.04-0.45-0.06-0.59-0.05-0.59-0.06-0.59-0.06-0.59-0.05-0.6-0.05-0.59-0.06-0.59-0.05-0.59-0.06-0.58-0.05-0.59-0.05-0.59-0.05-0.59-0.06-0.58-0.05-0.59-0.05-0.58-0.05-0.58-0.05-0.59-0.05-0.57-0.05-0.58-0.05-0.58-0.05-0.58-0.05-0.57-0.05-0.57-0.05-0.57-0.05-0.57-0.05-0.57-0.04-0.56-0.05-0.56-0.05-0.56-0.05-0.56-0.05-0.55-0.04-0.56-0.05-0.55-0.05-0.54-0.04-0.55-0.05-0.54-0.05-0.54-0.04-0.53-0.05-0.54-0.05-0.53 11.03-5.07-0.03 0.14-0.04 0.14-0.03 0.14-0.04 0.15-0.04 0.14-0.04 0.15-0.04 0.14-0.03 0.15-0.04 0.14-0.04 0.15-0.04 0.15-0.04 0.14-0.04 0.15-0.04 0.15-0.04 0.15-0.04 0.14-0.04 0.15-0.04 0.15-0.04 0.15-0.04 0.15-0.04 0.15-0.03 0.15-0.04 0.15-0.04 0.15-0.03 0.16-0.04 0.15-0.03 0.15-0.04 0.15-0.03 0.15-0.03 0.16-0.04 0.15-0.03 0.15-0.02 0.16-0.03 0.15-0.03 0.15-0.02 0.16-0.03 0.15-0.02 0.16-0.02 0.15-0.02 0.16-0.01 0.07v0.07l-0.01 0.06 0.01 0.07v0.07l0.01 0.08 0.01 0.07 0.01 0.07 0.01 0.07 0.02 0.07 0.02 0.07 0.02 0.07 0.02 0.07 0.02 0.08 0.02 0.07 0.03 0.07 0.03 0.08 0.03 0.07 0.03 0.07 0.03 0.07 0.03 0.08 0.03 0.07 0.03 0.08 0.04 0.07 0.03 0.07 0.03 0.08 0.04 0.07 0.03 0.07 0.04 0.08 0.03 0.07 0.03 0.07 0.04 0.08 0.03 0.07 0.03 0.08 0.03 0.07 0.03 0.07 0.03 0.08 0.03 0.07 0.03 0.07 0.03 0.07 0.06-0.04 0.07-0.04 0.06-0.03 0.07-0.04 0.07-0.04 0.07-0.04 0.08-0.04 0.07-0.03 0.07-0.04 0.08-0.04 0.07-0.03 0.08-0.04 0.07-0.04 0.08-0.03 0.08-0.04 0.07-0.04 0.07-0.03 0.08-0.04 0.07-0.04 0.07-0.03 0.07-0.04 0.07-0.04 0.07-0.04 0.07-0.04 0.06-0.04 0.06-0.04 0.06-0.04 0.06-0.04 0.06-0.04 0.05-0.05 0.05-0.04 0.05-0.05 0.05-0.04 0.04-0.05 0.04-0.05 0.03-0.05 0.04-0.05 0.03-0.05 0.02-0.06 0.02-0.05 0.18-0.55 0.19-0.54 0.18-0.55 0.18-0.55 0.18-0.54 0.18-0.55 0.18-0.55 0.18-0.54 0.18-0.55 0.18-0.55 0.18-0.55 0.17-0.55 0.18-0.54 0.18-0.55 0.17-0.55 0.18-0.55 0.17-0.55 0.18-0.55 0.17-0.55 0.18-0.55 0.17-0.55 0.17-0.55 0.17-0.55 0.18-0.55 0.17-0.55 0.17-0.55 0.17-0.55 0.16-0.55 0.17-0.55 0.17-0.55 0.17-0.55 0.16-0.55 0.17-0.55 0.16-0.56 0.17-0.55 0.16-0.55 0.17-0.55 0.16-0.56 0.16-0.55 0.16-0.55 0.02-0.06 0.01-0.06v-0.07-0.06-0.07l-0.01-0.06-0.01-0.07-0.02-0.07-0.01-0.07-0.03-0.07-0.02-0.07-0.03-0.08-0.03-0.07-0.03-0.07-0.04-0.08-0.04-0.07-0.04-0.08-0.04-0.08-0.05-0.07-0.04-0.08-0.05-0.08-0.05-0.08-0.05-0.08-0.05-0.08-0.05-0.08-0.05-0.07-0.05-0.08-0.05-0.08-0.05-0.08-0.05-0.08-0.05-0.08-0.05-0.08-0.05-0.08-0.05-0.08-0.05-0.08-0.04-0.07-0.05-0.08-0.04-0.08-0.04-0.07-0.04-0.08-0.07 0.07-0.08 0.06-0.08 0.06-0.09 0.06-0.08 0.07-0.09 0.06-0.09 0.06-0.08 0.06-0.09 0.06-0.09 0.06-0.09 0.06-0.09 0.06-0.09 0.06-0.1 0.06-0.09 0.06-0.09 0.06-0.08 0.06-0.09 0.06-0.09 0.07-0.09 0.06-0.08 0.06-0.09 0.06-0.08 0.06-0.08 0.07-0.08 0.06-0.07 0.07-0.07 0.06-0.07 0.07-0.07 0.06-0.07 0.07-0.06 0.07-0.06 0.07-0.05 0.07-0.05 0.07-0.05 0.07-0.04 0.08-0.04 0.07-0.04 0.08-0.03 0.07-0.02 0.08-0.11 0.37-0.11 0.36-0.11 0.36-0.12 0.36-0.12 0.35-0.13 0.35-0.13 0.35-0.14 0.34-0.14 0.34-0.15 0.34-0.15 0.34-0.15 0.33-0.16 0.32-0.16 0.33-0.17 0.32-0.18 0.32-0.18 0.31-0.18 0.31-0.19 0.31-0.19 0.3-0.2 0.3-0.2 0.3-0.21 0.29-0.21 0.29-0.22 0.29-0.23 0.28-0.23 0.28-0.23 0.27-0.24 0.27-0.25 0.27-0.25 0.26-0.25 0.26-0.26 0.26-0.27 0.25-0.27 0.25-0.28 0.24-0.28 0.24-0.29 0.24-0.3 0.23-0.3 0.23-0.09 0.07-0.1 0.06-0.1 0.06-0.1 0.07-0.1 0.05-0.1 0.06-0.11 0.05-0.1 0.06-0.11 0.04-0.11 0.05-0.11 0.05-0.11 0.04-0.12 0.05-0.11 0.04-0.12 0.04-0.11 0.04-0.12 0.04-0.12 0.03-0.11 0.04-0.12 0.03-0.12 0.04-0.12 0.03-0.12 0.03-0.12 0.04-0.13 0.03-0.12 0.03-0.12 0.03-0.12 0.03-0.12 0.04-0.12 0.03-0.12 0.03-0.12 0.03-0.12 0.04-0.12 0.03-0.12 0.03-0.12 0.04-0.12 0.04-0.12 0.03-0.12 0.04-0.11 0.04-0.03-0.12-0.03-0.12-0.04-0.12-0.03-0.12-0.04-0.12-0.04-0.12-0.04-0.12-0.04-0.12-0.04-0.12-0.04-0.12-0.04-0.12-0.04-0.12-0.04-0.12-0.05-0.12-0.04-0.12-0.04-0.12-0.04-0.12-0.04-0.12-0.04-0.12-0.04-0.12-0.04-0.12-0.03-0.12-0.04-0.12-0.03-0.12-0.03-0.12-0.03-0.12-0.02-0.12-0.03-0.11-0.02-0.12-0.02-0.12-0.02-0.11-0.01-0.12-0.01-0.12-0.01-0.11v-0.12-0.11-0.11l0.01-0.12 0.01-0.11 0.01-0.11 0.1-0.57 0.1-0.57 0.11-0.57 0.11-0.57 0.13-0.56 0.13-0.55 0.14-0.56 0.15-0.55 0.15-0.54 0.17-0.55 0.17-0.54 0.17-0.53 0.19-0.53 0.19-0.53 0.21-0.52 0.21-0.53 0.22-0.51 0.22-0.51 0.24-0.51 0.24-0.51 0.25-0.5 0.26-0.49 0.27-0.49 0.28-0.49 0.28-0.48 0.29-0.48 0.31-0.47 0.31-0.47 0.32-0.47 0.32-0.46 0.34-0.45 0.35-0.45 0.35-0.45 0.37-0.44 0.37-0.44 0.38-0.43 0.39-0.42 0.4-0.43 0.41-0.41 0.42-0.41 0.22-0.22 0.22-0.2 0.21-0.18 0.21-0.18 0.21-0.16 0.2-0.15 0.2-0.14 0.19-0.13 0.19-0.11 0.19-0.11 0.19-0.09 0.18-0.07 0.18-0.07 0.18-0.05 0.17-0.05 0.18-0.03 0.17-0.01 0.17-0.01 0.17 0.01 0.17 0.01 0.17 0.03 0.17 0.04 0.17 0.06 0.17 0.06 0.17 0.08 0.17 0.09 0.17 0.1 0.17 0.11 0.18 0.12 0.17 0.13 0.18 0.15 0.18 0.16 0.18 0.17 0.18 0.18 0.19 0.19 0.18 0.2 0.2 0.21 0.19 0.23 0.2 0.24 0.2 0.24 0.05 0.06 0.06 0.06 0.05 0.05 0.05 0.06 0.06 0.05 0.06 0.05 0.06 0.05 0.07 0.05 0.06 0.04 0.07 0.05 0.07 0.04 0.07 0.04 0.07 0.04 0.07 0.04 0.07 0.04 0.08 0.04 0.07 0.04 0.08 0.04 0.08 0.03 0.07 0.04 0.08 0.03 0.08 0.04 0.08 0.03 0.08 0.04 0.08 0.03 0.08 0.03 0.08 0.04 0.08 0.03 0.08 0.03 0.08 0.04 0.08 0.03 0.08 0.04 0.08 0.03 0.08 0.03 0.08 0.04 0.08 0.04 0.07 0.03 0.08 0.04 0.08 0.04 0.07 0.04 0.02-0.1 0.03-0.1 0.02-0.1 0.03-0.1 0.03-0.1 0.03-0.1 0.03-0.1 0.04-0.11 0.03-0.1 0.03-0.1 0.04-0.1 0.03-0.1 0.04-0.11 0.03-0.1 0.04-0.1 0.03-0.1 0.03-0.1 0.04-0.11 0.03-0.1 0.03-0.1 0.03-0.1 0.03-0.1 0.03-0.1 0.02-0.1 0.02-0.1 0.02-0.09 0.02-0.1 0.02-0.1 0.01-0.09 0.02-0.1v-0.09l0.01-0.1v-0.09-0.09-0.09l-0.01-0.09-0.01-0.08-0.02-0.09-0.02-0.09-0.02-0.08-0.11-0.3-0.12-0.3-0.13-0.29-0.15-0.28-0.16-0.28-0.17-0.26-0.18-0.26-0.2-0.25-0.21-0.24-0.21-0.22-0.23-0.22-0.24-0.21-0.24-0.2-0.26-0.19-0.26-0.18-0.27-0.17-0.28-0.15-0.28-0.15-0.29-0.13-0.29-0.12-0.3-0.11-0.31-0.1-0.31-0.09-0.31-0.07-0.32-0.06-0.31-0.04-0.32-0.03-0.33-0.02-0.32-0.01-0.32 0.01-0.33 0.03-0.32 0.04-0.33 0.05-0.32 0.07-0.32 0.08-0.32 0.11-0.31 0.11-0.31 0.13-0.31 0.15-0.3 0.17-0.24 0.13-0.22 0.14-0.23 0.14-0.23 0.15-0.23 0.14-0.22 0.15-0.23 0.15-0.22 0.16-0.22 0.15-0.22 0.16-0.22 0.16-0.22 0.17-0.22 0.16-0.21 0.17-0.22 0.17-0.21 0.17-0.21 0.18-0.21 0.18-0.21 0.17-0.21 0.19-0.2 0.18-0.21 0.18-0.2 0.19-0.2 0.19-0.2 0.19-0.2 0.19-0.19 0.19-0.19 0.2-0.2 0.19-0.19 0.2-0.18 0.2-0.19 0.2-0.18 0.2-0.19 0.2-0.18 0.2-0.17 0.21-0.18 0.2-0.17 0.21-0.18 0.21-0.17 0.21-0.18 0.22-0.17 0.23-0.18 0.23-0.17 0.23-0.17 0.24-0.16 0.23-0.17 0.24-0.16 0.24-0.16 0.25-0.16 0.24-0.15 0.25-0.16 0.25-0.15 0.25-0.15 0.25-0.15 0.26-0.15 0.25-0.15 0.26-0.15 0.26-0.15 0.26-0.14 0.27-0.15 0.26-0.15 0.27-0.14 0.26-0.15 0.27-0.14 0.27-0.15 0.28-0.15 0.27-0.15 0.27-0.14 0.28-0.15 0.27-0.15 0.28-0.15 0.28-0.16 0.28-0.15 0.28-0.16 0.28-0.15 0.28-0.16 0.29-0.16 0.28-0.16 0.28-0.17 0.29-0.1-1.07-0.1-1.07-0.1-1.07-0.1-1.07-0.11-1.07-0.1-1.07-0.3-3.19-0.1-1.06-0.1-1.07-0.1-1.06-0.1-1.06-0.1-1.06-0.1-1.06-0.1-1.06-0.1-1.05-0.1-1.06-0.1-1.06-0.1-1.05-0.11-1.06-0.1-1.06-0.1-1.05-0.1-1.06-0.1-1.05-0.1-1.06-0.1-1.05-0.1-1.05-0.1-1.06-0.1-1.05-0.1-1.05-0.1-1.06-0.1-1.05-0.1-1.06-0.1-1.05-0.1-1.05-0.1-1.06-0.1-1.05-0.1-1.06-0.1-1.05 2.07 0.5 2.06 0.48z"/>
</defs>
<use fill="#000000" fill-opacity="0" xlink:href="#b"/>
<use fill-opacity="0" stroke="#00c7fc" xlink:href="#b"/>
<use fill="#ffffff" xlink:href="#a"/>
<use fill-opacity="0" stroke="#000000" stroke-opacity="0" xlink:href="#a"/>
</svg>
