<?xml version="1.0" encoding="UTF-8" standalone="no"?>
<!DOCTYPE svg PUBLIC "-//W3C//DTD SVG 1.1//EN" "http://www.w3.org/Graphics/SVG/1.1/DTD/svg11.dtd">
<svg version="1.1" xmlns="http://www.w3.org/2000/svg" xmlns:xlink="http://www.w3.org/1999/xlink" preserveAspectRatio="xMidYMid meet" viewBox="0 0 195 201" width="195" height="201"><defs><path d="M97.5 201L192.67 151.21L192.67 51.64L97.5 1.86L2.33 51.64L2.33 151.21L97.5 201Z" id="b7mps6j0y"></path><path d="M449.75 9.08L544.92 -40.71L544.92 -140.28L449.75 -190.06L354.58 -140.28L354.58 -40.71L449.75 9.08Z" id="buQONLojg"></path><path d="M268.98 241.48L269.97 241.68L270.94 241.94L271.87 242.27L272.77 242.67L273.64 243.13L274.46 243.66L275.24 244.24L275.97 244.87L276.66 245.55L277.29 246.29L277.87 247.07L278.39 247.89L278.86 248.75L279.26 249.65L279.59 250.59L279.85 251.55L280.04 252.55L280.16 253.56L280.2 254.61L280.18 255.4L280.11 256.18L279.99 256.95L279.83 257.7L279.63 258.44L279.39 259.16L279.11 259.86L278.78 260.54L278.43 261.2L278.03 261.84L277.6 262.45L277.14 263.03L276.65 263.59L276.12 264.12L275.57 264.62L274.99 265.09L274.38 265.53L273.75 265.93L273.1 266.3L272.42 266.63L271.72 266.93L271.72 276.85L271.71 277.23L271.66 277.61L271.59 277.98L271.49 278.34L271.36 278.68L271.21 279.02L271.04 279.34L270.84 279.65L270.63 279.94L270.39 280.21L270.13 280.47L269.86 280.71L269.56 280.93L269.26 281.12L268.93 281.3L268.6 281.45L268.25 281.57L267.89 281.67L267.52 281.75L267.15 281.79L266.76 281.81L266.38 281.79L266 281.75L265.63 281.67L265.27 281.57L264.92 281.45L264.59 281.3L264.27 281.12L263.96 280.93L263.67 280.71L263.39 280.47L263.14 280.21L262.9 279.94L262.68 279.65L262.48 279.34L262.31 279.02L262.16 278.68L262.03 278.34L261.93 277.98L261.86 277.61L261.82 277.23L261.8 276.85L261.8 266.93L261.12 266.63L260.47 266.3L259.83 265.93L259.21 265.53L258.62 265.09L258.06 264.62L257.52 264.12L257.01 263.59L256.52 263.03L256.07 262.45L255.66 261.84L255.27 261.2L254.93 260.54L254.62 259.86L254.35 259.16L254.12 258.44L253.93 257.7L253.79 256.95L253.69 256.18L253.64 255.4L253.64 254.61L253.68 253.56L253.8 252.55L253.99 251.55L254.25 250.59L254.59 249.65L254.99 248.75L255.45 247.89L255.97 247.07L256.55 246.29L257.18 245.55L257.87 244.87L258.6 244.24L259.38 243.66L260.21 243.13L261.07 242.67L261.97 242.27L262.9 241.94L263.87 241.68L264.86 241.48L265.88 241.37L266.92 241.33L267.96 241.37L268.98 241.48ZM264.07 248.26L262.9 248.89L261.88 249.73L261.05 250.74L260.42 251.91L260.02 253.21L259.88 254.61L260.02 256L260.42 257.3L261.05 258.47L261.88 259.49L262.9 260.32L264.07 260.95L265.36 261.35L266.76 261.49L268.16 261.35L269.46 260.95L270.63 260.32L271.64 259.49L272.48 258.47L273.11 257.3L273.5 256L273.64 254.61L273.5 253.21L273.11 251.91L272.48 250.74L271.64 249.73L270.63 248.89L269.46 248.26L268.16 247.86L266.76 247.73L265.36 247.86L264.07 248.26Z" id="b2gyunjYy"></path><path d="M158.4 130.68C148.23 148.89 130.21 160.06 104.5 160.55C92.48 160.78 81.03 157.94 73.56 154.86C57.41 148.19 43.84 135.83 36.42 122.62C25.78 103.68 23.87 77.34 45.98 57.66C46.32 57.66 43.3 61.93 43.64 61.93C43.58 62.11 43.09 63.56 43.03 63.75C27.1 109.62 76.2 148.93 123.93 144.43C135.4 143.35 150.02 137.57 159 129.26C158.88 129.54 158.46 130.54 158.4 130.68Z" id="bufZx8x0V"></path><path d="M134.22 86C113.61 89.9 100.41 81.21 93.5 71.32C92.47 69.84 90.57 65.8 90.23 64.78C87.55 56.67 88.78 44.4 96.78 38.05C94.37 44.09 94.02 51.1 95.29 55.66C96.06 58.42 98.4 63.23 100.74 66.26C105 71.77 107.7 73.11 113.18 76.03C115.65 77.35 118.29 78.41 119.43 78.7C124.63 80.06 135.59 83.64 153.26 72.95C151.21 77.12 139.42 85.01 134.22 86Z" id="a2Whfe3Br2"></path><path d="M156.29 100.49C149.73 116.91 130.76 127.46 105.32 124.1C84.02 121.29 63.72 100.13 61.63 78.93C60.1 63.49 65.55 54.28 74.53 43.11C71.41 48.96 70.25 53.46 69.95 56.34C66.54 89.72 96.97 113.66 124.04 113.84C136.15 113.92 148.8 108.33 156.29 100.49Z" id="h9wIzvYVL"></path><path d="" id="bjKGNJpth"></path></defs><g><g><g><use xlink:href="#b7mps6j0y" opacity="1" fill="#000000" fill-opacity="0"></use><g><use xlink:href="#b7mps6j0y" opacity="1" fill-opacity="0" stroke="#00c7fc" stroke-width="1" stroke-opacity="1"></use></g></g><g><use xlink:href="#buQONLojg" opacity="1" fill="#000000" fill-opacity="0"></use><g><use xlink:href="#buQONLojg" opacity="1" fill-opacity="0" stroke="#000000" stroke-width="1" stroke-opacity="0"></use></g></g><g><use xlink:href="#b2gyunjYy" opacity="1" fill="#ffffff" fill-opacity="0"></use><g><use xlink:href="#b2gyunjYy" opacity="1" fill-opacity="0" stroke="#000000" stroke-width="1" stroke-opacity="0"></use></g></g><g><use xlink:href="#bufZx8x0V" opacity="1" fill="#ffffff" fill-opacity="1"></use><g><use xlink:href="#bufZx8x0V" opacity="1" fill-opacity="0" stroke="#000000" stroke-width="1" stroke-opacity="0"></use></g></g><g><use xlink:href="#a2Whfe3Br2" opacity="1" fill="#ffffff" fill-opacity="1"></use><g><use xlink:href="#a2Whfe3Br2" opacity="1" fill-opacity="0" stroke="#000000" stroke-width="1" stroke-opacity="0"></use></g></g><g><use xlink:href="#h9wIzvYVL" opacity="1" fill="#ffffff" fill-opacity="1"></use><g><use xlink:href="#h9wIzvYVL" opacity="1" fill-opacity="0" stroke="#000000" stroke-width="1" stroke-opacity="0"></use></g></g><g><use xlink:href="#bjKGNJpth" opacity="1" fill="#000000" fill-opacity="1"></use><g><use xlink:href="#bjKGNJpth" opacity="1" fill-opacity="0" stroke="#000000" stroke-width="1" stroke-opacity="0"></use></g></g></g></g></svg>