<?xml version="1.0" encoding="UTF-8"?>
<!DOCTYPE svg  PUBLIC '-//W3C//DTD SVG 1.1//EN'  'http://www.w3.org/Graphics/SVG/1.1/DTD/svg11.dtd'>
<svg version="1.1" viewBox="0 0 195 201" xmlns="http://www.w3.org/2000/svg" xmlns:xlink="http://www.w3.org/1999/xlink">
<defs>
<path id="d" d="m97.5 201l95.17-49.79v-99.57l-95.17-49.78-95.17 49.78v99.57l95.17 49.79z"/>
<path id="c" d="m449.75 9.08l95.17-49.79v-99.57l-95.17-49.78-95.17 49.78v99.57l95.17 49.79z"/>
<path id="e" d="m268.98 241.48l0.99 0.2 0.97 0.26 0.93 0.33 0.9 0.4 0.87 0.46 0.82 0.53 0.78 0.58 0.73 0.63 0.69 0.68 0.63 0.74 0.58 0.78 0.52 0.82 0.47 0.86 0.4 0.9 0.33 0.94 0.26 0.96 0.19 1 0.12 1.01 0.04 1.05-0.02 0.79-0.07 0.78-0.12 0.77-0.16 0.75-0.2 0.74-0.24 0.72-0.28 0.7-0.33 0.68-0.35 0.66-0.4 0.64-0.43 0.61-0.46 0.58-0.49 0.56-0.53 0.53-0.55 0.5-0.58 0.47-0.61 0.44-0.63 0.4-0.65 0.37-0.68 0.33-0.7 0.3v9.92l-0.01 0.38-0.05 0.38-0.07 0.37-0.1 0.36-0.13 0.34-0.15 0.34-0.17 0.32-0.2 0.31-0.21 0.29-0.24 0.27-0.26 0.26-0.27 0.24-0.3 0.22-0.3 0.19-0.33 0.18-0.33 0.15-0.35 0.12-0.36 0.1-0.37 0.08-0.37 0.04-0.39 0.02-0.38-0.02-0.38-0.04-0.37-0.08-0.36-0.1-0.35-0.12-0.33-0.15-0.32-0.18-0.31-0.19-0.29-0.22-0.28-0.24-0.25-0.26-0.24-0.27-0.22-0.29-0.2-0.31-0.17-0.32-0.15-0.34-0.13-0.34-0.1-0.36-0.07-0.37-0.04-0.38-0.02-0.38v-9.92l-0.68-0.3-0.65-0.33-0.64-0.37-0.62-0.4-0.59-0.44-0.56-0.47-0.54-0.5-0.51-0.53-0.49-0.56-0.45-0.58-0.41-0.61-0.39-0.64-0.34-0.66-0.31-0.68-0.27-0.7-0.23-0.72-0.19-0.74-0.14-0.75-0.1-0.77-0.05-0.78v-0.79l0.04-1.05 0.12-1.01 0.19-1 0.26-0.96 0.34-0.94 0.4-0.9 0.46-0.86 0.52-0.82 0.58-0.78 0.63-0.74 0.69-0.68 0.73-0.63 0.78-0.58 0.83-0.53 0.86-0.46 0.9-0.4 0.93-0.33 0.97-0.26 0.99-0.2 1.02-0.11 1.04-0.04 1.04 0.04 1.02 0.11zm-4.91 6.78l-1.17 0.63-1.02 0.84-0.83 1.01-0.63 1.17-0.4 1.3-0.14 1.4 0.14 1.39 0.4 1.3 0.63 1.17 0.83 1.02 1.02 0.83 1.17 0.63 1.29 0.4 1.4 0.14 1.4-0.14 1.3-0.4 1.17-0.63 1.01-0.83 0.84-1.02 0.63-1.17 0.39-1.3 0.14-1.39-0.14-1.4-0.39-1.3-0.63-1.17-0.84-1.01-1.01-0.84-1.17-0.63-1.3-0.4-1.4-0.13-1.4 0.13-1.29 0.4z"/>
<path id="b" d="m158.4 130.68c-10.17 18.21-28.19 29.38-53.9 29.87-12.02 0.23-23.47-2.61-30.94-5.69-16.15-6.67-29.72-19.03-37.14-32.24-10.64-18.94-12.55-45.28 9.56-64.96 0.34 0-2.68 4.27-2.34 4.27-0.06 0.18-0.55 1.63-0.61 1.82-15.93 45.87 33.17 85.18 80.9 80.68 11.47-1.08 26.09-6.86 35.07-15.17-0.12 0.28-0.54 1.28-0.6 1.42z"/>
<path id="f" d="m134.22 86c-20.61 3.9-33.81-4.79-40.72-14.68-1.03-1.48-2.93-5.52-3.27-6.54-2.68-8.11-1.45-20.38 6.55-26.73-2.41 6.04-2.76 13.05-1.49 17.61 0.77 2.76 3.11 7.57 5.45 10.6 4.26 5.51 6.96 6.85 12.44 9.77 2.47 1.32 5.11 2.38 6.25 2.67 5.2 1.36 16.16 4.94 33.83-5.75-2.05 4.17-13.84 12.06-19.04 13.05z"/>
<path id="a" d="m156.29 100.49c-6.56 16.42-25.53 26.97-50.97 23.61-21.3-2.81-41.6-23.97-43.69-45.17-1.53-15.44 3.92-24.65 12.9-35.82-3.12 5.85-4.28 10.35-4.58 13.23-3.41 33.38 27.02 57.32 54.09 57.5 12.11 0.08 24.76-5.51 32.25-13.35z"/>
</defs>
<use fill="#000000" fill-opacity="0" xlink:href="#d"/>
<use fill-opacity="0" stroke="#00c7fc" xlink:href="#d"/>
<use fill="#000000" fill-opacity="0" xlink:href="#c"/>
<use fill-opacity="0" stroke="#000000" stroke-opacity="0" xlink:href="#c"/>
<use fill="#ffffff" fill-opacity="0" xlink:href="#e"/>
<use fill-opacity="0" stroke="#000000" stroke-opacity="0" xlink:href="#e"/>
<use fill="#ffffff" xlink:href="#b"/>
<use fill-opacity="0" stroke="#000000" stroke-opacity="0" xlink:href="#b"/>
<use fill="#ffffff" xlink:href="#f"/>
<use fill-opacity="0" stroke="#000000" stroke-opacity="0" xlink:href="#f"/>
<use fill="#ffffff" xlink:href="#a"/>
<use fill-opacity="0" stroke="#000000" stroke-opacity="0" xlink:href="#a"/>
<use fill="#000000" xlink:href="#bjKGNJpth"/>
<use fill-opacity="0" stroke="#000000" stroke-opacity="0" xlink:href="#bjKGNJpth"/>
</svg>
