<?xml version="1.0" encoding="UTF-8"?>
<!DOCTYPE svg  PUBLIC '-//W3C//DTD SVG 1.1//EN'  'http://www.w3.org/Graphics/SVG/1.1/DTD/svg11.dtd'>
<svg version="1.1" viewBox="0 0 195 202" xmlns="http://www.w3.org/2000/svg" xmlns:xlink="http://www.w3.org/1999/xlink">
<defs>
<path id="b" d="m192.67 151.21v-99.57l-95.17-49.78-95.17 49.78v99.57l95.17 49.79 95.17-49.79z"/>
<path id="d" d="m192.67 151.21v-99.57l-95.17-49.78-95.17 49.78v99.57l95.17 49.79 95.17-49.79z"/>
<path id="a" d="m121.62 139.32c-13.3 0-24.12-10.82-24.12-24.12 0-1.48 1.2-2.68 2.68-2.68s2.68 1.2 2.68 2.68c0 10.34 8.42 18.76 18.76 18.76s18.76-8.42 18.76-18.76c0-10.35-8.42-18.76-18.76-18.76-13.3 0-24.12-10.82-24.12-24.12s10.82-24.12 24.12-24.12 24.12 10.82 24.12 24.12c0 1.48-1.2 2.68-2.68 2.68s-2.68-1.2-2.68-2.68c0-10.35-8.42-18.76-18.76-18.76s-18.76 8.41-18.76 18.76c0 10.34 8.42 18.76 18.76 18.76 13.3 0 24.12 10.82 24.12 24.12s-10.82 24.12-24.12 24.12"/>
<path id="c" d="m57.84 140.33c-13.3 0-24.12-10.82-24.12-24.12 0-1.48 1.2-2.68 2.68-2.68s2.68 1.2 2.68 2.68c0 10.34 8.42 18.76 18.76 18.76s18.76-8.42 18.76-18.76v-64.32c0-1.48 1.2-2.68 2.68-2.68s2.68 1.2 2.68 2.68v64.32c0 13.3-10.82 24.12-24.12 24.12"/>
</defs>
<use fill="#000000" fill-opacity="0" xlink:href="#b"/>
<use fill-opacity="0" stroke="#000000" stroke-opacity="0" xlink:href="#b"/>
<use fill="#000000" fill-opacity="0" xlink:href="#d"/>
<use fill-opacity="0" stroke="#00c7fc" xlink:href="#d"/>
<use fill="#000000" xlink:href="#a"/>
<use fill-opacity="0" stroke="#000000" stroke-opacity="0" xlink:href="#a"/>
<use fill="#000000" xlink:href="#c"/>
<use fill-opacity="0" stroke="#000000" stroke-opacity="0" xlink:href="#c"/>
</svg>
