<?xml version="1.0" encoding="UTF-8"?>
<!DOCTYPE svg  PUBLIC '-//W3C//DTD SVG 1.1//EN'  'http://www.w3.org/Graphics/SVG/1.1/DTD/svg11.dtd'>
<svg version="1.1" viewBox="0 0 195 200" xmlns="http://www.w3.org/2000/svg" xmlns:xlink="http://www.w3.org/1999/xlink">
<defs>
<path id="n" d="m273.63 476.04v13.61h-24.12v-13.61h24.12z"/>
<path id="h" d="m193.4 151.21v-99.57l-95.17-49.78-95.17 49.78v99.57l95.17 49.79 95.17-49.79z"/>
<path id="j" d="m193.4 151.21v-99.57l-95.17-49.78-95.17 49.78v99.57l95.17 49.79 95.17-49.79z"/>
<path id="a" d="m192.67 151.21v-99.57l-95.17-49.78-95.17 49.78v99.57l95.17 49.79 95.17-49.79z"/>
<path id="l" d="m192.67 150.21v-99.57l-95.17-49.78-95.17 49.78v99.57l95.17 49.79 95.17-49.79z"/>
<path id="f" d="m268.98 241.48l0.99 0.2 0.97 0.26 0.93 0.33 0.9 0.4 0.87 0.46 0.82 0.53 0.78 0.58 0.73 0.63 0.69 0.68 0.63 0.74 0.58 0.78 0.52 0.82 0.47 0.86 0.4 0.9 0.33 0.94 0.26 0.96 0.19 1 0.12 1.01 0.04 1.05-0.02 0.79-0.07 0.78-0.12 0.77-0.16 0.75-0.2 0.74-0.24 0.72-0.28 0.7-0.33 0.68-0.35 0.66-0.4 0.64-0.43 0.61-0.46 0.58-0.49 0.56-0.53 0.53-0.55 0.5-0.58 0.47-0.61 0.44-0.63 0.4-0.65 0.37-0.68 0.33-0.7 0.3v9.92l-0.01 0.38-0.05 0.38-0.07 0.37-0.1 0.36-0.13 0.34-0.15 0.34-0.17 0.32-0.2 0.31-0.21 0.29-0.24 0.27-0.26 0.26-0.27 0.24-0.3 0.22-0.3 0.19-0.33 0.18-0.33 0.15-0.35 0.12-0.36 0.1-0.37 0.08-0.37 0.04-0.39 0.02-0.38-0.02-0.38-0.04-0.37-0.08-0.36-0.1-0.35-0.12-0.33-0.15-0.32-0.18-0.31-0.19-0.29-0.22-0.28-0.24-0.25-0.26-0.24-0.27-0.22-0.29-0.2-0.31-0.17-0.32-0.15-0.34-0.13-0.34-0.1-0.36-0.07-0.37-0.04-0.38-0.02-0.38v-9.92l-0.68-0.3-0.65-0.33-0.64-0.37-0.62-0.4-0.59-0.44-0.56-0.47-0.54-0.5-0.51-0.53-0.49-0.56-0.45-0.58-0.41-0.61-0.39-0.64-0.34-0.66-0.31-0.68-0.27-0.7-0.23-0.72-0.19-0.74-0.14-0.75-0.1-0.77-0.05-0.78v-0.79l0.04-1.05 0.12-1.01 0.19-1 0.26-0.96 0.34-0.94 0.4-0.9 0.46-0.86 0.52-0.82 0.58-0.78 0.63-0.74 0.69-0.68 0.73-0.63 0.78-0.58 0.83-0.53 0.86-0.46 0.9-0.4 0.93-0.33 0.97-0.26 0.99-0.2 1.02-0.11 1.04-0.04 1.04 0.04 1.02 0.11zm-4.91 6.78l-1.17 0.63-1.02 0.84-0.83 1.01-0.63 1.17-0.4 1.3-0.14 1.4 0.14 1.39 0.4 1.3 0.63 1.17 0.83 1.02 1.02 0.83 1.17 0.63 1.29 0.4 1.4 0.14 1.4-0.14 1.3-0.4 1.17-0.63 1.01-0.83 0.84-1.02 0.63-1.17 0.39-1.3 0.14-1.39-0.14-1.4-0.39-1.3-0.63-1.17-0.84-1.01-1.01-0.84-1.17-0.63-1.3-0.4-1.4-0.13-1.4 0.13-1.29 0.4z"/>
<path id="m" d="m268.98 241.48l0.99 0.2 0.97 0.26 0.93 0.33 0.9 0.4 0.87 0.46 0.82 0.53 0.78 0.58 0.73 0.63 0.69 0.68 0.63 0.74 0.58 0.78 0.52 0.82 0.47 0.86 0.4 0.9 0.33 0.94 0.26 0.96 0.19 1 0.12 1.01 0.04 1.05-0.02 0.79-0.07 0.78-0.12 0.77-0.16 0.75-0.2 0.74-0.24 0.72-0.28 0.7-0.33 0.68-0.35 0.66-0.4 0.64-0.43 0.61-0.46 0.58-0.49 0.56-0.53 0.53-0.55 0.5-0.58 0.47-0.61 0.44-0.63 0.4-0.65 0.37-0.68 0.33-0.7 0.3v9.92l-0.01 0.38-0.05 0.38-0.07 0.37-0.1 0.36-0.13 0.34-0.15 0.34-0.17 0.32-0.2 0.31-0.21 0.29-0.24 0.27-0.26 0.26-0.27 0.24-0.3 0.22-0.3 0.19-0.33 0.18-0.33 0.15-0.35 0.12-0.36 0.1-0.37 0.08-0.37 0.04-0.39 0.02-0.38-0.02-0.38-0.04-0.37-0.08-0.36-0.1-0.35-0.12-0.33-0.15-0.32-0.18-0.31-0.19-0.29-0.22-0.28-0.24-0.25-0.26-0.24-0.27-0.22-0.29-0.2-0.31-0.17-0.32-0.15-0.34-0.13-0.34-0.1-0.36-0.07-0.37-0.04-0.38-0.02-0.38v-9.92l-0.68-0.3-0.65-0.33-0.64-0.37-0.62-0.4-0.59-0.44-0.56-0.47-0.54-0.5-0.51-0.53-0.49-0.56-0.45-0.58-0.41-0.61-0.39-0.64-0.34-0.66-0.31-0.68-0.27-0.7-0.23-0.72-0.19-0.74-0.14-0.75-0.1-0.77-0.05-0.78v-0.79l0.04-1.05 0.12-1.01 0.19-1 0.26-0.96 0.34-0.94 0.4-0.9 0.46-0.86 0.52-0.82 0.58-0.78 0.63-0.74 0.69-0.68 0.73-0.63 0.78-0.58 0.83-0.53 0.86-0.46 0.9-0.4 0.93-0.33 0.97-0.26 0.99-0.2 1.02-0.11 1.04-0.04 1.04 0.04 1.02 0.11zm-4.91 6.78l-1.17 0.63-1.02 0.84-0.83 1.01-0.63 1.17-0.4 1.3-0.14 1.4 0.14 1.39 0.4 1.3 0.63 1.17 0.83 1.02 1.02 0.83 1.17 0.63 1.29 0.4 1.4 0.14 1.4-0.14 1.3-0.4 1.17-0.63 1.01-0.83 0.84-1.02 0.63-1.17 0.39-1.3 0.14-1.39-0.14-1.4-0.39-1.3-0.63-1.17-0.84-1.01-1.01-0.84-1.17-0.63-1.3-0.4-1.4-0.13-1.4 0.13-1.29 0.4z"/>
<path id="d" d="m138.12 54.16l0.51 0.04 0.51 0.06 0.51 0.07 0.49 0.1 0.49 0.11 0.48 0.13 0.47 0.14 0.46 0.15 0.46 0.18 0.44 0.18 0.44 0.2 0.42 0.21 0.41 0.23 0.41 0.24 0.39 0.25 0.38 0.26 0.36 0.28 0.36 0.28 0.34 0.3 0.32 0.31 0.32 0.32 0.29 0.33 0.29 0.33 0.27 0.35 0.25 0.36 0.24 0.36 0.22 0.38 0.2 0.38 0.18 0.39 0.17 0.39 0.15 0.41 0.13 0.41 0.11 0.42 0.1 0.42 0.07 0.43 0.05 0.43 0.03 0.44 0.02 0.44v25.8l-0.01 0.1v0.08l-0.01 0.09-0.06 0.25-0.06 0.17-0.03 0.08-0.04 0.07-0.04 0.09-0.04 0.06-0.1 0.15-0.05 0.07-0.18 0.2-0.07 0.06-0.06 0.06-0.07 0.06-0.08 0.05-0.07 0.06-0.08 0.05-0.08 0.04-0.09 0.05-0.08 0.04-0.09 0.04-0.27 0.1-0.09 0.03-0.2 0.05-0.2 0.03-0.2 0.02-0.11 0.01h-0.21l-0.2-0.02-0.11-0.01-0.2-0.03-0.09-0.03-0.1-0.02-0.09-0.03-0.1-0.03-0.18-0.07-0.08-0.04-0.09-0.04-0.08-0.05-0.08-0.04-0.08-0.05-0.07-0.06-0.08-0.05-0.14-0.12-0.06-0.06-0.18-0.2-0.05-0.07-0.1-0.15-0.05-0.06-0.04-0.09-0.03-0.07-0.04-0.08-0.03-0.08-0.02-0.09-0.03-0.08-0.01-0.08-0.02-0.09-0.01-0.09-0.01-0.08v-15.14h-97.14v62.36l0.01 0.27 0.02 0.26 0.03 0.26 0.04 0.26 0.12 0.5 0.08 0.25 0.09 0.24 0.1 0.24 0.11 0.23 0.26 0.45 0.14 0.22 0.15 0.22 0.16 0.21 0.17 0.2 0.18 0.2 0.19 0.19 0.2 0.19 0.2 0.17 0.21 0.18 0.22 0.16 0.23 0.16 0.23 0.15 0.25 0.14 0.24 0.13 0.26 0.14 0.26 0.11 0.27 0.11 0.27 0.1 0.28 0.1 0.28 0.09 0.29 0.07 0.29 0.07 0.6 0.1 0.3 0.03 0.31 0.04h0.31l0.32 0.01h81.8l0.32-0.01h0.31l0.62-0.07 0.3-0.05 0.29-0.05 0.3-0.07 0.28-0.07 0.29-0.09 0.28-0.1 0.27-0.1 0.26-0.11 0.27-0.11 0.5-0.27 0.24-0.14 0.23-0.15 0.23-0.16 0.22-0.16 0.42-0.35 0.19-0.19 0.19-0.19 0.18-0.2 0.17-0.2 0.16-0.21 0.15-0.22 0.14-0.22 0.14-0.22 0.12-0.23 0.11-0.23 0.1-0.24 0.09-0.24 0.08-0.25 0.07-0.25 0.05-0.25 0.05-0.26 0.03-0.26 0.02-0.26v-13.26l0.01-0.09 0.01-0.09 0.02-0.08 0.01-0.08 0.03-0.09 0.02-0.08 0.03-0.08 0.04-0.08 0.03-0.08 0.04-0.08 0.05-0.07 0.05-0.07 0.05-0.08 0.05-0.06 0.18-0.2 0.06-0.06 0.14-0.12 0.08-0.06 0.07-0.05 0.08-0.05 0.08-0.04 0.08-0.05 0.09-0.04 0.08-0.05 0.18-0.06 0.1-0.04 0.09-0.02 0.1-0.03 0.09-0.02 0.2-0.03 0.11-0.01 0.1-0.02h0.42l0.1 0.02 0.1 0.01 0.2 0.03 0.2 0.05 0.09 0.02 0.27 0.1 0.09 0.05 0.08 0.04 0.09 0.05 0.08 0.04 0.08 0.05 0.07 0.05 0.08 0.06 0.07 0.06 0.06 0.06 0.07 0.06 0.18 0.2 0.05 0.06 0.05 0.08 0.05 0.07 0.04 0.07 0.04 0.08 0.04 0.08 0.03 0.08 0.06 0.16 0.06 0.25 0.01 0.09v0.09l0.01 0.09v12.9l-0.02 0.44-0.03 0.44-0.05 0.43-0.07 0.43-0.1 0.43-0.11 0.42-0.13 0.41-0.15 0.4-0.17 0.39-0.18 0.39-0.2 0.38-0.22 0.38-0.24 0.37-0.25 0.35-0.27 0.35-0.58 0.67-0.32 0.32-0.32 0.31-0.34 0.29-0.36 0.28-0.36 0.28-0.38 0.27-0.39 0.25-0.41 0.23-0.41 0.23-0.42 0.22-0.44 0.19-0.44 0.18-0.46 0.18-0.46 0.15-0.47 0.14-0.48 0.13-0.49 0.12-0.49 0.09-0.51 0.07-0.51 0.06-0.51 0.05-0.52 0.03h-0.53-81.8-0.53l-0.52-0.03-0.51-0.05-0.51-0.06-0.5-0.07-0.5-0.09-0.48-0.12-0.48-0.13-0.48-0.14-0.46-0.15-0.45-0.18-0.45-0.18-0.43-0.19-0.43-0.22-0.41-0.23-0.4-0.23-0.39-0.25-0.38-0.27-0.37-0.28-0.35-0.28-0.34-0.29-0.33-0.31-0.31-0.32-0.3-0.34-0.29-0.33-0.52-0.7-0.23-0.37-0.22-0.38-0.21-0.38-0.18-0.39-0.17-0.39-0.15-0.4-0.13-0.41-0.11-0.42-0.09-0.43-0.08-0.43-0.05-0.43-0.03-0.44-0.01-0.44v-73.12l0.01-0.44 0.03-0.44 0.05-0.43 0.08-0.43 0.09-0.42 0.11-0.42 0.13-0.41 0.15-0.41 0.17-0.39 0.18-0.39 0.21-0.38 0.22-0.38 0.23-0.36 0.26-0.36 0.26-0.35 0.29-0.33 0.3-0.33 0.31-0.32 0.33-0.31 0.34-0.3 0.35-0.28 0.37-0.28 0.38-0.26 0.39-0.25 0.4-0.24 0.41-0.23 0.43-0.21 0.43-0.2 0.45-0.18 0.45-0.18 0.46-0.15 0.48-0.14 0.48-0.13 0.48-0.11 0.5-0.1 0.5-0.07 0.51-0.06 0.51-0.04 0.52-0.04h0.53 81.8 0.53l0.52 0.04zm-83.17 4.27l-0.31 0.01-0.31 0.03-0.3 0.03-0.3 0.05-0.3 0.06-0.29 0.07-0.29 0.07-0.28 0.09-0.28 0.09-0.27 0.1-0.27 0.11-0.52 0.25-0.24 0.13-0.25 0.14-0.23 0.15-0.23 0.16-0.22 0.17-0.21 0.17-0.4 0.37-0.19 0.19-0.18 0.19-0.17 0.2-0.16 0.21-0.15 0.22-0.14 0.22-0.26 0.45-0.11 0.23-0.1 0.25-0.09 0.24-0.08 0.24-0.12 0.5-0.04 0.26-0.03 0.26-0.02 0.26-0.01 0.27v6.45h97.14v-6.72l-0.02-0.26-0.03-0.26-0.05-0.26-0.05-0.25-0.07-0.25-0.08-0.24-0.09-0.24-0.1-0.25-0.11-0.23-0.12-0.23-0.14-0.22-0.14-0.22-0.15-0.22-0.16-0.21-0.17-0.2-0.18-0.19-0.19-0.19-0.19-0.19-0.21-0.18-0.21-0.17-0.22-0.17-0.23-0.16-0.23-0.15-0.24-0.14-0.25-0.13-0.25-0.13-0.27-0.12-0.26-0.11-0.27-0.1-0.28-0.09-0.29-0.09-0.28-0.07-0.3-0.07-0.29-0.06-0.3-0.05-0.31-0.03-0.31-0.03-0.31-0.01-0.32-0.01h-81.8l-0.32 0.01z"/>
<path id="b" d="m75.62 65.42c0 1.85 1.5 3.35 3.35 3.35s3.35-1.5 3.35-3.35-1.5-3.35-3.35-3.35-3.35 1.5-3.35 3.35z"/>
<path id="k" d="m84.09 65.42c0 1.85 1.5 3.35 3.35 3.35s3.35-1.5 3.35-3.35-1.5-3.35-3.35-3.35-3.35 1.5-3.35 3.35z"/>
<path id="e" d="m94.15 65.42c0 1.85 1.5 3.35 3.35 3.35s3.35-1.5 3.35-3.35-1.5-3.35-3.35-3.35-3.35 1.5-3.35 3.35z"/>
<path id="i" d="m129.26 108.87c-1.42 0.17-2.46 1.69-2.32 3.39 0.39 4.94 4.82 8.65 10.31 8.65 5.8 0 10.33-4.1 10.33-9.33 0-4.87-3.2-7.97-9.52-9.22-0.07-0.01-0.68-0.13-0.76-0.15-4.53-0.89-5.21-2.32-5.21-3.08 0-1.23 2.06-3.11 5.18-3.1 3.05 0 5.06 1.75 5.17 3 0.13 1.71 1.36 3 2.81 2.81 1.42-0.17 2.46-1.69 2.32-3.39-0.39-4.94-4.82-8.65-10.31-8.65-5.8 0-10.34 4.1-10.34 9.33 0 4.88 3.22 7.97 9.55 9.22 0.03-0.21 0.17-1.24 0.41-3.08 0.21 1.94 0.33 3.01 0.35 3.22 4.29 0.86 5.19 2.16 5.19 3.09 0 1.23-2.06 3.11-5.17 3.11-3.06 0-5.07-1.76-5.18-3.01-0.13-1.72-1.37-3.03-2.81-2.81z"/>
<path id="g" d="m172.78 90.43c-1.34-1.03-3.23-0.76-4.22 0.62-0.45 0.61-2.66 3.65-6.63 9.13-3.99-5.48-6.19-8.52-6.64-9.13-1-1.38-2.89-1.66-4.22-0.62-1.34 1.04-1.6 2.98-0.61 4.35 0.52 0.71 3.08 4.23 7.7 10.59-4.61 6.34-7.17 9.86-7.69 10.56-1 1.38-0.73 3.33 0.61 4.36 0.54 0.42 1.17 0.62 1.79 0.62 0.92 0 1.83-0.43 2.42-1.24 0.45-0.61 2.66-3.65 6.64-9.12 3.97 5.47 6.18 8.51 6.62 9.12 0.59 0.81 1.5 1.24 2.41 1.24 0.64 0 1.27-0.2 1.81-0.62 1.34-1.03 1.61-2.98 0.6-4.36-0.5-0.7-3.07-4.22-7.68-10.56 4.61-6.36 7.18-9.88 7.69-10.59 1-1.37 0.73-3.31-0.6-4.35z"/>
<path id="c" d="m114.53 114.69c-1.57 0-2.84-1.39-2.84-3.11s-1.27-3.11-2.84-3.11c-1.56 0-2.83 1.39-2.83 3.11 0 5.14 3.82 9.33 8.51 9.33s8.51-4.19 8.51-9.33v-18.67c0-1.72-1.27-3.11-2.83-3.11-1.57 0-2.84 1.39-2.84 3.11v18.67c0 1.72-1.27 3.11-2.84 3.11z"/>
</defs>
<use fill-opacity="0" stroke="#000000" stroke-opacity="0" xlink:href="#n"/>
<use fill="#000000" fill-opacity="0" xlink:href="#h"/>
<use fill-opacity="0" stroke="#000000" stroke-opacity="0" xlink:href="#h"/>
<use fill="#000000" fill-opacity="0" xlink:href="#j"/>
<use fill-opacity="0" stroke="#000000" stroke-opacity="0" xlink:href="#j"/>
<use fill="#000000" fill-opacity="0" xlink:href="#a"/>
<use fill-opacity="0" stroke="#000000" stroke-opacity="0" xlink:href="#a"/>
<use fill="#000000" fill-opacity="0" xlink:href="#l"/>
<use fill-opacity="0" stroke="#00c7fc" xlink:href="#l"/>
<use fill="#ffffff" fill-opacity="0" xlink:href="#f"/>
<use fill-opacity="0" stroke="#000000" stroke-opacity="0" xlink:href="#f"/>
<use fill="#000000" fill-opacity="0" xlink:href="#m"/>
<use fill-opacity="0" stroke="#000000" stroke-opacity="0" xlink:href="#m"/>
<use fill="#ffffff" xlink:href="#d"/>
<use fill-opacity="0" stroke="#000000" stroke-opacity="0" xlink:href="#d"/>
<use fill="#ffffff" xlink:href="#b"/>
<use fill-opacity="0" stroke="#000000" stroke-opacity="0" xlink:href="#b"/>
<use fill="#ffffff" xlink:href="#k"/>
<use fill-opacity="0" stroke="#000000" stroke-opacity="0" xlink:href="#k"/>
<use fill="#ffffff" xlink:href="#e"/>
<use fill-opacity="0" stroke="#000000" stroke-opacity="0" xlink:href="#e"/>
<use fill="#ffffff" xlink:href="#i"/>
<use fill-opacity="0" stroke="#000000" stroke-opacity="0" xlink:href="#i"/>
<use fill="#ffffff" xlink:href="#g"/>
<use fill-opacity="0" stroke="#000000" stroke-opacity="0" xlink:href="#g"/>
<use fill="#ffffff" xlink:href="#c"/>
<use fill-opacity="0" stroke="#000000" stroke-opacity="0" xlink:href="#c"/>
</svg>
