<?xml version="1.0" encoding="UTF-8" standalone="no"?>
<!DOCTYPE svg PUBLIC "-//W3C//DTD SVG 1.1//EN" "http://www.w3.org/Graphics/SVG/1.1/DTD/svg11.dtd">
<svg version="1.1" xmlns="http://www.w3.org/2000/svg" xmlns:xlink="http://www.w3.org/1999/xlink" preserveAspectRatio="xMidYMid meet" viewBox="0 0 195 200" width="195" height="200"><defs><path d="M273.63 476.04C273.63 484.21 273.63 488.74 273.63 489.65C273.63 489.65 273.63 489.65 273.63 489.65C259.16 489.65 251.12 489.65 249.51 489.65C249.51 489.65 249.51 489.65 249.51 489.65C249.51 481.48 249.51 476.95 249.51 476.04C249.51 476.04 249.51 476.04 249.51 476.04C263.98 476.04 272.02 476.04 273.63 476.04C273.63 476.04 273.63 476.04 273.63 476.04Z" id="c3CpV0maLI"></path><path d="M193.4 151.21L193.4 51.64L98.23 1.86L3.06 51.64L3.06 151.21L98.23 201L193.4 151.21Z" id="b3l7dBq7sf"></path><path d="M193.4 151.21L193.4 51.64L98.23 1.86L3.06 51.64L3.06 151.21L98.23 201L193.4 151.21Z" id="adZMUcBWW"></path><path d="M192.67 151.21L192.67 51.64L97.5 1.86L2.33 51.64L2.33 151.21L97.5 201L192.67 151.21Z" id="gcizA3RceX"></path><path d="M192.67 150.21L192.67 50.64L97.5 0.86L2.33 50.64L2.33 150.21L97.5 200L192.67 150.21Z" id="a2phao9Rkg"></path><path d="M268.98 241.48L269.97 241.68L270.94 241.94L271.87 242.27L272.77 242.67L273.64 243.13L274.46 243.66L275.24 244.24L275.97 244.87L276.66 245.55L277.29 246.29L277.87 247.07L278.39 247.89L278.86 248.75L279.26 249.65L279.59 250.59L279.85 251.55L280.04 252.55L280.16 253.56L280.2 254.61L280.18 255.4L280.11 256.18L279.99 256.95L279.83 257.7L279.63 258.44L279.39 259.16L279.11 259.86L278.78 260.54L278.43 261.2L278.03 261.84L277.6 262.45L277.14 263.03L276.65 263.59L276.12 264.12L275.57 264.62L274.99 265.09L274.38 265.53L273.75 265.93L273.1 266.3L272.42 266.63L271.72 266.93L271.72 276.85L271.71 277.23L271.66 277.61L271.59 277.98L271.49 278.34L271.36 278.68L271.21 279.02L271.04 279.34L270.84 279.65L270.63 279.94L270.39 280.21L270.13 280.47L269.86 280.71L269.56 280.93L269.26 281.12L268.93 281.3L268.6 281.45L268.25 281.57L267.89 281.67L267.52 281.75L267.15 281.79L266.76 281.81L266.38 281.79L266 281.75L265.63 281.67L265.27 281.57L264.92 281.45L264.59 281.3L264.27 281.12L263.96 280.93L263.67 280.71L263.39 280.47L263.14 280.21L262.9 279.94L262.68 279.65L262.48 279.34L262.31 279.02L262.16 278.68L262.03 278.34L261.93 277.98L261.86 277.61L261.82 277.23L261.8 276.85L261.8 266.93L261.12 266.63L260.47 266.3L259.83 265.93L259.21 265.53L258.62 265.09L258.06 264.62L257.52 264.12L257.01 263.59L256.52 263.03L256.07 262.45L255.66 261.84L255.27 261.2L254.93 260.54L254.62 259.86L254.35 259.16L254.12 258.44L253.93 257.7L253.79 256.95L253.69 256.18L253.64 255.4L253.64 254.61L253.68 253.56L253.8 252.55L253.99 251.55L254.25 250.59L254.59 249.65L254.99 248.75L255.45 247.89L255.97 247.07L256.55 246.29L257.18 245.55L257.87 244.87L258.6 244.24L259.38 243.66L260.21 243.13L261.07 242.67L261.97 242.27L262.9 241.94L263.87 241.68L264.86 241.48L265.88 241.37L266.92 241.33L267.96 241.37L268.98 241.48ZM264.07 248.26L262.9 248.89L261.88 249.73L261.05 250.74L260.42 251.91L260.02 253.21L259.88 254.61L260.02 256L260.42 257.3L261.05 258.47L261.88 259.49L262.9 260.32L264.07 260.95L265.36 261.35L266.76 261.49L268.16 261.35L269.46 260.95L270.63 260.32L271.64 259.49L272.48 258.47L273.11 257.3L273.5 256L273.64 254.61L273.5 253.21L273.11 251.91L272.48 250.74L271.64 249.73L270.63 248.89L269.46 248.26L268.16 247.86L266.76 247.73L265.36 247.86L264.07 248.26Z" id="b6sTAp89M"></path><path d="M268.98 241.48L269.97 241.68L270.94 241.94L271.87 242.27L272.77 242.67L273.64 243.13L274.46 243.66L275.24 244.24L275.97 244.87L276.66 245.55L277.29 246.29L277.87 247.07L278.39 247.89L278.86 248.75L279.26 249.65L279.59 250.59L279.85 251.55L280.04 252.55L280.16 253.56L280.2 254.61L280.18 255.4L280.11 256.18L279.99 256.95L279.83 257.7L279.63 258.44L279.39 259.16L279.11 259.86L278.78 260.54L278.43 261.2L278.03 261.84L277.6 262.45L277.14 263.03L276.65 263.59L276.12 264.12L275.57 264.62L274.99 265.09L274.38 265.53L273.75 265.93L273.1 266.3L272.42 266.63L271.72 266.93L271.72 276.85L271.71 277.23L271.66 277.61L271.59 277.98L271.49 278.34L271.36 278.68L271.21 279.02L271.04 279.34L270.84 279.65L270.63 279.94L270.39 280.21L270.13 280.47L269.86 280.71L269.56 280.93L269.26 281.12L268.93 281.3L268.6 281.45L268.25 281.57L267.89 281.67L267.52 281.75L267.15 281.79L266.76 281.81L266.38 281.79L266 281.75L265.63 281.67L265.27 281.57L264.92 281.45L264.59 281.3L264.27 281.12L263.96 280.93L263.67 280.71L263.39 280.47L263.14 280.21L262.9 279.94L262.68 279.65L262.48 279.34L262.31 279.02L262.16 278.68L262.03 278.34L261.93 277.98L261.86 277.61L261.82 277.23L261.8 276.85L261.8 266.93L261.12 266.63L260.47 266.3L259.83 265.93L259.21 265.53L258.62 265.09L258.06 264.62L257.52 264.12L257.01 263.59L256.52 263.03L256.07 262.45L255.66 261.84L255.27 261.2L254.93 260.54L254.62 259.86L254.35 259.16L254.12 258.44L253.93 257.7L253.79 256.95L253.69 256.18L253.64 255.4L253.64 254.61L253.68 253.56L253.8 252.55L253.99 251.55L254.25 250.59L254.59 249.65L254.99 248.75L255.45 247.89L255.97 247.07L256.55 246.29L257.18 245.55L257.87 244.87L258.6 244.24L259.38 243.66L260.21 243.13L261.07 242.67L261.97 242.27L262.9 241.94L263.87 241.68L264.86 241.48L265.88 241.37L266.92 241.33L267.96 241.37L268.98 241.48ZM264.07 248.26L262.9 248.89L261.88 249.73L261.05 250.74L260.42 251.91L260.02 253.21L259.88 254.61L260.02 256L260.42 257.3L261.05 258.47L261.88 259.49L262.9 260.32L264.07 260.95L265.36 261.35L266.76 261.49L268.16 261.35L269.46 260.95L270.63 260.32L271.64 259.49L272.48 258.47L273.11 257.3L273.5 256L273.64 254.61L273.5 253.21L273.11 251.91L272.48 250.74L271.64 249.73L270.63 248.89L269.46 248.26L268.16 247.86L266.76 247.73L265.36 247.86L264.07 248.26Z" id="a10sWDgpjv"></path><path d="M138.12 54.16L138.63 54.2L139.14 54.26L139.65 54.33L140.14 54.43L140.63 54.54L141.11 54.67L141.58 54.81L142.04 54.96L142.5 55.14L142.94 55.32L143.38 55.52L143.8 55.73L144.21 55.96L144.62 56.2L145.01 56.45L145.39 56.71L145.75 56.99L146.11 57.27L146.45 57.57L146.77 57.88L147.09 58.2L147.38 58.53L147.67 58.86L147.94 59.21L148.19 59.57L148.43 59.93L148.65 60.31L148.85 60.69L149.03 61.08L149.2 61.47L149.35 61.88L149.48 62.29L149.59 62.71L149.69 63.13L149.76 63.56L149.81 63.99L149.84 64.43L149.86 64.87L149.86 90.67L149.85 90.77L149.85 90.85L149.84 90.94L149.78 91.19L149.72 91.36L149.69 91.44L149.65 91.51L149.61 91.6L149.57 91.66L149.47 91.81L149.42 91.88L149.24 92.08L149.17 92.14L149.11 92.2L149.04 92.26L148.96 92.31L148.89 92.37L148.81 92.42L148.73 92.46L148.64 92.51L148.56 92.55L148.47 92.59L148.2 92.69L148.11 92.72L147.91 92.77L147.71 92.8L147.51 92.82L147.4 92.83L147.19 92.83L146.99 92.81L146.88 92.8L146.68 92.77L146.59 92.74L146.49 92.72L146.4 92.69L146.3 92.66L146.12 92.59L146.04 92.55L145.95 92.51L145.87 92.46L145.79 92.42L145.71 92.37L145.64 92.31L145.56 92.26L145.42 92.14L145.36 92.08L145.18 91.88L145.13 91.81L145.03 91.66L144.98 91.6L144.94 91.51L144.91 91.44L144.87 91.36L144.84 91.28L144.82 91.19L144.79 91.11L144.78 91.03L144.76 90.94L144.75 90.85L144.74 90.77L144.74 75.63L47.6 75.63L47.6 137.99L47.61 138.26L47.63 138.52L47.66 138.78L47.7 139.04L47.82 139.54L47.9 139.79L47.99 140.03L48.09 140.27L48.2 140.5L48.46 140.95L48.6 141.17L48.75 141.39L48.91 141.6L49.08 141.8L49.26 142L49.45 142.19L49.65 142.38L49.85 142.55L50.06 142.73L50.28 142.89L50.51 143.05L50.74 143.2L50.99 143.34L51.23 143.47L51.49 143.61L51.75 143.72L52.02 143.83L52.29 143.93L52.57 144.03L52.85 144.12L53.14 144.19L53.43 144.26L54.03 144.36L54.33 144.39L54.64 144.43L54.95 144.43L55.27 144.44L137.07 144.44L137.39 144.43L137.7 144.43L138.32 144.36L138.62 144.31L138.91 144.26L139.21 144.19L139.49 144.12L139.78 144.03L140.06 143.93L140.33 143.83L140.59 143.72L140.86 143.61L141.36 143.34L141.6 143.2L141.83 143.05L142.06 142.89L142.28 142.73L142.7 142.38L142.89 142.19L143.08 142L143.26 141.8L143.43 141.6L143.59 141.39L143.74 141.17L143.88 140.95L144.02 140.73L144.14 140.5L144.25 140.27L144.35 140.03L144.44 139.79L144.52 139.54L144.59 139.29L144.64 139.04L144.69 138.78L144.72 138.52L144.74 138.26L144.74 125L144.75 124.91L144.76 124.82L144.78 124.74L144.79 124.66L144.82 124.57L144.84 124.49L144.87 124.41L144.91 124.33L144.94 124.25L144.98 124.17L145.03 124.1L145.08 124.03L145.13 123.95L145.18 123.89L145.36 123.69L145.42 123.63L145.56 123.51L145.64 123.45L145.71 123.4L145.79 123.35L145.87 123.31L145.95 123.26L146.04 123.22L146.12 123.17L146.3 123.11L146.4 123.07L146.49 123.05L146.59 123.02L146.68 123L146.88 122.97L146.99 122.96L147.09 122.94L147.51 122.94L147.61 122.96L147.71 122.97L147.91 123L148.11 123.05L148.2 123.07L148.47 123.17L148.56 123.22L148.64 123.26L148.73 123.31L148.81 123.35L148.89 123.4L148.96 123.45L149.04 123.51L149.11 123.57L149.17 123.63L149.24 123.69L149.42 123.89L149.47 123.95L149.52 124.03L149.57 124.1L149.61 124.17L149.65 124.25L149.69 124.33L149.72 124.41L149.78 124.57L149.84 124.82L149.85 124.91L149.85 125L149.86 125.09L149.86 137.99L149.84 138.43L149.81 138.87L149.76 139.3L149.69 139.73L149.59 140.16L149.48 140.58L149.35 140.99L149.2 141.39L149.03 141.78L148.85 142.17L148.65 142.55L148.43 142.93L148.19 143.3L147.94 143.65L147.67 144L147.09 144.67L146.77 144.99L146.45 145.3L146.11 145.59L145.75 145.87L145.39 146.15L145.01 146.42L144.62 146.67L144.21 146.9L143.8 147.13L143.38 147.35L142.94 147.54L142.5 147.72L142.04 147.9L141.58 148.05L141.11 148.19L140.63 148.32L140.14 148.44L139.65 148.53L139.14 148.6L138.63 148.66L138.12 148.71L137.6 148.74L137.07 148.74L55.27 148.74L54.74 148.74L54.22 148.71L53.71 148.66L53.2 148.6L52.7 148.53L52.2 148.44L51.72 148.32L51.24 148.19L50.76 148.05L50.3 147.9L49.85 147.72L49.4 147.54L48.97 147.35L48.54 147.13L48.13 146.9L47.73 146.67L47.34 146.42L46.96 146.15L46.59 145.87L46.24 145.59L45.9 145.3L45.57 144.99L45.26 144.67L44.96 144.33L44.67 144L44.15 143.3L43.92 142.93L43.7 142.55L43.49 142.17L43.31 141.78L43.14 141.39L42.99 140.99L42.86 140.58L42.75 140.16L42.66 139.73L42.58 139.3L42.53 138.87L42.5 138.43L42.49 137.99L42.49 64.87L42.5 64.43L42.53 63.99L42.58 63.56L42.66 63.13L42.75 62.71L42.86 62.29L42.99 61.88L43.14 61.47L43.31 61.08L43.49 60.69L43.7 60.31L43.92 59.93L44.15 59.57L44.41 59.21L44.67 58.86L44.96 58.53L45.26 58.2L45.57 57.88L45.9 57.57L46.24 57.27L46.59 56.99L46.96 56.71L47.34 56.45L47.73 56.2L48.13 55.96L48.54 55.73L48.97 55.52L49.4 55.32L49.85 55.14L50.3 54.96L50.76 54.81L51.24 54.67L51.72 54.54L52.2 54.43L52.7 54.33L53.2 54.26L53.71 54.2L54.22 54.16L54.74 54.12L55.27 54.12L137.07 54.12L137.6 54.12L138.12 54.16ZM54.95 58.43L54.64 58.44L54.33 58.47L54.03 58.5L53.73 58.55L53.43 58.61L53.14 58.68L52.85 58.75L52.57 58.84L52.29 58.93L52.02 59.03L51.75 59.14L51.23 59.39L50.99 59.52L50.74 59.66L50.51 59.81L50.28 59.97L50.06 60.14L49.85 60.31L49.45 60.68L49.26 60.87L49.08 61.06L48.91 61.26L48.75 61.47L48.6 61.69L48.46 61.91L48.2 62.36L48.09 62.59L47.99 62.84L47.9 63.08L47.82 63.32L47.7 63.82L47.66 64.08L47.63 64.34L47.61 64.6L47.6 64.87L47.6 71.32L144.74 71.32L144.74 64.6L144.72 64.34L144.69 64.08L144.64 63.82L144.59 63.57L144.52 63.32L144.44 63.08L144.35 62.84L144.25 62.59L144.14 62.36L144.02 62.13L143.88 61.91L143.74 61.69L143.59 61.47L143.43 61.26L143.26 61.06L143.08 60.87L142.89 60.68L142.7 60.49L142.49 60.31L142.28 60.14L142.06 59.97L141.83 59.81L141.6 59.66L141.36 59.52L141.11 59.39L140.86 59.26L140.59 59.14L140.33 59.03L140.06 58.93L139.78 58.84L139.49 58.75L139.21 58.68L138.91 58.61L138.62 58.55L138.32 58.5L138.01 58.47L137.7 58.44L137.39 58.43L137.07 58.42L55.27 58.42L54.95 58.43Z" id="c4P8SAMGTl"></path><path d="M75.62 65.42C75.62 67.27 77.12 68.77 78.97 68.77C80.82 68.77 82.32 67.27 82.32 65.42C82.32 63.57 80.82 62.07 78.97 62.07C77.12 62.07 75.62 63.57 75.62 65.42Z" id="f2mU0npRF8"></path><path d="M84.09 65.42C84.09 67.27 85.59 68.77 87.44 68.77C89.29 68.77 90.79 67.27 90.79 65.42C90.79 63.57 89.29 62.07 87.44 62.07C85.59 62.07 84.09 63.57 84.09 65.42Z" id="aIbxKMksQ"></path><path d="M94.15 65.42C94.15 67.27 95.65 68.77 97.5 68.77C99.35 68.77 100.85 67.27 100.85 65.42C100.85 63.57 99.35 62.07 97.5 62.07C95.65 62.07 94.15 63.57 94.15 65.42Z" id="c1seQU8QmO"></path><path d="M129.26 108.87C127.84 109.04 126.8 110.56 126.94 112.26C127.33 117.2 131.76 120.91 137.25 120.91C143.05 120.91 147.58 116.81 147.58 111.58C147.58 106.71 144.38 103.61 138.06 102.36C137.99 102.35 137.38 102.23 137.3 102.21C132.77 101.32 132.09 99.89 132.09 99.13C132.09 97.9 134.15 96.02 137.27 96.03C140.32 96.03 142.33 97.78 142.44 99.03C142.57 100.74 143.8 102.03 145.25 101.84C146.67 101.67 147.71 100.15 147.57 98.45C147.18 93.51 142.75 89.8 137.26 89.8C131.46 89.8 126.92 93.9 126.92 99.13C126.92 104.01 130.14 107.1 136.47 108.35C136.5 108.14 136.64 107.11 136.88 105.27C137.09 107.21 137.21 108.28 137.23 108.49C141.52 109.35 142.42 110.65 142.42 111.58C142.42 112.81 140.36 114.69 137.25 114.69C134.19 114.69 132.18 112.93 132.07 111.68C131.94 109.96 130.7 108.65 129.26 108.87Z" id="b3Ct5Cm9y"></path><path d="M172.78 90.43C171.44 89.4 169.55 89.67 168.56 91.05C168.11 91.66 165.9 94.7 161.93 100.18C157.94 94.7 155.74 91.66 155.29 91.05C154.29 89.67 152.4 89.39 151.07 90.43C149.73 91.47 149.47 93.41 150.46 94.78C150.98 95.49 153.54 99.01 158.16 105.37C153.55 111.71 150.99 115.23 150.47 115.93C149.47 117.31 149.74 119.26 151.08 120.29C151.62 120.71 152.25 120.91 152.87 120.91C153.79 120.91 154.7 120.48 155.29 119.67C155.74 119.06 157.95 116.02 161.93 110.55C165.9 116.02 168.11 119.06 168.55 119.67C169.14 120.48 170.05 120.91 170.96 120.91C171.6 120.91 172.23 120.71 172.77 120.29C174.11 119.26 174.38 117.31 173.37 115.93C172.87 115.23 170.3 111.71 165.69 105.37C170.3 99.01 172.87 95.49 173.38 94.78C174.38 93.41 174.11 91.47 172.78 90.43Z" id="b4LVIYmCik"></path><path d="M114.53 114.69C112.96 114.69 111.69 113.3 111.69 111.58C111.69 109.86 110.42 108.47 108.85 108.47C107.29 108.47 106.02 109.86 106.02 111.58C106.02 116.72 109.84 120.91 114.53 120.91C119.22 120.91 123.04 116.72 123.04 111.58C123.04 109.71 123.04 94.78 123.04 92.91C123.04 91.19 121.77 89.8 120.21 89.8C118.64 89.8 117.37 91.19 117.37 92.91C117.37 96.64 117.37 109.71 117.37 111.58C117.37 113.3 116.1 114.69 114.53 114.69Z" id="c7f8vkCKx"></path></defs><g><g><g><g><use xlink:href="#c3CpV0maLI" opacity="1" fill-opacity="0" stroke="#000000" stroke-width="1" stroke-opacity="0"></use></g></g><g><use xlink:href="#b3l7dBq7sf" opacity="1" fill="#000000" fill-opacity="0"></use><g><use xlink:href="#b3l7dBq7sf" opacity="1" fill-opacity="0" stroke="#000000" stroke-width="1" stroke-opacity="0"></use></g></g><g><use xlink:href="#adZMUcBWW" opacity="1" fill="#000000" fill-opacity="0"></use><g><use xlink:href="#adZMUcBWW" opacity="1" fill-opacity="0" stroke="#000000" stroke-width="1" stroke-opacity="0"></use></g></g><g><use xlink:href="#gcizA3RceX" opacity="1" fill="#000000" fill-opacity="0"></use><g><use xlink:href="#gcizA3RceX" opacity="1" fill-opacity="0" stroke="#000000" stroke-width="1" stroke-opacity="0"></use></g></g><g><use xlink:href="#a2phao9Rkg" opacity="1" fill="#000000" fill-opacity="0"></use><g><use xlink:href="#a2phao9Rkg" opacity="1" fill-opacity="0" stroke="#00c7fc" stroke-width="1" stroke-opacity="1"></use></g></g><g><use xlink:href="#b6sTAp89M" opacity="1" fill="#ffffff" fill-opacity="0"></use><g><use xlink:href="#b6sTAp89M" opacity="1" fill-opacity="0" stroke="#000000" stroke-width="1" stroke-opacity="0"></use></g></g><g><use xlink:href="#a10sWDgpjv" opacity="1" fill="#000000" fill-opacity="0"></use><g><use xlink:href="#a10sWDgpjv" opacity="1" fill-opacity="0" stroke="#000000" stroke-width="1" stroke-opacity="0"></use></g></g><g><use xlink:href="#c4P8SAMGTl" opacity="1" fill="#ffffff" fill-opacity="1"></use><g><use xlink:href="#c4P8SAMGTl" opacity="1" fill-opacity="0" stroke="#000000" stroke-width="1" stroke-opacity="0"></use></g></g><g><use xlink:href="#f2mU0npRF8" opacity="1" fill="#ffffff" fill-opacity="1"></use><g><use xlink:href="#f2mU0npRF8" opacity="1" fill-opacity="0" stroke="#000000" stroke-width="1" stroke-opacity="0"></use></g></g><g><use xlink:href="#aIbxKMksQ" opacity="1" fill="#ffffff" fill-opacity="1"></use><g><use xlink:href="#aIbxKMksQ" opacity="1" fill-opacity="0" stroke="#000000" stroke-width="1" stroke-opacity="0"></use></g></g><g><use xlink:href="#c1seQU8QmO" opacity="1" fill="#ffffff" fill-opacity="1"></use><g><use xlink:href="#c1seQU8QmO" opacity="1" fill-opacity="0" stroke="#000000" stroke-width="1" stroke-opacity="0"></use></g></g><g><use xlink:href="#b3Ct5Cm9y" opacity="1" fill="#ffffff" fill-opacity="1"></use><g><use xlink:href="#b3Ct5Cm9y" opacity="1" fill-opacity="0" stroke="#000000" stroke-width="1" stroke-opacity="0"></use></g></g><g><use xlink:href="#b4LVIYmCik" opacity="1" fill="#ffffff" fill-opacity="1"></use><g><use xlink:href="#b4LVIYmCik" opacity="1" fill-opacity="0" stroke="#000000" stroke-width="1" stroke-opacity="0"></use></g></g><g><use xlink:href="#c7f8vkCKx" opacity="1" fill="#ffffff" fill-opacity="1"></use><g><use xlink:href="#c7f8vkCKx" opacity="1" fill-opacity="0" stroke="#000000" stroke-width="1" stroke-opacity="0"></use></g></g></g></g></svg>