<?xml version="1.0" encoding="UTF-8" standalone="no"?>
<!DOCTYPE svg PUBLIC "-//W3C//DTD SVG 1.1//EN" "http://www.w3.org/Graphics/SVG/1.1/DTD/svg11.dtd">
<svg version="1.1" xmlns="http://www.w3.org/2000/svg" xmlns:xlink="http://www.w3.org/1999/xlink" preserveAspectRatio="xMidYMid meet" viewBox="0 0 195 201" width="195" height="201"><defs><path d="M97.48 200.07L192.65 150.28L192.65 50.71L97.48 0.93L2.31 50.71L2.31 150.28L97.48 200.07Z" id="bp7pDdZsN"></path><path d="M100.17 86.87L101.41 87.3L102.57 87.89L103.64 88.61L104.61 89.46L105.46 90.43L106.18 91.49L106.76 92.66L107.19 93.89L107.46 95.2L107.55 96.56L107.46 97.92L107.19 99.23L106.76 100.47L106.18 101.63L105.46 102.7L104.61 103.67L103.64 104.52L102.57 105.24L101.41 105.82L100.17 106.25L98.86 106.52L97.5 106.61L96.14 106.52L94.83 106.25L93.59 105.82L92.43 105.24L91.36 104.52L90.4 103.67L89.55 102.7L88.82 101.63L88.24 100.47L87.81 99.23L87.54 97.92L87.45 96.56L87.54 95.2L87.81 93.89L88.24 92.66L88.82 91.49L89.55 90.43L90.4 89.46L91.36 88.61L92.43 87.89L93.59 87.3L94.83 86.87L96.14 86.6L97.5 86.51L98.86 86.6L100.17 86.87ZM97.5 96.56L97.5 91.54L97.49 96.56L97.5 96.56Z" id="a3pGPIe6EO"></path><path d="M100.35 26.48L101.73 26.81L103.08 27.26L104.4 27.84L105.68 28.53L106.92 29.34L108.13 30.25L109.31 31.28L110.45 32.41L111.56 33.64L112.63 34.96L113.66 36.38L114.66 37.88L115.62 39.48L116.55 41.15L117.44 42.9L118.3 44.73L119.12 46.63L119.9 48.6L120.64 50.63L121.35 52.72L122.02 54.86L122.66 57.06L123.25 59.31L123.81 61.61L124.33 63.95L124.82 66.32L125.26 68.74L125.67 71.18L126.04 73.65L126.37 76.15L126.67 78.66L126.92 81.2L127.14 83.75L127.32 86.3L127.45 88.87L127.55 91.43L127.61 94L127.63 96.56L127.61 99.12L127.55 101.69L127.45 104.26L127.32 106.82L127.14 109.38L126.92 111.93L126.67 114.46L126.37 116.98L126.04 119.47L125.67 121.94L125.26 124.39L124.82 126.8L124.33 129.18L123.81 131.51L123.25 133.81L122.66 136.06L122.02 138.26L121.35 140.41L120.64 142.5L119.9 144.53L119.12 146.49L118.3 148.39L117.44 150.22L116.55 151.97L115.62 153.65L114.66 155.24L113.66 156.75L112.63 158.16L111.56 159.49L110.45 160.72L109.31 161.84L108.13 162.87L106.92 163.79L105.68 164.59L104.4 165.29L103.08 165.86L101.73 166.32L100.35 166.64L98.93 166.84L97.48 166.91L96.03 166.84L94.61 166.64L93.23 166.32L91.88 165.86L90.56 165.29L89.28 164.59L88.03 163.79L86.82 162.87L85.65 161.84L84.51 160.72L83.4 159.49L82.33 158.16L81.3 156.75L80.3 155.24L79.33 153.65L78.41 151.97L77.52 150.22L76.66 148.39L75.84 146.49L75.06 144.53L74.32 142.5L73.61 140.41L72.94 138.26L72.3 136.06L71.71 133.81L71.15 131.51L70.62 129.18L70.14 126.8L69.7 124.39L69.29 121.94L68.92 119.47L68.59 116.98L68.29 114.46L68.04 111.93L67.82 109.38L67.65 106.82L67.51 104.26L67.41 101.69L67.35 99.12L67.33 96.56L67.35 94L67.41 91.43L67.51 88.87L67.65 86.3L67.82 83.75L68.04 81.2L68.29 78.66L68.59 76.15L68.92 73.65L69.29 71.18L69.7 68.74L70.14 66.32L70.62 63.95L71.15 61.61L71.71 59.31L72.3 57.06L72.94 54.86L73.61 52.72L74.32 50.63L75.06 48.6L75.84 46.63L76.66 44.73L77.52 42.9L78.41 41.15L79.33 39.48L80.3 37.88L81.3 36.38L82.33 34.96L83.4 33.64L84.51 32.41L85.65 31.28L86.82 30.25L88.03 29.34L89.28 28.53L90.56 27.84L91.88 27.26L93.23 26.81L94.61 26.48L96.03 26.28L97.48 26.21L98.93 26.28L100.35 26.48ZM96.2 36.43L95.54 36.65L94.88 36.94L94.21 37.32L93.53 37.78L92.85 38.32L92.17 38.95L91.48 39.65L90.8 40.43L90.12 41.29L89.44 42.23L88.76 43.24L88.09 44.33L87.43 45.49L86.78 46.73L86.14 48.04L85.51 49.42L84.89 50.88L84.28 52.4L83.7 54L83.12 55.66L82.57 57.4L82.04 59.2L81.53 61.07L81.04 63L80.58 65L80.14 67.06L79.72 69.19L79.34 71.38L78.99 73.63L78.67 75.95L78.38 78.32L78.12 80.75L77.9 83.25L77.72 85.8L77.57 88.4L77.47 91.07L77.4 93.79L77.38 96.56L77.4 99.34L77.47 102.06L77.57 104.72L77.72 107.33L77.9 109.88L78.12 112.37L78.38 114.81L78.67 117.18L78.99 119.49L79.34 121.75L79.72 123.94L80.14 126.06L80.58 128.13L81.04 130.13L81.53 132.06L82.04 133.93L82.57 135.73L83.12 137.46L83.7 139.13L84.28 140.72L84.89 142.25L85.51 143.7L86.14 145.09L86.78 146.4L87.43 147.63L88.09 148.8L88.76 149.89L89.44 150.9L90.12 151.84L90.8 152.69L91.48 153.48L92.17 154.18L92.85 154.8L93.53 155.34L94.21 155.8L94.88 156.18L95.54 156.48L96.2 156.69L96.85 156.82L97.48 156.86L98.12 156.82L98.76 156.69L99.42 156.48L100.08 156.18L100.75 155.8L101.43 155.34L102.11 154.8L102.79 154.18L103.48 153.48L104.16 152.69L104.84 151.84L105.52 150.9L106.2 149.89L106.87 148.8L107.53 147.63L108.18 146.4L108.82 145.09L109.46 143.7L110.07 142.25L110.68 140.72L111.27 139.13L111.84 137.46L112.39 135.73L112.92 133.93L113.43 132.06L113.92 130.13L114.39 128.13L114.83 126.06L115.24 123.94L115.62 121.75L115.97 119.49L116.3 117.18L116.59 114.81L116.84 112.37L117.06 109.88L117.24 107.33L117.39 104.72L117.49 102.06L117.56 99.34L117.58 96.56L117.56 93.79L117.49 91.07L117.39 88.4L117.24 85.8L117.06 83.25L116.84 80.75L116.59 78.32L116.3 75.95L115.97 73.63L115.62 71.38L115.24 69.19L114.83 67.06L114.39 65L113.92 63L113.43 61.07L112.92 59.2L112.39 57.4L111.84 55.66L111.27 54L110.68 52.4L110.07 50.88L109.46 49.42L108.82 48.04L108.18 46.73L107.53 45.49L106.87 44.33L106.2 43.24L105.52 42.23L104.84 41.29L104.16 40.43L103.48 39.65L102.79 38.95L102.11 38.32L101.43 37.78L100.75 37.32L100.08 36.94L99.42 36.65L98.76 36.43L98.12 36.3L97.48 36.26L96.85 36.3L96.2 36.43Z" id="d4ZOUash9l"></path><path d="M61.04 52.44L63.05 52.62L65.11 52.86L67.2 53.16L69.33 53.53L71.5 53.96L73.69 54.45L75.91 55.01L78.16 55.61L80.43 56.28L82.71 56.99L85.01 57.76L87.32 58.58L89.64 59.45L91.97 60.37L94.29 61.33L96.62 62.33L98.94 63.38L101.25 64.47L103.56 65.59L105.84 66.75L108.12 67.95L110.37 69.18L112.59 70.45L113.76 71.13L114.92 71.81L116.07 72.51L117.22 73.21L118.35 73.91L119.47 74.63L120.58 75.35L121.69 76.07L122.78 76.8L123.86 77.53L124.93 78.27L125.99 79.02L127.04 79.77L128.08 80.52L129.11 81.28L130.12 82.04L131.13 82.81L132.12 83.58L133.09 84.35L134.06 85.13L135.01 85.91L135.95 86.69L136.87 87.48L137.78 88.27L138.68 89.06L139.56 89.86L140.43 90.65L141.29 91.45L142.13 92.25L142.95 93.05L143.76 93.85L144.55 94.66L145.33 95.46L146.09 96.27L146.84 97.08L147.57 97.88L148.28 98.69L148.97 99.5L149.65 100.3L150.31 101.11L151.03 102.01L151.72 102.9L152.38 103.79L153.02 104.68L153.63 105.56L154.22 106.43L154.78 107.3L155.32 108.16L155.83 109.02L156.31 109.87L156.77 110.72L157.2 111.56L157.6 112.39L157.98 113.22L158.33 114.04L158.66 114.85L158.96 115.65L159.23 116.45L159.48 117.24L159.7 118.02L159.89 118.8L160.06 119.56L160.2 120.32L160.31 121.07L160.4 121.81L160.46 122.54L160.49 123.26L160.5 123.97L160.47 124.68L160.43 125.37L160.35 126.06L160.25 126.73L160.12 127.39L159.96 128.05L159.78 128.69L159.56 129.32L159.32 129.94L159.06 130.55L158.76 131.15L158.44 131.73L158.18 132.18L157.9 132.61L157.6 133.03L157.29 133.44L156.97 133.84L156.64 134.23L156.29 134.61L155.92 134.97L155.55 135.33L155.16 135.67L154.75 136.01L154.33 136.33L153.9 136.64L153.46 136.94L153 137.23L152.53 137.51L152.05 137.78L151.55 138.04L151.04 138.28L150.52 138.52L149.99 138.74L149.44 138.95L148.88 139.15L148.31 139.34L147.73 139.52L147.13 139.69L146.53 139.84L145.91 139.99L145.28 140.12L144.63 140.24L143.98 140.35L143.31 140.45L142.63 140.53L141.94 140.61L141.24 140.67L140.53 140.72L139.81 140.77L139.07 140.79L138.33 140.81L137.57 140.82L137.34 140.82L137.12 140.82L136.89 140.81L136.66 140.81L136.43 140.81L136.2 140.8L135.97 140.79L135.74 140.79L135.51 140.78L135.28 140.77L135.04 140.76L134.81 140.75L134.57 140.73L134.33 140.72L134.09 140.71L133.86 140.69L133.62 140.67L133.37 140.66L133.13 140.64L132.89 140.62L132.65 140.6L132.4 140.58L132.16 140.55L131.91 140.53L131.66 140.5L131.42 140.48L131.17 140.45L130.92 140.42L130.67 140.39L130.41 140.36L130.16 140.33L129.91 140.3L129.65 140.27L129.4 140.23L129.14 140.2L128.89 140.16L128.63 140.12L128.37 140.08L128.11 140.04L127.85 140L126.82 139.83L125.78 139.65L124.74 139.45L123.68 139.24L122.62 139.01L121.55 138.77L120.47 138.51L119.39 138.24L118.3 137.95L117.2 137.65L116.09 137.34L114.98 137.01L113.86 136.67L112.74 136.32L111.61 135.95L110.48 135.57L109.34 135.17L108.19 134.76L107.05 134.34L105.89 133.91L104.74 133.46L103.58 133L102.42 132.53L101.25 132.05L100.08 131.55L98.91 131.04L97.74 130.52L96.57 129.98L95.39 129.44L94.22 128.88L93.04 128.31L91.86 127.73L90.68 127.14L89.5 126.53L88.33 125.91L87.15 125.29L85.97 124.65L84.79 124L83.62 123.34L82.44 122.67L80.24 121.37L78.04 120.03L75.87 118.67L73.72 117.26L71.6 115.83L69.5 114.37L67.43 112.89L65.4 111.37L63.4 109.84L61.45 108.28L59.54 106.71L57.67 105.11L55.85 103.51L54.09 101.89L52.38 100.25L50.73 98.61L49.14 96.96L47.62 95.31L46.16 93.65L44.78 91.99L43.47 90.33L42.23 88.67L41.07 87.02L40 85.37L39.02 83.73L38.12 82.1L37.31 80.48L36.6 78.88L35.99 77.29L35.48 75.72L35.07 74.16L34.77 72.63L34.58 71.13L34.5 69.64L34.54 68.19L34.7 66.76L34.99 65.36L35.39 64L35.93 62.67L36.6 61.38L37.38 60.16L38.26 59.03L39.24 58L40.31 57.06L41.47 56.2L42.71 55.44L44.03 54.77L45.43 54.18L46.91 53.67L48.46 53.25L50.07 52.9L51.76 52.64L53.5 52.45L55.31 52.34L57.17 52.3L59.08 52.34L61.04 52.44ZM54.49 62.43L53.34 62.55L52.26 62.71L51.24 62.91L50.29 63.15L49.41 63.43L48.6 63.75L47.86 64.11L47.19 64.5L46.6 64.92L46.09 65.38L45.66 65.88L45.3 66.41L45.8 67.85L46.34 69.27L46.9 70.68L47.49 72.08L48.11 73.47L48.75 74.84L49.43 76.2L50.13 77.55L50.86 78.89L51.62 80.21L52.4 81.52L53.22 82.82L54.06 84.1L54.93 85.38L55.83 86.63L56.76 87.88L57.72 89.11L58.7 90.33L59.71 91.54L60.75 92.74L61.82 93.92L62.92 95.09L64.04 96.25L65.19 97.39L66.37 98.52L67.58 99.64L68.82 100.75L70.09 101.84L71.38 102.92L72.7 103.99L74.05 105.04L75.43 106.09L76.84 107.12L78.27 108.13L79.73 109.14L81.22 110.13L82.74 111.11L84.29 112.07L85.87 113.02L87.47 113.96L88.56 114.59L89.66 115.21L90.76 115.81L91.85 116.41L92.95 116.99L94.05 117.57L95.14 118.13L96.24 118.68L97.33 119.23L98.43 119.76L99.52 120.28L100.61 120.79L101.7 121.28L102.79 121.77L103.87 122.24L104.95 122.71L106.03 123.16L107.1 123.6L108.17 124.02L109.24 124.44L110.31 124.84L111.37 125.23L112.42 125.61L113.47 125.98L114.52 126.33L115.56 126.67L116.59 127L117.62 127.32L118.64 127.62L119.66 127.91L120.67 128.19L121.67 128.45L122.67 128.7L123.66 128.94L124.64 129.16L125.61 129.37L126.57 129.57L127.53 129.75L128.48 129.92L129.42 130.07L130.19 130.19L130.96 130.3L131.71 130.39L132.46 130.48L133.19 130.55L133.91 130.62L134.62 130.67L135.32 130.71L136.01 130.74L136.68 130.76L137.34 130.77L137.99 130.77L138.63 130.76L139.25 130.74L139.86 130.71L140.45 130.67L141.03 130.62L141.6 130.55L142.15 130.48L142.68 130.4L143.2 130.31L143.7 130.2L144.19 130.09L144.66 129.97L145.12 129.84L145.55 129.7L145.97 129.55L146.38 129.38L146.76 129.21L147.13 129.03L147.48 128.84L147.81 128.64L148.12 128.43L148.41 128.21L148.68 127.99L148.93 127.75L149.17 127.5L149.38 127.25L149.57 126.98L149.74 126.71L149.89 126.42L150.02 126.12L150.14 125.81L150.23 125.49L150.31 125.15L150.37 124.8L150.42 124.44L150.44 124.06L150.45 123.68L150.44 123.28L150.41 122.87L150.37 122.45L150.31 122.02L150.23 121.59L150.13 121.14L150.02 120.68L149.89 120.21L149.74 119.73L149.58 119.24L149.4 118.75L149.2 118.24L148.99 117.73L148.76 117.21L148.52 116.68L148.26 116.15L147.98 115.61L147.69 115.06L147.38 114.5L147.06 113.94L146.72 113.37L146.36 112.8L145.99 112.22L145.61 111.64L145.21 111.05L144.79 110.46L144.36 109.86L143.92 109.26L143.46 108.65L142.98 108.04L142.49 107.43L141.89 106.69L141.27 105.96L140.63 105.22L139.98 104.48L139.31 103.74L138.63 103L137.93 102.27L137.22 101.53L136.49 100.79L135.74 100.05L134.98 99.32L134.21 98.58L133.42 97.85L132.62 97.12L131.8 96.39L130.97 95.66L130.13 94.93L129.28 94.21L128.41 93.49L127.53 92.77L126.63 92.05L125.73 91.34L124.81 90.62L123.88 89.92L122.94 89.21L121.98 88.51L121.02 87.81L120.05 87.12L119.06 86.43L118.06 85.74L117.06 85.06L116.04 84.38L115.01 83.71L113.98 83.04L112.93 82.38L111.88 81.72L110.81 81.07L109.74 80.43L108.66 79.79L107.57 79.15L105.16 77.78L102.77 76.48L100.41 75.24L98.08 74.06L95.78 72.94L93.51 71.89L91.27 70.89L89.07 69.96L86.91 69.08L84.78 68.26L82.7 67.5L80.65 66.79L78.64 66.14L76.68 65.54L74.76 65L72.89 64.51L71.06 64.07L69.28 63.68L67.56 63.34L65.88 63.06L64.26 62.82L62.69 62.62L61.18 62.48L59.72 62.38L58.32 62.33L56.98 62.32L55.71 62.35L54.49 62.43Z" id="d60WBwIbz"></path><path d="M139.42 52.34L140.36 52.38L141.29 52.45L142.19 52.54L143.08 52.64L143.94 52.76L144.79 52.91L145.62 53.07L146.42 53.25L147.21 53.45L147.98 53.67L148.72 53.91L149.45 54.17L150.15 54.45L150.84 54.74L151.5 55.06L152.14 55.39L152.76 55.74L153.36 56.11L153.93 56.5L154.49 56.91L155.02 57.33L155.53 57.78L156.01 58.24L156.48 58.72L156.92 59.22L157.33 59.74L157.73 60.27L158.1 60.82L158.44 61.4L158.76 61.98L159.06 62.58L159.32 63.19L159.56 63.81L159.78 64.44L159.96 65.08L160.12 65.74L160.25 66.4L160.35 67.07L160.43 67.76L160.47 68.45L160.5 69.15L160.49 69.87L160.46 70.59L160.4 71.32L160.31 72.06L160.2 72.81L160.06 73.56L159.89 74.33L159.7 75.1L159.48 75.89L159.23 76.68L158.96 77.47L158.66 78.28L158.33 79.09L157.98 79.91L157.6 80.74L157.2 81.57L156.77 82.41L156.31 83.25L155.83 84.11L155.32 84.96L154.78 85.83L154.22 86.7L153.63 87.57L153.02 88.45L152.38 89.34L151.72 90.22L151.03 91.12L150.31 92.02L149.65 92.82L148.97 93.63L148.28 94.44L147.57 95.24L146.84 96.05L146.09 96.86L145.33 97.66L144.55 98.47L143.76 99.27L142.95 100.07L142.13 100.87L141.29 101.67L140.43 102.47L139.56 103.27L138.68 104.06L137.78 104.85L136.87 105.64L135.95 106.43L135.01 107.21L134.06 107.99L133.09 108.77L132.12 109.54L131.13 110.32L130.12 111.08L129.11 111.84L128.08 112.6L127.04 113.36L125.99 114.11L124.93 114.85L123.86 115.59L122.78 116.33L121.69 117.06L120.58 117.78L119.47 118.5L118.35 119.21L117.22 119.92L116.07 120.62L114.92 121.31L113.76 122L112.59 122.68L111.21 123.47L109.81 124.25L108.4 125.02L106.99 125.77L105.56 126.52L104.14 127.24L102.7 127.96L101.26 128.65L99.82 129.34L98.37 130L96.92 130.66L95.47 131.29L94.02 131.91L92.56 132.51L91.11 133.1L89.66 133.66L88.21 134.21L86.76 134.74L85.32 135.25L83.88 135.74L82.44 136.21L81.02 136.66L79.6 137.09L78.18 137.5L76.78 137.89L75.38 138.25L73.99 138.59L72.61 138.91L71.25 139.21L69.9 139.48L68.56 139.73L67.23 139.96L65.92 140.15L64.62 140.33L63.34 140.48L62.07 140.6L60.83 140.7L59.6 140.76L58.39 140.81L57.2 140.82L56.49 140.82L55.8 140.8L55.11 140.77L54.42 140.74L53.75 140.69L53.08 140.63L52.43 140.57L51.78 140.49L51.14 140.4L50.51 140.3L49.89 140.19L49.27 140.06L48.67 139.93L48.08 139.78L47.49 139.63L46.92 139.46L46.36 139.28L45.8 139.09L45.26 138.88L44.73 138.67L44.21 138.44L43.7 138.2L43.2 137.95L42.71 137.69L42.24 137.41L41.77 137.12L41.32 136.82L40.88 136.51L40.45 136.19L40.04 135.85L39.63 135.5L39.24 135.13L38.87 134.75L38.5 134.36L38.15 133.96L37.81 133.55L37.49 133.12L37.18 132.67L36.88 132.22L36.6 131.75L35.93 130.45L35.39 129.13L34.99 127.76L34.7 126.37L34.54 124.94L34.5 123.48L34.58 122L34.77 120.49L35.07 118.96L35.48 117.41L35.99 115.84L36.6 114.25L37.31 112.64L38.12 111.02L39.02 109.39L40 107.75L41.07 106.1L42.23 104.45L43.47 102.79L44.78 101.13L46.16 99.47L47.62 97.81L49.14 96.16L50.73 94.51L52.38 92.87L54.09 91.24L55.85 89.62L57.67 88.01L59.54 86.42L61.45 84.84L63.4 83.29L65.4 81.75L67.43 80.24L69.5 78.75L71.6 77.29L73.72 75.86L75.87 74.46L78.04 73.09L80.24 71.76L82.44 70.46L83.62 69.79L84.79 69.13L85.97 68.48L87.15 67.84L88.33 67.21L89.5 66.6L90.68 65.99L91.86 65.4L93.04 64.82L94.22 64.25L95.39 63.69L96.57 63.14L97.74 62.61L98.91 62.09L100.09 61.58L101.25 61.08L102.42 60.59L103.58 60.12L104.74 59.66L105.89 59.21L107.05 58.78L108.19 58.36L109.34 57.95L110.48 57.56L111.61 57.17L112.74 56.81L113.86 56.45L114.98 56.11L116.1 55.78L117.2 55.47L118.3 55.17L119.39 54.89L120.48 54.62L121.56 54.36L122.63 54.12L123.69 53.89L124.75 53.68L125.79 53.48L126.83 53.29L127.86 53.12L129 52.95L130.12 52.8L131.22 52.67L132.31 52.56L133.38 52.47L134.43 52.4L135.46 52.35L136.48 52.32L137.48 52.3L138.46 52.31L139.42 52.34ZM137.26 62.35L137.08 62.35L136.89 62.36L136.7 62.36L136.5 62.37L136.31 62.37L136.12 62.38L135.92 62.39L135.73 62.39L135.53 62.4L135.33 62.41L135.13 62.42L134.93 62.44L134.73 62.45L134.53 62.46L134.33 62.48L134.13 62.49L133.92 62.51L133.72 62.52L133.51 62.54L133.3 62.56L133.1 62.58L132.89 62.6L132.68 62.62L132.47 62.65L132.25 62.67L132.04 62.69L131.83 62.72L131.61 62.74L131.4 62.77L131.18 62.8L130.96 62.83L130.75 62.86L130.53 62.89L130.31 62.92L130.09 62.95L129.86 62.98L129.64 63.02L129.42 63.05L128.48 63.21L127.53 63.38L126.57 63.56L125.61 63.75L124.64 63.96L123.65 64.19L122.67 64.42L121.67 64.67L120.67 64.94L119.66 65.21L118.64 65.5L117.62 65.81L116.59 66.12L115.55 66.45L114.51 66.79L113.47 67.15L112.42 67.51L111.36 67.89L110.3 68.28L109.24 68.69L108.17 69.1L107.1 69.53L106.02 69.97L104.95 70.42L103.86 70.88L102.78 71.36L101.69 71.84L100.61 72.34L99.52 72.85L98.42 73.37L97.33 73.9L96.24 74.44L95.14 75L94.04 75.56L92.95 76.13L91.85 76.72L90.75 77.31L89.66 77.92L88.56 78.54L87.47 79.16L85.08 80.57L82.75 81.98L80.5 83.41L78.31 84.84L76.2 86.27L74.15 87.71L72.17 89.14L70.26 90.58L68.42 92.02L66.64 93.45L64.94 94.88L63.3 96.3L61.73 97.71L60.24 99.11L58.8 100.5L57.44 101.87L56.15 103.24L54.92 104.58L53.77 105.91L52.68 107.22L51.66 108.5L50.71 109.76L49.83 111L49.02 112.21L48.27 113.4L47.59 114.55L46.99 115.68L46.45 116.77L45.97 117.82L45.57 118.85L45.24 119.83L44.97 120.77L44.77 121.68L44.64 122.54L44.58 123.35L44.59 124.12L44.66 124.85L44.81 125.52L45.02 126.15L45.3 126.72L45.65 127.25L46.09 127.74L46.6 128.21L47.19 128.63L47.85 129.02L48.59 129.38L49.4 129.7L50.28 129.98L51.23 130.22L52.25 130.42L53.34 130.58L54.49 130.7L55.7 130.78L56.98 130.81L58.32 130.8L59.71 130.75L61.17 130.65L62.68 130.51L64.25 130.32L65.87 130.08L67.55 129.79L69.28 129.45L71.05 129.06L72.88 128.62L74.75 128.13L76.67 127.59L78.64 126.99L80.64 126.34L82.69 125.63L84.78 124.87L86.91 124.05L89.07 123.17L91.27 122.23L93.51 121.24L95.77 120.18L98.08 119.07L100.41 117.89L102.77 116.65L105.15 115.34L107.57 113.98L108.66 113.34L109.74 112.7L110.81 112.05L111.88 111.4L112.93 110.74L113.98 110.08L115.01 109.41L116.04 108.74L117.06 108.06L118.06 107.38L119.06 106.69L120.05 106L121.02 105.31L121.98 104.61L122.94 103.91L123.88 103.2L124.81 102.5L125.73 101.78L126.63 101.07L127.53 100.35L128.41 99.63L129.28 98.91L130.13 98.19L130.98 97.46L131.81 96.73L132.62 96L133.42 95.27L134.21 94.54L134.99 93.8L135.75 93.07L136.49 92.33L137.22 91.59L137.94 90.86L138.64 90.12L139.32 89.38L139.99 88.64L140.64 87.91L141.28 87.17L141.9 86.43L142.5 85.7L142.99 85.08L143.46 84.48L143.92 83.87L144.37 83.27L144.8 82.67L145.21 82.08L145.61 81.49L146 80.91L146.37 80.33L146.72 79.76L147.06 79.19L147.38 78.63L147.69 78.07L147.98 77.52L148.26 76.98L148.52 76.45L148.76 75.92L148.99 75.4L149.2 74.89L149.4 74.38L149.58 73.89L149.74 73.4L149.89 72.92L150.02 72.46L150.13 72L150.23 71.55L150.31 71.11L150.37 70.68L150.41 70.26L150.44 69.85L150.45 69.45L150.44 69.07L150.42 68.69L150.37 68.33L150.31 67.98L150.23 67.64L150.14 67.32L150.02 67L149.89 66.71L149.74 66.42L149.62 66.22L149.49 66.03L149.35 65.84L149.2 65.66L149.03 65.48L148.86 65.31L148.68 65.14L148.49 64.98L148.28 64.82L148.07 64.66L147.85 64.52L147.62 64.37L147.37 64.23L147.12 64.1L146.86 63.97L146.59 63.84L146.32 63.72L146.03 63.61L145.73 63.5L145.43 63.39L145.11 63.29L144.79 63.19L144.46 63.1L144.12 63.02L143.77 62.94L143.42 62.86L143.05 62.79L142.68 62.73L142.3 62.67L141.91 62.61L141.52 62.56L141.12 62.52L140.71 62.48L140.29 62.44L139.86 62.42L139.43 62.39L139 62.37L138.55 62.36L138.1 62.35L137.64 62.35L137.45 62.35L137.26 62.35Z" id="dKPKBbW4A"></path></defs><g><g><g><use xlink:href="#bp7pDdZsN" opacity="1" fill="#000000" fill-opacity="0"></use><g><use xlink:href="#bp7pDdZsN" opacity="1" fill-opacity="0" stroke="#00c7fc" stroke-width="1" stroke-opacity="1"></use></g></g><path></path><g><use xlink:href="#a3pGPIe6EO" opacity="1" fill="#ffffff" fill-opacity="1"></use><g><use xlink:href="#a3pGPIe6EO" opacity="1" fill-opacity="0" stroke="#000000" stroke-width="1" stroke-opacity="0"></use></g></g><g><use xlink:href="#d4ZOUash9l" opacity="1" fill="#ffffff" fill-opacity="1"></use><g><use xlink:href="#d4ZOUash9l" opacity="1" fill-opacity="0" stroke="#000000" stroke-width="1" stroke-opacity="0"></use></g></g><g><use xlink:href="#d60WBwIbz" opacity="1" fill="#ffffff" fill-opacity="1"></use><g><use xlink:href="#d60WBwIbz" opacity="1" fill-opacity="0" stroke="#000000" stroke-width="1" stroke-opacity="0"></use></g></g><g><use xlink:href="#dKPKBbW4A" opacity="1" fill="#ffffff" fill-opacity="1"></use><g><use xlink:href="#dKPKBbW4A" opacity="1" fill-opacity="0" stroke="#000000" stroke-width="1" stroke-opacity="0"></use></g></g></g></g></svg>