<?xml version="1.0" encoding="UTF-8" standalone="no"?>
<!DOCTYPE svg PUBLIC "-//W3C//DTD SVG 1.1//EN" "http://www.w3.org/Graphics/SVG/1.1/DTD/svg11.dtd">
<svg version="1.1" xmlns="http://www.w3.org/2000/svg" xmlns:xlink="http://www.w3.org/1999/xlink" preserveAspectRatio="xMidYMid meet" viewBox="0 0 194 200" width="194" height="200"><defs><path d="M-2.92 278.92L159.95 371L322.82 278.92L322.82 94.76L159.95 2.68L-2.92 94.76L-2.92 278.92Z" id="c6ztXMVXb8"></path><path d="M-2.92 278.92L159.95 371L322.82 278.92L322.82 94.76L159.95 2.68L-2.92 94.76L-2.92 278.92Z" id="b1RMiWyLjo"></path><path d="M-2.92 278.92L159.95 371L322.82 278.92L322.82 94.76L159.95 2.68L-2.92 94.76L-2.92 278.92Z" id="d3TZzpSG0o"></path><path d="M0 150.21L95.17 200L190.33 150.21L190.33 50.64L95.17 0.86L0 50.64L0 150.21Z" id="e15GaboJuC"></path><path d="M33.97 115.93C29.81 115.74 26.6 112.17 26.79 107.97C26.79 102.83 26.79 61.79 26.79 56.66C26.63 52.47 29.84 48.94 33.97 48.75C42.66 48.75 112.17 48.75 120.86 48.75C125 48.92 128.22 52.45 128.07 56.64C128.07 57.5 128.07 64.35 128.07 65.21C128.16 65.88 127.69 66.49 127.03 66.57C126.37 66.66 125.76 66.18 125.68 65.51C125.67 65.41 125.67 65.31 125.68 65.21C125.68 64.36 125.68 57.51 125.68 56.66C125.83 53.8 123.68 51.36 120.86 51.19C112.17 51.19 42.66 51.19 33.97 51.19C31.16 51.37 29.01 53.81 29.16 56.66C29.16 61.79 29.16 102.83 29.16 107.97C28.92 110.83 31.02 113.35 33.85 113.59C33.89 113.6 33.93 113.6 33.97 113.6C41.17 113.6 98.81 113.6 106.02 113.6C106.68 113.69 107.15 114.3 107.06 114.97C107 115.52 106.57 115.96 106.02 116.03C106.02 116.01 41.17 115.93 33.97 115.93Z" id="aj1hy0SaW"></path><path d="M27.27 102.41C27.34 101.53 27.77 100.83 28.32 100.72C33.62 100.69 60.11 100.56 107.8 100.31C107.8 100.31 107.8 100.31 107.8 100.31C108.46 100.44 108.94 101.4 108.86 102.46C108.79 103.34 108.36 104.03 107.81 104.14C102.51 104.17 76.02 104.31 28.33 104.56C27.57 103.83 27.22 103.11 27.27 102.41Z" id="a3AVj6SJFv"></path><path d="M72.3 57.9C71.62 58.04 70.99 57.26 70.9 56.16C70.82 55.06 71.31 54.05 71.99 53.92C72.1 53.9 72.2 53.9 72.3 53.92C73.48 53.92 82.92 53.92 84.1 53.92C84.78 53.78 85.41 54.56 85.5 55.66C85.58 56.76 85.1 57.76 84.41 57.9C84.3 57.92 84.2 57.92 84.1 57.9C81.74 57.9 73.48 57.9 72.3 57.9Z" id="b3tKHVlJk3"></path><path d="M83.58 116.04L83.66 116.05L83.75 116.07L83.83 116.09L83.91 116.12L83.99 116.15L84.07 116.18L84.14 116.22L84.21 116.26L84.28 116.31L84.35 116.36L84.41 116.41L84.47 116.47L84.52 116.53L84.58 116.59L84.62 116.66L84.67 116.72L84.71 116.79L84.75 116.87L84.78 116.94L84.81 117.02L84.83 117.1L84.85 117.18L84.86 117.26L84.87 117.35L84.87 117.43L84.87 131.03L84.87 131.11L84.88 131.19L84.89 131.27L84.9 131.34L84.92 131.42L84.94 131.49L84.96 131.56L84.99 131.63L85.02 131.7L85.05 131.77L85.09 131.84L85.13 131.9L85.17 131.97L85.22 132.03L85.27 132.09L85.32 132.15L85.37 132.2L85.43 132.25L85.49 132.3L85.55 132.35L85.61 132.4L85.68 132.44L85.75 132.48L85.82 132.52L85.89 132.55L85.97 132.58L86.05 132.61L99.58 137L99.73 137.05L99.88 137.11L100.02 137.17L100.16 137.24L100.29 137.32L100.42 137.4L100.55 137.49L100.67 137.58L100.79 137.68L100.9 137.78L101 137.89L101.1 138L101.2 138.11L101.29 138.23L101.37 138.35L101.45 138.48L101.52 138.61L101.59 138.74L101.65 138.88L101.7 139.02L101.75 139.16L101.78 139.3L101.82 139.45L101.84 139.6L101.86 139.75L101.87 139.9L101.88 140.05L101.9 142.77L54.5 142.77L54.5 139.86L54.51 139.73L54.52 139.6L54.54 139.47L54.56 139.35L54.59 139.22L54.62 139.1L54.66 138.98L54.71 138.86L54.76 138.74L54.81 138.63L54.87 138.51L54.94 138.41L55.01 138.3L55.09 138.2L55.17 138.1L55.26 138L55.35 137.91L55.44 137.82L55.54 137.74L55.64 137.66L55.75 137.58L55.86 137.51L55.97 137.44L56.09 137.38L56.21 137.32L56.34 137.27L56.47 137.22L69.67 132.48L69.72 132.46L69.77 132.43L69.82 132.41L69.87 132.38L69.91 132.35L69.96 132.32L70 132.29L70.04 132.26L70.08 132.22L70.12 132.19L70.15 132.15L70.19 132.11L70.22 132.07L70.25 132.03L70.28 131.98L70.31 131.94L70.33 131.89L70.35 131.85L70.37 131.8L70.39 131.75L70.41 131.7L70.42 131.65L70.43 131.6L70.44 131.55L70.45 131.49L70.45 131.44L70.45 131.39L70.45 116.03L83.4 116.03L83.49 116.03L83.58 116.04ZM72.9 131.39L72.9 131.58L72.89 131.78L72.86 131.97L72.83 132.15L72.78 132.34L72.72 132.52L72.66 132.7L72.58 132.87L72.5 133.04L72.41 133.21L72.31 133.37L72.2 133.52L72.08 133.67L71.95 133.82L71.82 133.95L71.68 134.08L71.53 134.21L71.37 134.32L71.21 134.43L71.04 134.53L70.86 134.62L70.68 134.71L70.49 134.78L57.31 139.49L57.29 139.5L57.27 139.51L57.25 139.52L57.23 139.53L57.21 139.54L57.19 139.55L57.18 139.57L57.16 139.58L57.15 139.6L57.13 139.61L57.12 139.63L57.11 139.65L57.09 139.66L57.08 139.68L57.07 139.7L57.07 139.72L57.06 139.74L57.05 139.76L57.05 139.78L57.04 139.8L57.04 139.82L57.04 139.84L57.03 139.86L57.03 140.41L99.37 140.41L99.37 140.05L99.36 140.01L99.36 139.96L99.36 139.92L99.35 139.88L99.34 139.83L99.32 139.79L99.31 139.75L99.29 139.71L99.27 139.67L99.25 139.63L99.22 139.6L99.2 139.56L99.17 139.53L99.14 139.5L99.11 139.47L99.07 139.44L99.04 139.41L99 139.38L98.96 139.36L98.93 139.34L98.88 139.32L98.84 139.3L98.8 139.28L85.36 134.78L85.14 134.71L84.92 134.63L84.71 134.53L84.51 134.43L84.31 134.31L84.12 134.19L83.94 134.06L83.77 133.92L83.61 133.77L83.45 133.61L83.31 133.45L83.17 133.28L83.04 133.1L82.92 132.91L82.82 132.72L82.72 132.53L82.63 132.33L82.56 132.12L82.49 131.91L82.44 131.7L82.4 131.48L82.37 131.26L82.36 131.03L82.36 118.48L72.9 118.48L72.9 131.39Z" id="a1mMOlC0t1"></path><path d="M114.89 131.19C110.38 131.18 106.73 127.51 106.73 122.98C106.73 118.12 106.73 79.21 106.73 74.35C106.73 69.82 110.38 66.15 114.89 66.14C117.99 66.14 142.85 66.14 145.96 66.14C150.46 66.15 154.11 69.82 154.12 74.35C154.12 75.15 154.12 81.59 154.12 82.39C154.12 82.98 153.64 83.46 153.05 83.46C152.47 83.46 151.99 82.98 151.99 82.39C151.99 81.59 151.99 75.15 151.99 74.35C151.99 71 149.29 68.28 145.96 68.28C142.85 68.28 117.99 68.28 114.89 68.28C111.55 68.28 108.85 71 108.85 74.35C108.85 74.35 108.85 74.35 108.85 74.35C108.85 79.21 108.85 118.12 108.85 122.98C108.85 126.33 111.55 129.05 114.89 129.05C117.99 129.05 142.85 129.05 145.96 129.05C146.55 129.05 147.02 129.53 147.02 130.12C147.02 130.71 146.55 131.19 145.96 131.19C139.74 131.19 117.99 131.19 114.89 131.19Z" id="h1bamInvTX"></path><path d="M132.01 70.12C131.13 70.12 130.42 70.83 130.42 71.7C130.42 72.58 131.13 73.29 132.01 73.29C132.88 73.29 133.59 72.58 133.59 71.7C133.59 70.83 132.88 70.12 132.01 70.12Z" id="c4ue6Vikwv"></path><path d="M163.42 81.63L163.79 81.66L164.16 81.72L164.52 81.8L164.87 81.89L165.22 82.01L165.55 82.15L165.88 82.3L166.19 82.48L166.49 82.66L166.78 82.87L167.06 83.09L167.33 83.33L167.58 83.58L167.82 83.85L168.04 84.12L168.24 84.42L168.43 84.72L168.61 85.03L168.76 85.36L168.9 85.69L169.01 86.04L169.11 86.39L169.19 86.75L169.25 87.12L169.28 87.49L169.29 87.87L169.29 126.06L169.28 126.45L169.25 126.82L169.19 127.19L169.11 127.55L169.01 127.9L168.9 128.25L168.76 128.58L168.61 128.9L168.43 129.22L168.24 129.52L168.04 129.81L167.82 130.09L167.58 130.36L167.33 130.61L167.06 130.84L166.78 131.07L166.49 131.27L166.19 131.46L165.88 131.63L165.55 131.79L165.22 131.93L164.87 132.04L164.52 132.14L164.16 132.22L163.79 132.27L163.42 132.31L163.04 132.32L151.18 132.32L150.8 132.31L150.43 132.27L150.06 132.22L149.7 132.14L149.34 132.04L149 131.93L148.67 131.79L148.34 131.63L148.03 131.46L147.72 131.27L147.43 131.07L147.15 130.84L146.89 130.61L146.64 130.36L146.4 130.09L146.18 129.81L145.97 129.52L145.78 129.22L145.61 128.9L145.46 128.58L145.32 128.25L145.2 127.9L145.11 127.55L145.03 127.19L144.97 126.82L144.94 126.45L144.92 126.06L144.92 87.87L144.94 87.49L144.97 87.12L145.03 86.75L145.11 86.39L145.2 86.04L145.32 85.69L145.46 85.36L145.61 85.03L145.78 84.72L145.97 84.42L146.18 84.12L146.4 83.85L146.64 83.58L146.89 83.33L147.15 83.09L147.43 82.87L147.72 82.66L148.03 82.48L148.34 82.3L148.67 82.15L149 82.01L149.34 81.89L149.7 81.8L150.06 81.72L150.43 81.66L150.8 81.63L151.18 81.62L163.04 81.62L163.42 81.63ZM150.92 83.87L150.66 83.89L150.4 83.93L150.15 83.99L149.91 84.06L149.68 84.15L149.45 84.25L149.23 84.36L149.01 84.49L148.81 84.63L148.61 84.78L148.43 84.95L148.25 85.12L148.09 85.31L147.94 85.5L147.8 85.7L147.67 85.92L147.56 86.14L147.46 86.37L147.37 86.6L147.3 86.85L147.24 87.09L147.2 87.35L147.17 87.61L147.16 87.87L147.16 126.06L147.17 126.33L147.2 126.59L147.24 126.84L147.3 127.09L147.37 127.33L147.46 127.57L147.56 127.8L147.67 128.02L147.8 128.23L147.94 128.44L148.09 128.63L148.25 128.82L148.43 128.99L148.61 129.15L148.81 129.31L149.01 129.45L149.23 129.57L149.45 129.69L149.68 129.79L149.91 129.88L150.15 129.95L150.4 130.01L150.66 130.05L150.92 130.07L151.18 130.08L163.04 130.08L163.3 130.07L163.56 130.05L163.81 130.01L164.06 129.95L164.31 129.88L164.54 129.79L164.77 129.69L164.99 129.57L165.2 129.45L165.41 129.31L165.6 129.15L165.79 128.99L165.96 128.82L166.13 128.63L166.28 128.44L166.42 128.23L166.55 128.02L166.66 127.8L166.76 127.57L166.85 127.33L166.92 127.09L166.98 126.84L167.02 126.59L167.04 126.33L167.05 126.06L167.05 87.87L167.04 87.61L167.02 87.35L166.98 87.09L166.92 86.85L166.85 86.6L166.76 86.37L166.66 86.14L166.55 85.92L166.42 85.7L166.28 85.5L166.13 85.31L165.96 85.12L165.79 84.95L165.6 84.78L165.41 84.63L165.2 84.49L164.99 84.36L164.77 84.25L164.54 84.15L164.31 84.06L164.06 83.99L163.81 83.93L163.56 83.89L163.3 83.87L163.04 83.86L151.18 83.86L150.92 83.87Z" id="de5IXKmky"></path><path d="M161.56 85.26L162.11 85.54L162.55 85.98L162.83 86.53L162.93 87.16L162.83 87.8L162.55 88.35L162.11 88.78L161.56 89.07L160.92 89.17L153.29 89.17L152.66 89.07L152.11 88.78L151.67 88.35L151.39 87.8L151.28 87.16L151.39 86.53L151.67 85.98L152.11 85.54L152.66 85.26L153.29 85.15L160.92 85.15L161.56 85.26Z" id="aEJmLhiyQ"></path><path d="M78.2 106.97C77.18 106.97 76.36 107.79 76.36 108.81C76.36 109.82 77.18 110.65 78.2 110.65C79.22 110.65 80.04 109.82 80.04 108.81C80.04 107.79 79.22 106.97 78.2 106.97Z" id="bERuaXFqU"></path></defs><g><g><g><use xlink:href="#c6ztXMVXb8" opacity="1" fill="#4666b1" fill-opacity="0"></use><g><use xlink:href="#c6ztXMVXb8" opacity="1" fill-opacity="0" stroke="#000000" stroke-width="1" stroke-opacity="0"></use></g></g><g><use xlink:href="#b1RMiWyLjo" opacity="1" fill="#000000" fill-opacity="0"></use><g><use xlink:href="#b1RMiWyLjo" opacity="1" fill-opacity="0" stroke="#000000" stroke-width="1" stroke-opacity="0"></use></g></g><g><use xlink:href="#d3TZzpSG0o" opacity="1" fill="#000000" fill-opacity="0"></use><g><use xlink:href="#d3TZzpSG0o" opacity="1" fill-opacity="0" stroke="#000000" stroke-width="1" stroke-opacity="0"></use></g></g><g><use xlink:href="#e15GaboJuC" opacity="1" fill="#000000" fill-opacity="0"></use><g><use xlink:href="#e15GaboJuC" opacity="1" fill-opacity="0" stroke="#00c7fc" stroke-width="1" stroke-opacity="1"></use></g></g><g><use xlink:href="#aj1hy0SaW" opacity="1" fill="#ffffff" fill-opacity="1"></use><g><use xlink:href="#aj1hy0SaW" opacity="1" fill-opacity="0" stroke="#000000" stroke-width="1" stroke-opacity="0"></use></g></g><g><use xlink:href="#a3AVj6SJFv" opacity="1" fill="#ffffff" fill-opacity="1"></use><g><use xlink:href="#a3AVj6SJFv" opacity="1" fill-opacity="0" stroke="#000000" stroke-width="1" stroke-opacity="0"></use></g></g><g><use xlink:href="#b3tKHVlJk3" opacity="1" fill="#ffffff" fill-opacity="1"></use><g><use xlink:href="#b3tKHVlJk3" opacity="1" fill-opacity="0" stroke="#000000" stroke-width="1" stroke-opacity="0"></use></g></g><g><use xlink:href="#a1mMOlC0t1" opacity="1" fill="#ffffff" fill-opacity="1"></use><g><use xlink:href="#a1mMOlC0t1" opacity="1" fill-opacity="0" stroke="#000000" stroke-width="1" stroke-opacity="0"></use></g></g><g><use xlink:href="#h1bamInvTX" opacity="1" fill="#ffffff" fill-opacity="1"></use><g><use xlink:href="#h1bamInvTX" opacity="1" fill-opacity="0" stroke="#000000" stroke-width="1" stroke-opacity="0"></use></g></g><g><use xlink:href="#c4ue6Vikwv" opacity="1" fill="#ffffff" fill-opacity="1"></use><g><use xlink:href="#c4ue6Vikwv" opacity="1" fill-opacity="0" stroke="#000000" stroke-width="1" stroke-opacity="0"></use></g></g><g><use xlink:href="#de5IXKmky" opacity="1" fill="#ffffff" fill-opacity="1"></use><g><use xlink:href="#de5IXKmky" opacity="1" fill-opacity="0" stroke="#000000" stroke-width="1" stroke-opacity="0"></use></g></g><g><use xlink:href="#aEJmLhiyQ" opacity="1" fill="#ffffff" fill-opacity="1"></use><g><use xlink:href="#aEJmLhiyQ" opacity="1" fill-opacity="0" stroke="#000000" stroke-width="1" stroke-opacity="0"></use></g></g><g><use xlink:href="#bERuaXFqU" opacity="1" fill="#ffffff" fill-opacity="1"></use><g><use xlink:href="#bERuaXFqU" opacity="1" fill-opacity="0" stroke="#000000" stroke-width="1" stroke-opacity="0"></use></g></g></g></g></svg>