<?xml version="1.0" encoding="UTF-8" standalone="no"?>
<!DOCTYPE svg PUBLIC "-//W3C//DTD SVG 1.1//EN" "http://www.w3.org/Graphics/SVG/1.1/DTD/svg11.dtd">
<svg version="1.1" xmlns="http://www.w3.org/2000/svg" xmlns:xlink="http://www.w3.org/1999/xlink" preserveAspectRatio="xMidYMid meet" viewBox="0 0 195 202" width="195" height="202"><defs><path d="M192.65 50.71L97.48 0.93L2.31 50.71L2.31 150.28L97.48 200.07L192.65 150.28L192.65 50.71Z" id="g4yVEbmFr"></path><path d="M192.65 50.71L97.48 0.93L2.31 50.71L2.31 150.28L97.48 200.07L192.65 150.28L192.65 50.71Z" id="d26fjOl4oZ"></path><path d="M192.67 49.78L97.5 0L2.33 49.78L2.33 149.35L97.5 199.14L192.67 149.35L192.67 49.78Z" id="b5Nou8ymm"></path><path d="M192.67 49.78L97.5 0L2.33 49.78L2.33 149.35L97.5 199.14L192.67 149.35L192.67 49.78Z" id="a2R9453aW"></path><path d="M135.8 55.45L119.03 38.12L57.77 38.12L57.77 138.95L135.8 138.95L135.8 55.45Z" id="a8bAvtvAd"></path><path d="M135.8 55.45L119.03 38.12L57.77 38.12L57.77 138.95L135.8 138.95L135.8 55.45Z" id="c2lFhCc0zd"></path><path d="M119.53 39.58L135.8 55.3L119.53 55.3L119.53 39.58Z" id="a3y4Y1voC"></path><path d="M119.53 39.58L135.8 55.3L119.53 55.3L119.53 39.58Z" id="aeJk6mfCU"></path><path d="M63.91 92.68L63.91 90L66.92 90L66.92 92.68L63.91 92.68Z" id="i4i841FDxa"></path><path d="M78.66 88.2C78.66 86.18 77.03 85.52 75.32 84.69C73.5 83.82 71.63 82.84 71.63 79.77C71.63 76.5 73.73 75.1 76.06 75.1C78.15 75.1 80.27 76.09 80.27 77.98C80.27 78.11 80.27 78.79 80.27 80.01C80.08 80.01 78.63 80.01 78.44 80.01C78.44 79.29 78.44 78.89 78.44 78.82C78.44 77.81 77.2 77.27 76.07 77.27C74.72 77.27 73.64 78.06 73.64 79.65C73.64 81.49 75.03 82.11 76.58 82.84C78.62 83.8 80.64 84.78 80.64 87.99C80.64 91.31 78.48 93.03 75.91 93.03C73.75 93.03 71.34 91.83 71.34 89.35C71.34 89.22 71.34 88.62 71.34 87.53C71.52 87.53 72.96 87.53 73.14 87.53C73.14 88.3 73.14 88.72 73.14 88.81C73.14 90.09 74.46 90.84 75.91 90.84C77.5 90.84 78.66 89.91 78.66 88.2Z" id="a6bu0WBeSP"></path><path d="M98.73 90.7L98.73 92.68L94.29 92.68L94.29 90.7L95.65 90.7L94.65 86.72L90.14 86.72L89.14 90.7L90.51 90.7L90.51 92.68L86.08 92.68L86.08 90.7L87.31 90.7L91.38 74.75L93.42 74.75L97.5 90.7L98.73 90.7ZM92.33 77.5L92.26 77.94L92.16 78.46L90.59 84.68L94.2 84.68L92.65 78.46L92.54 77.94L92.47 77.5L92.43 77.1L92.37 77.1L92.33 77.5Z" id="dky6Wdir"></path><path d="M110.26 87.85C110.26 85.83 108.63 85.17 106.92 84.34C105.1 83.47 103.24 82.49 103.24 79.42C103.24 76.15 105.33 74.75 107.67 74.75C109.75 74.75 111.87 75.74 111.87 77.63C111.87 77.76 111.87 78.44 111.87 79.66C111.69 79.66 110.22 79.66 110.04 79.66C110.04 78.94 110.04 78.54 110.04 78.47C110.04 77.46 108.81 76.92 107.67 76.92C106.31 76.92 105.24 77.71 105.24 79.3C105.24 81.14 106.63 81.76 108.18 82.49C110.22 83.45 112.24 84.43 112.24 87.64C112.24 90.96 110.08 92.68 107.51 92.68C105.35 92.68 102.94 91.48 102.94 89C102.94 88.87 102.94 88.27 102.94 87.18C103.12 87.18 104.57 87.18 104.75 87.18C104.75 87.95 104.75 88.37 104.75 88.46C104.75 89.74 106.06 90.49 107.51 90.49C109.1 90.49 110.26 89.56 110.26 87.85Z" id="b7Xcpa66KO"></path><path d="M124.85 88.2C124.85 86.18 123.22 85.52 121.51 84.69C119.69 83.82 117.83 82.84 117.83 79.77C117.83 76.5 119.92 75.1 122.26 75.1C124.34 75.1 126.46 76.09 126.46 77.98C126.46 78.11 126.46 78.79 126.46 80.01C126.27 80.01 124.81 80.01 124.63 80.01C124.63 79.29 124.63 78.89 124.63 78.82C124.63 77.81 123.4 77.27 122.26 77.27C120.9 77.27 119.83 78.06 119.83 79.65C119.83 81.49 121.22 82.11 122.77 82.84C124.81 83.8 126.83 84.78 126.83 87.99C126.83 91.31 124.67 93.03 122.1 93.03C119.94 93.03 117.53 91.83 117.53 89.35C117.53 89.22 117.53 88.62 117.53 87.53C117.71 87.53 119.16 87.53 119.34 87.53C119.34 88.3 119.34 88.72 119.34 88.81C119.34 90.09 120.65 90.84 122.1 90.84C123.69 90.84 124.85 89.91 124.85 88.2Z" id="cWYfwgGGV"></path></defs><g><g><g><use xlink:href="#g4yVEbmFr" opacity="1" fill="#000000" fill-opacity="0"></use><g><use xlink:href="#g4yVEbmFr" opacity="1" fill-opacity="0" stroke="#000000" stroke-width="1" stroke-opacity="0"></use></g></g><g><use xlink:href="#d26fjOl4oZ" opacity="1" fill="#000000" fill-opacity="0"></use><g><use xlink:href="#d26fjOl4oZ" opacity="1" fill-opacity="0" stroke="#000000" stroke-width="1" stroke-opacity="0"></use></g></g><g><use xlink:href="#b5Nou8ymm" opacity="1" fill="#000000" fill-opacity="0"></use><g><use xlink:href="#b5Nou8ymm" opacity="1" fill-opacity="0" stroke="#000000" stroke-width="1" stroke-opacity="0"></use></g></g><g><use xlink:href="#a2R9453aW" opacity="1" fill="#000000" fill-opacity="0"></use><g><use xlink:href="#a2R9453aW" opacity="1" fill-opacity="0" stroke="#00c7fc" stroke-width="1" stroke-opacity="1"></use></g></g><g><use xlink:href="#a8bAvtvAd" opacity="1" fill="#000000" fill-opacity="0"></use><g><use xlink:href="#a8bAvtvAd" opacity="1" fill-opacity="0" stroke="#000000" stroke-width="1" stroke-opacity="0"></use></g></g><g><use xlink:href="#c2lFhCc0zd" opacity="1" fill="#000000" fill-opacity="0"></use><g><use xlink:href="#c2lFhCc0zd" opacity="1" fill-opacity="0" stroke="#000000" stroke-width="1" stroke-opacity="1"></use></g></g><g><use xlink:href="#a3y4Y1voC" opacity="1" fill="#000000" fill-opacity="0"></use><g><use xlink:href="#a3y4Y1voC" opacity="1" fill-opacity="0" stroke="#000000" stroke-width="1" stroke-opacity="0"></use></g></g><g><use xlink:href="#aeJk6mfCU" opacity="1" fill="#000000" fill-opacity="0"></use><g><use xlink:href="#aeJk6mfCU" opacity="1" fill-opacity="0" stroke="#000000" stroke-width="1" stroke-opacity="1"></use></g></g><g><use xlink:href="#i4i841FDxa" opacity="1" fill="#000000" fill-opacity="1"></use><g><use xlink:href="#i4i841FDxa" opacity="1" fill-opacity="0" stroke="#000000" stroke-width="1" stroke-opacity="0"></use></g></g><g><use xlink:href="#a6bu0WBeSP" opacity="1" fill="#000000" fill-opacity="1"></use><g><use xlink:href="#a6bu0WBeSP" opacity="1" fill-opacity="0" stroke="#000000" stroke-width="1" stroke-opacity="0"></use></g></g><g><use xlink:href="#dky6Wdir" opacity="1" fill="#000000" fill-opacity="1"></use><g><use xlink:href="#dky6Wdir" opacity="1" fill-opacity="0" stroke="#000000" stroke-width="1" stroke-opacity="0"></use></g></g><g><use xlink:href="#b7Xcpa66KO" opacity="1" fill="#000000" fill-opacity="1"></use><g><use xlink:href="#b7Xcpa66KO" opacity="1" fill-opacity="0" stroke="#000000" stroke-width="1" stroke-opacity="0"></use></g></g><g><use xlink:href="#cWYfwgGGV" opacity="1" fill="#000000" fill-opacity="1"></use><g><use xlink:href="#cWYfwgGGV" opacity="1" fill-opacity="0" stroke="#000000" stroke-width="1" stroke-opacity="0"></use></g></g></g></g></svg>