<?xml version="1.0" encoding="UTF-8" standalone="no"?>
<!DOCTYPE svg PUBLIC "-//W3C//DTD SVG 1.1//EN" "http://www.w3.org/Graphics/SVG/1.1/DTD/svg11.dtd">
<svg version="1.1" xmlns="http://www.w3.org/2000/svg" xmlns:xlink="http://www.w3.org/1999/xlink" preserveAspectRatio="xMidYMid meet" viewBox="0 0 195 200" width="195" height="200"><defs><path d="M273.63 476.04C273.63 484.21 273.63 488.74 273.63 489.65C273.63 489.65 273.63 489.65 273.63 489.65C259.16 489.65 251.12 489.65 249.51 489.65C249.51 489.65 249.51 489.65 249.51 489.65C249.51 481.48 249.51 476.95 249.51 476.04C249.51 476.04 249.51 476.04 249.51 476.04C263.98 476.04 272.02 476.04 273.63 476.04C273.63 476.04 273.63 476.04 273.63 476.04Z" id="c3CpV0maLI"></path><path d="M268.98 241.48L269.97 241.68L270.94 241.94L271.87 242.27L272.77 242.67L273.64 243.13L274.46 243.66L275.24 244.24L275.97 244.87L276.66 245.55L277.29 246.29L277.87 247.07L278.39 247.89L278.86 248.75L279.26 249.65L279.59 250.59L279.85 251.55L280.04 252.55L280.16 253.56L280.2 254.61L280.18 255.4L280.11 256.18L279.99 256.95L279.83 257.7L279.63 258.44L279.39 259.16L279.11 259.86L278.78 260.54L278.43 261.2L278.03 261.84L277.6 262.45L277.14 263.03L276.65 263.59L276.12 264.12L275.57 264.62L274.99 265.09L274.38 265.53L273.75 265.93L273.1 266.3L272.42 266.63L271.72 266.93L271.72 276.85L271.71 277.23L271.66 277.61L271.59 277.98L271.49 278.34L271.36 278.68L271.21 279.02L271.04 279.34L270.84 279.65L270.63 279.94L270.39 280.21L270.13 280.47L269.86 280.71L269.56 280.93L269.26 281.12L268.93 281.3L268.6 281.45L268.25 281.57L267.89 281.67L267.52 281.75L267.15 281.79L266.76 281.81L266.38 281.79L266 281.75L265.63 281.67L265.27 281.57L264.92 281.45L264.59 281.3L264.27 281.12L263.96 280.93L263.67 280.71L263.39 280.47L263.14 280.21L262.9 279.94L262.68 279.65L262.48 279.34L262.31 279.02L262.16 278.68L262.03 278.34L261.93 277.98L261.86 277.61L261.82 277.23L261.8 276.85L261.8 266.93L261.12 266.63L260.47 266.3L259.83 265.93L259.21 265.53L258.62 265.09L258.06 264.62L257.52 264.12L257.01 263.59L256.52 263.03L256.07 262.45L255.66 261.84L255.27 261.2L254.93 260.54L254.62 259.86L254.35 259.16L254.12 258.44L253.93 257.7L253.79 256.95L253.69 256.18L253.64 255.4L253.64 254.61L253.68 253.56L253.8 252.55L253.99 251.55L254.25 250.59L254.59 249.65L254.99 248.75L255.45 247.89L255.97 247.07L256.55 246.29L257.18 245.55L257.87 244.87L258.6 244.24L259.38 243.66L260.21 243.13L261.07 242.67L261.97 242.27L262.9 241.94L263.87 241.68L264.86 241.48L265.88 241.37L266.92 241.33L267.96 241.37L268.98 241.48ZM264.07 248.26L262.9 248.89L261.88 249.73L261.05 250.74L260.42 251.91L260.02 253.21L259.88 254.61L260.02 256L260.42 257.3L261.05 258.47L261.88 259.49L262.9 260.32L264.07 260.95L265.36 261.35L266.76 261.49L268.16 261.35L269.46 260.95L270.63 260.32L271.64 259.49L272.48 258.47L273.11 257.3L273.5 256L273.64 254.61L273.5 253.21L273.11 251.91L272.48 250.74L271.64 249.73L270.63 248.89L269.46 248.26L268.16 247.86L266.76 247.73L265.36 247.86L264.07 248.26Z" id="b6sTAp89M"></path><path d="M268.98 241.48L269.97 241.68L270.94 241.94L271.87 242.27L272.77 242.67L273.64 243.13L274.46 243.66L275.24 244.24L275.97 244.87L276.66 245.55L277.29 246.29L277.87 247.07L278.39 247.89L278.86 248.75L279.26 249.65L279.59 250.59L279.85 251.55L280.04 252.55L280.16 253.56L280.2 254.61L280.18 255.4L280.11 256.18L279.99 256.95L279.83 257.7L279.63 258.44L279.39 259.16L279.11 259.86L278.78 260.54L278.43 261.2L278.03 261.84L277.6 262.45L277.14 263.03L276.65 263.59L276.12 264.12L275.57 264.62L274.99 265.09L274.38 265.53L273.75 265.93L273.1 266.3L272.42 266.63L271.72 266.93L271.72 276.85L271.71 277.23L271.66 277.61L271.59 277.98L271.49 278.34L271.36 278.68L271.21 279.02L271.04 279.34L270.84 279.65L270.63 279.94L270.39 280.21L270.13 280.47L269.86 280.71L269.56 280.93L269.26 281.12L268.93 281.3L268.6 281.45L268.25 281.57L267.89 281.67L267.52 281.75L267.15 281.79L266.76 281.81L266.38 281.79L266 281.75L265.63 281.67L265.27 281.57L264.92 281.45L264.59 281.3L264.27 281.12L263.96 280.93L263.67 280.71L263.39 280.47L263.14 280.21L262.9 279.94L262.68 279.65L262.48 279.34L262.31 279.02L262.16 278.68L262.03 278.34L261.93 277.98L261.86 277.61L261.82 277.23L261.8 276.85L261.8 266.93L261.12 266.63L260.47 266.3L259.83 265.93L259.21 265.53L258.62 265.09L258.06 264.62L257.52 264.12L257.01 263.59L256.52 263.03L256.07 262.45L255.66 261.84L255.27 261.2L254.93 260.54L254.62 259.86L254.35 259.16L254.12 258.44L253.93 257.7L253.79 256.95L253.69 256.18L253.64 255.4L253.64 254.61L253.68 253.56L253.8 252.55L253.99 251.55L254.25 250.59L254.59 249.65L254.99 248.75L255.45 247.89L255.97 247.07L256.55 246.29L257.18 245.55L257.87 244.87L258.6 244.24L259.38 243.66L260.21 243.13L261.07 242.67L261.97 242.27L262.9 241.94L263.87 241.68L264.86 241.48L265.88 241.37L266.92 241.33L267.96 241.37L268.98 241.48ZM264.07 248.26L262.9 248.89L261.88 249.73L261.05 250.74L260.42 251.91L260.02 253.21L259.88 254.61L260.02 256L260.42 257.3L261.05 258.47L261.88 259.49L262.9 260.32L264.07 260.95L265.36 261.35L266.76 261.49L268.16 261.35L269.46 260.95L270.63 260.32L271.64 259.49L272.48 258.47L273.11 257.3L273.5 256L273.64 254.61L273.5 253.21L273.11 251.91L272.48 250.74L271.64 249.73L270.63 248.89L269.46 248.26L268.16 247.86L266.76 247.73L265.36 247.86L264.07 248.26Z" id="a10sWDgpjv"></path><path d="M192.65 150.28L192.65 50.71L97.48 0.93L2.31 50.71L2.31 150.28L97.48 200.07L192.65 150.28Z" id="aywEGiwXX"></path><path d="M192.67 149.35L192.67 49.78L97.5 0L2.33 49.78L2.33 149.35L97.5 199.14L192.67 149.35Z" id="c3aHWTDI6O"></path><path d="M135.8 138.95L135.8 55.45L119.03 38.12L57.77 38.12L57.77 138.95L135.8 138.95Z" id="dktJsTwX1"></path><path d="M119.53 55.3L119.53 39.58L135.8 55.3L119.53 55.3Z" id="g30yjn5wdQ"></path><path d="M66.92 92.68L63.91 92.68L63.91 90L66.92 90L66.92 92.68Z" id="aOa52rkjp"></path><path d="M75.91 90.84C77.5 90.84 78.66 89.91 78.66 88.2C78.66 86.18 77.03 85.52 75.32 84.69C73.5 83.82 71.63 82.84 71.63 79.77C71.63 76.5 73.73 75.1 76.06 75.1C78.15 75.1 80.27 76.09 80.27 77.98C80.27 78.11 80.27 78.79 80.27 80.01C80.08 80.01 78.63 80.01 78.44 80.01C78.44 79.29 78.44 78.89 78.44 78.82C78.44 77.81 77.2 77.27 76.07 77.27C74.72 77.27 73.64 78.06 73.64 79.65C73.64 81.49 75.03 82.11 76.58 82.84C78.62 83.8 80.64 84.78 80.64 87.99C80.64 91.31 78.48 93.03 75.91 93.03C73.75 93.03 71.34 91.83 71.34 89.35C71.34 89.22 71.34 88.62 71.34 87.53C71.52 87.53 72.96 87.53 73.14 87.53C73.14 88.3 73.14 88.72 73.14 88.81C73.14 90.09 74.46 90.84 75.91 90.84Z" id="a3kIfKMOEA"></path><path d="M98.73 90.7L98.73 92.68L94.29 92.68L94.29 90.7L95.65 90.7L94.65 86.72L90.14 86.72L89.14 90.7L90.51 90.7L90.51 92.68L86.08 92.68L86.08 90.7L87.31 90.7L91.38 74.75L93.42 74.75L97.5 90.7L98.73 90.7ZM92.36 77.2L92.33 77.5L92.26 77.94L92.16 78.46L90.59 84.68L94.2 84.68L92.65 78.46L92.54 77.94L92.47 77.5L92.44 77.2L92.43 77.1L92.37 77.1L92.36 77.2Z" id="b2amHbP6J9"></path><path d="M107.51 90.49C109.1 90.49 110.26 89.56 110.26 87.85C110.26 85.83 108.63 85.17 106.92 84.34C105.1 83.47 103.24 82.49 103.24 79.42C103.24 76.15 105.33 74.75 107.67 74.75C109.75 74.75 111.87 75.74 111.87 77.63C111.87 77.76 111.87 78.44 111.87 79.66C111.69 79.66 110.22 79.66 110.04 79.66C110.04 78.94 110.04 78.54 110.04 78.47C110.04 77.46 108.81 76.92 107.67 76.92C106.31 76.92 105.24 77.71 105.24 79.3C105.24 81.14 106.63 81.76 108.18 82.49C110.22 83.45 112.24 84.43 112.24 87.64C112.24 90.96 110.08 92.68 107.51 92.68C105.35 92.68 102.94 91.48 102.94 89C102.94 88.87 102.94 88.27 102.94 87.18C103.12 87.18 104.57 87.18 104.75 87.18C104.75 87.95 104.75 88.37 104.75 88.46C104.75 89.74 106.06 90.49 107.51 90.49Z" id="bEx65r7rJ"></path><path d="M122.1 90.84C123.69 90.84 124.85 89.91 124.85 88.2C124.85 86.18 123.22 85.52 121.51 84.69C119.69 83.82 117.83 82.84 117.83 79.77C117.83 76.5 119.92 75.1 122.26 75.1C124.34 75.1 126.46 76.09 126.46 77.98C126.46 78.11 126.46 78.79 126.46 80.01C126.27 80.01 124.81 80.01 124.63 80.01C124.63 79.29 124.63 78.89 124.63 78.82C124.63 77.81 123.4 77.27 122.26 77.27C120.9 77.27 119.83 78.06 119.83 79.65C119.83 81.49 121.22 82.11 122.77 82.84C124.81 83.8 126.83 84.78 126.83 87.99C126.83 91.31 124.67 93.03 122.1 93.03C119.94 93.03 117.53 91.83 117.53 89.35C117.53 89.22 117.53 88.62 117.53 87.53C117.71 87.53 119.16 87.53 119.34 87.53C119.34 88.3 119.34 88.72 119.34 88.81C119.34 90.09 120.65 90.84 122.1 90.84Z" id="bXmBFJpUX"></path></defs><g><g><g><g><use xlink:href="#c3CpV0maLI" opacity="1" fill-opacity="0" stroke="#000000" stroke-width="1" stroke-opacity="0"></use></g></g><g><use xlink:href="#b6sTAp89M" opacity="1" fill="#ffffff" fill-opacity="0"></use><g><use xlink:href="#b6sTAp89M" opacity="1" fill-opacity="0" stroke="#000000" stroke-width="1" stroke-opacity="0"></use></g></g><g><use xlink:href="#a10sWDgpjv" opacity="1" fill="#000000" fill-opacity="0"></use><g><use xlink:href="#a10sWDgpjv" opacity="1" fill-opacity="0" stroke="#000000" stroke-width="1" stroke-opacity="0"></use></g></g><g><use xlink:href="#aywEGiwXX" opacity="1" fill="#000000" fill-opacity="0"></use><g><use xlink:href="#aywEGiwXX" opacity="1" fill-opacity="0" stroke="#000000" stroke-width="1" stroke-opacity="0"></use></g></g><g><use xlink:href="#c3aHWTDI6O" opacity="1" fill="#000000" fill-opacity="0"></use><g><use xlink:href="#c3aHWTDI6O" opacity="1" fill-opacity="0" stroke="#00c7fc" stroke-width="1" stroke-opacity="1"></use></g></g><g><use xlink:href="#dktJsTwX1" opacity="1" fill="#000000" fill-opacity="0"></use><g><use xlink:href="#dktJsTwX1" opacity="1" fill-opacity="0" stroke="#ffffff" stroke-width="1" stroke-opacity="1"></use></g></g><g><use xlink:href="#g30yjn5wdQ" opacity="1" fill="#000000" fill-opacity="0"></use><g><use xlink:href="#g30yjn5wdQ" opacity="1" fill-opacity="0" stroke="#ffffff" stroke-width="1" stroke-opacity="1"></use></g></g><g><use xlink:href="#aOa52rkjp" opacity="1" fill="#ffffff" fill-opacity="1"></use><g><use xlink:href="#aOa52rkjp" opacity="1" fill-opacity="0" stroke="#000000" stroke-width="1" stroke-opacity="0"></use></g></g><g><use xlink:href="#a3kIfKMOEA" opacity="1" fill="#ffffff" fill-opacity="1"></use><g><use xlink:href="#a3kIfKMOEA" opacity="1" fill-opacity="0" stroke="#000000" stroke-width="1" stroke-opacity="0"></use></g></g><g><use xlink:href="#b2amHbP6J9" opacity="1" fill="#ffffff" fill-opacity="1"></use><g><use xlink:href="#b2amHbP6J9" opacity="1" fill-opacity="0" stroke="#000000" stroke-width="1" stroke-opacity="0"></use></g></g><g><use xlink:href="#bEx65r7rJ" opacity="1" fill="#ffffff" fill-opacity="1"></use><g><use xlink:href="#bEx65r7rJ" opacity="1" fill-opacity="0" stroke="#000000" stroke-width="1" stroke-opacity="0"></use></g></g><g><use xlink:href="#bXmBFJpUX" opacity="1" fill="#ffffff" fill-opacity="1"></use><g><use xlink:href="#bXmBFJpUX" opacity="1" fill-opacity="0" stroke="#000000" stroke-width="1" stroke-opacity="0"></use></g></g></g></g></svg>