<?xml version="1.0" encoding="UTF-8" standalone="no"?>
<!DOCTYPE svg PUBLIC "-//W3C//DTD SVG 1.1//EN" "http://www.w3.org/Graphics/SVG/1.1/DTD/svg11.dtd">
<svg version="1.1" xmlns="http://www.w3.org/2000/svg" xmlns:xlink="http://www.w3.org/1999/xlink" preserveAspectRatio="xMidYMid meet" viewBox="0 0 333 371" width="333" height="371"><defs><path d="M4 94.76L4 278.92L166.87 371L329.74 278.92L329.74 94.76L166.87 2.68L4 94.76Z" id="a58FRQqAZr"></path><path d="M4 94.76L4 278.92L166.87 371L329.74 278.92L329.74 94.76L166.87 2.68L4 94.76Z" id="b4nROdMfxj"></path><path d="M158.67 64.89L159.2 65.05L159.69 65.25L160.17 65.48L160.61 65.74L161.03 66.03L161.42 66.34L161.79 66.68L162.14 67.04L162.47 67.41L162.77 67.81L163.05 68.21L163.31 68.63L163.55 69.05L163.78 69.48L163.98 69.91L164.17 70.34L164.34 70.78L164.49 71.2L164.63 71.62L164.76 72.04L164.87 72.44L164.96 72.82L165.05 73.19L165.13 73.54L165.19 73.87L165.24 74.17L165.29 74.45L165.33 74.7L165.35 74.92L165.38 75.1L165.39 75.25L165.4 75.36L165.41 75.42L165.41 75.45L165.46 75.74L165.51 76.1L165.59 76.6L165.69 77.22L165.81 77.95L165.94 78.8L166.09 79.74L166.26 80.79L166.44 81.92L166.63 83.13L166.84 84.42L167.06 85.78L167.28 87.19L167.52 88.66L167.76 90.17L168.01 91.72L168.26 93.3L168.52 94.9L168.78 96.52L169.04 98.15L169.3 99.78L169.56 101.4L169.82 103.01L170.08 104.61L170.33 106.17L170.58 107.7L170.82 109.19L171.05 110.63L171.28 112.01L171.49 113.33L171.69 114.58L171.89 115.75L172.07 116.84L172.23 117.83L172.38 118.72L172.51 119.51L172.63 120.18L172.72 120.74L172.8 121.16L172.87 121.5L172.95 121.8L173.03 122.08L173.12 122.32L173.22 122.53L173.32 122.71L173.43 122.87L173.55 123L173.66 123.1L173.78 123.19L173.91 123.25L174.03 123.29L174.16 123.31L174.29 123.31L174.42 123.3L174.56 123.27L174.69 123.22L174.82 123.17L174.95 123.1L175.08 123.02L175.21 122.93L175.34 122.84L175.46 122.74L175.59 122.63L175.7 122.52L175.82 122.41L175.92 122.3L176.03 122.18L176.13 122.07L176.22 121.96L176.31 121.86L176.38 121.76L176.46 121.67L176.52 121.58L176.57 121.51L176.62 121.45L176.66 121.39L176.68 121.35L176.7 121.33L176.71 121.32L176.76 121.04L176.82 120.69L176.91 120.21L177.02 119.62L177.15 118.91L177.3 118.1L177.47 117.19L177.65 116.19L177.85 115.1L178.07 113.94L178.3 112.7L178.54 111.4L178.79 110.04L179.05 108.64L179.31 107.19L179.59 105.7L179.87 104.19L180.15 102.65L180.43 101.1L180.72 99.54L181.01 97.99L181.29 96.43L181.58 94.89L181.86 93.37L182.13 91.88L182.4 90.42L182.66 89.01L182.91 87.64L183.15 86.32L183.38 85.07L183.59 83.89L183.79 82.78L183.98 81.76L184.15 80.83L184.3 79.99L184.43 79.26L184.54 78.64L184.63 78.14L184.69 77.76L184.75 77.44L184.81 77.13L184.87 76.81L184.94 76.5L185.01 76.18L185.09 75.87L185.18 75.55L185.26 75.24L185.36 74.93L185.46 74.63L185.57 74.32L185.69 74.02L185.82 73.73L185.96 73.44L186.1 73.15L186.25 72.87L186.42 72.6L186.59 72.33L186.78 72.07L186.98 71.82L187.19 71.58L187.41 71.34L187.65 71.12L187.9 70.9L188.16 70.7L188.44 70.5L188.73 70.32L189.04 70.14L189.36 69.98L189.7 69.84L190.05 69.7L190.43 69.58L190.82 69.48L191.22 69.38L191.65 69.31L192.1 69.25L192.56 69.2L193.05 69.17L193.55 69.16L194.08 69.17L194.6 69.21L195.09 69.29L195.55 69.42L195.99 69.59L196.39 69.8L196.78 70.05L197.13 70.33L197.46 70.64L197.77 70.99L198.06 71.35L198.32 71.75L198.56 72.16L198.78 72.6L198.99 73.05L199.17 73.52L199.34 74L199.49 74.48L199.62 74.98L199.74 75.48L199.84 75.98L199.93 76.48L200.01 76.98L200.08 77.47L200.13 77.96L200.18 78.43L200.21 78.9L200.24 79.34L200.26 79.77L200.28 80.18L200.29 80.57L200.29 80.93L200.29 81.27L200.28 81.57L200.28 81.84L200.27 82.08L200.26 82.28L200.26 82.44L200.25 82.55L200.24 82.63L200.24 82.65L200.23 82.72L200.2 82.94L200.16 83.29L200.09 83.77L200.01 84.37L199.91 85.09L199.8 85.91L199.67 86.83L199.54 87.85L199.39 88.94L199.23 90.12L199.06 91.37L198.88 92.68L198.69 94.04L198.5 95.46L198.31 96.92L198.1 98.41L197.9 99.93L197.69 101.46L197.48 103.02L197.27 104.57L197.06 106.13L196.86 107.67L196.65 109.21L196.45 110.71L196.26 112.19L196.06 113.63L195.88 115.02L195.7 116.37L195.53 117.65L195.38 118.87L195.23 120.01L195.09 121.07L194.97 122.04L194.86 122.92L194.76 123.7L194.68 124.36L194.62 124.91L194.57 125.34L194.54 125.63L194.53 125.85L194.53 126.05L194.53 126.24L194.54 126.42L194.56 126.59L194.59 126.74L194.62 126.88L194.67 127.01L194.71 127.13L194.76 127.24L194.82 127.34L194.88 127.43L194.95 127.51L195.02 127.58L195.09 127.65L195.16 127.71L195.24 127.75L195.32 127.8L195.4 127.83L195.48 127.86L195.56 127.88L195.64 127.9L195.72 127.92L195.8 127.93L195.88 127.93L195.96 127.93L196.03 127.93L196.1 127.93L196.17 127.92L196.24 127.92L196.3 127.91L196.35 127.9L196.4 127.89L196.45 127.88L196.49 127.87L196.52 127.86L196.55 127.85L196.57 127.85L196.58 127.84L196.59 127.84L196.62 127.78L196.71 127.62L196.87 127.35L197.07 126.98L197.33 126.51L197.64 125.96L198 125.33L198.4 124.62L198.84 123.84L199.31 123L199.82 122.09L200.37 121.13L200.93 120.13L201.53 119.08L202.14 117.99L202.77 116.87L203.42 115.72L204.08 114.55L204.75 113.37L205.42 112.18L206.1 110.98L206.77 109.79L207.44 108.6L208.11 107.43L208.77 106.27L209.41 105.14L210.04 104.03L210.64 102.96L211.23 101.93L211.79 100.95L212.32 100.02L212.82 99.15L213.29 98.34L213.71 97.59L214.1 96.92L214.44 96.33L214.74 95.83L214.98 95.41L215.17 95.09L215.31 94.88L215.42 94.71L215.53 94.53L215.66 94.34L215.78 94.15L215.91 93.95L216.05 93.75L216.2 93.54L216.35 93.33L216.51 93.11L216.68 92.9L216.86 92.68L217.04 92.47L217.23 92.26L217.43 92.05L217.64 91.84L217.86 91.63L218.09 91.44L218.32 91.24L218.57 91.06L218.83 90.88L219.1 90.71L219.38 90.55L219.66 90.4L219.97 90.26L220.28 90.14L220.6 90.03L220.94 89.93L221.29 89.85L221.65 89.78L222.03 89.73L222.41 89.7L222.81 89.69L223.23 89.69L223.66 89.72L224.1 89.77L224.56 89.84L225.03 89.94L225.52 90.06L226.02 90.2L226.54 90.37L227.04 90.57L227.49 90.81L227.89 91.09L228.25 91.4L228.56 91.75L228.83 92.12L229.05 92.52L229.24 92.95L229.39 93.4L229.51 93.87L229.59 94.35L229.65 94.86L229.67 95.37L229.67 95.9L229.64 96.44L229.59 96.99L229.52 97.53L229.43 98.09L229.32 98.64L229.2 99.19L229.06 99.73L228.91 100.27L228.76 100.8L228.59 101.31L228.42 101.82L228.25 102.3L228.08 102.77L227.9 103.22L227.73 103.65L227.57 104.05L227.41 104.42L227.26 104.76L227.12 105.08L226.99 105.35L226.87 105.59L226.78 105.8L226.7 105.96L226.64 106.08L226.6 106.15L226.59 106.17L226.49 106.36L226.38 106.59L226.23 106.91L226.04 107.3L225.81 107.77L225.54 108.3L225.25 108.9L224.92 109.57L224.57 110.28L224.19 111.05L223.79 111.87L223.37 112.73L222.93 113.62L222.48 114.55L222.01 115.51L221.53 116.49L221.04 117.48L220.54 118.5L220.04 119.52L219.54 120.54L219.04 121.57L218.54 122.59L218.04 123.6L217.55 124.6L217.07 125.58L216.61 126.54L216.15 127.47L215.72 128.36L215.3 129.22L214.9 130.04L214.52 130.81L214.17 131.53L213.85 132.2L213.56 132.8L213.3 133.34L213.07 133.81L212.88 134.2L212.73 134.52L212.62 134.75L212.54 134.94L212.46 135.12L212.39 135.29L212.32 135.46L212.26 135.62L212.21 135.77L212.16 135.92L212.11 136.06L212.07 136.2L212.04 136.33L212.01 136.46L211.98 136.58L211.96 136.7L211.93 136.81L211.92 136.92L211.9 137.02L211.89 137.12L211.88 137.21L211.88 137.31L211.87 137.39L211.87 137.48L211.87 137.56L211.87 137.64L211.87 137.72L211.87 137.79L211.88 137.86L211.88 137.93L211.89 138L211.89 138.07L211.89 138.13L211.9 138.2L211.9 138.26L211.9 138.32L211.91 138.38L211.91 138.44L211.9 138.5L211.9 138.56L211.9 138.62L211.89 138.68L211.88 138.73L213.39 157.54L213.31 159.44L213.19 161.27L213.02 163.04L212.82 164.75L212.58 166.4L212.31 167.98L212 169.51L211.66 170.98L211.3 172.38L210.91 173.73L210.5 175.03L210.07 176.27L209.63 177.45L209.16 178.58L208.69 179.66L208.2 180.68L207.71 181.65L207.21 182.57L206.7 183.44L206.2 184.27L205.7 185.04L205.2 185.77L204.7 186.45L204.22 187.08L203.75 187.67L203.29 188.22L202.84 188.72L202.42 189.18L202.01 189.6L201.63 189.97L201.27 190.31L200.94 190.61L200.64 190.87L200.37 191.09L200.14 191.28L199.94 191.43L199.78 191.55L199.67 191.63L199.6 191.67L199.57 191.69L218.05 294.21L216.48 293.71L214.91 293.21L213.35 292.7L211.79 292.18L210.23 291.65L208.68 291.12L207.14 290.58L205.6 290.03L204.07 289.47L202.54 288.9L201.02 288.33L199.5 287.74L197.99 287.15L196.48 286.55L194.98 285.95L193.49 285.33L192 284.71L190.51 284.08L189.03 283.44L187.56 282.8L186.09 282.15L184.63 281.49L183.17 280.82L181.72 280.14L180.27 279.46L178.83 278.77L177.4 278.07L175.97 277.37L174.55 276.66L173.13 275.94L171.72 275.21L170.32 274.48L168.92 273.73L167.53 272.99L166.14 272.23L164.76 271.47L163.39 270.7L162.02 269.92L160.66 269.14L159.31 268.35L151.62 194.38L151.61 194.38L151.59 194.37L151.55 194.35L151.5 194.33L151.43 194.3L151.34 194.26L151.24 194.22L151.13 194.17L150.99 194.11L150.85 194.05L150.69 193.98L150.51 193.9L150.31 193.82L150.11 193.73L149.88 193.64L149.64 193.54L149.39 193.43L149.12 193.32L148.83 193.2L148.53 193.07L148.21 192.94L147.88 192.81L147.53 192.66L147.17 192.51L146.79 192.36L146.4 192.2L145.99 192.03L145.57 191.85L145.13 191.68L144.67 191.49L144.2 191.3L143.72 191.1L143.22 190.9L142.7 190.69L142.17 190.48L141.62 190.26L141.06 190.03L140.48 189.8L139.89 189.57L139.28 189.33L138.66 189.07L138.05 188.8L137.43 188.5L136.82 188.19L136.2 187.85L135.59 187.51L134.98 187.14L134.37 186.76L133.77 186.37L133.17 185.97L132.57 185.55L131.98 185.13L131.4 184.7L130.82 184.26L130.25 183.81L129.69 183.36L129.14 182.9L128.6 182.44L128.06 181.98L127.54 181.52L127.03 181.06L126.53 180.6L126.05 180.14L125.57 179.68L125.11 179.23L124.67 178.79L124.24 178.35L123.82 177.92L123.42 177.5L123.04 177.09L122.68 176.7L122.34 176.31L122.01 175.94L121.7 175.58L121.42 175.24L121.15 174.91L120.91 174.61L120.68 174.32L120.48 174.05L120.31 173.81L120.14 173.56L119.96 173.3L119.77 173.01L119.57 172.7L119.36 172.38L119.13 172.04L118.89 171.68L118.63 171.3L118.37 170.91L118.08 170.5L117.78 170.08L117.47 169.64L117.14 169.18L116.79 168.72L116.43 168.24L116.05 167.75L115.65 167.25L115.24 166.73L114.8 166.21L114.35 165.68L113.88 165.13L113.39 164.58L112.88 164.02L112.35 163.46L111.79 162.88L111.22 162.3L110.63 161.72L110.01 161.13L109.37 160.53L108.71 159.94L108.02 159.33L107.31 158.73L106.58 158.12L105.82 157.52L105.04 156.91L104.24 156.3L103.4 155.69L102.54 155.08L101.66 154.48L100.75 153.87L99.84 153.29L98.98 152.76L98.16 152.26L97.37 151.8L96.62 151.38L95.91 150.99L95.23 150.64L94.59 150.31L93.97 150.02L93.39 149.75L92.84 149.51L92.31 149.29L91.81 149.1L91.34 148.92L90.89 148.76L90.47 148.61L90.06 148.48L89.68 148.36L89.32 148.25L88.97 148.15L88.64 148.06L88.33 147.96L88.03 147.88L87.75 147.79L87.48 147.69L87.21 147.6L86.96 147.5L86.72 147.39L86.48 147.27L86.25 147.14L86.02 147L85.8 146.84L85.58 146.67L85.36 146.47L85.14 146.26L84.92 146.02L84.69 145.76L84.47 145.47L84.23 145.15L83.99 144.8L83.77 144.44L83.58 144.08L83.44 143.74L83.33 143.4L83.26 143.06L83.23 142.74L83.22 142.42L83.25 142.11L83.3 141.8L83.38 141.51L83.49 141.22L83.61 140.94L83.76 140.67L83.93 140.41L84.11 140.15L84.31 139.91L84.52 139.67L84.75 139.44L84.98 139.22L85.23 139.01L85.48 138.81L85.73 138.62L85.98 138.43L86.24 138.26L86.49 138.1L86.75 137.94L86.99 137.8L87.23 137.66L87.46 137.54L87.69 137.43L87.89 137.32L88.09 137.23L88.27 137.15L88.43 137.07L88.57 137.01L88.69 136.96L88.79 136.92L88.86 136.89L88.9 136.88L88.92 136.87L88.96 136.86L89.08 136.84L89.29 136.82L89.57 136.78L89.93 136.75L90.36 136.71L90.87 136.67L91.44 136.64L92.07 136.61L92.77 136.6L93.53 136.59L94.35 136.6L95.23 136.63L96.16 136.68L97.13 136.75L98.16 136.85L99.23 136.97L100.35 137.13L101.51 137.32L102.7 137.54L103.94 137.81L105.2 138.11L106.5 138.46L107.83 138.86L109.18 139.31L110.55 139.8L111.95 140.36L113.37 140.97L114.8 141.64L116.24 142.37L117.7 143.17L119.17 144.04L120.64 144.97L122.12 145.98L123.6 147.07L125.07 148.24L126.55 149.48L128.02 150.81L129.48 152.23L130.92 153.74L130.93 153.73L130.96 153.73L130.99 153.72L131.01 153.72L131.03 153.71L131.05 153.71L131.08 153.7L131.1 153.7L131.13 153.69L131.16 153.69L131.2 153.68L131.23 153.68L131.27 153.67L131.3 153.66L131.34 153.66L131.39 153.65L131.43 153.64L131.48 153.63L131.52 153.62L131.57 153.62L131.63 153.61L131.68 153.6L131.74 153.59L131.79 153.58L131.85 153.57L131.91 153.56L131.98 153.56L132.04 153.55L132.11 153.54L132.17 153.53L132.24 153.52L132.32 153.51L132.39 153.5L132.47 153.49L132.54 153.48L132.81 152.7L132.79 152.7L132.78 152.7L132.76 152.7L132.73 152.7L132.71 152.71L132.68 152.71L132.65 152.71L132.64 152.71L132.63 152.71L132.6 152.71L132.58 152.71L132.57 152.71L132.55 152.72L132.54 152.72L132.52 152.72L132.5 152.72L132.48 152.72L132.45 152.72L132.44 152.72L132.47 152.72L132.49 152.71L132.51 152.71L132.53 152.71L132.55 152.71L132.57 152.71L132.6 152.7L132.63 152.7L132.65 152.7L132.68 152.7L132.69 152.7L132.73 152.69L132.76 152.69L132.8 152.69L132.82 152.69L133.97 149.34L133.97 149.3L133.98 149.26L133.98 149.18L133.99 149.1L134 149.04L134 149.01L134 148.93L134.01 148.9L134.01 148.86L134.01 148.82L134.02 148.73L134.02 148.69L134.03 148.59L134.04 148.54L134.04 148.49L134.04 148.44L134.05 148.39L134.05 148.33L134.06 148.28L134.06 148.22L134.07 148.16L134.07 148.1L134.07 148.04L134.08 147.98L134.57 147.97L135.12 147.97L135.72 147.98L136.38 147.99L137.09 148.02L137.84 148.05L138.64 148.09L139.47 148.15L140.35 148.23L141.27 148.32L142.21 148.43L143.19 148.56L144.2 148.71L145.23 148.88L146.28 149.07L147.35 149.3L148.44 149.54L149.55 149.82L150.66 150.12L151.79 150.46L152.92 150.83L154.05 151.23L155.19 151.67L156.32 152.15L157.45 152.66L158.57 153.21L159.68 153.81L160.78 154.44L161.86 155.12L162.92 155.85L163.96 156.62L164.98 157.44L165.97 158.31L166.94 159.24L167.87 160.21L168.76 161.24L169.62 162.32L170.44 163.47L171.21 164.67L171.94 165.93L171.99 165.99L172.03 166.05L172.07 166.11L172.12 166.17L172.16 166.23L172.21 166.29L172.25 166.36L172.3 166.42L172.34 166.48L172.39 166.54L172.43 166.6L172.47 166.67L172.52 166.73L172.56 166.79L172.61 166.85L172.65 166.92L172.7 166.98L172.74 167.04L172.79 167.1L172.83 167.17L172.87 167.23L172.92 167.29L172.96 167.36L173.01 167.42L173.05 167.48L173.1 167.55L173.14 167.61L173.18 167.68L173.23 167.74L173.27 167.81L173.32 167.87L173.36 167.93L173.4 168L173.45 168.07L173.49 168.13L173.54 168.2L173.58 168.26L173.62 168.33L173.67 168.39L173.71 168.46L173.71 168.42L173.69 168.29L173.67 168.08L173.62 167.79L173.56 167.43L173.48 167.01L173.36 166.52L173.22 165.98L173.05 165.39L172.84 164.75L172.6 164.07L172.31 163.35L171.97 162.6L171.59 161.82L171.16 161.02L170.67 160.2L170.12 159.37L169.51 158.53L168.84 157.69L168.09 156.85L167.28 156.02L166.4 155.2L165.43 154.39L164.39 153.61L163.26 152.85L162.04 152.12L160.74 151.43L159.34 150.78L157.84 150.18L156.25 149.62L154.55 149.12L152.74 148.69L150.83 148.31L148.8 148.01L146.66 147.78L144.4 147.63L142.01 147.56L139.5 147.59L136.86 147.7L134.09 147.92L134.1 147.72L134.12 147.51L134.13 147.29L134.15 147.06L134.16 146.82L134.18 146.57L134.2 146.32L134.21 146.06L134.23 145.79L134.24 145.52L134.26 145.24L134.27 144.95L134.29 144.67L134.3 144.37L134.32 144.08L134.33 143.78L134.34 143.48L134.36 143.18L134.37 142.87L134.38 142.57L134.39 142.26L134.39 141.96L134.4 141.66L134.41 141.36L134.41 141.06L134.41 140.76L134.41 140.47L134.41 140.18L134.41 139.9L134.41 139.62L134.4 139.34L134.4 139.07L134.39 138.81L134.37 138.56L134.36 138.31L134.34 138.07L134.33 137.84L134.31 137.62L134.28 137.4L134.26 137.2L134.22 136.94L134.18 136.68L134.13 136.42L134.08 136.16L134.02 135.91L133.97 135.65L133.9 135.4L133.84 135.15L133.77 134.91L133.71 134.66L133.63 134.42L133.56 134.19L133.49 133.96L133.41 133.73L133.34 133.51L133.26 133.29L133.19 133.08L133.11 132.87L133.03 132.67L132.96 132.48L132.89 132.29L132.81 132.11L132.74 131.94L132.67 131.77L132.6 131.61L132.54 131.46L132.47 131.32L132.41 131.19L132.36 131.06L132.3 130.95L132.26 130.84L132.21 130.74L132.17 130.66L132.13 130.58L132.1 130.52L132.07 130.46L132.05 130.42L132.04 130.39L132.02 130.37L112.52 90.73L112.52 90.71L112.5 90.68L112.47 90.62L112.43 90.54L112.38 90.43L112.32 90.31L112.26 90.17L112.19 90.01L112.12 89.83L112.05 89.63L111.98 89.42L111.91 89.2L111.84 88.96L111.77 88.71L111.71 88.45L111.66 88.17L111.61 87.89L111.57 87.6L111.54 87.3L111.53 86.99L111.52 86.68L111.54 86.37L111.56 86.04L111.61 85.72L111.67 85.39L111.75 85.07L111.85 84.74L111.98 84.41L112.12 84.09L112.3 83.77L112.5 83.45L112.73 83.14L112.98 82.83L113.27 82.53L113.59 82.24L113.94 81.95L114.33 81.68L114.75 81.41L115.21 81.16L115.71 80.92L116.22 80.7L116.72 80.51L117.2 80.35L117.68 80.22L118.14 80.12L118.59 80.04L119.03 79.98L119.46 79.95L119.87 79.94L120.28 79.95L120.67 79.98L121.05 80.02L121.41 80.09L121.76 80.17L122.1 80.26L122.43 80.36L122.75 80.47L123.05 80.6L123.34 80.73L123.62 80.87L123.88 81.02L124.13 81.17L124.37 81.32L124.59 81.48L124.8 81.64L125 81.79L125.19 81.94L125.36 82.1L125.52 82.24L125.66 82.38L125.79 82.51L125.91 82.64L126.02 82.75L126.11 82.86L126.18 82.95L126.25 83.03L126.29 83.09L126.33 83.14L126.35 83.16L126.36 83.17L126.4 83.24L126.51 83.43L126.69 83.75L126.94 84.18L127.25 84.71L127.62 85.35L128.05 86.09L128.53 86.91L129.05 87.82L129.62 88.81L130.23 89.86L130.88 90.98L131.57 92.16L132.28 93.39L133.02 94.67L133.78 95.99L134.56 97.34L135.36 98.72L136.16 100.11L136.98 101.53L137.8 102.95L138.62 104.37L139.44 105.79L140.25 107.2L141.05 108.59L141.84 109.96L142.61 111.3L143.36 112.6L144.08 113.86L144.77 115.08L145.44 116.23L146.06 117.33L146.65 118.36L147.2 119.32L147.69 120.2L148.14 120.99L148.53 121.7L148.87 122.3L149.14 122.8L149.35 123.19L149.53 123.5L149.71 123.77L149.89 124.01L150.07 124.22L150.25 124.39L150.44 124.54L150.63 124.65L150.81 124.74L151 124.8L151.19 124.84L151.37 124.86L151.56 124.85L151.74 124.82L151.92 124.78L152.1 124.71L152.27 124.63L152.45 124.54L152.62 124.44L152.78 124.32L152.95 124.19L153.1 124.06L153.26 123.92L153.41 123.77L153.55 123.62L153.69 123.47L153.82 123.31L153.94 123.16L154.06 123.01L154.17 122.86L154.27 122.72L154.37 122.58L154.45 122.46L154.53 122.34L154.6 122.23L154.66 122.14L154.7 122.05L154.74 121.99L154.77 121.94L154.79 121.91L154.79 121.9L147.35 74.32L147.35 74.31L147.33 74.26L147.32 74.2L147.3 74.1L147.28 73.98L147.25 73.84L147.23 73.68L147.2 73.5L147.18 73.3L147.17 73.08L147.15 72.84L147.15 72.6L147.15 72.33L147.16 72.06L147.18 71.77L147.21 71.47L147.26 71.17L147.32 70.86L147.39 70.54L147.49 70.22L147.6 69.89L147.73 69.56L147.88 69.24L148.05 68.91L148.25 68.58L148.47 68.26L148.71 67.94L148.99 67.63L149.29 67.32L149.62 67.03L149.99 66.74L150.38 66.46L150.81 66.2L151.28 65.95L151.78 65.71L152.32 65.5L152.9 65.29L153.52 65.11L154.18 64.95L154.88 64.81L155.59 64.7L156.27 64.65L156.91 64.64L157.53 64.68L158.11 64.77L158.67 64.89Z" id="a3uMOUhpgO"></path><path d="M158.67 64.89L159.2 65.05L159.69 65.25L160.17 65.48L160.61 65.74L161.03 66.03L161.42 66.34L161.79 66.68L162.14 67.04L162.47 67.41L162.77 67.81L163.05 68.21L163.31 68.63L163.55 69.05L163.78 69.48L163.98 69.91L164.17 70.34L164.34 70.78L164.49 71.2L164.63 71.62L164.76 72.04L164.87 72.44L164.96 72.82L165.05 73.19L165.13 73.54L165.19 73.87L165.24 74.17L165.29 74.45L165.33 74.7L165.35 74.92L165.38 75.1L165.39 75.25L165.4 75.36L165.41 75.42L165.41 75.45L165.46 75.74L165.51 76.1L165.59 76.6L165.69 77.22L165.81 77.95L165.94 78.8L166.09 79.74L166.26 80.79L166.44 81.92L166.63 83.13L166.84 84.42L167.06 85.78L167.28 87.19L167.52 88.66L167.76 90.17L168.01 91.72L168.26 93.3L168.52 94.9L168.78 96.52L169.04 98.15L169.3 99.78L169.56 101.4L169.82 103.01L170.08 104.61L170.33 106.17L170.58 107.7L170.82 109.19L171.05 110.63L171.28 112.01L171.49 113.33L171.69 114.58L171.89 115.75L172.07 116.84L172.23 117.83L172.38 118.72L172.51 119.51L172.63 120.18L172.72 120.74L172.8 121.16L172.87 121.5L172.95 121.8L173.03 122.08L173.12 122.32L173.22 122.53L173.32 122.71L173.43 122.87L173.55 123L173.66 123.1L173.78 123.19L173.91 123.25L174.03 123.29L174.16 123.31L174.29 123.31L174.42 123.3L174.56 123.27L174.69 123.22L174.82 123.17L174.95 123.1L175.08 123.02L175.21 122.93L175.34 122.84L175.46 122.74L175.59 122.63L175.7 122.52L175.82 122.41L175.92 122.3L176.03 122.18L176.13 122.07L176.22 121.96L176.31 121.86L176.38 121.76L176.46 121.67L176.52 121.58L176.57 121.51L176.62 121.45L176.66 121.39L176.68 121.35L176.7 121.33L176.71 121.32L176.76 121.04L176.82 120.69L176.91 120.21L177.02 119.62L177.15 118.91L177.3 118.1L177.47 117.19L177.65 116.19L177.85 115.1L178.07 113.94L178.3 112.7L178.54 111.4L178.79 110.04L179.05 108.64L179.31 107.19L179.59 105.7L179.87 104.19L180.15 102.65L180.43 101.1L180.72 99.54L181.01 97.99L181.29 96.43L181.58 94.89L181.86 93.37L182.13 91.88L182.4 90.42L182.66 89.01L182.91 87.64L183.15 86.32L183.38 85.07L183.59 83.89L183.79 82.78L183.98 81.76L184.15 80.83L184.3 79.99L184.43 79.26L184.54 78.64L184.63 78.14L184.69 77.76L184.75 77.44L184.81 77.13L184.87 76.81L184.94 76.5L185.01 76.18L185.09 75.87L185.18 75.55L185.26 75.24L185.36 74.93L185.46 74.63L185.57 74.32L185.69 74.02L185.82 73.73L185.96 73.44L186.1 73.15L186.25 72.87L186.42 72.6L186.59 72.33L186.78 72.07L186.98 71.82L187.19 71.58L187.41 71.34L187.65 71.12L187.9 70.9L188.16 70.7L188.44 70.5L188.73 70.32L189.04 70.14L189.36 69.98L189.7 69.84L190.05 69.7L190.43 69.58L190.82 69.48L191.22 69.38L191.65 69.31L192.1 69.25L192.56 69.2L193.05 69.17L193.55 69.16L194.08 69.17L194.6 69.21L195.09 69.29L195.55 69.42L195.99 69.59L196.39 69.8L196.78 70.05L197.13 70.33L197.46 70.64L197.77 70.99L198.06 71.35L198.32 71.75L198.56 72.16L198.78 72.6L198.99 73.05L199.17 73.52L199.34 74L199.49 74.48L199.62 74.98L199.74 75.48L199.84 75.98L199.93 76.48L200.01 76.98L200.08 77.47L200.13 77.96L200.18 78.43L200.21 78.9L200.24 79.34L200.26 79.77L200.28 80.18L200.29 80.57L200.29 80.93L200.29 81.27L200.28 81.57L200.28 81.84L200.27 82.08L200.26 82.28L200.26 82.44L200.25 82.55L200.24 82.63L200.24 82.65L200.23 82.72L200.2 82.94L200.16 83.29L200.09 83.77L200.01 84.37L199.91 85.09L199.8 85.91L199.67 86.83L199.54 87.85L199.39 88.94L199.23 90.12L199.06 91.37L198.88 92.68L198.69 94.04L198.5 95.46L198.31 96.92L198.1 98.41L197.9 99.93L197.69 101.46L197.48 103.02L197.27 104.57L197.06 106.13L196.86 107.67L196.65 109.21L196.45 110.71L196.26 112.19L196.06 113.63L195.88 115.02L195.7 116.37L195.53 117.65L195.38 118.87L195.23 120.01L195.09 121.07L194.97 122.04L194.86 122.92L194.76 123.7L194.68 124.36L194.62 124.91L194.57 125.34L194.54 125.63L194.53 125.85L194.53 126.05L194.53 126.24L194.54 126.42L194.56 126.59L194.59 126.74L194.62 126.88L194.67 127.01L194.71 127.13L194.76 127.24L194.82 127.34L194.88 127.43L194.95 127.51L195.02 127.58L195.09 127.65L195.16 127.71L195.24 127.75L195.32 127.8L195.4 127.83L195.48 127.86L195.56 127.88L195.64 127.9L195.72 127.92L195.8 127.93L195.88 127.93L195.96 127.93L196.03 127.93L196.1 127.93L196.17 127.92L196.24 127.92L196.3 127.91L196.35 127.9L196.4 127.89L196.45 127.88L196.49 127.87L196.52 127.86L196.55 127.85L196.57 127.85L196.58 127.84L196.59 127.84L196.62 127.78L196.71 127.62L196.87 127.35L197.07 126.98L197.33 126.51L197.64 125.96L198 125.33L198.4 124.62L198.84 123.84L199.31 123L199.82 122.09L200.37 121.13L200.93 120.13L201.53 119.08L202.14 117.99L202.77 116.87L203.42 115.72L204.08 114.55L204.75 113.37L205.42 112.18L206.1 110.98L206.77 109.79L207.44 108.6L208.11 107.43L208.77 106.27L209.41 105.14L210.04 104.03L210.64 102.96L211.23 101.93L211.79 100.95L212.32 100.02L212.82 99.15L213.29 98.34L213.71 97.59L214.1 96.92L214.44 96.33L214.74 95.83L214.98 95.41L215.17 95.09L215.31 94.88L215.42 94.71L215.53 94.53L215.66 94.34L215.78 94.15L215.91 93.95L216.05 93.75L216.2 93.54L216.35 93.33L216.51 93.11L216.68 92.9L216.86 92.68L217.04 92.47L217.23 92.26L217.43 92.05L217.64 91.84L217.86 91.63L218.09 91.44L218.32 91.24L218.57 91.06L218.83 90.88L219.1 90.71L219.38 90.55L219.66 90.4L219.97 90.26L220.28 90.14L220.6 90.03L220.94 89.93L221.29 89.85L221.65 89.78L222.03 89.73L222.41 89.7L222.81 89.69L223.23 89.69L223.66 89.72L224.1 89.77L224.56 89.84L225.03 89.94L225.52 90.06L226.02 90.2L226.54 90.37L227.04 90.57L227.49 90.81L227.89 91.09L228.25 91.4L228.56 91.75L228.83 92.12L229.05 92.52L229.24 92.95L229.39 93.4L229.51 93.87L229.59 94.35L229.65 94.86L229.67 95.37L229.67 95.9L229.64 96.44L229.59 96.99L229.52 97.53L229.43 98.09L229.32 98.64L229.2 99.19L229.06 99.73L228.91 100.27L228.76 100.8L228.59 101.31L228.42 101.82L228.25 102.3L228.08 102.77L227.9 103.22L227.73 103.65L227.57 104.05L227.41 104.42L227.26 104.76L227.12 105.08L226.99 105.35L226.87 105.59L226.78 105.8L226.7 105.96L226.64 106.08L226.6 106.15L226.59 106.17L226.49 106.36L226.38 106.59L226.23 106.91L226.04 107.3L225.81 107.77L225.54 108.3L225.25 108.9L224.92 109.57L224.57 110.28L224.19 111.05L223.79 111.87L223.37 112.73L222.93 113.62L222.48 114.55L222.01 115.51L221.53 116.49L221.04 117.48L220.54 118.5L220.04 119.52L219.54 120.54L219.04 121.57L218.54 122.59L218.04 123.6L217.55 124.6L217.07 125.58L216.61 126.54L216.15 127.47L215.72 128.36L215.3 129.22L214.9 130.04L214.52 130.81L214.17 131.53L213.85 132.2L213.56 132.8L213.3 133.34L213.07 133.81L212.88 134.2L212.73 134.52L212.62 134.75L212.54 134.94L212.46 135.12L212.39 135.29L212.32 135.46L212.26 135.62L212.21 135.77L212.16 135.92L212.11 136.06L212.07 136.2L212.04 136.33L212.01 136.46L211.98 136.58L211.96 136.7L211.93 136.81L211.92 136.92L211.9 137.02L211.89 137.12L211.88 137.21L211.88 137.31L211.87 137.39L211.87 137.48L211.87 137.56L211.87 137.64L211.87 137.72L211.87 137.79L211.88 137.86L211.88 137.93L211.89 138L211.89 138.07L211.89 138.13L211.9 138.2L211.9 138.26L211.9 138.32L211.91 138.38L211.91 138.44L211.9 138.5L211.9 138.56L211.9 138.62L211.89 138.68L211.88 138.73L213.39 157.54L213.31 159.44L213.19 161.27L213.02 163.04L212.82 164.75L212.58 166.4L212.31 167.98L212 169.51L211.66 170.98L211.3 172.38L210.91 173.73L210.5 175.03L210.07 176.27L209.63 177.45L209.16 178.58L208.69 179.66L208.2 180.68L207.71 181.65L207.21 182.57L206.7 183.44L206.2 184.27L205.7 185.04L205.2 185.77L204.7 186.45L204.22 187.08L203.75 187.67L203.29 188.22L202.84 188.72L202.42 189.18L202.01 189.6L201.63 189.97L201.27 190.31L200.94 190.61L200.64 190.87L200.37 191.09L200.14 191.28L199.94 191.43L199.78 191.55L199.67 191.63L199.6 191.67L199.57 191.69L218.05 294.21L216.48 293.71L214.91 293.21L213.35 292.7L211.79 292.18L210.23 291.65L208.68 291.12L207.14 290.58L205.6 290.03L204.07 289.47L202.54 288.9L201.02 288.33L199.5 287.74L197.99 287.15L196.48 286.55L194.98 285.95L193.49 285.33L192 284.71L190.51 284.08L189.03 283.44L187.56 282.8L186.09 282.15L184.63 281.49L183.17 280.82L181.72 280.14L180.27 279.46L178.83 278.77L177.4 278.07L175.97 277.37L174.55 276.66L173.13 275.94L171.72 275.21L170.32 274.48L168.92 273.73L167.53 272.99L166.14 272.23L164.76 271.47L163.39 270.7L162.02 269.92L160.66 269.14L159.31 268.35L151.62 194.38L151.61 194.38L151.59 194.37L151.55 194.35L151.5 194.33L151.43 194.3L151.34 194.26L151.24 194.22L151.13 194.17L150.99 194.11L150.85 194.05L150.69 193.98L150.51 193.9L150.31 193.82L150.11 193.73L149.88 193.64L149.64 193.54L149.39 193.43L149.12 193.32L148.83 193.2L148.53 193.07L148.21 192.94L147.88 192.81L147.53 192.66L147.17 192.51L146.79 192.36L146.4 192.2L145.99 192.03L145.57 191.85L145.13 191.68L144.67 191.49L144.2 191.3L143.72 191.1L143.22 190.9L142.7 190.69L142.17 190.48L141.62 190.26L141.06 190.03L140.48 189.8L139.89 189.57L139.28 189.33L138.66 189.07L138.05 188.8L137.43 188.5L136.82 188.19L136.2 187.85L135.59 187.51L134.98 187.14L134.37 186.76L133.77 186.37L133.17 185.97L132.57 185.55L131.98 185.13L131.4 184.7L130.82 184.26L130.25 183.81L129.69 183.36L129.14 182.9L128.6 182.44L128.06 181.98L127.54 181.52L127.03 181.06L126.53 180.6L126.05 180.14L125.57 179.68L125.11 179.23L124.67 178.79L124.24 178.35L123.82 177.92L123.42 177.5L123.04 177.09L122.68 176.7L122.34 176.31L122.01 175.94L121.7 175.58L121.42 175.24L121.15 174.91L120.91 174.61L120.68 174.32L120.48 174.05L120.31 173.81L120.14 173.56L119.96 173.3L119.77 173.01L119.57 172.7L119.36 172.38L119.13 172.04L118.89 171.68L118.63 171.3L118.37 170.91L118.08 170.5L117.78 170.08L117.47 169.64L117.14 169.18L116.79 168.72L116.43 168.24L116.05 167.75L115.65 167.25L115.24 166.73L114.8 166.21L114.35 165.68L113.88 165.13L113.39 164.58L112.88 164.02L112.35 163.46L111.79 162.88L111.22 162.3L110.63 161.72L110.01 161.13L109.37 160.53L108.71 159.94L108.02 159.33L107.31 158.73L106.58 158.12L105.82 157.52L105.04 156.91L104.24 156.3L103.4 155.69L102.54 155.08L101.66 154.48L100.75 153.87L99.84 153.29L98.98 152.76L98.16 152.26L97.37 151.8L96.62 151.38L95.91 150.99L95.23 150.64L94.59 150.31L93.97 150.02L93.39 149.75L92.84 149.51L92.31 149.29L91.81 149.1L91.34 148.92L90.89 148.76L90.47 148.61L90.06 148.48L89.68 148.36L89.32 148.25L88.97 148.15L88.64 148.06L88.33 147.96L88.03 147.88L87.75 147.79L87.48 147.69L87.21 147.6L86.96 147.5L86.72 147.39L86.48 147.27L86.25 147.14L86.02 147L85.8 146.84L85.58 146.67L85.36 146.47L85.14 146.26L84.92 146.02L84.69 145.76L84.47 145.47L84.23 145.15L83.99 144.8L83.77 144.44L83.58 144.08L83.44 143.74L83.33 143.4L83.26 143.06L83.23 142.74L83.22 142.42L83.25 142.11L83.3 141.8L83.38 141.51L83.49 141.22L83.61 140.94L83.76 140.67L83.93 140.41L84.11 140.15L84.31 139.91L84.52 139.67L84.75 139.44L84.98 139.22L85.23 139.01L85.48 138.81L85.73 138.62L85.98 138.43L86.24 138.26L86.49 138.1L86.75 137.94L86.99 137.8L87.23 137.66L87.46 137.54L87.69 137.43L87.89 137.32L88.09 137.23L88.27 137.15L88.43 137.07L88.57 137.01L88.69 136.96L88.79 136.92L88.86 136.89L88.9 136.88L88.92 136.87L88.96 136.86L89.08 136.84L89.29 136.82L89.57 136.78L89.93 136.75L90.36 136.71L90.87 136.67L91.44 136.64L92.07 136.61L92.77 136.6L93.53 136.59L94.35 136.6L95.23 136.63L96.16 136.68L97.13 136.75L98.16 136.85L99.23 136.97L100.35 137.13L101.51 137.32L102.7 137.54L103.94 137.81L105.2 138.11L106.5 138.46L107.83 138.86L109.18 139.31L110.55 139.8L111.95 140.36L113.37 140.97L114.8 141.64L116.24 142.37L117.7 143.17L119.17 144.04L120.64 144.97L122.12 145.98L123.6 147.07L125.07 148.24L126.55 149.48L128.02 150.81L129.48 152.23L130.92 153.74L130.93 153.73L130.96 153.73L130.99 153.72L131.01 153.72L131.03 153.71L131.05 153.71L131.08 153.7L131.1 153.7L131.13 153.69L131.16 153.69L131.2 153.68L131.23 153.68L131.27 153.67L131.3 153.66L131.34 153.66L131.39 153.65L131.43 153.64L131.48 153.63L131.52 153.62L131.57 153.62L131.63 153.61L131.68 153.6L131.74 153.59L131.79 153.58L131.85 153.57L131.91 153.56L131.98 153.56L132.04 153.55L132.11 153.54L132.17 153.53L132.24 153.52L132.32 153.51L132.39 153.5L132.47 153.49L132.54 153.48L132.81 152.7L132.79 152.7L132.78 152.7L132.76 152.7L132.73 152.7L132.71 152.71L132.68 152.71L132.65 152.71L132.64 152.71L132.63 152.71L132.6 152.71L132.58 152.71L132.57 152.71L132.55 152.72L132.54 152.72L132.52 152.72L132.5 152.72L132.48 152.72L132.45 152.72L132.44 152.72L132.47 152.72L132.49 152.71L132.51 152.71L132.53 152.71L132.55 152.71L132.57 152.71L132.6 152.7L132.63 152.7L132.65 152.7L132.68 152.7L132.69 152.7L132.73 152.69L132.76 152.69L132.8 152.69L132.82 152.69L133.97 149.34L133.97 149.3L133.98 149.26L133.98 149.18L133.99 149.1L134 149.04L134 149.01L134 148.93L134.01 148.9L134.01 148.86L134.01 148.82L134.02 148.73L134.02 148.69L134.03 148.59L134.04 148.54L134.04 148.49L134.04 148.44L134.05 148.39L134.05 148.33L134.06 148.28L134.06 148.22L134.07 148.16L134.07 148.1L134.07 148.04L134.08 147.98L134.57 147.97L135.12 147.97L135.72 147.98L136.38 147.99L137.09 148.02L137.84 148.05L138.64 148.09L139.47 148.15L140.35 148.23L141.27 148.32L142.21 148.43L143.19 148.56L144.2 148.71L145.23 148.88L146.28 149.07L147.35 149.3L148.44 149.54L149.55 149.82L150.66 150.12L151.79 150.46L152.92 150.83L154.05 151.23L155.19 151.67L156.32 152.15L157.45 152.66L158.57 153.21L159.68 153.81L160.78 154.44L161.86 155.12L162.92 155.85L163.96 156.62L164.98 157.44L165.97 158.31L166.94 159.24L167.87 160.21L168.76 161.24L169.62 162.32L170.44 163.47L171.21 164.67L171.94 165.93L171.99 165.99L172.03 166.05L172.07 166.11L172.12 166.17L172.16 166.23L172.21 166.29L172.25 166.36L172.3 166.42L172.34 166.48L172.39 166.54L172.43 166.6L172.47 166.67L172.52 166.73L172.56 166.79L172.61 166.85L172.65 166.92L172.7 166.98L172.74 167.04L172.79 167.1L172.83 167.17L172.87 167.23L172.92 167.29L172.96 167.36L173.01 167.42L173.05 167.48L173.1 167.55L173.14 167.61L173.18 167.68L173.23 167.74L173.27 167.81L173.32 167.87L173.36 167.93L173.4 168L173.45 168.07L173.49 168.13L173.54 168.2L173.58 168.26L173.62 168.33L173.67 168.39L173.71 168.46L173.71 168.42L173.69 168.29L173.67 168.08L173.62 167.79L173.56 167.43L173.48 167.01L173.36 166.52L173.22 165.98L173.05 165.39L172.84 164.75L172.6 164.07L172.31 163.35L171.97 162.6L171.59 161.82L171.16 161.02L170.67 160.2L170.12 159.37L169.51 158.53L168.84 157.69L168.09 156.85L167.28 156.02L166.4 155.2L165.43 154.39L164.39 153.61L163.26 152.85L162.04 152.12L160.74 151.43L159.34 150.78L157.84 150.18L156.25 149.62L154.55 149.12L152.74 148.69L150.83 148.31L148.8 148.01L146.66 147.78L144.4 147.63L142.01 147.56L139.5 147.59L136.86 147.7L134.09 147.92L134.1 147.72L134.12 147.51L134.13 147.29L134.15 147.06L134.16 146.82L134.18 146.57L134.2 146.32L134.21 146.06L134.23 145.79L134.24 145.52L134.26 145.24L134.27 144.95L134.29 144.67L134.3 144.37L134.32 144.08L134.33 143.78L134.34 143.48L134.36 143.18L134.37 142.87L134.38 142.57L134.39 142.26L134.39 141.96L134.4 141.66L134.41 141.36L134.41 141.06L134.41 140.76L134.41 140.47L134.41 140.18L134.41 139.9L134.41 139.62L134.4 139.34L134.4 139.07L134.39 138.81L134.37 138.56L134.36 138.31L134.34 138.07L134.33 137.84L134.31 137.62L134.28 137.4L134.26 137.2L134.22 136.94L134.18 136.68L134.13 136.42L134.08 136.16L134.02 135.91L133.97 135.65L133.9 135.4L133.84 135.15L133.77 134.91L133.71 134.66L133.63 134.42L133.56 134.19L133.49 133.96L133.41 133.73L133.34 133.51L133.26 133.29L133.19 133.08L133.11 132.87L133.03 132.67L132.96 132.48L132.89 132.29L132.81 132.11L132.74 131.94L132.67 131.77L132.6 131.61L132.54 131.46L132.47 131.32L132.41 131.19L132.36 131.06L132.3 130.95L132.26 130.84L132.21 130.74L132.17 130.66L132.13 130.58L132.1 130.52L132.07 130.46L132.05 130.42L132.04 130.39L132.02 130.37L112.52 90.73L112.52 90.71L112.5 90.68L112.47 90.62L112.43 90.54L112.38 90.43L112.32 90.31L112.26 90.17L112.19 90.01L112.12 89.83L112.05 89.63L111.98 89.42L111.91 89.2L111.84 88.96L111.77 88.71L111.71 88.45L111.66 88.17L111.61 87.89L111.57 87.6L111.54 87.3L111.53 86.99L111.52 86.68L111.54 86.37L111.56 86.04L111.61 85.72L111.67 85.39L111.75 85.07L111.85 84.74L111.98 84.41L112.12 84.09L112.3 83.77L112.5 83.45L112.73 83.14L112.98 82.83L113.27 82.53L113.59 82.24L113.94 81.95L114.33 81.68L114.75 81.41L115.21 81.16L115.71 80.92L116.22 80.7L116.72 80.51L117.2 80.35L117.68 80.22L118.14 80.12L118.59 80.04L119.03 79.98L119.46 79.95L119.87 79.94L120.28 79.95L120.67 79.98L121.05 80.02L121.41 80.09L121.76 80.17L122.1 80.26L122.43 80.36L122.75 80.47L123.05 80.6L123.34 80.73L123.62 80.87L123.88 81.02L124.13 81.17L124.37 81.32L124.59 81.48L124.8 81.64L125 81.79L125.19 81.94L125.36 82.1L125.52 82.24L125.66 82.38L125.79 82.51L125.91 82.64L126.02 82.75L126.11 82.86L126.18 82.95L126.25 83.03L126.29 83.09L126.33 83.14L126.35 83.16L126.36 83.17L126.4 83.24L126.51 83.43L126.69 83.75L126.94 84.18L127.25 84.71L127.62 85.35L128.05 86.09L128.53 86.91L129.05 87.82L129.62 88.81L130.23 89.86L130.88 90.98L131.57 92.16L132.28 93.39L133.02 94.67L133.78 95.99L134.56 97.34L135.36 98.72L136.16 100.11L136.98 101.53L137.8 102.95L138.62 104.37L139.44 105.79L140.25 107.2L141.05 108.59L141.84 109.96L142.61 111.3L143.36 112.6L144.08 113.86L144.77 115.08L145.44 116.23L146.06 117.33L146.65 118.36L147.2 119.32L147.69 120.2L148.14 120.99L148.53 121.7L148.87 122.3L149.14 122.8L149.35 123.19L149.53 123.5L149.71 123.77L149.89 124.01L150.07 124.22L150.25 124.39L150.44 124.54L150.63 124.65L150.81 124.74L151 124.8L151.19 124.84L151.37 124.86L151.56 124.85L151.74 124.82L151.92 124.78L152.1 124.71L152.27 124.63L152.45 124.54L152.62 124.44L152.78 124.32L152.95 124.19L153.1 124.06L153.26 123.92L153.41 123.77L153.55 123.62L153.69 123.47L153.82 123.31L153.94 123.16L154.06 123.01L154.17 122.86L154.27 122.72L154.37 122.58L154.45 122.46L154.53 122.34L154.6 122.23L154.66 122.14L154.7 122.05L154.74 121.99L154.77 121.94L154.79 121.91L154.79 121.9L147.35 74.32L147.35 74.31L147.33 74.26L147.32 74.2L147.3 74.1L147.28 73.98L147.25 73.84L147.23 73.68L147.2 73.5L147.18 73.3L147.17 73.08L147.15 72.84L147.15 72.6L147.15 72.33L147.16 72.06L147.18 71.77L147.21 71.47L147.26 71.17L147.32 70.86L147.39 70.54L147.49 70.22L147.6 69.89L147.73 69.56L147.88 69.24L148.05 68.91L148.25 68.58L148.47 68.26L148.71 67.94L148.99 67.63L149.29 67.32L149.62 67.03L149.99 66.74L150.38 66.46L150.81 66.2L151.28 65.95L151.78 65.71L152.32 65.5L152.9 65.29L153.52 65.11L154.18 64.95L154.88 64.81L155.59 64.7L156.27 64.65L156.91 64.64L157.53 64.68L158.11 64.77L158.67 64.89Z" id="aNVGV31LH"></path></defs><g><g><g><use xlink:href="#a58FRQqAZr" opacity="1" fill="#4666b1" fill-opacity="0"></use><g><use xlink:href="#a58FRQqAZr" opacity="1" fill-opacity="0" stroke="#000000" stroke-width="1" stroke-opacity="0"></use></g></g><g><use xlink:href="#b4nROdMfxj" opacity="1" fill="#000000" fill-opacity="0"></use><g><use xlink:href="#b4nROdMfxj" opacity="1" fill-opacity="0" stroke="#00c7fc" stroke-width="1" stroke-opacity="1"></use></g></g><g><use xlink:href="#a3uMOUhpgO" opacity="1" fill="#000000" fill-opacity="1"></use><g><use xlink:href="#a3uMOUhpgO" opacity="1" fill-opacity="0" stroke="#000000" stroke-width="1" stroke-opacity="0"></use></g></g><g><use xlink:href="#aNVGV31LH" opacity="1" fill="#000000" fill-opacity="0"></use><g><use xlink:href="#aNVGV31LH" opacity="1" fill-opacity="0" stroke="#000000" stroke-width="1" stroke-opacity="0"></use></g></g></g></g></svg>